<?xml version="1.0" encoding="UTF-8"?>
<svg id="Layer_2" data-name="Layer 2" xmlns="http://www.w3.org/2000/svg" viewBox="0 0 128 64">
  <defs>
    <style>
      .cls-1 {
        fill: #fff;
      }

      .cls-2 {
        fill: #9ee651;
        opacity: 0;
      }

      .cls-3 {
        fill: #8dd63e;
      }

      .cls-4 {
        fill: #cbe0de;
      }

      .cls-5 {
        fill: #ffd640;
      }

      .cls-6 {
        fill: #1dbff0;
      }

      .cls-7 {
        fill: #604369;
      }

      .cls-8 {
        fill: #f25d4a;
      }
    </style>
  </defs>
  <g id="Finals">
    <g>
      <rect class="cls-2" y="0" width="32" height="64"/>
      <g>
        <g>
          <path class="cls-7" d="M20.43,62c-1.05,0-2.47-.15-3.35-1.34-.36,.03-.72,.04-1.08,.04s-.73-.01-1.08-.04c-.88,1.18-2.3,1.34-3.35,1.34-3.32,0-4.93-1.77-4.93-5.4,0-.79,.07-1.53,.21-2.22-.03-.12-.05-.25-.07-.38-.14,.02-.27,.03-.41,.03-1.11,0-1.99-.75-2.56-1.32-1.8-1.8-1.99-3.6-.56-5.36-.1-.6-.14-1.19-.14-1.81,0-7.11,5.78-12.89,12.89-12.89s12.89,5.78,12.89,12.89c0,.64-.05,1.27-.15,1.89,.71,.95,.99,1.84,.9,2.72-.1,.98-.68,1.9-1.76,2.81-.89,.75-1.66,1.09-2.43,1.09h0c-.08,0-.15,0-.22,0-.02,.12-.04,.23-.06,.35,.14,.68,.21,1.43,.21,2.22,0,3.63-1.61,5.4-4.93,5.4Z"/>
          <path class="cls-7" d="M16,33.65c6.57,0,11.89,5.32,11.89,11.89,0,.77-.08,1.48-.22,2.15,.01,.01,.02,.02,.04,.04,1.4,1.67,1.25,3-.48,4.46-.7,.59-1.27,.86-1.79,.86-.35,0-.69-.13-1.03-.36-.02,.02-.05,.03-.07,.04-.02,.59-.1,1.14-.22,1.65,.16,.68,.24,1.43,.24,2.22,0,3.08-1.18,4.4-3.93,4.4-1.57,0-2.39-.45-2.81-1.4-.52,.07-1.07,.1-1.62,.1s-1.1-.03-1.62-.1c-.42,.95-1.24,1.4-2.81,1.4-2.75,0-3.93-1.32-3.93-4.4,0-.79,.08-1.54,.24-2.22-.12-.51-.19-1.06-.22-1.65-.05-.03-.1-.07-.15-.11-.39,.27-.76,.41-1.14,.41-.56,0-1.14-.32-1.85-1.03-1.56-1.56-1.61-2.87-.2-4.36-.13-.66-.21-1.35-.21-2.11,0-6.57,5.32-11.89,11.89-11.89m0-2c-7.66,0-13.89,6.23-13.89,13.89,0,.51,.03,1.03,.09,1.54-1.46,2.06-1.16,4.29,.9,6.34,.59,.59,1.47,1.35,2.63,1.56-.07,.52-.1,1.06-.1,1.62,0,5.29,3.23,6.4,5.93,6.4,1.65,0,2.91-.44,3.78-1.31,.22,0,.44,.01,.65,.01s.44,0,.65-.01c.87,.87,2.13,1.31,3.78,1.31,2.71,0,5.93-1.11,5.93-6.4,0-.57-.04-1.12-.1-1.65,.96-.22,1.72-.79,2.26-1.23,1.29-1.08,1.98-2.21,2.11-3.47,.11-1.04-.17-2.05-.84-3.08,.07-.54,.1-1.08,.1-1.63,0-7.66-6.23-13.89-13.89-13.89h0Z"/>
        </g>
        <path class="cls-5" d="M24.37,56.6c0,3.08-1.18,4.4-3.93,4.4s-3.23-1.32-3.23-4.4,.48-5.58,3.23-5.58,3.93,2.5,3.93,5.58Z"/>
        <path class="cls-3" d="M7.63,56.6c0,3.08,1.18,4.4,3.93,4.4s3.23-1.32,3.23-4.4-.48-5.58-3.23-5.58-3.93,2.5-3.93,5.58Z"/>
        <path class="cls-1" d="M24.37,52.31c0,5.18-3.75,7.39-8.37,7.39s-8.37-2.21-8.37-7.39,3.75-9.38,8.37-9.38,8.37,4.2,8.37,9.38Z"/>
        <path class="cls-4" d="M24.77,50.02c0,5.07-3.93,7.24-8.77,7.24s-8.77-2.17-8.77-7.24,3.93-9.19,8.77-9.19,8.77,4.11,8.77,9.19Z"/>
        <path class="cls-1" d="M27.89,45.54c0,6.57-5.32,9.38-11.89,9.38s-11.89-2.81-11.89-9.38,5.32-11.89,11.89-11.89,11.89,5.32,11.89,11.89Z"/>
        <g>
          <path class="cls-7" d="M17.82,51.97c.57-1.59,2.32-2.41,3.91-2.28,.64,.08,2.05,.28,1.71,1.2-.08,.15-.22,.26-.38,.3-1.63,.34-2.92,.63-4.32,1.39-.46,.33-1.1-.02-.92-.6h0Z"/>
          <path class="cls-7" d="M13.28,52.57c-1.4-.76-2.69-1.05-4.32-1.39-.31-.07-.5-.38-.43-.69,.04-.17,.15-.3,.3-.38,1.39-.74,3.23-.51,4.43,.52,.44,.39,1.52,1.59,.62,2.04-.21,.09-.41,0-.59-.1h0Z"/>
        </g>
        <path class="cls-6" d="M27.71,47.73c1.4,1.67,1.25,3-.48,4.46s-2.63,.99-4.03-.67-2.23-3.27-.5-4.73,3.61-.72,5.01,.94Z"/>
        <path class="cls-8" d="M4.42,47.53c-1.53,1.53-1.5,2.87,.09,4.47s2.53,1.22,4.07-.31,2.5-3.06,.9-4.65-3.53-1.04-5.06,.49Z"/>
      </g>
    </g>
    <g>
      <rect class="cls-2" x="32" y="0" width="32" height="64"/>
      <g>
        <g>
          <path class="cls-7" d="M48.33,62c-2.95,0-4.82-.85-5.7-2.6-1.65-1.03-3.49-3.08-3.49-7.09,0-.28,.01-.57,.04-.88-2.57-2.62-3.35-5.93-2.25-9.61,1.61-5.43,6.69-9.22,12.35-9.22,1.24,0,2.48,.18,3.68,.54,3.3,.98,6.02,3.19,7.66,6.22,1.64,3.03,2,6.51,1.02,9.81-.97,3.27-3.05,5.51-6.03,6.52-.44,1.25-1.15,2.29-2.11,3.11-.61,2.82-2.94,3.21-5.17,3.21Z"/>
          <path class="cls-7" d="M49.28,33.59c1.12,0,2.26,.16,3.39,.5,6.3,1.87,9.88,8.49,8.01,14.79-1,3.35-3.14,5.24-5.87,6-.41,1.47-1.2,2.58-2.24,3.36-.29,1.92-1.29,2.76-4.25,2.76-2.7,0-4.27-.71-4.92-2.3-1.97-1.11-3.26-3.18-3.26-6.39,0-.43,.03-.85,.08-1.26-2.37-2.21-3.44-5.21-2.33-8.95,1.54-5.17,6.27-8.51,11.4-8.51m0-2c-6.1,0-11.57,4.09-13.31,9.94-1.14,3.85-.37,7.46,2.18,10.27,0,.17-.01,.34-.01,.51,0,3.43,1.32,6.18,3.73,7.79,1.65,2.9,5.23,2.9,6.46,2.9,2.22,0,5.18-.4,6.07-3.67,.86-.79,1.53-1.75,1.99-2.86,3.06-1.18,5.2-3.58,6.22-7.02,1.06-3.56,.67-7.31-1.1-10.58-1.77-3.26-4.7-5.64-8.26-6.7-1.29-.38-2.63-.58-3.96-.58h0Z"/>
        </g>
        <path class="cls-3" d="M43.04,56.6c0,3.08,1.59,4.4,5.29,4.4s4.35-1.32,4.35-4.4-.65-5.58-4.35-5.58-5.29,2.5-5.29,5.58Z"/>
        <path class="cls-1" d="M55.15,52.31c0,5.18-3.36,7.39-7.5,7.39s-7.5-2.21-7.5-7.39,3.36-9.38,7.5-9.38,7.5,4.2,7.5,9.38Z"/>
        <path class="cls-4" d="M40.29,49.13c0-4.35,3.74-6.2,8.35-6.2s8.35,1.86,8.35,6.2-3.74,7.87-8.35,7.87-8.35-3.52-8.35-7.87Z"/>
        <path class="cls-1" d="M60.69,48.88c-1.87,6.3-7.78,7.47-14.07,5.6s-10.6-6.08-8.73-12.38,8.49-9.88,14.79-8.01,9.88,8.49,8.01,14.79Z"/>
        <path class="cls-7" d="M56.25,52.79c-1.38-.8-2.66-1.14-4.27-1.53-.31-.08-.49-.4-.4-.71,.05-.17,.16-.3,.31-.37,1.41-.7,3.25-.41,4.41,.66,.43,.4,1.47,1.64,.55,2.06-.21,.08-.41-.02-.59-.12h0Z"/>
        <path class="cls-8" d="M52.6,47.12c-1.49-1.05-3.02-1.41-5.53,2.38-2.5,3.79-2.14,5.63-.65,6.68,1.49,1.05,3.55,.9,6.05-2.89,2.5-3.79,1.61-5.12,.12-6.17Z"/>
      </g>
    </g>
    <g>
      <rect class="cls-2" x="96" y="0" width="32" height="64" transform="translate(224 64) rotate(-180)"/>
      <g>
        <g>
          <path class="cls-7" d="M111.67,62c-2.22,0-4.55-.39-5.17-3.21-.97-.82-1.67-1.86-2.11-3.11-2.98-1.01-5.06-3.25-6.03-6.52-.98-3.3-.62-6.79,1.02-9.81,1.64-3.03,4.36-5.24,7.66-6.22,1.2-.36,2.44-.54,3.68-.54,5.66,0,10.74,3.79,12.35,9.22,1.1,3.69,.32,7-2.25,9.61,.02,.31,.04,.6,.04,.88,0,4.01-1.83,6.06-3.49,7.09-.88,1.75-2.75,2.6-5.7,2.6Z"/>
          <path class="cls-7" d="M110.72,33.59c5.13,0,9.86,3.34,11.4,8.51,1.11,3.74,.03,6.73-2.33,8.95,.04,.41,.08,.83,.08,1.26,0,3.21-1.29,5.28-3.26,6.39-.65,1.58-2.22,2.3-4.92,2.3-2.96,0-3.97-.85-4.25-2.76-1.04-.78-1.82-1.89-2.24-3.36-2.73-.76-4.87-2.65-5.87-6-1.87-6.3,1.72-12.92,8.01-14.79,1.13-.34,2.27-.5,3.39-.5m0-2h0c-1.34,0-2.67,.19-3.96,.58-3.56,1.06-6.49,3.44-8.26,6.7-1.77,3.26-2.16,7.02-1.1,10.58,1.02,3.43,3.16,5.84,6.22,7.02,.46,1.11,1.13,2.07,1.99,2.86,.88,3.27,3.85,3.67,6.07,3.67,1.23,0,4.81,0,6.46-2.9,2.41-1.62,3.73-4.36,3.73-7.79,0-.17,0-.34-.01-.51,2.55-2.81,3.33-6.42,2.18-10.27-1.74-5.85-7.21-9.94-13.31-9.94h0Z"/>
        </g>
        <path class="cls-5" d="M116.96,56.6c0,3.08-1.59,4.4-5.29,4.4s-4.35-1.32-4.35-4.4,.65-5.58,4.35-5.58,5.29,2.5,5.29,5.58Z"/>
        <path class="cls-1" d="M104.85,52.31c0,5.18,3.36,7.39,7.5,7.39s7.5-2.21,7.5-7.39-3.36-9.38-7.5-9.38-7.5,4.2-7.5,9.38Z"/>
        <path class="cls-4" d="M119.71,49.13c0-4.35-3.74-6.2-8.35-6.2s-8.35,1.86-8.35,6.2,3.74,7.87,8.35,7.87,8.35-3.52,8.35-7.87Z"/>
        <path class="cls-1" d="M99.31,48.88c1.87,6.3,7.78,7.47,14.07,5.6,6.3-1.87,10.6-6.08,8.73-12.38s-8.49-9.88-14.79-8.01-9.88,8.49-8.01,14.79Z"/>
        <path class="cls-7" d="M103.75,52.79c1.38-.8,2.66-1.14,4.27-1.53,.31-.08,.49-.4,.4-.71-.05-.17-.16-.3-.31-.37-1.41-.7-3.25-.41-4.41,.66-.43,.4-1.47,1.64-.55,2.06,.21,.08,.41-.02,.59-.12h0Z"/>
        <path class="cls-6" d="M107.4,47.12c1.49-1.05,3.02-1.41,5.53,2.38,2.5,3.79,2.14,5.63,.65,6.68-1.49,1.05-3.55,.9-6.05-2.89-2.5-3.79-1.61-5.12-.12-6.17Z"/>
      </g>
    </g>
    <g>
      <rect class="cls-2" x="64" y="0" width="32" height="64"/>
      <g>
        <g>
          <path class="cls-7" d="M84.43,62c-1.05,0-2.47-.15-3.35-1.34-.36,.03-.72,.04-1.08,.04s-.73-.01-1.08-.04c-.88,1.18-2.3,1.34-3.35,1.34-3.32,0-4.93-1.77-4.93-5.4,0-.73,.06-1.42,.18-2.06-.33-.21-.67-.48-1.01-.82-1.08-1.08-1.58-2.14-1.5-3.21-.8-1.44-1.2-3.11-1.2-4.96,0-7.11,5.78-12.89,12.89-12.89s12.89,5.78,12.89,12.89c0,1.9-.42,3.6-1.25,5.06,.09,1.18-.49,2.28-1.76,3.35-.24,.2-.47,.37-.71,.52,.13,.66,.2,1.37,.2,2.13,0,3.63-1.61,5.4-4.93,5.4Z"/>
          <path class="cls-7" d="M80,33.65c6.57,0,11.89,5.32,11.89,11.89,0,1.94-.47,3.54-1.29,4.84,.2,.97-.24,1.86-1.37,2.8-.37,.31-.69,.51-1,.66-.03,.18-.07,.36-.11,.54,.16,.68,.24,1.43,.24,2.22,0,3.08-1.18,4.4-3.93,4.4-1.57,0-2.39-.45-2.81-1.4-.52,.07-1.07,.1-1.62,.1s-1.1-.03-1.62-.1c-.42,.95-1.24,1.4-2.81,1.4-2.75,0-3.93-1.32-3.93-4.4,0-.79,.08-1.54,.24-2.22-.04-.16-.07-.32-.1-.48-.38-.15-.79-.43-1.26-.9-.96-.96-1.35-1.84-1.17-2.71-.79-1.29-1.24-2.86-1.24-4.75,0-6.57,5.32-11.89,11.89-11.89m0-2c-7.66,0-13.89,6.23-13.89,13.89,0,1.92,.4,3.66,1.2,5.2,0,1.26,.61,2.49,1.8,3.68,.21,.21,.42,.4,.63,.57-.07,.51-.1,1.05-.1,1.61,0,5.29,3.23,6.4,5.93,6.4,1.65,0,2.91-.44,3.78-1.31,.22,0,.44,.01,.65,.01s.44,0,.65-.01c.87,.87,2.13,1.31,3.78,1.31,2.71,0,5.93-1.11,5.93-6.4,0-.58-.04-1.14-.11-1.67,.09-.07,.17-.14,.26-.21,1.42-1.19,2.13-2.49,2.13-3.88,.83-1.55,1.24-3.33,1.24-5.3,0-7.66-6.23-13.89-13.89-13.89h0Z"/>
        </g>
        <path class="cls-8" d="M89.71,48.73c1.4,1.67,1.25,3-.48,4.46s-2.63,.99-4.03-.67-2.23-3.27-.5-4.73,3.61-.72,5.01,.94Z"/>
        <path class="cls-6" d="M70.42,48.53c-1.53,1.53-1.5,2.87,.09,4.47s2.53,1.22,4.07-.31,2.5-3.06,.9-4.65-3.53-1.04-5.06,.49Z"/>
        <path class="cls-3" d="M88.37,56.6c0,3.08-1.18,4.4-3.93,4.4s-3.23-1.32-3.23-4.4,.48-5.58,3.23-5.58,3.93,2.5,3.93,5.58Z"/>
        <path class="cls-5" d="M71.63,56.6c0,3.08,1.18,4.4,3.93,4.4s3.23-1.32,3.23-4.4-.48-5.58-3.23-5.58-3.93,2.5-3.93,5.58Z"/>
        <path class="cls-1" d="M88.37,52.31c0,5.18-3.75,7.39-8.37,7.39s-8.37-2.21-8.37-7.39,3.75-9.38,8.37-9.38,8.37,4.2,8.37,9.38Z"/>
        <path class="cls-4" d="M88.77,50.02c0,5.07-3.93,7.24-8.77,7.24s-8.77-2.17-8.77-7.24,3.93-9.19,8.77-9.19,8.77,4.11,8.77,9.19Z"/>
        <path class="cls-1" d="M91.89,45.54c0,6.57-5.32,9.38-11.89,9.38s-11.89-2.81-11.89-9.38,5.32-11.89,11.89-11.89,11.89,5.32,11.89,11.89Z"/>
      </g>
    </g>
  </g>
</svg>