<?xml version="1.0" encoding="UTF-8"?>
<svg id="Layer_2" data-name="Layer 2" xmlns="http://www.w3.org/2000/svg" viewBox="0 0 128 64">
  <defs>
    <style>
      .cls-1 {
        fill: #fff;
      }

      .cls-2 {
        fill: #9ee651;
        opacity: 0;
      }

      .cls-3 {
        fill: #2e55fc;
      }

      .cls-4 {
        fill: #1778ff;
      }

      .cls-5 {
        fill: #ffd640;
      }

      .cls-6 {
        fill: #1dbff0;
      }

      .cls-7 {
        fill: #604369;
      }

      .cls-8 {
        fill: #fdaf18;
      }

      .cls-9 {
        fill: #f25d4a;
      }
    </style>
  </defs>
  <g id="Finals">
    <g>
      <rect class="cls-2" y="0" width="32" height="64"/>
      <g>
        <g>
          <path class="cls-7" d="M20.43,62c-1.05,0-2.47-.15-3.35-1.34-.36,.03-.72,.04-1.08,.04s-.73-.01-1.08-.04c-.88,1.18-2.3,1.34-3.35,1.34-3.32,0-4.93-1.77-4.93-5.4,0-.79,.07-1.53,.21-2.22-.03-.12-.05-.25-.07-.38-.14,.02-.27,.03-.41,.03-1.11,0-1.99-.75-2.56-1.32-1.8-1.8-1.99-3.6-.56-5.36-.1-.6-.14-1.19-.14-1.81,0-7.11,5.78-12.89,12.89-12.89s12.89,5.78,12.89,12.89c0,.64-.05,1.27-.15,1.89,.71,.95,.99,1.84,.9,2.72-.1,.98-.68,1.9-1.76,2.81-.89,.75-1.66,1.09-2.43,1.09h0c-.08,0-.15,0-.22,0-.02,.12-.04,.23-.06,.35,.14,.68,.21,1.43,.21,2.22,0,3.63-1.61,5.4-4.93,5.4Z"/>
          <path class="cls-7" d="M16,33.65c6.57,0,11.89,5.32,11.89,11.89,0,.77-.08,1.48-.22,2.15,.01,.01,.02,.02,.04,.04,1.4,1.67,1.25,3-.48,4.46-.7,.59-1.27,.86-1.79,.86-.35,0-.69-.13-1.03-.36-.02,.02-.05,.03-.07,.04-.02,.59-.1,1.14-.22,1.65,.16,.68,.24,1.43,.24,2.22,0,3.08-1.18,4.4-3.93,4.4-1.57,0-2.39-.45-2.81-1.4-.52,.07-1.07,.1-1.62,.1s-1.1-.03-1.62-.1c-.42,.95-1.24,1.4-2.81,1.4-2.75,0-3.93-1.32-3.93-4.4,0-.79,.08-1.54,.24-2.22-.12-.51-.19-1.06-.22-1.65-.05-.03-.1-.07-.15-.11-.39,.27-.76,.41-1.14,.41-.56,0-1.14-.32-1.85-1.03-1.56-1.56-1.61-2.87-.2-4.36-.13-.66-.21-1.35-.21-2.11,0-6.57,5.32-11.89,11.89-11.89m0-2c-7.66,0-13.89,6.23-13.89,13.89,0,.51,.03,1.03,.09,1.54-1.46,2.06-1.16,4.29,.9,6.34,.59,.59,1.47,1.35,2.63,1.56-.07,.52-.1,1.06-.1,1.62,0,5.29,3.23,6.4,5.93,6.4,1.65,0,2.91-.44,3.78-1.31,.22,0,.44,.01,.65,.01s.44,0,.65-.01c.87,.87,2.13,1.31,3.78,1.31,2.71,0,5.93-1.11,5.93-6.4,0-.57-.04-1.12-.1-1.65,.96-.22,1.72-.79,2.26-1.23,1.29-1.08,1.98-2.21,2.11-3.47,.11-1.04-.17-2.05-.84-3.08,.07-.54,.1-1.08,.1-1.63,0-7.66-6.23-13.89-13.89-13.89h0Z"/>
        </g>
        <path class="cls-9" d="M24.37,56.6c0,3.08-1.18,4.4-3.93,4.4s-3.23-1.32-3.23-4.4,.48-5.58,3.23-5.58,3.93,2.5,3.93,5.58Z"/>
        <path class="cls-9" d="M7.63,56.6c0,3.08,1.18,4.4,3.93,4.4s3.23-1.32,3.23-4.4-.48-5.58-3.23-5.58-3.93,2.5-3.93,5.58Z"/>
        <path class="cls-5" d="M24.37,52.31c0,5.18-3.75,7.39-8.37,7.39s-8.37-2.21-8.37-7.39,3.75-9.38,8.37-9.38,8.37,4.2,8.37,9.38Z"/>
        <path class="cls-8" d="M24.77,50.02c0,5.07-3.93,7.24-8.77,7.24s-8.77-2.17-8.77-7.24,3.93-9.19,8.77-9.19,8.77,4.11,8.77,9.19Z"/>
        <path class="cls-1" d="M27.89,45.54c0,6.57-5.32,9.38-11.89,9.38s-11.89-2.81-11.89-9.38,5.32-11.89,11.89-11.89,11.89,5.32,11.89,11.89Z"/>
        <g>
          <path class="cls-7" d="M17.82,51.97c.57-1.59,2.32-2.41,3.91-2.28,.64,.08,2.05,.28,1.71,1.2-.08,.15-.22,.26-.38,.3-1.63,.34-2.92,.63-4.32,1.39-.46,.33-1.1-.02-.92-.6h0Z"/>
          <path class="cls-7" d="M13.28,52.57c-1.4-.76-2.69-1.05-4.32-1.39-.31-.07-.5-.38-.43-.69,.04-.17,.15-.3,.3-.38,1.39-.74,3.23-.51,4.43,.52,.44,.39,1.52,1.59,.62,2.04-.21,.09-.41,0-.59-.1h0Z"/>
        </g>
        <path class="cls-6" d="M16,33.65c-6.57,0-11.89,5.32-11.89,11.89,0,1.76,.39,3.25,1.08,4.49,.43-1.47,.95-3.36,1.42-4.27l3.21,.38c-.28,1.47-.16,2.64-.16,2.64,3.59-.16,6.15-1.2,7.96-2.43-.37,1.59,.38,3.14,.38,3.14,2.2-.93,3.41-2.23,4.07-3.38l3.31-.35c.47,.9,1,2.8,1.42,4.27,.69-1.24,1.08-2.72,1.08-4.49,0-6.57-5.32-11.89-11.89-11.89Z"/>
        <path class="cls-4" d="M16,45.28c4.3,0,8.33-.42,11.8-1.16-.7-5.9-5.71-10.48-11.8-10.48s-11.1,4.58-11.8,10.48c3.47,.73,7.5,1.16,11.81,1.16Zm0-5.46c1.66,0,3.05,1.27,3.63,3.04-1.08,.13-2.32,.2-3.63,.2h0c-1.31,0-2.54-.07-3.63-.2,.58-1.78,1.97-3.04,3.63-3.04Z"/>
        <path class="cls-5" d="M27.71,47.73c1.4,1.67,1.25,3-.48,4.46s-2.63,.99-4.03-.67-2.23-3.27-.5-4.73,3.61-.72,5.01,.94Z"/>
        <path class="cls-5" d="M4.42,47.53c-1.53,1.53-1.5,2.87,.09,4.47s2.53,1.22,4.07-.31,2.5-3.06,.9-4.65-3.53-1.04-5.06,.49Z"/>
      </g>
    </g>
    <g>
      <rect class="cls-2" x="32" y="0" width="32" height="64"/>
      <g>
        <g>
          <path class="cls-7" d="M48.33,62c-2.97,0-4.85-.86-5.72-2.63-.91-.57-1.65-1.3-2.2-2.18-.84-1.34-1.27-2.98-1.27-4.88,0-.28,.01-.56,.04-.87-.5-.51-.94-1.05-1.3-1.61-.15-.23-.27-.46-.4-.7l-.11-.2c-.11-.22-.2-.43-.29-.65-.04-.11-.08-.21-.12-.31-.07-.21-.14-.42-.2-.63-.04-.13-.07-.26-.1-.4-.04-.2-.08-.4-.11-.6-.02-.16-.04-.32-.06-.49-.02-.19-.03-.38-.04-.57,0-.19,0-.38,0-.56,0,0,0-.27,0-.34-.08,.01-.15,.02-.23,.03-.09,.01-.17,.02-.26,.02-.65,0-1.23-.37-1.51-.97-.28-.6-.19-1.3,.23-1.82,.53-.64,1.49-1.49,3.12-2.05,.07-.15,.12-.23,.16-.31,2.2-4.08,6.47-6.64,11.13-6.68h.01c.44,0,.79,.01,1.14,.04h.16c.35,.04,.69,.09,1.04,.15l.24,.04c.42,.08,.83,.18,1.24,.3,.44,.13,.89,.29,1.37,.5,.1,.04,.19,.08,.28,.13l.11,.06c.31,.14,.61,.29,.9,.46,.11,.06,.22,.13,.32,.19,.36,.22,.64,.4,.9,.6,.11,.08,.42,.31,.42,.31,.07,.05,.15,.11,.22,.17,.15,.12,.29,.26,.43,.39l.29,.27c1.38,1.33,2.47,2.99,3.15,4.8,.45,1.21,.72,2.47,.79,3.75,.09,1.52-.08,3-.5,4.42-.09,.29-.19,.56-.29,.83-1.08,2.84-3.06,4.78-5.76,5.69-.19,.54-.43,1.04-.71,1.49-.37,.58-.83,1.11-1.38,1.58-.47,2.27-2.05,3.24-5.17,3.24Z"/>
          <path class="cls-7" d="M49.22,33.6c.32,0,.65,.01,.97,.04,.05,0,.1,0,.16,.01,.32,.03,.63,.08,.95,.13,.08,.01,.15,.02,.23,.04,.38,.07,.76,.17,1.14,.28,.43,.13,.85,.29,1.26,.46,.12,.05,.24,.11,.36,.17,.28,.13,.56,.27,.83,.42,.12,.07,.24,.14,.36,.22,.26,.16,.52,.33,.77,.51,.1,.07,.2,.14,.29,.22,.1,.07,.2,.14,.29,.22,.18,.15,.34,.31,.51,.46,.05,.05,.11,.09,.16,.14,1.29,1.24,2.28,2.76,2.91,4.43h0c.41,1.1,.66,2.27,.73,3.46h0c.08,1.34-.06,2.72-.46,4.08-.08,.28-.19,.55-.29,.81-1.09,2.85-3.09,4.5-5.6,5.2-.19,.65-.44,1.24-.76,1.76-.39,.63-.89,1.14-1.45,1.57-.28,1.93-1.28,2.78-4.26,2.78-2.72,0-4.29-.72-4.94-2.33-.85-.49-1.59-1.15-2.13-2.02-.7-1.12-1.12-2.55-1.12-4.35,0-.43,.03-.84,.07-1.25-.58-.54-1.09-1.13-1.5-1.77h0s0,0,0,0c-.13-.2-.24-.41-.36-.62-.03-.06-.07-.12-.1-.18-.09-.19-.17-.38-.25-.58-.04-.09-.07-.18-.11-.28-.06-.18-.12-.37-.17-.55-.03-.12-.06-.24-.09-.36-.04-.17-.07-.35-.1-.53-.02-.14-.04-.29-.05-.44-.02-.17-.03-.34-.04-.51,0-.17,0-.35,0-.52,0-.16,0-.31,.02-.47,.02-.22,.05-.44,.08-.66,.02-.13,.03-.26,.06-.39,0-.01,0-.02,0-.03-.53,.09-1.04,.18-1.53,.25-.04,0-.07,0-.11,0-.57,0-.89-.68-.51-1.15,.58-.71,1.57-1.43,3.05-1.85,.06-.12,.12-.23,.18-.35,.05-.1,.1-.21,.16-.31,2.08-3.85,6.03-6.13,10.26-6.16,0,0,0,0,0,0,0,0,0,0,0,0,.03,0,.06,0,.09,0m0-2h-.1c-5.02,.04-9.61,2.79-11.99,7.19-1.62,.63-2.61,1.53-3.18,2.22-.68,.82-.82,1.93-.37,2.89,.37,.79,1.07,1.32,1.89,1.49,0,.19,.02,.38,.04,.56,.02,.19,.04,.37,.06,.55,.03,.22,.08,.44,.12,.66,.03,.15,.07,.3,.11,.45,.06,.23,.13,.47,.22,.69,.04,.11,.08,.21,.12,.31,.11,.28,.22,.53,.33,.76,.03,.06,.07,.13,.1,.19,.14,.26,.29,.53,.46,.81,.32,.49,.69,.98,1.11,1.44,0,.17-.01,.33-.01,.5,0,2.1,.48,3.92,1.42,5.42,.58,.93,1.35,1.71,2.28,2.34,1.64,2.93,5.25,2.94,6.49,2.94,2.23,0,5.2-.4,6.07-3.7,.52-.48,.96-1.01,1.33-1.59,.24-.38,.45-.79,.63-1.23,2.76-1.06,4.79-3.14,5.91-6.07l.02-.05c.1-.26,.21-.56,.32-.9,.45-1.53,.64-3.13,.54-4.77-.08-1.38-.37-2.75-.85-4.05-.73-1.95-1.9-3.74-3.39-5.17-.05-.04-.09-.09-.14-.13h0s-.04-.03-.04-.03l-.12-.11c-.16-.15-.31-.29-.48-.43-.09-.07-.18-.14-.27-.21l-.07-.05c-.11-.09-.22-.17-.34-.25-.29-.21-.59-.41-.9-.6l-.05-.03c-.12-.07-.24-.15-.37-.22-.29-.16-.6-.32-.98-.49l-.1-.05c-.11-.05-.21-.1-.32-.15-.52-.22-1-.39-1.47-.53-.42-.13-.86-.23-1.33-.32-.08-.02-.16-.03-.23-.04-.43-.07-.79-.12-1.14-.16-.06,0-.11,0-.16-.01-.4-.03-.78-.05-1.16-.05h0Z"/>
        </g>
        <path class="cls-9" d="M43.04,56.6c0,3.08,1.59,4.4,5.29,4.4s4.35-1.32,4.35-4.4-.65-5.58-4.35-5.58-5.29,2.5-5.29,5.58Z"/>
        <path class="cls-5" d="M54.04,56.65c.7-1.11,1.11-2.54,1.11-4.34,0-5.18-3.36-9.38-7.5-9.38s-7.5,4.2-7.5,9.38c0,1.8,.41,3.23,1.12,4.35,1.81,.71,4.02,1.05,6.4,1.05s4.57-.34,6.38-1.05Z"/>
        <path class="cls-9" d="M54.04,56.65c-1.81,.71-4,1.05-6.38,1.05s-4.59-.34-6.4-1.05c1.32,2.09,3.68,3.04,6.38,3.04,0,0,.01,0,.02,0,2.71,0,5.07-.95,6.39-3.05Z"/>
        <path class="cls-8" d="M40.29,49.13c0-4.35,3.74-6.2,8.35-6.2s8.35,1.86,8.35,6.2-3.74,7.87-8.35,7.87-8.35-3.52-8.35-7.87Z"/>
        <g>
          <path class="cls-1" d="M60.69,48.89c-1.87,6.3-7.78,7.47-14.07,5.6-6.3-1.87-10.6-6.08-8.73-12.38s8.49-9.88,14.79-8.01c6.3,1.87,9.88,8.49,8.01,14.79Z"/>
          <path class="cls-6" d="M52.68,34.1c-6.3-1.87-12.92,1.72-14.79,8.01-.84,2.82-.43,5.22,.83,7.18,2.82,.1,6.3-.97,6.3-.97,.06,.82,.7,1.92,.7,1.92,2.89-1.62,5.05-4.36,5.05-4.36,1.56,.43,3.12,.64,4.55,.73-.65,1.16-.8,2.05-.8,2.05,2.46,1.61,4.38,1.45,5.87,1.04,.1-.26,.2-.53,.29-.81,1.87-6.3-1.72-12.92-8.01-14.79Z"/>
          <path class="cls-4" d="M38.53,40.43c-1.48,.42-2.46,1.15-3.05,1.85-.41,.5-.02,1.24,.62,1.14,.48-.07,.99-.15,1.53-.25,.03,0,.06,0,.1-.02,.63-.11,1.25-.19,1.88-.26,.05,0,.1-.01,.15-.02,.61-.06,1.22-.1,1.83-.12,.05,0,.11,0,.16,0,.62-.02,1.23-.02,1.84,0,.03,0,.07,0,.1,0,.63,.02,1.26,.06,1.88,.11,8.01,.68,14.76,3.91,15.49,4.26,.11-.78,.14-1.56,.1-2.33-1.94-.88-3.65-1.38-3.65-1.38h0c.58-1.1,1.66-1.88,2.92-2.08-1.26-3.37-4.02-6.14-7.74-7.25-5.69-1.69-11.67,.97-14.15,6.33Z"/>
        </g>
        <path class="cls-7" d="M56.25,52.79c-1.38-.8-2.66-1.14-4.27-1.53-.31-.08-.49-.4-.4-.71,.05-.17,.16-.3,.31-.37,1.41-.7,3.25-.41,4.41,.66,.43,.4,1.47,1.64,.55,2.06-.21,.08-.41-.02-.59-.12h0Z"/>
        <path class="cls-5" d="M52.6,47.12c-1.49-1.05-3.02-1.41-5.53,2.38-2.5,3.79-2.14,5.63-.65,6.68,1.49,1.05,3.55,.9,6.05-2.89,2.5-3.79,1.61-5.12,.12-6.17Z"/>
      </g>
    </g>
    <g>
      <rect class="cls-2" x="64" y="0" width="32" height="64"/>
      <g>
        <g>
          <path class="cls-7" d="M84.43,62c-1.05,0-2.47-.15-3.35-1.34-.36,.03-.72,.04-1.08,.04s-.73-.01-1.08-.04c-.88,1.18-2.3,1.34-3.35,1.34-3.32,0-4.93-1.77-4.93-5.4,0-.73,.06-1.42,.18-2.06-.33-.21-.67-.48-1.01-.82-1.08-1.08-1.58-2.14-1.5-3.21-.8-1.44-1.2-3.11-1.2-4.96,0-7.11,5.78-12.89,12.89-12.89s12.89,5.78,12.89,12.89c0,1.9-.42,3.6-1.25,5.06,.09,1.18-.49,2.28-1.76,3.35-.24,.2-.47,.37-.71,.52,.13,.66,.2,1.37,.2,2.13,0,3.63-1.61,5.4-4.93,5.4Z"/>
          <path class="cls-7" d="M80,33.65c6.57,0,11.89,5.32,11.89,11.89,0,1.94-.47,3.54-1.29,4.84,.2,.97-.24,1.86-1.37,2.8-.37,.31-.69,.51-1,.66-.03,.18-.07,.36-.11,.54,.16,.68,.24,1.43,.24,2.22,0,3.08-1.18,4.4-3.93,4.4-1.57,0-2.39-.45-2.81-1.4-.52,.07-1.07,.1-1.62,.1s-1.1-.03-1.62-.1c-.42,.95-1.24,1.4-2.81,1.4-2.75,0-3.93-1.32-3.93-4.4,0-.79,.08-1.54,.24-2.22-.04-.16-.07-.32-.1-.48-.38-.15-.79-.43-1.26-.9-.96-.96-1.35-1.84-1.17-2.71-.79-1.29-1.24-2.86-1.24-4.75,0-6.57,5.32-11.89,11.89-11.89m0-2c-7.66,0-13.89,6.23-13.89,13.89,0,1.92,.4,3.66,1.2,5.2,0,1.26,.61,2.49,1.8,3.68,.21,.21,.42,.4,.63,.57-.07,.51-.1,1.05-.1,1.61,0,5.29,3.23,6.4,5.93,6.4,1.65,0,2.91-.44,3.78-1.31,.22,0,.44,.01,.65,.01s.44,0,.65-.01c.87,.87,2.13,1.31,3.78,1.31,2.71,0,5.93-1.11,5.93-6.4,0-.58-.04-1.14-.11-1.67,.09-.07,.17-.14,.26-.21,1.42-1.19,2.13-2.49,2.13-3.88,.83-1.55,1.24-3.33,1.24-5.3,0-7.66-6.23-13.89-13.89-13.89h0Z"/>
        </g>
        <path class="cls-5" d="M89.71,48.73c1.4,1.67,1.25,3-.48,4.46s-2.63,.99-4.03-.67-2.23-3.27-.5-4.73,3.61-.72,5.01,.94Z"/>
        <path class="cls-5" d="M70.42,48.53c-1.53,1.53-1.5,2.87,.09,4.47s2.53,1.22,4.07-.31,2.5-3.06,.9-4.65-3.53-1.04-5.06,.49Z"/>
        <path class="cls-9" d="M88.37,56.6c0,3.08-1.18,4.4-3.93,4.4s-3.23-1.32-3.23-4.4,.48-5.58,3.23-5.58,3.93,2.5,3.93,5.58Z"/>
        <path class="cls-9" d="M71.63,56.6c0,3.08,1.18,4.4,3.93,4.4s3.23-1.32,3.23-4.4-.48-5.58-3.23-5.58-3.93,2.5-3.93,5.58Z"/>
        <path class="cls-5" d="M88.37,52.31c0,5.18-3.75,7.39-8.37,7.39s-8.37-2.21-8.37-7.39,3.75-9.38,8.37-9.38,8.37,4.2,8.37,9.38Z"/>
        <path class="cls-8" d="M88.77,50.02c0,5.07-3.93,7.24-8.77,7.24s-8.77-2.17-8.77-7.24,3.93-9.19,8.77-9.19,8.77,4.11,8.77,9.19Z"/>
        <path class="cls-6" d="M91.89,45.54c0,6.57-5.32,9.38-11.89,9.38s-11.89-2.81-11.89-9.38,5.32-11.89,11.89-11.89,11.89,5.32,11.89,11.89Z"/>
        <path class="cls-4" d="M80,33.65c-6.23,0-11.33,4.79-11.84,10.88,.51,5.86,11.84,6.39,11.84,6.39,0,0,11.33-.53,11.84-6.39-.51-6.09-5.62-10.88-11.84-10.88Z"/>
        <path class="cls-3" d="M80,49.35c-5.17,0-9.62-1.28-11.73-4.13,.85,4.71,5.75,8.52,11.73,8.52s10.88-3.81,11.73-8.52c-2.11,2.85-6.55,4.13-11.73,4.13Z"/>
      </g>
    </g>
    <g>
      <rect class="cls-2" x="96" y="0" width="32" height="64" transform="translate(224 64) rotate(-180)"/>
      <g>
        <g>
          <path class="cls-7" d="M111.67,62c-3.13,0-4.7-.97-5.17-3.24-.55-.47-1.01-1-1.38-1.58-.28-.44-.52-.94-.71-1.49-2.69-.91-4.67-2.85-5.74-5.64-.12-.32-.22-.59-.31-.88-.42-1.42-.59-2.91-.5-4.42,.07-1.28,.34-2.54,.79-3.75,.68-1.81,1.77-3.47,3.15-4.8l.29-.27c.14-.13,.28-.26,.43-.39,.07-.06,.15-.11,.22-.17,0,0,.3-.23,.41-.3,.28-.2,.56-.39,.84-.56,.18-.11,.28-.17,.39-.23,.3-.17,.6-.32,.91-.46l.11-.05c.09-.04,.18-.09,.28-.13,.48-.2,.92-.37,1.37-.5,.41-.12,.82-.22,1.24-.3l.18-.03c.41-.07,.75-.12,1.1-.15h.12c.41-.04,.76-.05,1.12-.05,4.75,.04,9.02,2.6,11.23,6.69,.04,.08,.16,.31,.16,.31,1.63,.55,2.59,1.41,3.12,2.05,.43,.52,.52,1.22,.23,1.82-.28,.6-.86,.97-1.51,.97-.08,0-.17,0-.26-.02-.08-.01-.15-.02-.23-.03,0,.07,0,.32,0,.32,0,.21,.01,.4,0,.59,0,.19-.02,.38-.04,.57-.02,.17-.03,.33-.06,.49-.03,.2-.07,.4-.11,.6-.03,.14-.06,.27-.1,.41-.06,.21-.12,.42-.19,.62-.04,.11-.08,.21-.12,.31-.09,.23-.18,.45-.29,.66l-.08,.15c-.15,.29-.28,.52-.43,.75-.36,.56-.79,1.09-1.3,1.61,.02,.31,.04,.59,.04,.87,0,1.9-.43,3.55-1.27,4.88-.55,.88-1.29,1.61-2.2,2.18-.87,1.77-2.75,2.63-5.72,2.63Z"/>
          <path class="cls-7" d="M110.78,33.6s.06,0,.09,0c0,0,0,0,0,0,0,0,0,0,0,0,4.24,.03,8.19,2.32,10.26,6.16,.06,.1,.11,.21,.16,.31,.06,.12,.13,.23,.18,.35,1.48,.42,2.46,1.15,3.05,1.85,.39,.47,.06,1.15-.51,1.15-.04,0-.07,0-.11,0-.48-.07-.99-.15-1.53-.25,0,.01,0,.02,0,.03,.03,.13,.04,.26,.06,.39,.03,.22,.07,.44,.08,.66,.01,.16,.01,.31,.02,.47,0,.18,.01,.35,0,.52,0,.17-.02,.34-.04,.51-.01,.15-.03,.29-.05,.44-.03,.18-.06,.36-.1,.53-.03,.12-.06,.24-.09,.36-.05,.19-.11,.37-.17,.55-.03,.09-.07,.18-.11,.28-.08,.2-.16,.39-.25,.58-.03,.06-.07,.12-.1,.18-.11,.21-.23,.42-.36,.62,0,0,0,0,0,0h0c-.41,.64-.92,1.22-1.5,1.77,.04,.41,.07,.83,.07,1.25,0,1.8-.41,3.23-1.12,4.35-.55,.87-1.28,1.53-2.13,2.02-.65,1.6-2.22,2.33-4.94,2.33-2.97,0-3.97-.85-4.26-2.78-.56-.43-1.06-.94-1.45-1.57-.32-.51-.58-1.1-.76-1.76-2.51-.7-4.51-2.35-5.6-5.2-.1-.26-.2-.53-.29-.81-.4-1.36-.54-2.74-.46-4.08h0c.07-1.2,.32-2.36,.73-3.46h0c.62-1.67,1.61-3.19,2.91-4.43,.05-.05,.1-.09,.16-.14,.17-.16,.33-.32,.51-.46,.09-.08,.2-.14,.29-.22,.1-.07,.19-.15,.29-.22,.25-.18,.51-.35,.77-.51,.12-.07,.24-.15,.36-.22,.27-.15,.55-.29,.83-.42,.12-.06,.24-.12,.36-.17,.41-.17,.83-.33,1.26-.46,.38-.11,.76-.2,1.14-.28,.08-.01,.15-.02,.23-.04,.32-.06,.63-.1,.95-.13,.05,0,.1,0,.16-.01,.33-.03,.65-.04,.97-.04m0-2c-.38,0-.76,.02-1.14,.05-.07,0-.12,0-.17,.01-.36,.03-.72,.08-1.11,.15-.11,.02-.19,.03-.26,.04-.48,.09-.91,.2-1.33,.32-.47,.14-.96,.32-1.47,.53-.11,.05-.22,.1-.32,.15l-.1,.05c-.37,.17-.68,.33-.97,.49-.13,.07-.25,.15-.37,.22l-.05,.03c-.31,.19-.61,.39-.9,.6-.12,.09-.23,.17-.35,.26l-.06,.05c-.09,.07-.19,.14-.28,.21-.17,.14-.32,.28-.48,.43l-.12,.11-.04,.03s-.1,.09-.15,.14c-1.49,1.43-2.66,3.22-3.39,5.17-.49,1.3-.77,2.66-.85,4.05-.1,1.63,.09,3.24,.54,4.77,.1,.34,.21,.64,.32,.9l.02,.05c1.12,2.93,3.15,5.01,5.91,6.07,.18,.44,.39,.85,.63,1.23,.36,.58,.81,1.11,1.33,1.59,.88,3.3,3.85,3.7,6.07,3.7,1.24,0,4.85,0,6.49-2.94,.93-.63,1.69-1.41,2.28-2.34,.94-1.5,1.42-3.32,1.42-5.42,0-.16,0-.33-.01-.5,.42-.46,.8-.94,1.11-1.44,.18-.28,.32-.55,.44-.77,.05-.1,.09-.16,.12-.23,.12-.24,.22-.48,.32-.73,.06-.14,.1-.24,.13-.35,.08-.23,.15-.46,.22-.7,.04-.14,.08-.29,.11-.45,.05-.22,.09-.44,.13-.67,.03-.18,.05-.36,.06-.54,.02-.19,.03-.38,.04-.57,.82-.16,1.52-.7,1.89-1.49,.45-.96,.31-2.06-.37-2.89-.57-.69-1.56-1.59-3.18-2.22-2.38-4.39-6.97-7.15-11.99-7.19h-.1Z"/>
        </g>
        <path class="cls-9" d="M116.96,56.6c0,3.08-1.59,4.4-5.29,4.4s-4.35-1.32-4.35-4.4,.65-5.58,4.35-5.58,5.29,2.5,5.29,5.58Z"/>
        <path class="cls-5" d="M105.96,56.65c-.7-1.11-1.11-2.54-1.11-4.34,0-5.18,3.36-9.38,7.5-9.38s7.5,4.2,7.5,9.38c0,1.8-.41,3.23-1.12,4.35-1.81,.71-4.02,1.05-6.4,1.05s-4.57-.34-6.38-1.05Z"/>
        <path class="cls-9" d="M105.96,56.65c1.81,.71,4,1.05,6.38,1.05s4.59-.34,6.4-1.05c-1.32,2.09-3.68,3.04-6.38,3.04,0,0-.01,0-.02,0-2.71,0-5.07-.95-6.39-3.05Z"/>
        <path class="cls-8" d="M119.71,49.13c0-4.35-3.74-6.2-8.35-6.2s-8.35,1.86-8.35,6.2,3.74,7.87,8.35,7.87,8.35-3.52,8.35-7.87Z"/>
        <g>
          <path class="cls-1" d="M99.31,48.89c1.87,6.3,7.78,7.47,14.07,5.6s10.6-6.08,8.73-12.38-8.49-9.88-14.79-8.01c-6.3,1.87-9.88,8.49-8.01,14.79Z"/>
          <path class="cls-6" d="M107.32,34.1c6.3-1.87,12.92,1.72,14.79,8.01,.84,2.82,.43,5.22-.83,7.18-2.82,.1-6.3-.97-6.3-.97-.06,.82-.7,1.92-.7,1.92-2.89-1.62-5.05-4.36-5.05-4.36-1.56,.43-3.12,.64-4.55,.73,.65,1.16,.8,2.05,.8,2.05-2.46,1.61-4.38,1.45-5.87,1.04-.1-.26-.2-.53-.29-.81-1.87-6.3,1.72-12.92,8.01-14.79Z"/>
          <path class="cls-4" d="M121.47,40.43c1.48,.42,2.46,1.15,3.05,1.85,.41,.5,.02,1.24-.62,1.14-.48-.07-.99-.15-1.53-.25-.03,0-.06,0-.1-.02-.63-.11-1.25-.19-1.88-.26-.05,0-.1-.01-.15-.02-.61-.06-1.22-.1-1.83-.12-.05,0-.11,0-.16,0-.62-.02-1.23-.02-1.84,0-.03,0-.07,0-.1,0-.63,.02-1.26,.06-1.88,.11-8.01,.68-14.76,3.91-15.49,4.26-.11-.78-.14-1.56-.1-2.33,1.94-.88,3.65-1.38,3.65-1.38h0c-.58-1.1-1.66-1.88-2.92-2.08,1.26-3.37,4.02-6.14,7.74-7.25,5.69-1.69,11.67,.97,14.15,6.33Z"/>
        </g>
        <path class="cls-7" d="M103.75,52.79c1.38-.8,2.66-1.14,4.27-1.53,.31-.08,.49-.4,.4-.71-.05-.17-.16-.3-.31-.37-1.41-.7-3.25-.41-4.41,.66-.43,.4-1.47,1.64-.55,2.06,.21,.08,.41-.02,.59-.12h0Z"/>
        <path class="cls-5" d="M107.4,47.12c1.49-1.05,3.02-1.41,5.53,2.38,2.5,3.79,2.14,5.63,.65,6.68-1.49,1.05-3.55,.9-6.05-2.89-2.5-3.79-1.61-5.12-.12-6.17Z"/>
      </g>
    </g>
  </g>
</svg>