<?xml version="1.0" encoding="UTF-8"?>
<svg id="Layer_2" data-name="Layer 2" xmlns="http://www.w3.org/2000/svg" viewBox="0 0 256 64">
  <defs>
    <style>
      .cls-1 {
        fill: #fff;
      }

      .cls-2 {
        fill: #9ee651;
        opacity: 0;
      }

      .cls-3 {
        fill: #2e55fc;
      }

      .cls-4 {
        fill: #1778ff;
      }

      .cls-5 {
        fill: #ffd640;
      }

      .cls-6 {
        fill: #e83b3b;
      }

      .cls-7 {
        fill: #1dbff0;
      }

      .cls-8 {
        fill: #cd1d39;
      }

      .cls-9 {
        fill: #604369;
      }

      .cls-10 {
        fill: #b30039;
      }

      .cls-11 {
        fill: #fdaf18;
      }

      .cls-12 {
        fill: #f25d4a;
      }
    </style>
  </defs>
  <g id="Finals">
    <g>
      <rect class="cls-2" y="0" width="32" height="64"/>
      <g>
        <g>
          <path class="cls-9" d="M20.71,60.15c-1.67,0-2.61-1.14-3.32-2.52-.46,.05-.93,.07-1.39,.07s-.92-.02-1.39-.07c-.71,1.38-1.65,2.52-3.32,2.52-.6,0-1.27-.16-2.04-.48-1.56-.65-2.52-1.53-2.93-2.71-.4-1.13-.25-2.5,.44-4.17,.09-.22,.19-.44,.29-.65-.12-.39-.21-.79-.28-1.21-.09,.02-.19,.05-.28,.07-.69,.16-1.29,.23-1.83,.23-2.69,0-3.16-2.04-3.33-2.81-.18-.78-.31-1.79,.28-2.71,.52-.82,1.47-1.39,2.97-1.77-.97-1.52-1.47-3.34-1.47-5.41,0-7.11,5.78-12.89,12.89-12.89s12.89,5.78,12.89,12.89c0,2.05-.48,3.85-1.43,5.36,1.48,.38,2.42,.94,2.93,1.76,.58,.92,.46,1.94,.28,2.71-.17,.77-.64,2.81-3.33,2.81h0c-.54,0-1.13-.08-1.83-.23-.09-.02-.18-.04-.27-.07-.07,.44-.16,.87-.29,1.27,.1,.21,.2,.42,.29,.65,.69,1.68,.84,3.04,.44,4.17-.41,1.17-1.37,2.06-2.93,2.71-.77,.32-1.44,.48-2.04,.48Z"/>
          <path class="cls-9" d="M16,26.65c6.57,0,11.89,5.32,11.89,11.89,0,2.58-.83,4.57-2.23,6.05,.41,.05,.82,.11,1.25,.21,2.99,.68,3.11,1.93,2.78,3.35-.26,1.13-.71,2.03-2.36,2.03-.44,0-.97-.07-1.61-.21-.49-.11-.95-.25-1.38-.41-.02,1-.19,1.89-.48,2.67,.16,.3,.31,.62,.45,.95,1.18,2.85,.59,4.52-1.95,5.57-.65,.27-1.19,.4-1.66,.4-1.23,0-1.96-.9-2.73-2.6-.63,.1-1.29,.15-1.98,.15s-1.34-.05-1.98-.15c-.77,1.7-1.5,2.6-2.73,2.6-.47,0-1.01-.13-1.66-.4-2.54-1.05-3.13-2.72-1.95-5.57,.14-.33,.29-.65,.45-.95-.28-.76-.45-1.63-.48-2.61-.44,.16-.9,.3-1.38,.41-.63,.14-1.16,.21-1.61,.21-1.64,0-2.1-.9-2.36-2.03-.33-1.43-.21-2.67,2.78-3.35,.45-.1,.88-.17,1.3-.21-1.43-1.48-2.28-3.49-2.28-6.11,0-6.57,5.32-11.89,11.89-11.89m0-2c-7.66,0-13.89,6.23-13.89,13.89,0,1.79,.34,3.41,1,4.83-1.09,.44-1.85,1.03-2.35,1.81-.79,1.25-.61,2.58-.41,3.47,.54,2.38,1.99,3.59,4.31,3.59,.4,0,.83-.04,1.3-.11-.04,.1-.08,.19-.12,.29-2.02,4.89,.53,7.15,3.03,8.18,.9,.37,1.69,.55,2.43,.55,2,0,3.18-1.3,3.89-2.47,.27,.02,.55,.02,.82,.02s.55,0,.82-.02c.71,1.17,1.89,2.47,3.89,2.47,.74,0,1.53-.18,2.43-.55,2.5-1.04,5.06-3.3,3.03-8.18-.05-.12-.1-.23-.15-.35,0,0,0,0,0,0,.48,.08,.91,.12,1.32,.12,2.32,0,3.76-1.21,4.31-3.59,.2-.89,.38-2.22-.41-3.47-.49-.78-1.25-1.37-2.33-1.8,.65-1.41,.98-3.01,.98-4.78,0-7.66-6.23-13.89-13.89-13.89h0Z"/>
        </g>
        <path class="cls-12" d="M24.32,53.18c1.18,2.85,.59,4.52-1.95,5.57s-3.49,.02-4.67-2.83-1.69-5.34,.85-6.4,4.59,.8,5.77,3.65Z"/>
        <g>
          <path class="cls-5" d="M26.91,44.8c2.99,.68,3.11,1.93,2.78,3.35s-.97,2.5-3.96,1.82-5.15-2.39-4.82-3.82c.33-1.43,3.01-2.04,6-1.36Z"/>
          <path class="cls-5" d="M5.09,44.86c-2.99,.68-3.11,1.93-2.78,3.35s.97,2.5,3.96,1.82c2.99-.68,5.15-2.39,4.82-3.82s-3.01-2.04-6-1.36Z"/>
        </g>
        <path class="cls-12" d="M7.68,53.18c-1.18,2.85-.59,4.52,1.95,5.57s3.49,.02,4.67-2.83,1.69-5.34-.85-6.4-4.59,.8-5.77,3.65Z"/>
        <path class="cls-5" d="M24.37,49.31c0,5.18-3.75,7.39-8.37,7.39s-8.37-2.21-8.37-7.39,3.75-9.38,8.37-9.38,8.37,4.2,8.37,9.38Z"/>
        <path class="cls-11" d="M24.77,43.02c0,5.07-3.93,7.24-8.77,7.24s-8.77-2.17-8.77-7.24,3.93-9.19,8.77-9.19,8.77,4.11,8.77,9.19Z"/>
        <path class="cls-1" d="M27.89,38.54c0,6.57-5.32,9.38-11.89,9.38s-11.89-2.81-11.89-9.38,5.32-11.89,11.89-11.89,11.89,5.32,11.89,11.89Z"/>
        <g>
          <path class="cls-9" d="M17.82,44.08c.57-1.59,2.32-2.41,3.91-2.28,.64,.08,2.05,.28,1.71,1.2-.08,.15-.22,.26-.38,.3-1.63,.34-2.92,.63-4.32,1.39-.46,.33-1.1-.02-.92-.6h0Z"/>
          <path class="cls-9" d="M13.28,44.67c-1.4-.76-2.69-1.05-4.32-1.39-.31-.07-.5-.38-.43-.69,.04-.17,.15-.3,.3-.38,1.39-.74,3.23-.51,4.43,.52,.44,.39,1.52,1.59,.62,2.04-.21,.09-.41,0-.59-.1h0Z"/>
        </g>
        <path class="cls-7" d="M16,26.65c-6.57,0-11.89,5.32-11.89,11.89,0,1.6,.32,2.97,.89,4.13,.45-1.5,1.07-3.87,1.62-4.91l3.21,.38c-.28,1.47-.16,2.64-.16,2.64,3.59-.16,6.15-1.2,7.96-2.43-.37,1.59,.38,3.14,.38,3.14,2.2-.93,3.41-2.23,4.07-3.38l3.31-.35c.54,1.04,1.16,3.42,1.62,4.91,.57-1.17,.89-2.54,.89-4.13,0-6.57-5.32-11.89-11.89-11.89Z"/>
        <path class="cls-4" d="M16,26.65c-5.74,0-10.54,4.07-11.65,9.49,3.42,.73,7.4,1.15,11.65,1.15s8.22-.42,11.65-1.14c-1.11-5.42-5.9-9.49-11.65-9.49Zm0,8.45h0c-1.29,0-2.5-.07-3.57-.2,.57-1.75,1.94-2.99,3.57-2.99s3,1.24,3.57,2.99c-1.06,.13-2.28,.2-3.57,.2Z"/>
        <path class="cls-12" d="M16.02,54.7c-2.86,0-5.48-.48-7.45-1.51,1.39,2.43,1.55,3.51,7.45,3.51s6.03-1.09,7.42-3.52c-1.97,1.04-4.56,1.52-7.42,1.52Z"/>
      </g>
    </g>
    <g>
      <rect class="cls-2" x="64" y="0" width="32" height="64"/>
      <g>
        <g>
          <path class="cls-9" d="M84.71,60.15c-1.67,0-2.61-1.14-3.32-2.52-.46,.05-.93,.07-1.39,.07s-.92-.02-1.39-.07c-.71,1.38-1.65,2.52-3.32,2.52-.6,0-1.27-.16-2.04-.48-1.56-.65-2.52-1.53-2.93-2.71-.4-1.13-.25-2.5,.44-4.17,.09-.22,.19-.44,.29-.65-.12-.39-.21-.79-.28-1.21-.09,.02-.19,.05-.28,.07-.69,.16-1.29,.23-1.83,.23-2.69,0-3.16-2.04-3.33-2.81-.18-.78-.31-1.79,.28-2.71,.52-.82,1.47-1.39,2.97-1.77-.97-1.52-1.47-3.34-1.47-5.41,0-7.11,5.78-12.89,12.89-12.89s12.89,5.78,12.89,12.89c0,2.05-.48,3.85-1.43,5.36,1.48,.38,2.42,.94,2.93,1.76,.58,.92,.46,1.94,.28,2.71-.17,.77-.64,2.81-3.33,2.81h0c-.54,0-1.13-.08-1.83-.23-.09-.02-.18-.04-.27-.07-.07,.44-.16,.86-.29,1.27,.1,.21,.2,.43,.29,.65,.69,1.67,.84,3.04,.44,4.17-.41,1.17-1.37,2.06-2.93,2.71-.77,.32-1.44,.48-2.04,.48Z"/>
          <path class="cls-9" d="M80,26.65c6.57,0,11.89,5.32,11.89,11.89,0,2.58-.83,4.57-2.23,6.05,.41,.05,.82,.11,1.25,.21,2.99,.68,3.11,1.93,2.78,3.35-.26,1.13-.71,2.03-2.36,2.03-.44,0-.97-.07-1.61-.21-.49-.11-.95-.25-1.38-.41-.02,1-.19,1.89-.48,2.67,.16,.3,.31,.62,.45,.95,1.18,2.85,.59,4.52-1.95,5.57-.65,.27-1.19,.4-1.66,.4-1.23,0-1.96-.9-2.73-2.6-.63,.1-1.29,.15-1.98,.15s-1.34-.05-1.98-.15c-.77,1.7-1.5,2.6-2.73,2.6-.47,0-1.01-.13-1.66-.4-2.54-1.05-3.13-2.72-1.95-5.57,.14-.33,.29-.65,.45-.95-.28-.76-.45-1.63-.48-2.61-.44,.16-.9,.3-1.38,.41-.63,.14-1.16,.21-1.61,.21-1.64,0-2.1-.9-2.36-2.03-.33-1.43-.21-2.67,2.78-3.35,.45-.1,.88-.17,1.3-.21-1.43-1.48-2.28-3.49-2.28-6.11,0-6.57,5.32-11.89,11.89-11.89m0-2c-7.66,0-13.89,6.23-13.89,13.89,0,1.79,.34,3.41,1,4.83-1.09,.44-1.85,1.03-2.35,1.81-.79,1.25-.61,2.58-.41,3.47,.54,2.38,1.99,3.59,4.31,3.59,.4,0,.83-.04,1.3-.11-.04,.1-.08,.19-.12,.29-2.02,4.89,.53,7.15,3.03,8.18,.9,.37,1.69,.55,2.43,.55,2,0,3.18-1.3,3.89-2.47,.27,.02,.55,.02,.82,.02s.55,0,.82-.02c.71,1.17,1.89,2.47,3.89,2.47,.74,0,1.53-.18,2.43-.55,2.5-1.04,5.06-3.3,3.03-8.18-.05-.12-.1-.23-.15-.35,0,0,0,0,0,0,.48,.08,.91,.12,1.32,.12,2.32,0,3.76-1.21,4.31-3.59,.2-.89,.38-2.22-.41-3.47-.49-.78-1.25-1.37-2.33-1.8,.65-1.41,.98-3.01,.98-4.78,0-7.66-6.23-13.89-13.89-13.89h0Z"/>
        </g>
        <path class="cls-12" d="M88.32,53.18c1.18,2.85,.59,4.52-1.95,5.57s-3.49,.02-4.67-2.83-1.69-5.34,.85-6.4,4.59,.8,5.77,3.65Z"/>
        <path class="cls-12" d="M71.68,53.18c-1.18,2.85-.59,4.52,1.95,5.57s3.49,.02,4.67-2.83,1.69-5.34-.85-6.4-4.59,.8-5.77,3.65Z"/>
        <path class="cls-5" d="M88.37,49.31c0,5.18-3.75,7.39-8.37,7.39s-8.37-2.21-8.37-7.39,3.75-9.38,8.37-9.38,8.37,4.2,8.37,9.38Z"/>
        <path class="cls-11" d="M88.77,43.02c0,5.07-3.93,7.24-8.77,7.24s-8.77-2.17-8.77-7.24,3.93-9.19,8.77-9.19,8.77,4.11,8.77,9.19Z"/>
        <g>
          <path class="cls-5" d="M90.91,44.8c2.99,.68,3.11,1.93,2.78,3.35s-.97,2.5-3.96,1.82-3.15-2.39-2.82-3.82c.33-1.43,1.01-2.04,4-1.36Z"/>
          <path class="cls-5" d="M69.09,44.86c-2.99,.68-3.11,1.93-2.78,3.35s.97,2.5,3.96,1.82c2.99-.68,3.15-2.39,2.82-3.82s-1.01-2.04-4-1.36Z"/>
        </g>
        <path class="cls-7" d="M91.89,38.54c0,6.57-5.32,9.38-11.89,9.38s-11.89-2.81-11.89-9.38,5.32-11.89,11.89-11.89,11.89,5.32,11.89,11.89Z"/>
        <path class="cls-4" d="M80,26.65c-6.23,0-11.33,4.79-11.84,10.88,.51,5.86,11.84,6.39,11.84,6.39,0,0,11.33-.53,11.84-6.39-.51-6.09-5.62-10.88-11.84-10.88Z"/>
        <path class="cls-3" d="M80,42.35c-5.17,0-9.62-1.28-11.73-4.13,.85,4.71,5.75,8.52,11.73,8.52s10.88-3.81,11.73-8.52c-2.11,2.85-6.55,4.13-11.73,4.13Z"/>
        <path class="cls-12" d="M80.02,54.7c-2.86,0-5.48-.48-7.45-1.51,1.39,2.43,1.55,3.51,7.45,3.51s6.03-1.09,7.42-3.52c-1.97,1.04-4.56,1.52-7.42,1.52Z"/>
      </g>
    </g>
    <g>
      <rect class="cls-2" x="32" y="0" width="32" height="64"/>
      <g>
        <g>
          <path class="cls-9" d="M48.17,60.14c-1.89,0-3.3-.93-4.2-2.76-1.7-.44-3.1-1.32-4.1-2.58-.05-.03-.1-.06-.15-.09-1.46-.92-2.94-2.36-1.57-5.39h0c0-1.25,.18-2.46,.53-3.62-1.33-1.23-2.22-2.77-2.64-4.58-.07,.03-.14,.06-.2,.1-.23,.11-.47,.16-.72,.16-.56,0-1.08-.28-1.4-.76-.32-.48-.37-1.08-.14-1.62,.33-.77,1.01-1.86,2.41-2.86,1.14-6.02,6.5-10.5,12.66-10.5,7.11,0,12.89,5.78,12.89,12.89,0,4.44-2.29,7.72-6.48,9.31,.06,.49,.09,.98,.09,1.46,0,1.25-.19,2.39-.56,3.41,1.11,3.12,.91,5.23-3.22,6.75-1.23,.45-2.27,.67-3.2,.67h0Z"/>
          <path class="cls-9" d="M48.65,26.65c6.57,0,11.89,5.32,11.89,11.89,0,4.66-2.69,7.42-6.59,8.63,.13,.69,.2,1.4,.2,2.13,0,1.33-.23,2.46-.63,3.4,.02,.06,.05,.12,.07,.18,1.06,2.89,.91,4.36-2.56,5.63-1.1,.4-2.04,.61-2.86,.61-1.66,0-2.77-.86-3.5-2.62-1.7-.34-3.14-1.15-4.14-2.48-.1-.06-.19-.11-.29-.18-1.36-.86-2.29-1.89-1.09-4.34,0-.07-.01-.13-.01-.21,0-1.41,.25-2.73,.7-3.93-1.68-1.34-2.79-3.22-3.03-5.74,0,0,0,0,0,0-.48,.24-.95,.47-1.39,.67-.1,.05-.2,.07-.29,.07-.46,0-.83-.5-.62-.99,.36-.84,1.09-1.82,2.39-2.65h.01c.87-5.71,5.79-10.1,11.74-10.1m0-2c-6.5,0-12.18,4.64-13.56,10.92-1.38,1.07-2.08,2.22-2.43,3.04-.36,.84-.27,1.8,.23,2.56,.5,.76,1.34,1.21,2.23,1.21,.08,0,.16,0,.24-.01,.47,1.37,1.21,2.59,2.19,3.63-.26,1.01-.4,2.05-.41,3.11-1.14,2.71-.46,4.87,2.04,6.44,0,0,0,0,.01,0,1.04,1.25,2.44,2.16,4.09,2.67,1.35,2.38,3.36,2.91,4.89,2.91,1.05,0,2.21-.24,3.55-.73,1.55-.57,3.43-1.47,4.16-3.37,.55-1.43,.25-2.91-.23-4.32,.33-1.04,.5-2.18,.5-3.41,0-.27,0-.54-.03-.81,4.15-1.83,6.42-5.32,6.42-9.95,0-7.66-6.23-13.89-13.89-13.89h0Z"/>
        </g>
        <path class="cls-12" d="M44.54,56.23c1.06,2.89,3.01,3.58,6.48,2.31s3.63-2.74,2.56-5.63-2.54-5.02-6.01-3.74-4.1,4.17-3.04,7.07Z"/>
        <path class="cls-5" d="M53.04,53.65c.7-1.11,1.11-2.54,1.11-4.34,0-5.18-3.36-9.38-7.5-9.38s-7.5,4.2-7.5,9.38c0,1.8,.41,3.23,1.12,4.35,1.81,.71,4.02,1.05,6.4,1.05s4.57-.34,6.38-1.05Z"/>
        <path class="cls-12" d="M53.04,53.65c-1.81,.71-4,1.05-6.38,1.05s-4.59-.34-6.4-1.05c1.32,2.09,3.68,3.04,6.38,3.04,0,0,.01,0,.02,0,2.71,0,5.07-.95,6.39-3.05Z"/>
        <path class="cls-11" d="M45.75,33.84v16.43c4.64,0,8.4-2.17,8.4-7.24s-3.76-9.19-8.4-9.19Z"/>
        <path class="cls-5" d="M39.75,48.46c-2.03,3.23-1.04,4.42,.5,5.39s3.05,1.34,5.08-1.88c2.03-3.23,2.43-6.63,.88-7.6-1.54-.97-4.44,.86-6.47,4.08Z"/>
        <path class="cls-1" d="M60.54,38.54c0,6.57-5.32,9.38-11.89,9.38s-11.89-2.81-11.89-9.38,5.32-11.89,11.89-11.89,11.89,5.32,11.89,11.89Z"/>
        <path class="cls-9" d="M55.28,43.67c-1.4-.76-2.69-1.05-4.32-1.39-.31-.07-.5-.38-.43-.69,.04-.17,.15-.3,.3-.38,1.39-.74,3.23-.51,4.43,.52,.44,.39,1.52,1.59,.62,2.04-.21,.09-.41,0-.59-.1h0Z"/>
        <path class="cls-7" d="M48.65,26.65c-6.57,0-11.89,5.32-11.89,11.89,0,2.94,1.07,5.12,2.84,6.64,2.73-.7,5.76-2.72,5.76-2.72,.29,.76,1.22,1.64,1.22,1.64,2.31-2.38,3.6-5.62,3.6-5.62,1.62-.03,3.17-.28,4.57-.6-.29,1.29-.18,2.19-.18,2.19,2.82,.84,4.62,.15,5.93-.68,.02-.28,.04-.56,.04-.86,0-6.57-5.32-11.89-11.89-11.89Z"/>
        <path class="cls-4" d="M36.89,36.75c-1.3,.83-2.03,1.8-2.39,2.65-.25,.59,.33,1.19,.92,.92,.44-.21,.91-.43,1.39-.67,.03-.02,.06-.03,.09-.04,.57-.28,1.15-.54,1.73-.78,.05-.02,.09-.04,.14-.06,.57-.23,1.14-.44,1.72-.63,.05-.02,.1-.04,.15-.05,.59-.19,1.18-.37,1.77-.52,.03,0,.06-.02,.09-.03,.61-.16,1.22-.3,1.83-.43,7.88-1.63,15.26-.46,16.06-.33-.12-.78-.31-1.54-.57-2.26-2.11-.29-3.89-.28-3.89-.28h0c.24-1.22,1.05-2.28,2.21-2.83-2.17-2.88-5.61-4.74-9.49-4.74-5.93,0-10.91,4.25-11.76,10.1Z"/>
      </g>
    </g>
    <g>
      <rect class="cls-2" x="96" y="0" width="32" height="64" transform="translate(224 64) rotate(-180)"/>
      <g>
        <g>
          <path class="cls-9" d="M111.83,60.14c-.93,0-1.97-.22-3.2-.67-4.13-1.52-4.33-3.63-3.22-6.75-.37-1.02-.56-2.16-.56-3.41,0-.48,.03-.97,.09-1.46-4.19-1.59-6.48-4.87-6.48-9.31,0-7.11,5.78-12.89,12.89-12.89,6.16,0,11.52,4.48,12.66,10.5,1.41,1,2.09,2.09,2.41,2.86,.23,.53,.17,1.14-.14,1.62-.31,.48-.84,.76-1.4,.76-.25,0-.49-.05-.72-.16-.07-.03-.14-.06-.2-.1-.42,1.81-1.3,3.34-2.64,4.58,.35,1.16,.53,2.37,.53,3.61h0c1.37,3.04-.11,4.48-1.57,5.4-.05,.03-.1,.06-.15,.09-1,1.26-2.41,2.15-4.1,2.58-.91,1.83-2.32,2.76-4.2,2.76Z"/>
          <path class="cls-9" d="M111.35,26.65c5.96,0,10.88,4.39,11.74,10.1h.01c1.3,.82,2.03,1.8,2.39,2.64,.21,.49-.16,.99-.62,.99-.1,0-.2-.02-.29-.07-.44-.21-.91-.43-1.39-.67,0,0,0,0,0,0-.25,2.52-1.35,4.41-3.03,5.74,.44,1.2,.7,2.53,.7,3.93,0,.07-.01,.14-.01,.21,1.2,2.45,.27,3.49-1.09,4.34-.1,.06-.19,.12-.29,.18-.99,1.33-2.44,2.15-4.14,2.48-.73,1.77-1.84,2.62-3.5,2.62-.81,0-1.76-.21-2.86-.61-3.47-1.28-3.63-2.74-2.56-5.63,.02-.06,.05-.12,.07-.18-.4-.95-.63-2.08-.63-3.4,0-.74,.07-1.45,.2-2.13-3.9-1.21-6.59-3.97-6.59-8.63,0-6.57,5.32-11.89,11.89-11.89m0-2c-7.66,0-13.89,6.23-13.89,13.89,0,4.64,2.26,8.12,6.42,9.95-.02,.27-.03,.55-.03,.81,0,1.23,.17,2.37,.5,3.41-.48,1.41-.78,2.89-.23,4.32,.73,1.9,2.61,2.8,4.16,3.37,1.34,.49,2.5,.73,3.55,.73,1.53,0,3.53-.53,4.89-2.91,1.66-.51,3.05-1.42,4.09-2.67h.01c2.5-1.58,3.18-3.74,2.04-6.45-.02-1.06-.15-2.1-.41-3.11,.99-1.04,1.72-2.26,2.19-3.63,.08,0,.16,.01,.24,.01,.9,0,1.73-.45,2.23-1.21,.5-.76,.59-1.72,.23-2.56-.35-.83-1.05-1.98-2.43-3.04-1.38-6.28-7.06-10.92-13.56-10.92h0Z"/>
        </g>
        <path class="cls-12" d="M115.46,56.23c-1.06,2.89-3.01,3.58-6.48,2.31s-3.63-2.74-2.56-5.63c1.06-2.89,2.54-5.02,6.01-3.74s4.1,4.17,3.04,7.07Z"/>
        <path class="cls-5" d="M106.96,53.65c-.7-1.11-1.11-2.54-1.11-4.34,0-5.18,3.36-9.38,7.5-9.38s7.5,4.2,7.5,9.38c0,1.8-.41,3.23-1.12,4.35-1.81,.71-4.02,1.05-6.4,1.05s-4.57-.34-6.38-1.05Z"/>
        <path class="cls-12" d="M106.96,53.65c1.81,.71,4,1.05,6.38,1.05s4.59-.34,6.4-1.05c-1.32,2.09-3.68,3.04-6.38,3.04,0,0-.01,0-.02,0-2.71,0-5.07-.95-6.39-3.05Z"/>
        <path class="cls-11" d="M114.25,33.84v16.43c-4.64,0-8.4-2.17-8.4-7.24s3.76-9.19,8.4-9.19Z"/>
        <path class="cls-5" d="M120.25,48.46c2.03,3.23,1.04,4.42-.5,5.39s-3.05,1.34-5.08-1.88c-2.03-3.23-2.43-6.63-.88-7.6,1.54-.97,4.44,.86,6.47,4.08Z"/>
        <path class="cls-1" d="M99.46,38.54c0,6.57,5.32,9.38,11.89,9.38s11.89-2.81,11.89-9.38-5.32-11.89-11.89-11.89-11.89,5.32-11.89,11.89Z"/>
        <path class="cls-9" d="M104.72,43.67c1.4-.76,2.69-1.05,4.32-1.39,.31-.07,.5-.38,.43-.69-.04-.17-.15-.3-.3-.38-1.39-.74-3.23-.51-4.43,.52-.44,.39-1.52,1.59-.62,2.04,.21,.09,.41,0,.59-.1h0Z"/>
        <path class="cls-7" d="M111.35,26.65c6.57,0,11.89,5.32,11.89,11.89,0,2.94-1.07,5.12-2.84,6.64-2.73-.7-5.76-2.72-5.76-2.72-.29,.76-1.22,1.64-1.22,1.64-2.31-2.38-3.6-5.62-3.6-5.62-1.62-.03-3.17-.28-4.57-.6,.29,1.29,.18,2.19,.18,2.19-2.82,.84-4.62,.15-5.93-.68-.02-.28-.04-.56-.04-.86,0-6.57,5.32-11.89,11.89-11.89Z"/>
        <path class="cls-4" d="M123.11,36.75c1.3,.83,2.03,1.8,2.39,2.65,.25,.59-.33,1.19-.92,.92-.44-.21-.91-.43-1.39-.67-.03-.02-.06-.03-.09-.04-.57-.28-1.15-.54-1.73-.78-.05-.02-.09-.04-.14-.06-.57-.23-1.14-.44-1.72-.63-.05-.02-.1-.04-.15-.05-.59-.19-1.18-.37-1.77-.52-.03,0-.06-.02-.09-.03-.61-.16-1.22-.3-1.83-.43-7.88-1.63-15.26-.46-16.06-.33,.12-.78,.31-1.54,.57-2.26,2.11-.29,3.89-.28,3.89-.28h0c-.24-1.22-1.05-2.28-2.21-2.83,2.17-2.88,5.61-4.74,9.49-4.74,5.93,0,10.91,4.25,11.76,10.1Z"/>
      </g>
    </g>
    <g>
      <rect class="cls-2" x="128" y="0" width="32" height="64"/>
      <g>
        <g>
          <path class="cls-1" d="M148.71,60.15c-1.67,0-2.61-1.14-3.32-2.52-.46,.05-.93,.07-1.39,.07s-.92-.02-1.39-.07c-.71,1.38-1.65,2.52-3.32,2.52-.6,0-1.27-.16-2.04-.48-1.56-.65-2.52-1.53-2.93-2.71-.4-1.13-.25-2.5,.44-4.17,.09-.22,.19-.44,.29-.65-.12-.39-.21-.79-.28-1.21-.09,.02-.19,.05-.28,.07-.69,.16-1.29,.23-1.83,.23-2.69,0-3.16-2.04-3.33-2.81-.18-.78-.31-1.79,.28-2.71,.52-.82,1.47-1.39,2.97-1.77-.97-1.52-1.47-3.34-1.47-5.41,0-7.11,5.78-12.89,12.89-12.89s12.89,5.78,12.89,12.89c0,2.05-.48,3.85-1.43,5.36,1.48,.38,2.42,.94,2.93,1.76,.58,.92,.46,1.94,.28,2.71-.17,.77-.64,2.81-3.33,2.81h0c-.54,0-1.13-.08-1.83-.23-.09-.02-.18-.04-.27-.07-.07,.44-.16,.87-.29,1.27,.1,.21,.2,.42,.29,.65,.69,1.68,.84,3.04,.44,4.17-.41,1.17-1.37,2.06-2.93,2.71-.77,.32-1.44,.48-2.04,.48Z"/>
          <path class="cls-1" d="M144,26.65c6.57,0,11.89,5.32,11.89,11.89,0,2.58-.83,4.57-2.23,6.05,.41,.05,.82,.11,1.25,.21,2.99,.68,3.11,1.93,2.78,3.35-.26,1.13-.71,2.03-2.36,2.03-.44,0-.97-.07-1.61-.21-.49-.11-.95-.25-1.38-.41-.02,1-.19,1.89-.48,2.67,.16,.3,.31,.62,.45,.95,1.18,2.85,.59,4.52-1.95,5.57-.65,.27-1.19,.4-1.66,.4-1.23,0-1.96-.9-2.73-2.6-.63,.1-1.29,.15-1.98,.15s-1.34-.05-1.98-.15c-.77,1.7-1.5,2.6-2.73,2.6-.47,0-1.01-.13-1.66-.4-2.54-1.05-3.13-2.72-1.95-5.57,.14-.33,.29-.65,.45-.95-.28-.76-.45-1.63-.48-2.61-.44,.16-.9,.3-1.38,.41-.63,.14-1.16,.21-1.61,.21-1.64,0-2.1-.9-2.36-2.03-.33-1.43-.21-2.67,2.78-3.35,.45-.1,.88-.17,1.3-.21-1.43-1.48-2.28-3.49-2.28-6.11,0-6.57,5.32-11.89,11.89-11.89m0-2c-7.66,0-13.89,6.23-13.89,13.89,0,1.79,.34,3.41,1,4.83-1.09,.44-1.85,1.03-2.35,1.81-.79,1.25-.61,2.58-.41,3.47,.54,2.38,1.99,3.59,4.31,3.59,.4,0,.83-.04,1.3-.11-.04,.1-.08,.19-.12,.29-2.02,4.89,.53,7.15,3.03,8.18,.9,.37,1.69,.55,2.43,.55,2,0,3.18-1.3,3.89-2.47,.27,.02,.55,.02,.82,.02s.55,0,.82-.02c.71,1.17,1.89,2.47,3.89,2.47,.74,0,1.53-.18,2.43-.55,2.5-1.04,5.06-3.3,3.03-8.18-.05-.12-.1-.23-.15-.35,0,0,0,0,0,0,.48,.08,.91,.12,1.32,.12,2.32,0,3.76-1.21,4.31-3.59,.2-.89,.38-2.22-.41-3.47-.49-.78-1.25-1.37-2.33-1.8,.65-1.41,.98-3.01,.98-4.78,0-7.66-6.23-13.89-13.89-13.89h0Z"/>
        </g>
        <path class="cls-6" d="M152.32,53.18c1.18,2.85,.59,4.52-1.95,5.57s-3.49,.02-4.67-2.83-1.69-5.34,.85-6.4,4.59,.8,5.77,3.65Z"/>
        <g>
          <path class="cls-12" d="M154.91,44.8c2.99,.68,3.11,1.93,2.78,3.35s-.97,2.5-3.96,1.82-5.15-2.39-4.82-3.82c.33-1.43,3.01-2.04,6-1.36Z"/>
          <path class="cls-12" d="M133.09,44.86c-2.99,.68-3.11,1.93-2.78,3.35s.97,2.5,3.96,1.82c2.99-.68,5.15-2.39,4.82-3.82s-3.01-2.04-6-1.36Z"/>
        </g>
        <path class="cls-6" d="M135.68,53.18c-1.18,2.85-.59,4.52,1.95,5.57s3.49,.02,4.67-2.83,1.69-5.34-.85-6.4-4.59,.8-5.77,3.65Z"/>
        <path class="cls-12" d="M152.37,49.31c0,5.18-3.75,7.39-8.37,7.39s-8.37-2.21-8.37-7.39,3.75-9.38,8.37-9.38,8.37,4.2,8.37,9.38Z"/>
        <path class="cls-8" d="M152.77,43.02c0,5.07-3.93,7.24-8.77,7.24s-8.77-2.17-8.77-7.24,3.93-9.19,8.77-9.19,8.77,4.11,8.77,9.19Z"/>
        <path class="cls-12" d="M155.89,38.54c0,6.57-5.32,9.38-11.89,9.38s-11.89-2.81-11.89-9.38,5.32-11.89,11.89-11.89,11.89,5.32,11.89,11.89Z"/>
        <g>
          <path class="cls-10" d="M145.82,44.08c.57-1.59,2.32-2.41,3.91-2.28,.64,.08,2.05,.28,1.71,1.2-.08,.15-.22,.26-.38,.3-1.63,.34-2.92,.63-4.32,1.39-.46,.33-1.1-.02-.92-.6h0Z"/>
          <path class="cls-10" d="M141.28,44.67c-1.4-.76-2.69-1.05-4.32-1.39-.31-.07-.5-.38-.43-.69,.04-.17,.15-.3,.3-.38,1.39-.74,3.23-.51,4.43,.52,.44,.39,1.52,1.59,.62,2.04-.21,.09-.41,0-.59-.1h0Z"/>
        </g>
        <path class="cls-6" d="M144,26.65c-6.57,0-11.89,5.32-11.89,11.89,0,1.6,.32,2.97,.89,4.13,.45-1.5,1.07-3.87,1.62-4.91l3.21,.38c-.28,1.47-.16,2.64-.16,2.64,3.59-.16,6.15-1.2,7.96-2.43-.37,1.59,.38,3.14,.38,3.14,2.2-.93,3.41-2.23,4.07-3.38l3.31-.35c.54,1.04,1.16,3.42,1.62,4.91,.57-1.17,.89-2.54,.89-4.13,0-6.57-5.32-11.89-11.89-11.89Z"/>
        <path class="cls-8" d="M144,26.65c-5.74,0-10.54,4.07-11.65,9.49,3.42,.73,7.4,1.15,11.65,1.15s8.22-.42,11.65-1.14c-1.11-5.42-5.9-9.49-11.65-9.49Zm0,8.45h0c-1.29,0-2.5-.07-3.57-.2,.57-1.75,1.94-2.99,3.57-2.99s3,1.24,3.57,2.99c-1.06,.13-2.28,.2-3.57,.2Z"/>
        <path class="cls-6" d="M144.02,54.7c-2.86,0-5.48-.48-7.45-1.51,1.39,2.43,1.55,3.51,7.45,3.51s6.03-1.09,7.42-3.52c-1.97,1.04-4.56,1.52-7.42,1.52Z"/>
      </g>
    </g>
    <g>
      <rect class="cls-2" x="192" y="0" width="32" height="64"/>
      <g>
        <g>
          <path class="cls-1" d="M212.71,60.15c-1.67,0-2.61-1.14-3.32-2.52-.46,.05-.93,.07-1.39,.07s-.92-.02-1.39-.07c-.71,1.38-1.65,2.52-3.32,2.52-.6,0-1.27-.16-2.04-.48-1.56-.65-2.52-1.53-2.93-2.71-.4-1.13-.25-2.5,.44-4.17,.09-.22,.19-.44,.29-.65-.12-.39-.21-.79-.28-1.21-.09,.02-.19,.05-.28,.07-.69,.16-1.29,.23-1.83,.23-2.69,0-3.16-2.04-3.33-2.81-.18-.78-.31-1.79,.28-2.71,.52-.82,1.47-1.39,2.97-1.77-.97-1.52-1.47-3.34-1.47-5.41,0-7.11,5.78-12.89,12.89-12.89s12.89,5.78,12.89,12.89c0,2.05-.48,3.85-1.43,5.36,1.48,.38,2.42,.94,2.93,1.76,.58,.92,.46,1.94,.28,2.71-.17,.77-.64,2.81-3.33,2.81h0c-.54,0-1.13-.08-1.83-.23-.09-.02-.18-.04-.27-.07-.07,.44-.16,.87-.29,1.27,.1,.21,.2,.42,.29,.65,.69,1.68,.84,3.04,.44,4.17-.41,1.17-1.37,2.06-2.93,2.71-.77,.32-1.44,.48-2.04,.48Z"/>
          <path class="cls-1" d="M208,26.65c6.57,0,11.89,5.32,11.89,11.89,0,2.58-.83,4.57-2.23,6.05,.41,.05,.82,.11,1.25,.21,2.99,.68,3.11,1.93,2.78,3.35-.26,1.13-.71,2.03-2.36,2.03-.44,0-.97-.07-1.61-.21-.49-.11-.95-.25-1.38-.41-.02,1-.19,1.89-.48,2.67,.16,.3,.31,.62,.45,.95,1.18,2.85,.59,4.52-1.95,5.57-.65,.27-1.19,.4-1.66,.4-1.23,0-1.96-.9-2.73-2.6-.63,.1-1.29,.15-1.98,.15s-1.34-.05-1.98-.15c-.77,1.7-1.5,2.6-2.73,2.6-.47,0-1.01-.13-1.66-.4-2.54-1.05-3.13-2.72-1.95-5.57,.14-.33,.29-.65,.45-.95-.28-.76-.45-1.63-.48-2.61-.44,.16-.9,.3-1.38,.41-.63,.14-1.16,.21-1.61,.21-1.64,0-2.1-.9-2.36-2.03-.33-1.43-.21-2.67,2.78-3.35,.45-.1,.88-.17,1.3-.21-1.43-1.48-2.28-3.49-2.28-6.11,0-6.57,5.32-11.89,11.89-11.89m0-2c-7.66,0-13.89,6.23-13.89,13.89,0,1.79,.34,3.41,1,4.83-1.09,.44-1.85,1.03-2.35,1.81-.79,1.25-.61,2.58-.41,3.47,.54,2.38,1.99,3.59,4.31,3.59,.4,0,.83-.04,1.3-.11-.04,.1-.08,.19-.12,.29-2.02,4.89,.53,7.15,3.03,8.18,.9,.37,1.69,.55,2.43,.55,2,0,3.18-1.3,3.89-2.47,.27,.02,.55,.02,.82,.02s.55,0,.82-.02c.71,1.17,1.89,2.47,3.89,2.47,.74,0,1.53-.18,2.43-.55,2.5-1.04,5.06-3.3,3.03-8.18-.05-.12-.1-.23-.15-.35,0,0,0,0,0,0,.48,.08,.91,.12,1.32,.12,2.32,0,3.76-1.21,4.31-3.59,.2-.89,.38-2.22-.41-3.47-.49-.78-1.25-1.37-2.33-1.8,.65-1.41,.98-3.01,.98-4.78,0-7.66-6.23-13.89-13.89-13.89h0Z"/>
        </g>
        <path class="cls-6" d="M216.32,53.18c1.18,2.85,.59,4.52-1.95,5.57s-3.49,.02-4.67-2.83-1.69-5.34,.85-6.4,4.59,.8,5.77,3.65Z"/>
        <path class="cls-6" d="M199.68,53.18c-1.18,2.85-.59,4.52,1.95,5.57s3.49,.02,4.67-2.83,1.69-5.34-.85-6.4-4.59,.8-5.77,3.65Z"/>
        <path class="cls-12" d="M216.37,49.31c0,5.18-3.75,7.39-8.37,7.39s-8.37-2.21-8.37-7.39,3.75-9.38,8.37-9.38,8.37,4.2,8.37,9.38Z"/>
        <path class="cls-8" d="M216.77,43.02c0,5.07-3.93,7.24-8.77,7.24s-8.77-2.17-8.77-7.24,3.93-9.19,8.77-9.19,8.77,4.11,8.77,9.19Z"/>
        <g>
          <path class="cls-12" d="M218.91,44.8c2.99,.68,3.11,1.93,2.78,3.35s-.97,2.5-3.96,1.82-3.15-2.39-2.82-3.82c.33-1.43,1.01-2.04,4-1.36Z"/>
          <path class="cls-12" d="M197.09,44.86c-2.99,.68-3.11,1.93-2.78,3.35s.97,2.5,3.96,1.82c2.99-.68,3.15-2.39,2.82-3.82s-1.01-2.04-4-1.36Z"/>
        </g>
        <path class="cls-6" d="M219.89,38.54c0,6.57-5.32,9.38-11.89,9.38s-11.89-2.81-11.89-9.38,5.32-11.89,11.89-11.89,11.89,5.32,11.89,11.89Z"/>
        <path class="cls-8" d="M208,26.65c-6.23,0-11.33,4.79-11.84,10.88,.51,5.86,11.84,6.39,11.84,6.39,0,0,11.33-.53,11.84-6.39-.51-6.09-5.62-10.88-11.84-10.88Z"/>
        <path class="cls-10" d="M208,42.35c-5.17,0-9.62-1.28-11.73-4.13,.85,4.71,5.75,8.52,11.73,8.52s10.88-3.81,11.73-8.52c-2.11,2.85-6.55,4.13-11.73,4.13Z"/>
        <path class="cls-6" d="M208.02,54.7c-2.86,0-5.48-.48-7.45-1.51,1.39,2.43,1.55,3.51,7.45,3.51s6.03-1.09,7.42-3.52c-1.97,1.04-4.56,1.52-7.42,1.52Z"/>
      </g>
    </g>
    <g>
      <rect class="cls-2" x="160" y="0" width="32" height="64"/>
      <g>
        <g>
          <path class="cls-1" d="M176.17,60.14c-1.89,0-3.3-.93-4.2-2.76-1.7-.44-3.1-1.32-4.1-2.58-.05-.03-.1-.06-.15-.09-1.46-.92-2.94-2.36-1.57-5.39h0c0-1.25,.18-2.46,.53-3.62-1.33-1.23-2.22-2.77-2.64-4.58-.07,.03-.14,.06-.2,.1-.23,.11-.47,.16-.72,.16-.56,0-1.08-.28-1.4-.76-.32-.48-.37-1.08-.14-1.62,.33-.77,1.01-1.86,2.41-2.86,1.14-6.02,6.5-10.5,12.66-10.5,7.11,0,12.89,5.78,12.89,12.89,0,4.44-2.29,7.72-6.48,9.31,.06,.49,.09,.98,.09,1.46,0,1.25-.19,2.39-.56,3.41,1.11,3.12,.91,5.23-3.22,6.75-1.23,.45-2.27,.67-3.2,.67h0Z"/>
          <path class="cls-1" d="M176.65,26.65c6.57,0,11.89,5.32,11.89,11.89,0,4.66-2.69,7.42-6.59,8.63,.13,.69,.2,1.4,.2,2.13,0,1.33-.23,2.46-.63,3.4,.02,.06,.05,.12,.07,.18,1.06,2.89,.91,4.36-2.56,5.63-1.1,.4-2.04,.61-2.86,.61-1.66,0-2.77-.86-3.5-2.62-1.7-.34-3.14-1.15-4.14-2.48-.1-.06-.19-.11-.29-.18-1.36-.86-2.29-1.89-1.09-4.34,0-.07-.01-.13-.01-.21,0-1.41,.25-2.73,.7-3.93-1.68-1.34-2.79-3.22-3.03-5.74,0,0,0,0,0,0-.48,.24-.95,.47-1.39,.67-.1,.05-.2,.07-.29,.07-.46,0-.83-.5-.62-.99,.36-.84,1.09-1.82,2.39-2.65h.01c.87-5.71,5.79-10.1,11.74-10.1m0-2c-6.5,0-12.18,4.64-13.56,10.92-1.38,1.07-2.08,2.22-2.43,3.04-.36,.84-.27,1.8,.23,2.56,.5,.76,1.34,1.21,2.23,1.21,.08,0,.16,0,.24-.01,.47,1.37,1.21,2.59,2.19,3.63-.26,1.01-.4,2.05-.41,3.11-1.14,2.71-.46,4.87,2.04,6.44,0,0,0,0,.01,0,1.04,1.25,2.44,2.16,4.09,2.67,1.35,2.38,3.36,2.91,4.89,2.91,1.05,0,2.21-.24,3.55-.73,1.55-.57,3.43-1.47,4.16-3.37,.55-1.43,.25-2.91-.23-4.32,.33-1.04,.5-2.18,.5-3.41,0-.27,0-.54-.03-.81,4.15-1.83,6.42-5.32,6.42-9.95,0-7.66-6.23-13.89-13.89-13.89h0Z"/>
        </g>
        <path class="cls-6" d="M172.54,56.23c1.06,2.89,3.01,3.58,6.48,2.31s3.63-2.74,2.56-5.63-2.54-5.02-6.01-3.74-4.1,4.17-3.04,7.07Z"/>
        <path class="cls-12" d="M181.04,53.65c.7-1.11,1.11-2.54,1.11-4.34,0-5.18-3.36-9.38-7.5-9.38s-7.5,4.2-7.5,9.38c0,1.8,.41,3.23,1.12,4.35,1.81,.71,4.02,1.05,6.4,1.05s4.57-.34,6.38-1.05Z"/>
        <path class="cls-6" d="M181.04,53.65c-1.81,.71-4,1.05-6.38,1.05s-4.59-.34-6.4-1.05c1.32,2.09,3.68,3.04,6.38,3.04,0,0,.01,0,.02,0,2.71,0,5.07-.95,6.39-3.05Z"/>
        <path class="cls-8" d="M173.75,33.84v16.43c4.64,0,8.4-2.17,8.4-7.24s-3.76-9.19-8.4-9.19Z"/>
        <path class="cls-12" d="M167.75,48.46c-2.03,3.23-1.04,4.42,.5,5.39s3.05,1.34,5.08-1.88c2.03-3.23,2.43-6.63,.88-7.6-1.54-.97-4.44,.86-6.47,4.08Z"/>
        <path class="cls-12" d="M188.54,38.54c0,6.57-5.32,9.38-11.89,9.38s-11.89-2.81-11.89-9.38,5.32-11.89,11.89-11.89,11.89,5.32,11.89,11.89Z"/>
        <path class="cls-10" d="M183.28,43.67c-1.4-.76-2.69-1.05-4.32-1.39-.31-.07-.5-.38-.43-.69,.04-.17,.15-.3,.3-.38,1.39-.74,3.23-.51,4.43,.52,.44,.39,1.52,1.59,.62,2.04-.21,.09-.41,0-.59-.1h0Z"/>
        <path class="cls-6" d="M176.65,26.65c-6.57,0-11.89,5.32-11.89,11.89,0,2.94,1.07,5.12,2.84,6.64,2.73-.7,5.76-2.72,5.76-2.72,.29,.76,1.22,1.64,1.22,1.64,2.31-2.38,3.6-5.62,3.6-5.62,1.62-.03,3.17-.28,4.57-.6-.29,1.29-.18,2.19-.18,2.19,2.82,.84,4.62,.15,5.93-.68,.02-.28,.04-.56,.04-.86,0-6.57-5.32-11.89-11.89-11.89Z"/>
        <path class="cls-8" d="M164.89,36.75c-1.3,.83-2.03,1.8-2.39,2.65-.25,.59,.33,1.19,.92,.92,.44-.21,.91-.43,1.39-.67,.03-.02,.06-.03,.09-.04,.57-.28,1.15-.54,1.73-.78,.05-.02,.09-.04,.14-.06,.57-.23,1.14-.44,1.72-.63,.05-.02,.1-.04,.15-.05,.59-.19,1.18-.37,1.77-.52,.03,0,.06-.02,.09-.03,.61-.16,1.22-.3,1.83-.43,7.88-1.63,15.26-.46,16.06-.33-.12-.78-.31-1.54-.57-2.26-2.11-.29-3.89-.28-3.89-.28h0c.24-1.22,1.05-2.28,2.21-2.83-2.17-2.88-5.61-4.74-9.49-4.74-5.93,0-10.91,4.25-11.76,10.1Z"/>
      </g>
    </g>
    <g>
      <rect class="cls-2" x="224" y="0" width="32" height="64" transform="translate(480 64) rotate(-180)"/>
      <g>
        <g>
          <path class="cls-1" d="M239.83,60.14c-.93,0-1.97-.22-3.2-.67-4.13-1.52-4.33-3.63-3.22-6.75-.37-1.02-.56-2.16-.56-3.41,0-.48,.03-.97,.09-1.46-4.19-1.59-6.48-4.87-6.48-9.31,0-7.11,5.78-12.89,12.89-12.89,6.16,0,11.52,4.48,12.66,10.5,1.41,1,2.09,2.09,2.41,2.86,.23,.53,.17,1.14-.14,1.62-.31,.48-.84,.76-1.4,.76-.25,0-.49-.05-.72-.16-.07-.03-.14-.06-.2-.1-.42,1.81-1.3,3.34-2.64,4.58,.35,1.16,.53,2.37,.53,3.61h0c1.37,3.04-.11,4.48-1.57,5.4-.05,.03-.1,.06-.15,.09-1,1.26-2.41,2.15-4.1,2.58-.91,1.83-2.32,2.76-4.2,2.76Z"/>
          <path class="cls-1" d="M239.35,26.65c5.96,0,10.88,4.39,11.74,10.1h.01c1.3,.82,2.03,1.8,2.39,2.64,.21,.49-.16,.99-.62,.99-.1,0-.2-.02-.29-.07-.44-.21-.91-.43-1.39-.67,0,0,0,0,0,0-.25,2.52-1.35,4.41-3.03,5.74,.44,1.2,.7,2.53,.7,3.93,0,.07-.01,.14-.01,.21,1.2,2.45,.27,3.49-1.09,4.34-.1,.06-.19,.12-.29,.18-.99,1.33-2.44,2.15-4.14,2.48-.73,1.77-1.84,2.62-3.5,2.62-.81,0-1.76-.21-2.86-.61-3.47-1.28-3.63-2.74-2.56-5.63,.02-.06,.05-.12,.07-.18-.4-.95-.63-2.08-.63-3.4,0-.74,.07-1.45,.2-2.13-3.9-1.21-6.59-3.97-6.59-8.63,0-6.57,5.32-11.89,11.89-11.89m0-2c-7.66,0-13.89,6.23-13.89,13.89,0,4.64,2.26,8.12,6.42,9.95-.02,.27-.03,.55-.03,.81,0,1.23,.17,2.37,.5,3.41-.48,1.41-.78,2.89-.23,4.32,.73,1.9,2.61,2.8,4.16,3.37,1.34,.49,2.5,.73,3.55,.73,1.53,0,3.53-.53,4.89-2.91,1.66-.51,3.05-1.42,4.09-2.67h.01c2.5-1.58,3.18-3.74,2.04-6.45-.02-1.06-.15-2.1-.41-3.11,.99-1.04,1.72-2.26,2.19-3.63,.08,0,.16,.01,.24,.01,.9,0,1.73-.45,2.23-1.21,.5-.76,.59-1.72,.23-2.56-.35-.83-1.05-1.98-2.43-3.04-1.38-6.28-7.06-10.92-13.56-10.92h0Z"/>
        </g>
        <path class="cls-6" d="M243.46,56.23c-1.06,2.89-3.01,3.58-6.48,2.31s-3.63-2.74-2.56-5.63c1.06-2.89,2.54-5.02,6.01-3.74s4.1,4.17,3.04,7.07Z"/>
        <path class="cls-12" d="M234.96,53.65c-.7-1.11-1.11-2.54-1.11-4.34,0-5.18,3.36-9.38,7.5-9.38s7.5,4.2,7.5,9.38c0,1.8-.41,3.23-1.12,4.35-1.81,.71-4.02,1.05-6.4,1.05s-4.57-.34-6.38-1.05Z"/>
        <path class="cls-6" d="M234.96,53.65c1.81,.71,4,1.05,6.38,1.05s4.59-.34,6.4-1.05c-1.32,2.09-3.68,3.04-6.38,3.04,0,0-.01,0-.02,0-2.71,0-5.07-.95-6.39-3.05Z"/>
        <path class="cls-8" d="M242.25,33.84v16.43c-4.64,0-8.4-2.17-8.4-7.24s3.76-9.19,8.4-9.19Z"/>
        <path class="cls-12" d="M248.25,48.46c2.03,3.23,1.04,4.42-.5,5.39s-3.05,1.34-5.08-1.88c-2.03-3.23-2.43-6.63-.88-7.6,1.54-.97,4.44,.86,6.47,4.08Z"/>
        <path class="cls-12" d="M227.46,38.54c0,6.57,5.32,9.38,11.89,9.38s11.89-2.81,11.89-9.38-5.32-11.89-11.89-11.89-11.89,5.32-11.89,11.89Z"/>
        <path class="cls-10" d="M232.72,43.67c1.4-.76,2.69-1.05,4.32-1.39,.31-.07,.5-.38,.43-.69-.04-.17-.15-.3-.3-.38-1.39-.74-3.23-.51-4.43,.52-.44,.39-1.52,1.59-.62,2.04,.21,.09,.41,0,.59-.1h0Z"/>
        <path class="cls-6" d="M239.35,26.65c6.57,0,11.89,5.32,11.89,11.89,0,2.94-1.07,5.12-2.84,6.64-2.73-.7-5.76-2.72-5.76-2.72-.29,.76-1.22,1.64-1.22,1.64-2.31-2.38-3.6-5.62-3.6-5.62-1.62-.03-3.17-.28-4.57-.6,.29,1.29,.18,2.19,.18,2.19-2.82,.84-4.62,.15-5.93-.68-.02-.28-.04-.56-.04-.86,0-6.57,5.32-11.89,11.89-11.89Z"/>
        <path class="cls-8" d="M251.11,36.75c1.3,.83,2.03,1.8,2.39,2.65,.25,.59-.33,1.19-.92,.92-.44-.21-.91-.43-1.39-.67-.03-.02-.06-.03-.09-.04-.57-.28-1.15-.54-1.73-.78-.05-.02-.09-.04-.14-.06-.57-.23-1.14-.44-1.72-.63-.05-.02-.1-.04-.15-.05-.59-.19-1.18-.37-1.77-.52-.03,0-.06-.02-.09-.03-.61-.16-1.22-.3-1.83-.43-7.88-1.63-15.26-.46-16.06-.33,.12-.78,.31-1.54,.57-2.26,2.11-.29,3.89-.28,3.89-.28h0c-.24-1.22-1.05-2.28-2.21-2.83,2.17-2.88,5.61-4.74,9.49-4.74,5.93,0,10.91,4.25,11.76,10.1Z"/>
      </g>
    </g>
  </g>
</svg>