<?xml version="1.0" encoding="UTF-8"?>
<svg id="Layer_2" data-name="Layer 2" xmlns="http://www.w3.org/2000/svg" viewBox="0 0 128 64">
  <defs>
    <style>
      .cls-1 {
        fill: #fff;
      }

      .cls-2 {
        fill: #9ee651;
        opacity: 0;
      }

      .cls-3 {
        fill: #8dd63e;
      }

      .cls-4 {
        fill: #cbe0de;
      }

      .cls-5 {
        fill: #ffd640;
      }

      .cls-6 {
        fill: #1dbff0;
      }

      .cls-7 {
        fill: #604369;
      }

      .cls-8 {
        fill: #f25d4a;
      }
    </style>
  </defs>
  <g id="Finals">
    <g>
      <rect class="cls-2" width="32" height="64"/>
      <g>
        <path class="cls-7" d="M20.43,62c-2.1,0-3.33-.72-3.87-2.31-.19,0-.38,.01-.56,.01s-.37,0-.56-.01c-.54,1.59-1.77,2.31-3.87,2.31-3.32,0-4.93-1.77-4.93-5.4,0-.37,.02-.73,.05-1.08-.82,0-1.52-.38-2.03-.7-2.14-1.35-2.36-3.11-.72-5.72,.45-.72,.97-1.38,1.53-1.96-1.57-1.72-2.36-3.94-2.36-6.6,0-7.11,5.78-12.89,12.89-12.89s12.89,5.78,12.89,12.89c0,2.66-.79,4.87-2.36,6.6,.56,.57,1.08,1.23,1.53,1.96,1.64,2.61,1.42,4.37-.72,5.72-.52,.32-1.21,.7-2.03,.7,.03,.35,.05,.71,.05,1.08,0,3.63-1.61,5.4-4.93,5.4Z"/>
        <path class="cls-7" d="M16,28.65c6.57,0,11.89,5.32,11.89,11.89,0,2.93-1.06,5.1-2.82,6.62,.75,.6,1.5,1.44,2.14,2.46,1.63,2.59,.84,3.56-.4,4.34-.5,.31-.99,.55-1.51,.55-.41,0-.83-.14-1.28-.5,.23,.77,.34,1.65,.34,2.59,0,3.08-1.18,4.4-3.93,4.4-2.04,0-2.83-.73-3.1-2.37-.43,.04-.88,.07-1.33,.07s-.9-.03-1.33-.07c-.27,1.64-1.06,2.37-3.1,2.37-2.75,0-3.93-1.32-3.93-4.4,0-.93,.11-1.81,.34-2.59-.45,.36-.87,.5-1.28,.5-.52,0-1.01-.23-1.51-.55-1.24-.78-2.04-1.75-.4-4.34,.64-1.02,1.39-1.86,2.14-2.46-1.75-1.52-2.82-3.69-2.82-6.62,0-6.57,5.32-11.89,11.89-11.89m0-2c-7.66,0-13.89,6.23-13.89,13.89,0,2.53,.7,4.77,2.04,6.56-.38,.45-.74,.94-1.06,1.46-1.93,3.07-1.58,5.45,1.03,7.1,.38,.24,.9,.53,1.52,.71,0,.08,0,.16,0,.23,0,5.29,3.23,6.4,5.93,6.4,2.13,0,3.61-.72,4.43-2.15,.82,1.43,2.31,2.15,4.43,2.15,2.71,0,5.93-1.11,5.93-6.4,0-.08,0-.16,0-.23,.62-.17,1.14-.47,1.52-.71,2.61-1.64,2.96-4.03,1.03-7.1-.33-.52-.68-1.01-1.06-1.46,1.34-1.8,2.04-4.03,2.04-6.56,0-7.66-6.23-13.89-13.89-13.89h0Z"/>
      </g>
      <g>
        <path class="cls-5" d="M24.37,56.6c0,3.08-1.18,4.4-3.93,4.4s-3.23-1.32-3.23-4.4,.48-5.58,3.23-5.58,3.93,2.5,3.93,5.58Z"/>
        <path class="cls-6" d="M27.22,49.63c1.63,2.59,.84,3.56-.4,4.34-1.24,.78-2.45,1.08-4.09-1.51s-1.95-5.33-.71-6.11c1.24-.78,3.57,.69,5.2,3.29Z"/>
        <path class="cls-8" d="M4.78,49.63c-1.63,2.59-.84,3.56,.4,4.34s2.45,1.08,4.09-1.51c1.63-2.59,1.95-5.33,.71-6.11s-3.57,.69-5.2,3.29Z"/>
        <path class="cls-3" d="M7.63,56.6c0,3.08,1.18,4.4,3.93,4.4s3.23-1.32,3.23-4.4-.48-5.58-3.23-5.58-3.93,2.5-3.93,5.58Z"/>
        <path class="cls-1" d="M24.37,51.31c0,5.18-3.75,7.39-8.37,7.39s-8.37-2.21-8.37-7.39,3.75-9.38,8.37-9.38,8.37,4.2,8.37,9.38Z"/>
        <path class="cls-4" d="M24.77,45.02c0,5.07-3.93,7.24-8.77,7.24s-8.77-2.17-8.77-7.24,3.93-9.19,8.77-9.19,8.77,4.11,8.77,9.19Z"/>
        <path class="cls-1" d="M27.89,40.54c0,6.57-5.32,9.38-11.89,9.38s-11.89-2.81-11.89-9.38,5.32-11.89,11.89-11.89,11.89,5.32,11.89,11.89Z"/>
        <g>
          <ellipse class="cls-7" cx="20.48" cy="43.58" rx="1.47" ry="2.45"/>
          <ellipse class="cls-7" cx="11.52" cy="43.58" rx="1.47" ry="2.45"/>
        </g>
      </g>
    </g>
    <g>
      <rect class="cls-2" x="32" width="32" height="64"/>
      <g>
        <path class="cls-7" d="M48.33,62c-4.05,0-6.1-1.62-6.28-4.94-1.27-1.45-1.91-3.38-1.91-5.75,0-.79,.07-1.58,.22-2.36-3.02-1.79-4.61-4.68-4.61-8.41,0-7.11,5.78-12.89,12.89-12.89s12.89,5.78,12.89,12.89c0,3.73-1.59,6.62-4.61,8.41,.15,.77,.22,1.56,.22,2.36,0,4.05-1.85,6.11-3.59,7.15-.41,2.51-1.96,3.54-5.23,3.54Z"/>
        <path class="cls-7" d="M48.65,28.65c6.57,0,11.89,5.32,11.89,11.89,0,3.88-1.87,6.44-4.75,7.9,.23,.91,.36,1.87,.36,2.87,0,3.35-1.41,5.45-3.52,6.52-.21,2.2-1.14,3.17-4.3,3.17-3.68,0-5.27-1.3-5.29-4.34-1.18-1.2-1.9-2.95-1.9-5.35,0-1,.13-1.97,.36-2.87-2.88-1.45-4.75-4.01-4.75-7.9,0-6.57,5.32-11.89,11.89-11.89m0-2c-7.66,0-13.89,6.23-13.89,13.89,0,3.8,1.59,6.91,4.52,8.9-.09,.62-.13,1.24-.13,1.87,0,2.44,.67,4.55,1.94,6.14,.25,2.69,1.8,5.55,7.25,5.55,2.29,0,5.31-.43,6.12-3.93,2.39-1.62,3.69-4.34,3.69-7.77,0-.63-.04-1.25-.13-1.87,2.93-1.99,4.52-5.1,4.52-8.9,0-7.66-6.23-13.89-13.89-13.89h0Z"/>
      </g>
      <g>
        <path class="cls-3" d="M43.04,56.6c0,3.08,1.59,4.4,5.29,4.4s4.35-1.32,4.35-4.4-.65-5.58-4.35-5.58-5.29,2.5-5.29,5.58Z"/>
        <path class="cls-1" d="M56.15,51.31c0,5.18-3.36,7.39-7.5,7.39s-7.5-2.21-7.5-7.39,3.36-9.38,7.5-9.38,7.5,4.2,7.5,9.38Z"/>
        <path class="cls-4" d="M47.75,35.84v16.43c4.64,0,8.4-2.17,8.4-7.24s-3.76-9.19-8.4-9.19Z"/>
        <path class="cls-8" d="M43.05,54.27c.85,3.72,2.39,3.86,4.17,3.46,1.78-.4,3.11-1.21,2.26-4.92-.85-3.72-2.97-6.4-4.75-6s-2.53,3.74-1.68,7.46Z"/>
        <path class="cls-1" d="M60.54,40.54c0,6.57-5.32,9.38-11.89,9.38s-11.89-2.81-11.89-9.38,5.32-11.89,11.89-11.89,11.89,5.32,11.89,11.89Z"/>
        <ellipse class="cls-7" cx="54.17" cy="43.58" rx="1.47" ry="2.45"/>
      </g>
    </g>
    <g>
      <rect class="cls-2" x="96" y="0" width="32" height="64" transform="translate(224 64) rotate(-180)"/>
      <g>
        <path class="cls-7" d="M111.67,62c-3.27,0-4.82-1.03-5.23-3.54-1.74-1.04-3.59-3.1-3.59-7.15,0-.79,.07-1.58,.22-2.36-3.02-1.79-4.61-4.68-4.61-8.41,0-7.11,5.78-12.89,12.89-12.89s12.89,5.78,12.89,12.89c0,3.73-1.59,6.62-4.61,8.41,.15,.77,.22,1.56,.22,2.36,0,2.37-.64,4.3-1.91,5.75-.17,3.32-2.23,4.94-6.28,4.94Z"/>
        <path class="cls-7" d="M111.35,28.65c6.57,0,11.89,5.32,11.89,11.89,0,3.88-1.87,6.44-4.75,7.9,.23,.91,.36,1.87,.36,2.87,0,2.39-.72,4.15-1.9,5.35-.02,3.04-1.61,4.34-5.29,4.34-3.16,0-4.09-.97-4.3-3.17-2.11-1.07-3.52-3.18-3.52-6.52,0-1,.13-1.97,.36-2.87-2.88-1.45-4.75-4.01-4.75-7.9,0-6.57,5.32-11.89,11.89-11.89m0-2c-7.66,0-13.89,6.23-13.89,13.89,0,3.8,1.59,6.91,4.52,8.9-.09,.62-.13,1.24-.13,1.87,0,3.43,1.3,6.15,3.69,7.77,.82,3.49,3.83,3.93,6.12,3.93,5.45,0,7-2.86,7.25-5.55,1.27-1.59,1.94-3.7,1.94-6.14,0-.63-.04-1.25-.13-1.87,2.93-1.99,4.52-5.1,4.52-8.9,0-7.66-6.23-13.89-13.89-13.89h0Z"/>
      </g>
      <g>
        <path class="cls-5" d="M116.96,56.6c0,3.08-1.59,4.4-5.29,4.4s-4.35-1.32-4.35-4.4,.65-5.58,4.35-5.58,5.29,2.5,5.29,5.58Z"/>
        <path class="cls-1" d="M103.85,51.31c0,5.18,3.36,7.39,7.5,7.39s7.5-2.21,7.5-7.39-3.36-9.38-7.5-9.38-7.5,4.2-7.5,9.38Z"/>
        <path class="cls-4" d="M112.25,35.84v16.43c-4.64,0-8.4-2.17-8.4-7.24s3.76-9.19,8.4-9.19Z"/>
        <path class="cls-6" d="M116.95,54.27c-.85,3.72-2.39,3.86-4.17,3.46s-3.11-1.21-2.26-4.92,2.97-6.4,4.75-6c1.78,.4,2.53,3.74,1.68,7.46Z"/>
        <path class="cls-1" d="M99.46,40.54c0,6.57,5.32,9.38,11.89,9.38s11.89-2.81,11.89-9.38c0-6.57-5.32-11.89-11.89-11.89s-11.89,5.32-11.89,11.89Z"/>
        <ellipse class="cls-7" cx="105.83" cy="43.58" rx="1.47" ry="2.45"/>
      </g>
    </g>
    <g>
      <rect class="cls-2" x="64" width="32" height="64"/>
      <g>
        <path class="cls-7" d="M84.43,62c-2.1,0-3.33-.72-3.87-2.31-.19,0-.38,.01-.56,.01s-.37,0-.56-.01c-.54,1.59-1.77,2.31-3.87,2.31-3.32,0-4.93-1.77-4.93-5.4,0-.37,.02-.73,.05-1.08-.82,0-1.52-.38-2.03-.7-2.14-1.35-2.36-3.11-.72-5.72,.45-.72,.97-1.38,1.53-1.96-1.57-1.72-2.36-3.94-2.36-6.6,0-7.11,5.78-12.89,12.89-12.89s12.89,5.78,12.89,12.89c0,2.66-.79,4.87-2.36,6.6,.56,.57,1.08,1.23,1.53,1.96,1.64,2.61,1.42,4.37-.72,5.72-.52,.32-1.21,.7-2.03,.7,.03,.35,.05,.71,.05,1.08,0,3.63-1.61,5.4-4.93,5.4Z"/>
        <path class="cls-7" d="M80,28.65c6.57,0,11.89,5.32,11.89,11.89,0,2.93-1.06,5.1-2.82,6.62,.75,.6,1.5,1.44,2.14,2.46,1.63,2.59,.84,3.56-.4,4.34-.5,.31-.99,.55-1.51,.55-.41,0-.83-.14-1.28-.5,.23,.77,.34,1.65,.34,2.59,0,3.08-1.18,4.4-3.93,4.4-2.04,0-2.83-.73-3.1-2.37-.43,.04-.88,.07-1.33,.07s-.9-.03-1.33-.07c-.27,1.64-1.06,2.37-3.1,2.37-2.75,0-3.93-1.32-3.93-4.4,0-.93,.11-1.81,.34-2.59-.45,.36-.87,.5-1.28,.5-.52,0-1.01-.23-1.51-.55-1.24-.78-2.04-1.75-.4-4.34,.64-1.02,1.39-1.86,2.14-2.46-1.75-1.52-2.82-3.69-2.82-6.62,0-6.57,5.32-11.89,11.89-11.89m0-2c-7.66,0-13.89,6.23-13.89,13.89,0,2.53,.7,4.77,2.04,6.56-.38,.45-.74,.94-1.06,1.46-1.93,3.07-1.58,5.45,1.03,7.1,.38,.24,.9,.53,1.52,.71,0,.08,0,.16,0,.23,0,5.29,3.23,6.4,5.93,6.4,2.13,0,3.61-.72,4.43-2.15,.82,1.43,2.31,2.15,4.43,2.15,2.71,0,5.93-1.11,5.93-6.4,0-.08,0-.16,0-.23,.62-.17,1.14-.47,1.52-.71,2.61-1.64,2.96-4.03,1.03-7.1-.33-.52-.68-1.01-1.06-1.46,1.34-1.8,2.04-4.03,2.04-6.56,0-7.66-6.23-13.89-13.89-13.89h0Z"/>
      </g>
      <g>
        <path class="cls-3" d="M88.37,56.6c0,3.08-1.18,4.4-3.93,4.4s-3.23-1.32-3.23-4.4,.48-5.58,3.23-5.58,3.93,2.5,3.93,5.58Z"/>
        <path class="cls-8" d="M91.22,49.63c1.63,2.59,.84,3.56-.4,4.34s-2.45,1.08-4.09-1.51-1.95-5.33-.71-6.11c1.24-.78,3.57,.69,5.2,3.29Z"/>
        <path class="cls-5" d="M71.63,56.6c0,3.08,1.18,4.4,3.93,4.4s3.23-1.32,3.23-4.4-.48-5.58-3.23-5.58-3.93,2.5-3.93,5.58Z"/>
        <path class="cls-6" d="M68.78,49.63c-1.63,2.59-.84,3.56,.4,4.34s2.45,1.08,4.09-1.51,1.95-5.33,.71-6.11c-1.24-.78-3.57,.69-5.2,3.29Z"/>
        <path class="cls-1" d="M88.37,51.31c0,5.18-3.75,7.39-8.37,7.39s-8.37-2.21-8.37-7.39,3.75-9.38,8.37-9.38,8.37,4.2,8.37,9.38Z"/>
        <path class="cls-4" d="M87.67,45.02c0,5.07-3.44,7.24-7.67,7.24s-7.67-2.17-7.67-7.24,3.44-9.19,7.67-9.19,7.67,4.11,7.67,9.19Z"/>
        <path class="cls-1" d="M91.89,40.54c0,6.57-5.32,9.38-11.89,9.38s-11.89-2.81-11.89-9.38,5.32-11.89,11.89-11.89,11.89,5.32,11.89,11.89Z"/>
      </g>
    </g>
  </g>
</svg>