<?xml version="1.0" encoding="UTF-8"?>
<svg id="Layer_2" data-name="Layer 2" xmlns="http://www.w3.org/2000/svg" viewBox="0 0 128 64">
  <defs>
    <style>
      .cls-1 {
        fill: #fff;
      }

      .cls-2 {
        fill: #9ee651;
        opacity: 0;
      }

      .cls-3 {
        fill: #2e55fc;
      }

      .cls-4 {
        fill: #1778ff;
      }

      .cls-5 {
        fill: #ffd640;
      }

      .cls-6 {
        fill: #1dbff0;
      }

      .cls-7 {
        fill: #604369;
      }

      .cls-8 {
        fill: #fdaf18;
      }

      .cls-9 {
        fill: #f25d4a;
      }
    </style>
  </defs>
  <g id="Finals">
    <g>
      <rect class="cls-2" x="0" y="0" width="32" height="64" transform="translate(32 64) rotate(-180)"/>
      <g>
        <path class="cls-7" d="M20.43,62c-2.06,0-3.31-.74-3.86-2.3-.18,0-.57,0-.57,0-.2,0-.39,0-.57,0-.55,1.57-1.8,2.3-3.86,2.3-3.32,0-4.93-1.77-4.93-5.4,0-.37,.02-.73,.05-1.08-.82,0-1.52-.38-2.03-.7-2.14-1.35-2.36-3.11-.72-5.72,.45-.72,.97-1.38,1.53-1.96-1.57-1.72-2.36-3.94-2.36-6.6,0-7.11,5.78-12.89,12.89-12.89s12.89,5.78,12.89,12.89c0,2.66-.79,4.87-2.36,6.6,.56,.57,1.08,1.23,1.53,1.96,.91,1.45,1.23,2.6,1,3.6-.24,1.07-1.05,1.69-1.72,2.12-.52,.32-1.21,.7-2.03,.7,.03,.35,.05,.71,.05,1.08,0,3.63-1.61,5.4-4.93,5.4Z"/>
        <path class="cls-7" d="M16,28.65c6.57,0,11.89,5.32,11.89,11.89,0,2.93-1.06,5.1-2.82,6.62,.75,.6,1.5,1.44,2.14,2.46,1.63,2.59,.84,3.56-.4,4.34-.5,.31-.99,.55-1.51,.55-.41,0-.83-.14-1.28-.5,.23,.77,.34,1.65,.34,2.59,0,3.08-1.18,4.4-3.93,4.4-2.02,0-2.81-.72-3.09-2.32-.41,.01-.84,.02-1.32,.02,0,0,0,0-.01,0,0,0,0,0,0,0,0,0,0,0-.01,0-.48,0-.92-.01-1.33-.03-.28,1.6-1.07,2.32-3.09,2.32-2.75,0-3.93-1.32-3.93-4.4,0-.93,.11-1.81,.34-2.59-.45,.36-.87,.5-1.28,.5-.52,0-1.01-.23-1.51-.55-1.24-.78-2.04-1.75-.4-4.34,.64-1.02,1.39-1.86,2.14-2.46-1.75-1.52-2.82-3.69-2.82-6.62,0-6.57,5.32-11.89,11.89-11.89m0-2c-7.66,0-13.89,6.23-13.89,13.89,0,2.53,.7,4.77,2.04,6.56-.38,.45-.74,.94-1.06,1.46-1.93,3.07-1.58,5.45,1.03,7.1,.38,.24,.9,.53,1.52,.71,0,.08,0,.16,0,.23,0,5.29,3.23,6.4,5.93,6.4,2.13,0,3.61-.72,4.43-2.15,.82,1.43,2.31,2.15,4.43,2.15,2.71,0,5.93-1.11,5.93-6.4,0-.08,0-.16,0-.23,.62-.17,1.14-.47,1.52-.71,.77-.49,1.84-1.3,2.16-2.74,.29-1.28-.07-2.67-1.13-4.36-.33-.52-.68-1.01-1.06-1.46,1.34-1.8,2.04-4.03,2.04-6.56,0-7.66-6.23-13.89-13.89-13.89h0Z"/>
      </g>
      <path class="cls-9" d="M24.37,56.6c0,3.08-1.18,4.4-3.93,4.4s-3.23-1.32-3.23-4.4,.48-5.58,3.23-5.58,3.93,2.5,3.93,5.58Z"/>
      <path class="cls-5" d="M27.22,49.63c1.63,2.59,.84,3.56-.4,4.34-1.24,.78-2.45,1.08-4.09-1.51-1.63-2.59-1.95-5.33-.71-6.11s3.57,.69,5.2,3.29Z"/>
      <path class="cls-5" d="M4.78,49.63c-1.63,2.59-.84,3.56,.4,4.34s2.45,1.08,4.09-1.51c1.63-2.59,1.95-5.33,.71-6.11s-3.57,.69-5.2,3.29Z"/>
      <path class="cls-9" d="M7.63,56.6c0,3.08,1.18,4.4,3.93,4.4s3.23-1.32,3.23-4.4-.48-5.58-3.23-5.58-3.93,2.5-3.93,5.58Z"/>
      <path class="cls-5" d="M24.37,51.31c0,5.18-3.75,7.39-8.37,7.39s-8.37-2.21-8.37-7.39,3.75-9.38,8.37-9.38,8.37,4.2,8.37,9.38Z"/>
      <path class="cls-8" d="M24.77,45.02c0,5.07-3.93,7.24-8.77,7.24s-8.77-2.17-8.77-7.24,3.93-9.19,8.77-9.19,8.77,4.11,8.77,9.19Z"/>
      <path class="cls-1" d="M27.89,40.54c0,6.57-5.32,9.38-11.89,9.38s-11.89-2.81-11.89-9.38,5.32-11.89,11.89-11.89,11.89,5.32,11.89,11.89Z"/>
      <g>
        <ellipse class="cls-7" cx="20.48" cy="43.58" rx="1.47" ry="2.45"/>
        <ellipse class="cls-7" cx="11.52" cy="43.58" rx="1.47" ry="2.45"/>
      </g>
      <path class="cls-6" d="M16,28.65c-6.57,0-11.89,5.32-11.89,11.89,0,1.26,.2,2.37,.56,3.36,.43-1.97,1.26-3.82,1.95-5.14,1.22-.07,2.27-.3,3.21-.62-.28,1.47-.16,2.64-.16,2.64,3.59-.16,6.15-1.2,7.96-2.43-.37,1.59,.38,3.14,.38,3.14,2.2-.93,3.41-2.23,4.07-3.38,.96,.34,2.04,.58,3.31,.65,.69,1.32,1.51,3.17,1.95,5.14,.36-.99,.56-2.11,.56-3.36,0-6.57-5.32-11.89-11.89-11.89Z"/>
      <path class="cls-9" d="M16.02,56.7c-2.86,0-5.48-.48-7.45-1.51,1.39,2.43,1.55,3.51,7.45,3.51s6.03-1.09,7.42-3.52c-1.97,1.04-4.56,1.52-7.42,1.52Z"/>
      <path class="cls-4" d="M16,28.65c-5.75,0-10.54,4.08-11.65,9.49,3.12-1.02,7.18-1.51,11.65-1.51s8.53,.48,11.65,1.51c-1.11-5.42-5.9-9.49-11.65-9.49Zm0,5.84c-1.21,0-2.38,.06-3.51,.17,.5-1.79,1.88-3.08,3.51-3.08s3.01,1.29,3.51,3.08c-1.12-.11-2.3-.17-3.51-.17Z"/>
    </g>
    <g>
      <rect class="cls-2" x="64" y="0" width="32" height="64" transform="translate(160 64) rotate(-180)"/>
      <g>
        <path class="cls-7" d="M84.43,62c-2.06,0-3.31-.74-3.86-2.3-.18,0-.57,0-.57,0-.2,0-.39,0-.57,0-.55,1.57-1.8,2.3-3.86,2.3-3.32,0-4.93-1.77-4.93-5.4,0-.37,.02-.73,.05-1.08-.82,0-1.52-.38-2.03-.7-2.14-1.35-2.36-3.11-.72-5.72,.45-.72,.97-1.38,1.53-1.96-1.57-1.72-2.36-3.94-2.36-6.6,0-7.11,5.78-12.89,12.89-12.89s12.89,5.78,12.89,12.89c0,2.66-.79,4.87-2.36,6.6,.56,.57,1.08,1.23,1.53,1.96,.91,1.45,1.23,2.6,1,3.6-.24,1.07-1.05,1.69-1.72,2.12-.52,.32-1.21,.7-2.03,.7,.03,.35,.05,.71,.05,1.08,0,3.63-1.61,5.4-4.93,5.4Z"/>
        <path class="cls-7" d="M80,28.65c6.57,0,11.89,5.32,11.89,11.89,0,2.93-1.06,5.1-2.82,6.62,.75,.6,1.5,1.44,2.14,2.46,1.63,2.59,.84,3.56-.4,4.34-.5,.31-.99,.55-1.51,.55-.41,0-.83-.14-1.28-.5,.23,.77,.34,1.65,.34,2.59,0,3.08-1.18,4.4-3.93,4.4-2.02,0-2.81-.72-3.09-2.32-.41,.01-.84,.02-1.32,.02,0,0,0,0-.01,0,0,0,0,0,0,0,0,0,0,0-.01,0-.48,0-.92-.01-1.33-.03-.28,1.6-1.07,2.32-3.09,2.32-2.75,0-3.93-1.32-3.93-4.4,0-.93,.11-1.81,.34-2.59-.45,.36-.87,.5-1.28,.5-.52,0-1.01-.23-1.51-.55-1.24-.78-2.04-1.75-.4-4.34,.64-1.02,1.39-1.86,2.14-2.46-1.75-1.52-2.82-3.69-2.82-6.62,0-6.57,5.32-11.89,11.89-11.89m0-2c-7.66,0-13.89,6.23-13.89,13.89,0,2.53,.7,4.77,2.04,6.56-.38,.45-.74,.94-1.06,1.46-1.93,3.07-1.58,5.45,1.03,7.1,.38,.24,.9,.53,1.52,.71,0,.08,0,.16,0,.23,0,5.29,3.23,6.4,5.93,6.4,2.13,0,3.61-.72,4.43-2.15,.82,1.43,2.31,2.15,4.43,2.15,2.71,0,5.93-1.11,5.93-6.4,0-.08,0-.16,0-.23,.62-.17,1.14-.47,1.52-.71,.77-.49,1.84-1.3,2.16-2.74,.29-1.28-.07-2.67-1.13-4.36-.33-.52-.68-1.01-1.06-1.46,1.34-1.8,2.04-4.03,2.04-6.56,0-7.66-6.23-13.89-13.89-13.89h0Z"/>
      </g>
      <path class="cls-9" d="M88.37,56.6c0,3.08-1.18,4.4-3.93,4.4s-3.23-1.32-3.23-4.4,.48-5.58,3.23-5.58,3.93,2.5,3.93,5.58Z"/>
      <path class="cls-5" d="M91.22,49.63c1.63,2.59,.84,3.56-.4,4.34-1.24,.78-2.45,1.08-4.09-1.51-1.63-2.59-1.95-5.33-.71-6.11s3.57,.69,5.2,3.29Z"/>
      <path class="cls-5" d="M68.78,49.63c-1.63,2.59-.84,3.56,.4,4.34s2.45,1.08,4.09-1.51c1.63-2.59,1.95-5.33,.71-6.11s-3.57,.69-5.2,3.29Z"/>
      <path class="cls-9" d="M71.63,56.6c0,3.08,1.18,4.4,3.93,4.4s3.23-1.32,3.23-4.4-.48-5.58-3.23-5.58-3.93,2.5-3.93,5.58Z"/>
      <path class="cls-5" d="M88.37,51.31c0,5.18-3.75,7.39-8.37,7.39s-8.37-2.21-8.37-7.39,3.75-9.38,8.37-9.38,8.37,4.2,8.37,9.38Z"/>
      <path class="cls-8" d="M88.77,45.02c0,5.07-3.93,7.24-8.77,7.24s-8.77-2.17-8.77-7.24,3.93-9.19,8.77-9.19,8.77,4.11,8.77,9.19Z"/>
      <path class="cls-6" d="M91.89,40.54c0,6.57-5.32,9.38-11.89,9.38s-11.89-2.81-11.89-9.38,5.32-11.89,11.89-11.89,11.89,5.32,11.89,11.89Z"/>
      <path class="cls-9" d="M80.02,56.7c-2.86,0-5.48-.48-7.45-1.51,1.39,2.43,1.55,3.51,7.45,3.51s6.03-1.09,7.42-3.52c-1.97,1.04-4.56,1.52-7.42,1.52Z"/>
      <path class="cls-4" d="M80,28.65c-6.23,0-11.33,4.79-11.84,10.88,.51,5.86,5.62,8.39,11.84,8.39s11.33-2.53,11.84-8.39c-.51-6.09-5.62-10.88-11.84-10.88Z"/>
      <path class="cls-3" d="M80,44.92c-5.17,0-9.63-1.45-11.74-4.7,.85,5.36,5.77,9.7,11.74,9.7s10.9-4.34,11.74-9.7c-2.11,3.24-6.57,4.7-11.74,4.7Z"/>
    </g>
    <g>
      <rect class="cls-2" x="32" y="0" width="32" height="64"/>
      <g>
        <path class="cls-7" d="M48.33,62c-4.06,0-6.12-1.62-6.28-4.96-.25-.28-.46-.56-.64-.84-.84-1.34-1.27-2.98-1.27-4.88,0-.79,.07-1.58,.22-2.36-1.17-.69-2.13-1.56-2.87-2.57-.11,.1-.22,.2-.33,.29-.31,.28-.71,.43-1.11,.43-.48,0-.94-.21-1.26-.57-.32-.36-.48-.85-.42-1.33,.13-1.16,.62-2.29,1.46-3.36-.05-.46-.08-.88-.08-1.3,0-7.11,5.78-12.89,12.89-12.89s12.89,5.78,12.89,12.89c0,3.73-1.59,6.62-4.61,8.41,.15,.77,.22,1.56,.22,2.36,0,1.9-.42,3.54-1.26,4.87-.58,.92-1.36,1.68-2.32,2.26-.4,2.52-1.96,3.56-5.23,3.56Z"/>
        <path class="cls-7" d="M48.65,28.65c6.57,0,11.89,5.32,11.89,11.89,0,3.88-1.87,6.44-4.75,7.9,.23,.91,.36,1.87,.36,2.87,0,1.79-.41,3.23-1.11,4.34-.6,.96-1.43,1.67-2.41,2.17-.2,2.21-1.13,3.18-4.3,3.18-3.69,0-5.28-1.31-5.29-4.37-.29-.29-.56-.61-.79-.97-.7-1.12-1.12-2.55-1.12-4.35,0-1,.13-1.97,.36-2.87-1.65-.83-2.97-2.02-3.79-3.61,0,0,0,0,0,0-.42,.39-.82,.76-1.21,1.1-.14,.12-.29,.18-.45,.18-.38,0-.74-.34-.69-.79,.1-.91,.5-2.01,1.51-3.17-.08-.51-.13-1.04-.13-1.6,0-6.57,5.32-11.89,11.89-11.89m0-2c-7.66,0-13.89,6.23-13.89,13.89,0,.33,.01,.67,.05,1.02-.8,1.12-1.28,2.31-1.41,3.54-.09,.77,.16,1.54,.67,2.11,.51,.57,1.24,.9,2.01,.9,.45,0,.89-.11,1.28-.33,.56,.62,1.2,1.18,1.93,1.67-.09,.62-.13,1.24-.13,1.86,0,2.1,.48,3.92,1.42,5.42,.15,.24,.32,.48,.51,.71,.24,2.7,1.79,5.56,7.25,5.56,2.29,0,5.31-.43,6.13-3.94,.93-.63,1.69-1.41,2.27-2.35,.94-1.5,1.42-3.31,1.42-5.4,0-.63-.04-1.25-.13-1.87,2.93-1.99,4.52-5.1,4.52-8.9,0-7.66-6.23-13.89-13.89-13.89h0Z"/>
      </g>
      <path class="cls-9" d="M43.04,56.6c0,3.08,1.59,4.4,5.29,4.4s4.35-1.32,4.35-4.4-.65-5.58-4.35-5.58-5.29,2.5-5.29,5.58Z"/>
      <path class="cls-5" d="M55.04,55.65c.7-1.11,1.11-2.54,1.11-4.34,0-5.18-3.36-9.38-7.5-9.38s-7.5,4.2-7.5,9.38c0,1.8,.41,3.23,1.12,4.35,1.81,.71,4.02,1.05,6.4,1.05s4.57-.34,6.38-1.05Z"/>
      <path class="cls-9" d="M55.04,55.65c-1.81,.71-4,1.05-6.38,1.05s-4.59-.34-6.4-1.05c1.32,2.09,3.68,3.04,6.38,3.04,0,0,.01,0,.02,0,2.71,0,5.07-.95,6.39-3.05Z"/>
      <path class="cls-8" d="M47.75,35.84v16.43c4.64,0,8.4-2.17,8.4-7.24s-3.76-9.19-8.4-9.19Z"/>
      <path class="cls-5" d="M43.05,54.27c.85,3.72,2.39,3.86,4.17,3.46,1.78-.4,3.11-1.21,2.26-4.92-.85-3.72-2.97-6.4-4.75-6s-2.53,3.74-1.68,7.46Z"/>
      <path class="cls-1" d="M60.54,40.54c0,6.57-5.32,9.38-11.89,9.38s-11.89-2.81-11.89-9.38,5.32-11.89,11.89-11.89,11.89,5.32,11.89,11.89Z"/>
      <ellipse class="cls-7" cx="54.17" cy="43.58" rx="1.47" ry="2.45"/>
      <path class="cls-1" d="M48.65,58.7s0,0,0,0c0,0-.01,0-.02,0,0,0,0,0,.01,0Z"/>
      <path class="cls-6" d="M58.98,34.67h0c-2.05-3.6-5.9-6.02-10.34-6.02-6.57,0-11.89,5.32-11.89,11.89,0,4.29,2.28,6.97,5.7,8.32,2.48-1.4,4.15-3.72,4.15-3.72,.49,.65,1.63,1.22,1.63,1.22,1.52-2.92,1.82-6.38,1.82-6.38,5.09-1.63,8.93-5.3,8.93-5.3Z"/>
      <path class="cls-6" d="M60.21,37.82c-.53-2.26-1.7-4.27-3.31-5.82-.92,.61-1.82,1.54-2.08,2.21-1.31,3.38-.15,6.03-.15,6.03,3,0,4.52-1.24,5.53-2.42Z"/>
      <path class="cls-4" d="M48.65,28.65c-6.57,0-11.89,5.32-11.89,11.89,0,.56,.05,1.09,.13,1.6-1.01,1.16-1.41,2.26-1.51,3.17-.07,.64,.66,1.04,1.14,.61,.39-.34,.79-.71,1.21-1.1,.46-.43,.94-.84,1.42-1.24,.04-.03,.08-.07,.12-.1,.48-.38,.96-.75,1.46-1.1,.04-.03,.09-.06,.13-.09,.5-.35,1.02-.69,1.53-1,.03-.02,.06-.03,.08-.05,.54-.33,1.08-.64,1.62-.93,7.45-4.02,15.28-4.9,15.28-4.9h0c-1.92-4-5.99-6.77-10.72-6.77Zm5.66,5.63h0c-.12-1.25,.36-2.49,1.32-3.35,.96,.7,1.81,1.54,2.53,2.5-2.12,.32-3.85,.85-3.85,.85Z"/>
    </g>
    <g>
      <rect class="cls-2" x="96" y="0" width="32" height="64" transform="translate(224 64) rotate(-180)"/>
      <g>
        <path class="cls-7" d="M111.67,62c-3.27,0-4.83-1.04-5.23-3.56-.96-.58-1.74-1.34-2.32-2.26-.84-1.34-1.26-2.97-1.26-4.87,0-.79,.07-1.58,.22-2.36-3.02-1.79-4.61-4.68-4.61-8.41,0-7.11,5.78-12.89,12.89-12.89s12.89,5.78,12.89,12.89c0,.42-.03,.84-.08,1.3,.84,1.07,1.33,2.2,1.46,3.36,.05,.49-.1,.97-.42,1.33-.32,.36-.78,.57-1.26,.57-.41,0-.8-.15-1.11-.43-.11-.1-.22-.19-.33-.29-.73,1.02-1.69,1.88-2.86,2.57,.15,.77,.22,1.56,.22,2.36,0,1.9-.43,3.55-1.27,4.88-.18,.29-.39,.56-.64,.84-.16,3.34-2.22,4.96-6.28,4.96Z"/>
        <path class="cls-7" d="M111.35,28.65c6.57,0,11.89,5.32,11.89,11.89,0,.56-.05,1.09-.13,1.6,1.01,1.16,1.41,2.26,1.51,3.17,.05,.45-.31,.79-.69,.79-.15,0-.31-.05-.45-.18-.39-.34-.79-.71-1.21-1.1,0,0,0,0,0,0-.82,1.6-2.14,2.78-3.79,3.61,.23,.91,.36,1.87,.36,2.87,0,1.8-.41,3.23-1.12,4.35-.23,.36-.5,.68-.79,.97-.01,3.06-1.6,4.37-5.29,4.37-3.17,0-4.1-.97-4.3-3.18-.97-.5-1.8-1.21-2.41-2.17-.7-1.11-1.11-2.54-1.11-4.34,0-1,.13-1.97,.36-2.87-2.88-1.45-4.75-4.01-4.75-7.9,0-6.57,5.32-11.89,11.89-11.89m0-2c-7.66,0-13.89,6.23-13.89,13.89,0,3.8,1.59,6.91,4.52,8.9-.09,.62-.13,1.24-.13,1.87,0,2.09,.48,3.91,1.42,5.4,.59,.93,1.35,1.72,2.27,2.35,.81,3.51,3.83,3.94,6.13,3.94,5.46,0,7.01-2.86,7.25-5.56,.19-.23,.36-.47,.51-.71,.94-1.5,1.42-3.32,1.42-5.42,0-.63-.04-1.25-.13-1.86,.73-.49,1.37-1.05,1.93-1.67,.39,.22,.83,.33,1.28,.33,.76,0,1.49-.33,2.01-.9,.51-.57,.76-1.34,.67-2.11-.14-1.23-.61-2.42-1.41-3.54,.03-.35,.05-.68,.05-1.02,0-7.66-6.23-13.89-13.89-13.89h0Z"/>
      </g>
      <path class="cls-9" d="M116.96,56.6c0,3.08-1.59,4.4-5.29,4.4-3.7,0-4.35-1.32-4.35-4.4,0-3.08,.65-5.58,4.35-5.58s5.29,2.5,5.29,5.58Z"/>
      <path class="cls-5" d="M104.96,55.65c-.7-1.11-1.11-2.54-1.11-4.34,0-5.18,3.36-9.38,7.5-9.38s7.5,4.2,7.5,9.38c0,1.8-.41,3.23-1.12,4.35-1.81,.71-4.02,1.05-6.4,1.05s-4.57-.34-6.38-1.05Z"/>
      <path class="cls-9" d="M104.96,55.65c1.81,.71,4,1.05,6.38,1.05s4.59-.34,6.4-1.05c-1.32,2.09-3.68,3.04-6.38,3.04,0,0-.01,0-.02,0-2.71,0-5.07-.95-6.39-3.05Z"/>
      <path class="cls-8" d="M112.25,35.84v16.43c-4.64,0-8.4-2.17-8.4-7.24,0-5.07,3.76-9.19,8.4-9.19Z"/>
      <path class="cls-5" d="M116.95,54.27c-.85,3.72-2.39,3.86-4.17,3.46-1.78-.4-3.11-1.21-2.26-4.92,.85-3.72,2.97-6.4,4.75-6s2.53,3.74,1.68,7.46Z"/>
      <path class="cls-1" d="M99.46,40.54c0,6.57,5.32,9.38,11.89,9.38s11.89-2.81,11.89-9.38c0-6.57-5.32-11.89-11.89-11.89s-11.89,5.32-11.89,11.89Z"/>
      <ellipse class="cls-7" cx="105.83" cy="43.58" rx="1.47" ry="2.45"/>
      <path class="cls-1" d="M111.35,58.7s0,0,0,0c0,0,.01,0,.02,0,0,0,0,0-.01,0Z"/>
      <path class="cls-6" d="M101.02,34.67h0c2.05-3.6,5.9-6.02,10.34-6.02,6.57,0,11.89,5.32,11.89,11.89,0,4.29-2.28,6.97-5.7,8.32-2.48-1.4-4.15-3.72-4.15-3.72-.49,.65-1.63,1.22-1.63,1.22-1.52-2.92-1.82-6.38-1.82-6.38-5.09-1.63-8.93-5.3-8.93-5.3Z"/>
      <path class="cls-6" d="M99.79,37.82c.53-2.26,1.7-4.27,3.31-5.82,.92,.61,1.82,1.54,2.08,2.21,1.31,3.38,.15,6.03,.15,6.03-3,0-4.52-1.24-5.53-2.42Z"/>
      <path class="cls-4" d="M100.64,35.41h0s7.83,.88,15.28,4.9c.54,.29,1.08,.6,1.62,.93,.03,.02,.06,.03,.08,.05,.52,.32,1.03,.65,1.53,1,.04,.03,.09,.06,.13,.09,.5,.35,.98,.71,1.46,1.1,.04,.03,.08,.07,.12,.1,.49,.4,.96,.81,1.42,1.24,.42,.39,.82,.76,1.21,1.1,.48,.43,1.21,.02,1.14-.61-.1-.91-.5-2.01-1.51-3.17,.08-.51,.13-1.04,.13-1.6,0-6.57-5.32-11.89-11.89-11.89-4.73,0-8.8,2.77-10.72,6.77Zm1.21-1.99c.71-.95,1.57-1.8,2.53-2.5,.96,.86,1.44,2.11,1.32,3.35h0s-1.72-.53-3.85-.85Z"/>
    </g>
  </g>
</svg>