<?xml version="1.0" encoding="UTF-8"?>
<svg id="Layer_2" data-name="Layer 2" xmlns="http://www.w3.org/2000/svg" viewBox="0 0 128 64">
  <defs>
    <style>
      .cls-1 {
        fill: #fff;
      }

      .cls-2 {
        fill: #9ee651;
        opacity: 0;
      }

      .cls-3 {
        fill: #2e55fc;
      }

      .cls-4 {
        fill: #1778ff;
      }

      .cls-5 {
        fill: #ffd640;
      }

      .cls-6 {
        fill: #f28000;
      }

      .cls-7 {
        fill: #1dbff0;
      }

      .cls-8 {
        fill: #604369;
      }

      .cls-9 {
        fill: #fdaf18;
      }

      .cls-10 {
        fill: #f25d4a;
      }
    </style>
  </defs>
  <g id="Finals">
    <g>
      <rect class="cls-2" x="0" y="0" width="32" height="64" transform="translate(32 64) rotate(-180)"/>
      <g>
        <g>
          <path class="cls-8" d="M20.43,62c-2.1,0-3.33-.72-3.87-2.31-.19,0-.38,.01-.56,.01s-.37,0-.56-.01c-.54,1.59-1.77,2.31-3.87,2.31-3.32,0-4.93-1.77-4.93-5.4,0-.26,0-.52,.03-.78-1.1-.64-1.66-1.78-1.66-3.41,0-.7,0-2.48,1.06-3.67-1.94-1.78-2.95-4.24-2.95-7.19,0-7.11,5.78-12.89,12.89-12.89s12.89,5.78,12.89,12.89c0,2.95-1.02,5.41-2.95,7.19,1.06,1.19,1.06,2.98,1.06,3.67,0,1.63-.56,2.78-1.66,3.41,.02,.26,.03,.52,.03,.78,0,3.63-1.61,5.4-4.93,5.4Z"/>
          <path class="cls-8" d="M16,29.65c6.57,0,11.89,5.32,11.89,11.89,0,3.34-1.38,5.7-3.59,7.22,0,.01,0,.02-.01,.03,1.35,.5,1.71,1.92,1.71,3.62,0,1.53-.54,2.42-1.73,2.79,.06,.45,.09,.92,.09,1.4,0,3.08-1.18,4.4-3.93,4.4-2.04,0-2.83-.73-3.1-2.37-.43,.04-.88,.07-1.33,.07s-.9-.03-1.33-.07c-.27,1.64-1.06,2.37-3.1,2.37-2.75,0-3.93-1.32-3.93-4.4,0-.48,.03-.95,.09-1.4-1.19-.38-1.73-1.26-1.73-2.79,0-1.7,.36-3.12,1.71-3.62,0-.01,0-.02-.01-.03-2.21-1.52-3.59-3.88-3.59-7.22,0-6.57,5.32-11.89,11.89-11.89m0-2c-7.66,0-13.89,6.23-13.89,13.89,0,2.92,.91,5.4,2.65,7.3-.5,.92-.76,2.11-.76,3.56,0,2.03,.77,3.22,1.64,3.91,0,.09,0,.19,0,.28,0,5.29,3.23,6.4,5.93,6.4,2.13,0,3.61-.72,4.43-2.15,.82,1.43,2.31,2.15,4.43,2.15,2.71,0,5.93-1.11,5.93-6.4,0-.09,0-.19,0-.28,.86-.7,1.64-1.88,1.64-3.91,0-1.45-.25-2.64-.76-3.56,1.74-1.9,2.65-4.39,2.65-7.3,0-7.66-6.23-13.89-13.89-13.89h0Z"/>
        </g>
        <path class="cls-10" d="M24.37,56.6c0,3.08-1.18,4.4-3.93,4.4s-3.23-1.32-3.23-4.4,.48-5.58,3.23-5.58,3.93,2.5,3.93,5.58Z"/>
        <path class="cls-10" d="M7.63,56.6c0,3.08,1.18,4.4,3.93,4.4s3.23-1.32,3.23-4.4-.48-5.58-3.23-5.58-3.93,2.5-3.93,5.58Z"/>
        <path class="cls-9" d="M24.37,51.31c0,5.18-3.75,7.39-8.37,7.39s-8.37-2.21-8.37-7.39,3.75-9.38,8.37-9.38,8.37,4.2,8.37,9.38Z"/>
        <path class="cls-10" d="M16.02,56.7c-2.86,0-5.48-.48-7.45-1.51,1.39,2.43,1.55,3.51,7.45,3.51s6.03-1.09,7.42-3.52c-1.97,1.04-4.56,1.52-7.42,1.52Z"/>
        <path class="cls-6" d="M24.77,46.02c0,5.07-3.93,7.24-8.77,7.24s-8.77-2.17-8.77-7.24,3.93-9.19,8.77-9.19,8.77,4.11,8.77,9.19Z"/>
        <path class="cls-5" d="M26,52.4c0,2.11-1.01,3.01-3.36,3.01s-2.76-1.71-2.76-3.01c0-2.11,.9-3.82,3.25-3.82s2.88,1.71,2.88,3.82Z"/>
        <path class="cls-5" d="M6,52.4c0,2.11,1.01,3.01,3.36,3.01s2.76-1.71,2.76-3.01c0-2.11-.9-3.82-3.25-3.82s-2.88,1.71-2.88,3.82Z"/>
        <path class="cls-1" d="M27.89,41.54c0,6.57-5.32,9.38-11.89,9.38s-11.89-2.81-11.89-9.38,5.32-11.89,11.89-11.89,11.89,5.32,11.89,11.89Z"/>
        <g>
          <ellipse class="cls-8" cx="20.48" cy="44.58" rx="1.47" ry="2.45"/>
          <ellipse class="cls-8" cx="11.52" cy="44.58" rx="1.47" ry="2.45"/>
        </g>
        <path class="cls-7" d="M16,29.65c-6.57,0-11.89,5.32-11.89,11.89,0,1.26,.2,2.37,.56,3.36,.43-1.97,1.26-3.82,1.95-5.14,1.22-.07,2.27-.3,3.21-.62-.28,1.47-.16,2.64-.16,2.64,3.59-.16,6.15-1.2,7.96-2.43-.37,1.59,.38,3.14,.38,3.14,2.2-.93,3.41-2.23,4.07-3.38,.96,.34,2.04,.58,3.31,.65,.69,1.32,1.51,3.17,1.95,5.14,.36-.99,.56-2.11,.56-3.36,0-6.57-5.32-11.89-11.89-11.89Z"/>
        <path class="cls-4" d="M16,29.65c-5.75,0-10.54,4.08-11.65,9.49,3.12-1.02,7.18-1.51,11.65-1.51s8.53,.48,11.65,1.51c-1.11-5.42-5.9-9.49-11.65-9.49Zm0,5.84c-1.21,0-2.38,.06-3.51,.17,.5-1.79,1.88-3.08,3.51-3.08s3.01,1.29,3.51,3.08c-1.12-.11-2.3-.17-3.51-.17Z"/>
      </g>
    </g>
    <g>
      <rect class="cls-2" x="64" y="0" width="32" height="64" transform="translate(160 64) rotate(-180)"/>
      <g>
        <g>
          <path class="cls-8" d="M84.43,62c-2.1,0-3.33-.72-3.87-2.31-.19,0-.38,.01-.56,.01s-.37,0-.56-.01c-.54,1.59-1.77,2.31-3.87,2.31-3.32,0-4.93-1.77-4.93-5.4,0-.98,.11-1.89,.33-2.7-.18-.65-.29-1.36-.32-2.1-1.09-.64-1.64-1.78-1.64-3.4,0-.26,.01-.52,.03-.79-1.28-1.65-1.93-3.69-1.93-6.07,0-7.11,5.78-12.89,12.89-12.89s12.89,5.78,12.89,12.89c0,2.38-.65,4.42-1.93,6.07,.02,.27,.03,.53,.03,.79,0,1.62-.55,2.76-1.64,3.4-.03,.74-.14,1.44-.32,2.1,.22,.81,.33,1.72,.33,2.7,0,3.63-1.61,5.4-4.93,5.4Z"/>
          <path class="cls-8" d="M80,29.65c6.57,0,11.89,5.32,11.89,11.89,0,2.42-.72,4.32-1.96,5.76,.04,.35,.07,.71,.07,1.1,0,1.49-.52,2.37-1.64,2.76,0,.05,0,.1,0,.14,0,.96-.13,1.83-.37,2.59,.25,.8,.37,1.72,.37,2.7,0,3.08-1.18,4.4-3.93,4.4-2.04,0-2.83-.73-3.1-2.37-.43,.04-.88,.07-1.33,.07s-.9-.03-1.33-.07c-.27,1.64-1.06,2.37-3.1,2.37-2.75,0-3.93-1.32-3.93-4.4,0-.98,.12-1.9,.37-2.7-.24-.76-.37-1.62-.37-2.59,0-.05,0-.1,0-.14-1.12-.39-1.64-1.27-1.64-2.76,0-.38,.03-.75,.07-1.1-1.24-1.45-1.96-3.35-1.96-5.76,0-6.57,5.32-11.89,11.89-11.89m0-2c-7.66,0-13.89,6.23-13.89,13.89,0,2.47,.64,4.61,1.9,6.38,0,.16-.01,.32-.01,.49,0,2.04,.76,3.25,1.68,3.95,.05,.53,.13,1.05,.25,1.54-.2,.83-.3,1.73-.3,2.7,0,5.29,3.23,6.4,5.93,6.4,2.13,0,3.61-.72,4.43-2.15,.82,1.43,2.31,2.15,4.43,2.15,2.71,0,5.93-1.11,5.93-6.4,0-.97-.1-1.87-.3-2.7,.12-.49,.2-1.01,.25-1.54,.92-.71,1.68-1.91,1.68-3.95,0-.16,0-.32-.01-.49,1.26-1.77,1.9-3.91,1.9-6.38,0-7.66-6.23-13.89-13.89-13.89h0Z"/>
        </g>
        <path class="cls-9" d="M90,48.4c0,2.11-1.01,3.01-3.36,3.01s-2.76-1.71-2.76-3.01c0-2.11,.9-3.82,3.25-3.82s2.88,1.71,2.88,3.82Z"/>
        <path class="cls-9" d="M70,48.4c0,2.11,1.01,3.01,3.36,3.01s2.76-1.71,2.76-3.01c0-2.11-.9-3.82-3.25-3.82s-2.88,1.71-2.88,3.82Z"/>
        <path class="cls-10" d="M88.37,56.6c0,3.08-1.18,4.4-3.93,4.4s-3.23-1.32-3.23-4.4,.48-5.58,3.23-5.58,3.93,2.5,3.93,5.58Z"/>
        <path class="cls-10" d="M71.63,56.6c0,3.08,1.18,4.4,3.93,4.4s3.23-1.32,3.23-4.4-.48-5.58-3.23-5.58-3.93,2.5-3.93,5.58Z"/>
        <path class="cls-5" d="M88.37,51.31c0,5.18-3.75,7.39-8.37,7.39s-8.37-2.21-8.37-7.39,3.75-9.38,8.37-9.38,8.37,4.2,8.37,9.38Z"/>
        <path class="cls-9" d="M88.77,46.02c0,5.07-3.93,7.24-8.77,7.24s-8.77-2.17-8.77-7.24,3.93-9.19,8.77-9.19,8.77,4.11,8.77,9.19Z"/>
        <path class="cls-7" d="M91.89,41.54c0,6.57-5.32,9.38-11.89,9.38s-11.89-2.81-11.89-9.38,5.32-11.89,11.89-11.89,11.89,5.32,11.89,11.89Z"/>
        <path class="cls-10" d="M80.02,56.7c-2.86,0-5.48-.48-7.45-1.51,1.39,2.43,1.55,3.51,7.45,3.51s6.03-1.09,7.42-3.52c-1.97,1.04-4.56,1.52-7.42,1.52Z"/>
        <path class="cls-4" d="M80,29.65c-6.23,0-11.33,4.79-11.84,10.88,.51,5.86,5.62,8.39,11.84,8.39s11.33-2.53,11.84-8.39c-.51-6.09-5.62-10.88-11.84-10.88Z"/>
        <path class="cls-3" d="M80,45.92c-5.17,0-9.63-1.45-11.74-4.7,.85,5.36,5.77,9.7,11.74,9.7s10.9-4.34,11.74-9.7c-2.11,3.24-6.57,4.7-11.74,4.7Z"/>
      </g>
    </g>
    <g>
      <rect class="cls-2" x="32" y="0" width="32" height="64"/>
      <g>
        <g>
          <path class="cls-8" d="M48.33,62c-4.06,0-6.12-1.62-6.28-4.96-.25-.28-.46-.56-.64-.84-.84-1.34-1.27-2.98-1.27-4.88,0-.68,.06-1.37,.17-2.06-.71-.55-1.32-1.17-1.82-1.87-.11,.1-.22,.2-.33,.29-.31,.28-.71,.43-1.11,.43-.48,0-.94-.21-1.26-.57-.32-.36-.48-.85-.42-1.33,.13-1.16,.62-2.29,1.46-3.36-.01-.1-.02-.2-.03-.31-.03-.31-.05-.65-.05-.99,0-7.11,5.78-12.89,12.89-12.89s12.89,5.78,12.89,12.89c0,2.94-1.02,5.41-2.97,7.2,0,.18-.02,.38-.04,.59-.03,.35-.08,.67-.15,.95,.23,.72,.2,1.46,.15,2.05-.15,1.63-.71,3.49-3.62,3.8-.01,.02-.02,.04-.03,.05-.58,.92-1.36,1.68-2.32,2.26-.4,2.52-1.96,3.56-5.23,3.56Z"/>
          <path class="cls-8" d="M49.65,29.65c6.57,0,11.89,5.32,11.89,11.89,0,3.01-1.13,5.23-2.98,6.75,.02,.3,0,.62-.02,.94-.04,.39-.1,.76-.2,1.1,.25,.56,.27,1.21,.2,1.9-.15,1.57-.64,2.85-3.25,2.93-.08,.16-.16,.33-.25,.48-.6,.96-1.43,1.67-2.41,2.17-.2,2.21-1.13,3.18-4.3,3.18-3.69,0-5.28-1.31-5.29-4.37-.29-.29-.56-.61-.79-.97-.7-1.12-1.12-2.55-1.12-4.35,0-.87,.1-1.7,.28-2.5-1.14-.77-2.07-1.76-2.71-2.99,0,0,0,0,0,0-.42,.39-.82,.76-1.21,1.1-.14,.12-.29,.18-.45,.18-.38,0-.74-.34-.69-.79,.1-.91,.5-2.01,1.51-3.17-.03-.23-.06-.45-.08-.69-.03-.3-.05-.6-.05-.91,0-6.57,5.32-11.89,11.89-11.89m0-2c-7.66,0-13.89,6.23-13.89,13.89,0,.32,.02,.64,.05,1.01-.81,1.12-1.28,2.31-1.42,3.54-.09,.77,.16,1.54,.67,2.11,.51,.57,1.24,.9,2.01,.9,.45,0,.89-.12,1.28-.33,.28,.31,.58,.61,.91,.89-.07,.55-.1,1.1-.1,1.65,0,2.1,.48,3.92,1.42,5.42,.15,.24,.32,.48,.51,.71,.24,2.7,1.79,5.56,7.25,5.56,2.29,0,5.31-.43,6.13-3.94,.81-.55,1.5-1.22,2.05-2.01,2.43-.42,3.78-1.98,4.02-4.64,.06-.62,.09-1.38-.11-2.17,.05-.26,.09-.53,.11-.83,0-.08,.01-.16,.02-.23,1.96-1.95,2.99-4.57,2.99-7.64,0-7.66-6.23-13.89-13.89-13.89h0Z"/>
        </g>
        <path class="cls-10" d="M43.04,56.6c0,3.08,1.59,4.4,5.29,4.4s4.35-1.32,4.35-4.4-.65-5.58-4.35-5.58-5.29,2.5-5.29,5.58Z"/>
        <path class="cls-9" d="M53.96,52.12c3.79,.35,4.42-1.07,4.58-2.89,.17-1.81-.18-3.33-3.98-3.68-3.79-.35-7.01,.83-7.17,2.65s2.77,3.57,6.57,3.92Z"/>
        <path class="cls-5" d="M55.04,55.65c.7-1.11,1.11-2.54,1.11-4.34,0-5.18-3.36-9.38-7.5-9.38s-7.5,4.2-7.5,9.38c0,1.8,.41,3.23,1.12,4.35,1.81,.71,4.02,1.05,6.4,1.05s4.57-.34,6.38-1.05Z"/>
        <path class="cls-10" d="M55.04,55.65c-1.81,.71-4,1.05-6.38,1.05s-4.59-.34-6.4-1.05c1.32,2.09,3.68,3.04,6.38,3.04,0,0,.01,0,.02,0,2.71,0,5.07-.95,6.39-3.05Z"/>
        <path class="cls-9" d="M56.15,45.92c0,4.96-3.36,7.08-7.5,7.08s-7.5-2.12-7.5-7.08,3.36-8.99,7.5-8.99,7.5,4.02,7.5,8.99Z"/>
        <path class="cls-5" d="M53.96,55.12c3.79,.35,4.42-1.07,4.58-2.89,.17-1.81-.18-3.33-3.98-3.68-3.79-.35-7.01,.83-7.17,2.65s2.77,3.57,6.57,3.92Z"/>
        <path class="cls-1" d="M61.54,41.54c0,6.57-5.32,9.38-11.89,9.38s-11.89-2.81-11.89-9.38,5.32-11.89,11.89-11.89,11.89,5.32,11.89,11.89Z"/>
        <ellipse class="cls-8" cx="55.17" cy="44.58" rx="1.47" ry="2.45"/>
        <path class="cls-1" d="M48.65,58.7s0,0,0,0c0,0-.01,0-.02,0,0,0,0,0,.01,0Z"/>
        <path class="cls-7" d="M59.98,35.67h0c-2.05-3.6-5.9-6.02-10.34-6.02-6.57,0-11.89,5.32-11.89,11.89,0,4.29,2.28,6.97,5.7,8.32,2.48-1.4,4.15-3.72,4.15-3.72,.49,.65,1.63,1.22,1.63,1.22,1.52-2.92,1.82-6.38,1.82-6.38,5.09-1.63,8.93-5.3,8.93-5.3Z"/>
        <path class="cls-7" d="M61.21,38.82c-.53-2.26-1.7-4.27-3.31-5.82-.92,.61-1.82,1.54-2.08,2.21-1.31,3.38-.15,6.03-.15,6.03,3,0,4.52-1.24,5.53-2.42Z"/>
        <path class="cls-4" d="M49.65,29.65c-6.57,0-11.89,5.32-11.89,11.89,0,.56,.05,1.09,.13,1.6-1.01,1.16-1.41,2.26-1.51,3.17-.07,.64,.66,1.04,1.14,.61,.39-.34,.79-.71,1.21-1.1,.46-.43,.94-.84,1.42-1.24,.04-.03,.08-.07,.12-.1,.48-.38,.96-.75,1.46-1.1,.04-.03,.09-.06,.13-.09,.5-.35,1.02-.69,1.53-1,.03-.02,.06-.03,.08-.05,.54-.33,1.08-.64,1.62-.93,7.45-4.02,15.28-4.9,15.28-4.9h0c-1.92-4-5.99-6.77-10.72-6.77Zm5.66,5.63h0c-.12-1.25,.36-2.49,1.32-3.35,.96,.7,1.81,1.54,2.53,2.5-2.12,.32-3.85,.85-3.85,.85Z"/>
      </g>
    </g>
    <g>
      <rect class="cls-2" x="96" y="0" width="32" height="64" transform="translate(224 64) rotate(-180)"/>
      <g>
        <g>
          <path class="cls-8" d="M111.67,62c-3.27,0-4.83-1.04-5.23-3.56-.96-.58-1.74-1.34-2.32-2.26-.01-.02-.02-.04-.03-.06-2.91-.31-3.47-2.17-3.62-3.8-.05-.59-.08-1.32,.15-2.05-.07-.29-.12-.6-.15-.95-.02-.21-.03-.4-.04-.59-1.97-1.8-2.97-4.22-2.97-7.2,0-7.11,5.78-12.89,12.89-12.89s12.89,5.78,12.89,12.89c0,.35-.02,.68-.05,1.01,0,.1-.02,.2-.03,.3,.84,1.07,1.33,2.2,1.46,3.36,.05,.49-.1,.97-.42,1.33-.32,.36-.78,.57-1.26,.57-.41,0-.8-.15-1.11-.43-.11-.1-.22-.19-.33-.29-.5,.69-1.11,1.32-1.82,1.87,.12,.69,.17,1.38,.17,2.06,0,1.9-.43,3.55-1.27,4.88-.18,.29-.39,.56-.64,.84-.16,3.34-2.22,4.96-6.28,4.96Z"/>
          <path class="cls-8" d="M110.35,29.65c6.57,0,11.89,5.32,11.89,11.89,0,.32-.02,.62-.05,.91-.02,.24-.05,.46-.08,.69,1.01,1.16,1.41,2.26,1.51,3.17,.05,.45-.31,.79-.69,.79-.15,0-.31-.05-.45-.18-.39-.34-.79-.71-1.21-1.1,0,0,0,0,0,0-.63,1.23-1.56,2.22-2.71,2.99,.18,.8,.28,1.63,.28,2.5,0,1.8-.41,3.23-1.12,4.35-.23,.36-.5,.68-.79,.97-.01,3.06-1.6,4.37-5.29,4.37-3.17,0-4.1-.97-4.3-3.18-.97-.5-1.8-1.21-2.41-2.17-.09-.15-.17-.32-.25-.48-2.61-.08-3.1-1.36-3.25-2.93-.06-.69-.05-1.34,.2-1.9-.1-.34-.16-.71-.2-1.1-.03-.33-.04-.64-.02-.94-1.85-1.52-2.98-3.73-2.98-6.75,0-6.57,5.32-11.89,11.89-11.89m0-2c-7.66,0-13.89,6.23-13.89,13.89,0,3.07,1.03,5.69,2.99,7.64,0,.08,.01,.15,.02,.23,.03,.3,.07,.57,.11,.83-.2,.79-.17,1.56-.11,2.17,.25,2.66,1.6,4.21,4.02,4.64,.55,.79,1.24,1.46,2.05,2.01,.81,3.51,3.83,3.94,6.13,3.94,5.46,0,7.01-2.86,7.25-5.56,.19-.23,.36-.47,.51-.71,.94-1.5,1.42-3.32,1.42-5.42,0-.55-.03-1.1-.1-1.65,.32-.28,.63-.58,.91-.89,.39,.22,.83,.33,1.28,.33,.76,0,1.49-.33,2.01-.9,.51-.57,.76-1.34,.67-2.11-.14-1.23-.61-2.42-1.42-3.54,.03-.35,.05-.68,.05-1.01,0-7.66-6.23-13.89-13.89-13.89h0Z"/>
        </g>
        <path class="cls-10" d="M116.96,56.6c0,3.08-1.59,4.4-5.29,4.4s-4.35-1.32-4.35-4.4,.65-5.58,4.35-5.58,5.29,2.5,5.29,5.58Z"/>
        <path class="cls-9" d="M106.04,52.12c-3.79,.35-4.42-1.07-4.58-2.89-.17-1.81,.18-3.33,3.98-3.68,3.79-.35,7.01,.83,7.17,2.65s-2.77,3.57-6.57,3.92Z"/>
        <path class="cls-5" d="M104.96,55.65c-.7-1.11-1.11-2.54-1.11-4.34,0-5.18,3.36-9.38,7.5-9.38s7.5,4.2,7.5,9.38c0,1.8-.41,3.23-1.12,4.35-1.81,.71-4.02,1.05-6.4,1.05s-4.57-.34-6.38-1.05Z"/>
        <path class="cls-10" d="M104.96,55.65c1.81,.71,4,1.05,6.38,1.05s4.59-.34,6.4-1.05c-1.32,2.09-3.68,3.04-6.38,3.04,0,0-.01,0-.02,0-2.71,0-5.07-.95-6.39-3.05Z"/>
        <path class="cls-9" d="M103.85,45.92c0,4.96,3.36,7.08,7.5,7.08s7.5-2.12,7.5-7.08-3.36-8.99-7.5-8.99-7.5,4.02-7.5,8.99Z"/>
        <path class="cls-5" d="M106.04,55.12c-3.79,.35-4.42-1.07-4.58-2.89-.17-1.81,.18-3.33,3.98-3.68,3.79-.35,7.01,.83,7.17,2.65s-2.77,3.57-6.57,3.92Z"/>
        <path class="cls-1" d="M98.46,41.54c0,6.57,5.32,9.38,11.89,9.38s11.89-2.81,11.89-9.38-5.32-11.89-11.89-11.89-11.89,5.32-11.89,11.89Z"/>
        <ellipse class="cls-8" cx="104.83" cy="44.58" rx="1.47" ry="2.45"/>
        <path class="cls-1" d="M111.35,58.7s0,0,0,0c0,0,.01,0,.02,0,0,0,0,0-.01,0Z"/>
        <path class="cls-7" d="M100.02,35.67h0c2.05-3.6,5.9-6.02,10.34-6.02,6.57,0,11.89,5.32,11.89,11.89,0,4.29-2.28,6.97-5.7,8.32-2.48-1.4-4.15-3.72-4.15-3.72-.49,.65-1.63,1.22-1.63,1.22-1.52-2.92-1.82-6.38-1.82-6.38-5.09-1.63-8.93-5.3-8.93-5.3Z"/>
        <path class="cls-7" d="M98.79,38.82c.53-2.26,1.7-4.27,3.31-5.82,.92,.61,1.82,1.54,2.08,2.21,1.31,3.38,.15,6.03,.15,6.03-3,0-4.52-1.24-5.53-2.42Z"/>
        <path class="cls-4" d="M99.64,36.41h0s7.83,.88,15.28,4.9c.54,.29,1.08,.6,1.62,.93,.03,.02,.06,.03,.08,.05,.52,.32,1.03,.65,1.53,1,.04,.03,.09,.06,.13,.09,.5,.35,.98,.71,1.46,1.1,.04,.03,.08,.07,.12,.1,.49,.4,.96,.81,1.42,1.24,.42,.39,.82,.76,1.21,1.1,.48,.43,1.21,.02,1.14-.61-.1-.91-.5-2.01-1.51-3.17,.08-.51,.13-1.04,.13-1.6,0-6.57-5.32-11.89-11.89-11.89-4.73,0-8.8,2.77-10.72,6.77Zm1.21-1.99c.71-.95,1.57-1.8,2.53-2.5,.96,.86,1.44,2.11,1.32,3.35h0s-1.72-.53-3.85-.85Z"/>
      </g>
    </g>
  </g>
</svg>