<?xml version="1.0" encoding="UTF-8"?>
<svg id="Layer_2" data-name="Layer 2" xmlns="http://www.w3.org/2000/svg" viewBox="0 0 128 64">
  <defs>
    <style>
      .cls-1 {
        fill: #fff;
      }

      .cls-2 {
        fill: #9ee651;
        opacity: 0;
      }

      .cls-3 {
        fill: #8dd63e;
      }

      .cls-4 {
        fill: #cbe0de;
      }

      .cls-5 {
        fill: #ffd640;
      }

      .cls-6 {
        fill: #1dbff0;
      }

      .cls-7 {
        fill: #604369;
      }

      .cls-8 {
        fill: #f25d4a;
      }
    </style>
  </defs>
  <g id="Finals">
    <g>
      <rect class="cls-2" x="32" y="0" width="32" height="64"/>
      <g>
        <g>
          <path class="cls-7" d="M48.33,62c-4.05,0-6.1-1.62-6.28-4.94-1.27-1.45-1.91-3.38-1.91-5.75,0-.68,.06-1.37,.17-2.06-2.34-1.81-3.56-4.46-3.56-7.7,0-7.11,5.78-12.89,12.89-12.89s12.89,5.78,12.89,12.89c0,2.98-1,5.4-2.97,7.2,0,.18-.02,.38-.04,.59-.03,.35-.08,.67-.15,.95,.23,.72,.2,1.46,.15,2.05-.15,1.62-.71,3.49-3.61,3.8-.59,.96-1.38,1.75-2.36,2.34-.41,2.51-1.96,3.54-5.23,3.54Z"/>
          <path class="cls-7" d="M49.65,29.65c6.57,0,11.89,5.32,11.89,11.89,0,3.01-1.13,5.23-2.98,6.75,.02,.3,0,.62-.02,.94-.04,.39-.1,.76-.2,1.1,.25,.56,.27,1.21,.2,1.9-.15,1.57-.64,2.85-3.22,2.93-.62,1.21-1.55,2.09-2.68,2.67-.21,2.2-1.14,3.17-4.3,3.17-3.68,0-5.27-1.3-5.29-4.34-1.18-1.2-1.9-2.95-1.9-5.35,0-.87,.1-1.7,.28-2.5-2.26-1.52-3.67-3.89-3.67-7.27,0-6.57,5.32-11.89,11.89-11.89m0-2c-7.66,0-13.89,6.23-13.89,13.89,0,3.35,1.2,6.13,3.49,8.12-.07,.55-.1,1.1-.1,1.65,0,2.44,.67,4.55,1.94,6.14,.25,2.69,1.8,5.55,7.25,5.55,2.29,0,5.31-.43,6.12-3.92,.81-.55,1.5-1.23,2.06-2.03,2.42-.42,3.77-1.98,4.02-4.63,.06-.62,.09-1.38-.11-2.17,.05-.26,.09-.53,.11-.83,0-.08,.01-.16,.02-.23,1.96-1.95,2.99-4.57,2.99-7.64,0-7.66-6.23-13.89-13.89-13.89h0Z"/>
        </g>
        <path class="cls-6" d="M53.96,52.12c3.79,.35,4.42-1.07,4.58-2.89,.17-1.81-.18-3.33-3.98-3.68-3.79-.35-7.01,.83-7.17,2.65s2.77,3.57,6.57,3.92Z"/>
        <path class="cls-3" d="M43.04,56.6c0,3.08,1.59,4.4,5.29,4.4s4.35-1.32,4.35-4.4-.65-5.58-4.35-5.58-5.29,2.5-5.29,5.58Z"/>
        <path class="cls-1" d="M56.15,51.31c0,5.18-3.36,7.39-7.5,7.39s-7.5-2.21-7.5-7.39,3.36-9.38,7.5-9.38,7.5,4.2,7.5,9.38Z"/>
        <path class="cls-4" d="M56.15,45.92c0,4.96-3.36,7.08-7.5,7.08s-7.5-2.12-7.5-7.08,3.36-8.99,7.5-8.99,7.5,4.02,7.5,8.99Z"/>
        <path class="cls-8" d="M53.96,55.12c3.79,.35,4.42-1.07,4.58-2.89,.17-1.81-.18-3.33-3.98-3.68-3.79-.35-7.01,.83-7.17,2.65s2.77,3.57,6.57,3.92Z"/>
        <path class="cls-1" d="M61.54,41.54c0,6.57-5.32,9.38-11.89,9.38s-11.89-2.81-11.89-9.38,5.32-11.89,11.89-11.89,11.89,5.32,11.89,11.89Z"/>
        <ellipse class="cls-7" cx="55.17" cy="44.58" rx="1.47" ry="2.45"/>
      </g>
    </g>
    <g>
      <rect class="cls-2" y="0" width="32" height="64"/>
      <g>
        <g>
          <path class="cls-7" d="M20.43,62c-2.1,0-3.33-.72-3.87-2.31-.19,0-.38,.01-.56,.01s-.37,0-.56-.01c-.54,1.59-1.77,2.31-3.87,2.31-3.32,0-4.93-1.77-4.93-5.4,0-.26,0-.52,.03-.78-1.1-.64-1.66-1.78-1.66-3.41,0-.7,0-2.48,1.06-3.67-1.94-1.78-2.95-4.24-2.95-7.19,0-7.11,5.78-12.89,12.89-12.89s12.89,5.78,12.89,12.89c0,2.95-1.02,5.41-2.95,7.19,1.06,1.19,1.06,2.98,1.06,3.67,0,1.63-.56,2.78-1.66,3.41,.02,.26,.03,.52,.03,.78,0,3.63-1.61,5.4-4.93,5.4Z"/>
          <path class="cls-7" d="M16,29.65c6.57,0,11.89,5.32,11.89,11.89,0,3.34-1.38,5.7-3.59,7.22,0,.01,0,.02-.01,.03,1.35,.5,1.71,1.92,1.71,3.62,0,1.53-.54,2.42-1.73,2.79,.06,.45,.09,.92,.09,1.4,0,3.08-1.18,4.4-3.93,4.4-2.04,0-2.83-.73-3.1-2.37-.43,.04-.88,.07-1.33,.07s-.9-.03-1.33-.07c-.27,1.64-1.06,2.37-3.1,2.37-2.75,0-3.93-1.32-3.93-4.4,0-.48,.03-.95,.09-1.4-1.19-.38-1.73-1.26-1.73-2.79,0-1.7,.36-3.12,1.71-3.62,0-.01,0-.02-.01-.03-2.21-1.52-3.59-3.88-3.59-7.22,0-6.57,5.32-11.89,11.89-11.89m0-2c-7.66,0-13.89,6.23-13.89,13.89,0,2.92,.91,5.4,2.65,7.3-.5,.92-.76,2.11-.76,3.56,0,2.03,.77,3.22,1.64,3.91,0,.09,0,.19,0,.28,0,5.29,3.23,6.4,5.93,6.4,2.13,0,3.61-.72,4.43-2.15,.82,1.43,2.31,2.15,4.43,2.15,2.71,0,5.93-1.11,5.93-6.4,0-.09,0-.19,0-.28,.86-.7,1.64-1.88,1.64-3.91,0-1.45-.25-2.64-.76-3.56,1.74-1.9,2.65-4.39,2.65-7.3,0-7.66-6.23-13.89-13.89-13.89h0Z"/>
        </g>
        <path class="cls-5" d="M24.37,56.6c0,3.08-1.18,4.4-3.93,4.4s-3.23-1.32-3.23-4.4,.48-5.58,3.23-5.58,3.93,2.5,3.93,5.58Z"/>
        <path class="cls-3" d="M7.63,56.6c0,3.08,1.18,4.4,3.93,4.4s3.23-1.32,3.23-4.4-.48-5.58-3.23-5.58-3.93,2.5-3.93,5.58Z"/>
        <path class="cls-1" d="M24.37,51.31c0,5.18-3.75,7.39-8.37,7.39s-8.37-2.21-8.37-7.39,3.75-9.38,8.37-9.38,8.37,4.2,8.37,9.38Z"/>
        <path class="cls-4" d="M24.77,46.02c0,5.07-3.93,7.24-8.77,7.24s-8.77-2.17-8.77-7.24,3.93-9.19,8.77-9.19,8.77,4.11,8.77,9.19Z"/>
        <path class="cls-6" d="M26,52.4c0,2.11-1.01,3.01-3.36,3.01s-2.76-1.71-2.76-3.01c0-2.11,.9-3.82,3.25-3.82s2.88,1.71,2.88,3.82Z"/>
        <path class="cls-8" d="M6,52.4c0,2.11,1.01,3.01,3.36,3.01s2.76-1.71,2.76-3.01c0-2.11-.9-3.82-3.25-3.82s-2.88,1.71-2.88,3.82Z"/>
        <path class="cls-1" d="M27.89,41.54c0,6.57-5.32,9.38-11.89,9.38s-11.89-2.81-11.89-9.38,5.32-11.89,11.89-11.89,11.89,5.32,11.89,11.89Z"/>
        <g>
          <ellipse class="cls-7" cx="20.48" cy="44.58" rx="1.47" ry="2.45"/>
          <ellipse class="cls-7" cx="11.52" cy="44.58" rx="1.47" ry="2.45"/>
        </g>
      </g>
    </g>
    <g>
      <rect class="cls-2" x="96" y="0" width="32" height="64" transform="translate(224 64) rotate(-180)"/>
      <g>
        <g>
          <path class="cls-7" d="M111.67,62c-3.27,0-4.82-1.03-5.23-3.54-.98-.59-1.77-1.37-2.36-2.34-2.9-.31-3.46-2.18-3.61-3.8-.05-.59-.08-1.32,.15-2.05-.07-.29-.12-.6-.15-.95-.02-.21-.03-.4-.04-.59-1.97-1.8-2.97-4.22-2.97-7.2,0-7.11,5.78-12.89,12.89-12.89s12.89,5.78,12.89,12.89c0,3.24-1.23,5.89-3.56,7.7,.12,.69,.17,1.38,.17,2.06,0,2.37-.64,4.3-1.91,5.75-.17,3.32-2.23,4.94-6.28,4.94Z"/>
          <path class="cls-7" d="M110.35,29.65c6.57,0,11.89,5.32,11.89,11.89,0,3.37-1.41,5.75-3.67,7.27,.18,.8,.28,1.63,.28,2.5,0,2.39-.72,4.15-1.9,5.35-.02,3.04-1.61,4.34-5.29,4.34-3.16,0-4.09-.97-4.3-3.17-1.14-.58-2.07-1.46-2.68-2.67-2.59-.09-3.08-1.36-3.22-2.93-.06-.69-.05-1.34,.2-1.9-.1-.34-.16-.71-.2-1.1-.03-.33-.04-.64-.02-.94-1.85-1.52-2.98-3.73-2.98-6.75,0-6.57,5.32-11.89,11.89-11.89m0-2c-7.66,0-13.89,6.23-13.89,13.89,0,3.07,1.03,5.69,2.99,7.64,0,.08,.01,.15,.02,.23,.03,.3,.07,.57,.11,.83-.2,.79-.17,1.56-.11,2.17,.25,2.66,1.6,4.21,4.02,4.63,.56,.8,1.24,1.47,2.06,2.03,.82,3.49,3.83,3.92,6.12,3.92,5.45,0,7-2.86,7.25-5.55,1.27-1.59,1.94-3.7,1.94-6.14,0-.55-.03-1.1-.1-1.65,2.29-1.98,3.49-4.77,3.49-8.12,0-7.66-6.23-13.89-13.89-13.89h0Z"/>
        </g>
        <path class="cls-8" d="M106.04,52.12c-3.79,.35-4.42-1.07-4.58-2.89-.17-1.81,.18-3.33,3.98-3.68,3.79-.35,7.01,.83,7.17,2.65s-2.77,3.57-6.57,3.92Z"/>
        <path class="cls-5" d="M116.96,56.6c0,3.08-1.59,4.4-5.29,4.4s-4.35-1.32-4.35-4.4,.65-5.58,4.35-5.58,5.29,2.5,5.29,5.58Z"/>
        <path class="cls-1" d="M103.85,51.31c0,5.18,3.36,7.39,7.5,7.39s7.5-2.21,7.5-7.39-3.36-9.38-7.5-9.38-7.5,4.2-7.5,9.38Z"/>
        <path class="cls-4" d="M103.85,45.92c0,4.96,3.36,7.08,7.5,7.08s7.5-2.12,7.5-7.08-3.36-8.99-7.5-8.99-7.5,4.02-7.5,8.99Z"/>
        <path class="cls-6" d="M106.04,55.12c-3.79,.35-4.42-1.07-4.58-2.89-.17-1.81,.18-3.33,3.98-3.68,3.79-.35,7.01,.83,7.17,2.65s-2.77,3.57-6.57,3.92Z"/>
        <path class="cls-1" d="M98.46,41.54c0,6.57,5.32,9.38,11.89,9.38s11.89-2.81,11.89-9.38c0-6.57-5.32-11.89-11.89-11.89s-11.89,5.32-11.89,11.89Z"/>
        <ellipse class="cls-7" cx="104.83" cy="44.58" rx="1.47" ry="2.45"/>
      </g>
    </g>
    <g>
      <rect class="cls-2" x="64" y="0" width="32" height="64"/>
      <g>
        <g>
          <path class="cls-7" d="M84.43,62c-2.1,0-3.33-.72-3.87-2.31-.19,0-.38,.01-.56,.01s-.37,0-.56-.01c-.54,1.59-1.77,2.31-3.87,2.31-3.32,0-4.93-1.77-4.93-5.4,0-.98,.11-1.89,.33-2.7-.18-.65-.29-1.36-.32-2.1-1.09-.64-1.64-1.78-1.64-3.4,0-.26,.01-.52,.03-.79-1.28-1.65-1.93-3.69-1.93-6.07,0-7.11,5.78-12.89,12.89-12.89s12.89,5.78,12.89,12.89c0,2.38-.65,4.42-1.93,6.07,.02,.27,.03,.53,.03,.79,0,1.62-.55,2.76-1.64,3.4-.03,.74-.14,1.44-.32,2.1,.22,.81,.33,1.72,.33,2.7,0,3.63-1.61,5.4-4.93,5.4Z"/>
          <path class="cls-7" d="M80,29.65c6.57,0,11.89,5.32,11.89,11.89,0,2.42-.72,4.32-1.96,5.76,.04,.35,.07,.71,.07,1.1,0,1.49-.52,2.37-1.64,2.76,0,.05,0,.1,0,.14,0,.96-.13,1.83-.37,2.59,.25,.8,.37,1.72,.37,2.7,0,3.08-1.18,4.4-3.93,4.4-2.04,0-2.83-.73-3.1-2.37-.43,.04-.88,.07-1.33,.07s-.9-.03-1.33-.07c-.27,1.64-1.06,2.37-3.1,2.37-2.75,0-3.93-1.32-3.93-4.4,0-.98,.12-1.9,.37-2.7-.24-.76-.37-1.62-.37-2.59,0-.05,0-.1,0-.14-1.12-.39-1.64-1.27-1.64-2.76,0-.38,.03-.75,.07-1.1-1.24-1.45-1.96-3.35-1.96-5.76,0-6.57,5.32-11.89,11.89-11.89m0-2c-7.66,0-13.89,6.23-13.89,13.89,0,2.47,.64,4.61,1.9,6.38,0,.16-.01,.32-.01,.49,0,2.04,.76,3.25,1.68,3.95,.05,.53,.13,1.05,.25,1.54-.2,.83-.3,1.73-.3,2.7,0,5.29,3.23,6.4,5.93,6.4,2.13,0,3.61-.72,4.43-2.15,.82,1.43,2.31,2.15,4.43,2.15,2.71,0,5.93-1.11,5.93-6.4,0-.97-.1-1.87-.3-2.7,.12-.49,.2-1.01,.25-1.54,.92-.71,1.68-1.91,1.68-3.95,0-.16,0-.32-.01-.49,1.26-1.77,1.9-3.91,1.9-6.38,0-7.66-6.23-13.89-13.89-13.89h0Z"/>
        </g>
        <path class="cls-8" d="M90,48.4c0,2.11-1.01,3.01-3.36,3.01s-2.76-1.71-2.76-3.01c0-2.11,.9-3.82,3.25-3.82s2.88,1.71,2.88,3.82Z"/>
        <path class="cls-6" d="M70,48.4c0,2.11,1.01,3.01,3.36,3.01s2.76-1.71,2.76-3.01c0-2.11-.9-3.82-3.25-3.82s-2.88,1.71-2.88,3.82Z"/>
        <path class="cls-5" d="M88.37,56.6c0,3.08-1.18,4.4-3.93,4.4s-3.23-1.32-3.23-4.4,.48-5.58,3.23-5.58,3.93,2.5,3.93,5.58Z"/>
        <path class="cls-3" d="M71.63,56.6c0,3.08,1.18,4.4,3.93,4.4s3.23-1.32,3.23-4.4-.48-5.58-3.23-5.58-3.93,2.5-3.93,5.58Z"/>
        <path class="cls-1" d="M88.37,51.31c0,5.18-3.75,7.39-8.37,7.39s-8.37-2.21-8.37-7.39,3.75-9.38,8.37-9.38,8.37,4.2,8.37,9.38Z"/>
        <path class="cls-4" d="M88.77,46.02c0,5.07-3.93,7.24-8.77,7.24s-8.77-2.17-8.77-7.24,3.93-9.19,8.77-9.19,8.77,4.11,8.77,9.19Z"/>
        <path class="cls-1" d="M91.89,41.54c0,6.57-5.32,9.38-11.89,9.38s-11.89-2.81-11.89-9.38,5.32-11.89,11.89-11.89,11.89,5.32,11.89,11.89Z"/>
      </g>
    </g>
  </g>
</svg>