<?xml version="1.0" encoding="UTF-8"?>
<svg id="Layer_2" data-name="Layer 2" xmlns="http://www.w3.org/2000/svg" viewBox="0 0 128 64">
  <defs>
    <style>
      .cls-1 {
        fill: #fff;
      }

      .cls-2 {
        fill: #9ee651;
        opacity: 0;
      }

      .cls-3 {
        fill: #8dd63e;
      }

      .cls-4 {
        fill: #cbe0de;
      }

      .cls-5 {
        fill: #ffd640;
      }

      .cls-6 {
        fill: #1dbff0;
      }

      .cls-7 {
        fill: #604369;
      }

      .cls-8 {
        fill: #f25d4a;
      }
    </style>
  </defs>
  <g id="Finals">
    <g>
      <rect class="cls-2" y="0" width="32" height="64"/>
      <g>
        <g>
          <path class="cls-7" d="M20.71,60.15c-1.67,0-2.61-1.14-3.32-2.52-.46,.05-.93,.07-1.39,.07s-.92-.02-1.39-.07c-.71,1.38-1.65,2.52-3.32,2.52-.6,0-1.27-.16-2.04-.48-1.56-.65-2.52-1.53-2.93-2.71-.4-1.13-.25-2.5,.44-4.17,.09-.22,.19-.44,.29-.65-.12-.39-.21-.79-.28-1.21-.09,.02-.19,.05-.28,.07-.69,.16-1.29,.23-1.83,.23-2.69,0-3.16-2.04-3.33-2.81-.18-.78-.31-1.79,.28-2.71,.52-.82,1.47-1.39,2.97-1.77-.97-1.52-1.47-3.34-1.47-5.41,0-7.11,5.78-12.89,12.89-12.89s12.89,5.78,12.89,12.89c0,2.05-.48,3.85-1.43,5.36,1.48,.38,2.42,.94,2.93,1.76,.58,.92,.46,1.94,.28,2.71-.17,.77-.64,2.81-3.33,2.81h0c-.54,0-1.13-.08-1.83-.23-.09-.02-.18-.04-.27-.07-.07,.44-.16,.87-.29,1.27,.1,.21,.2,.42,.29,.65,.69,1.68,.84,3.04,.44,4.17-.41,1.17-1.37,2.06-2.93,2.71-.77,.32-1.44,.48-2.04,.48Z"/>
          <path class="cls-7" d="M16,26.65c6.57,0,11.89,5.32,11.89,11.89,0,2.58-.83,4.57-2.23,6.05,.41,.05,.82,.11,1.25,.21,2.99,.68,3.11,1.93,2.78,3.35-.26,1.13-.71,2.03-2.36,2.03-.44,0-.97-.07-1.61-.21-.49-.11-.95-.25-1.38-.41-.02,1-.19,1.89-.48,2.67,.16,.3,.31,.62,.45,.95,1.18,2.85,.59,4.52-1.95,5.57-.65,.27-1.19,.4-1.66,.4-1.23,0-1.96-.9-2.73-2.6-.63,.1-1.29,.15-1.98,.15s-1.34-.05-1.98-.15c-.77,1.7-1.5,2.6-2.73,2.6-.47,0-1.01-.13-1.66-.4-2.54-1.05-3.13-2.72-1.95-5.57,.14-.33,.29-.65,.45-.95-.28-.76-.45-1.63-.48-2.61-.44,.16-.9,.3-1.38,.41-.63,.14-1.16,.21-1.61,.21-1.64,0-2.1-.9-2.36-2.03-.33-1.43-.21-2.67,2.78-3.35,.45-.1,.88-.17,1.3-.21-1.43-1.48-2.28-3.49-2.28-6.11,0-6.57,5.32-11.89,11.89-11.89m0-2c-7.66,0-13.89,6.23-13.89,13.89,0,1.79,.34,3.41,1,4.83-1.09,.44-1.85,1.03-2.35,1.81-.79,1.25-.61,2.58-.41,3.47,.54,2.38,1.99,3.59,4.31,3.59,.4,0,.83-.04,1.3-.11-.04,.1-.08,.19-.12,.29-2.02,4.89,.53,7.15,3.03,8.18,.9,.37,1.69,.55,2.43,.55,2,0,3.18-1.3,3.89-2.47,.27,.02,.55,.02,.82,.02s.55,0,.82-.02c.71,1.17,1.89,2.47,3.89,2.47,.74,0,1.53-.18,2.43-.55,2.5-1.04,5.06-3.3,3.03-8.18-.05-.12-.1-.23-.15-.35,0,0,0,0,0,0,.48,.08,.91,.12,1.32,.12,2.32,0,3.76-1.21,4.31-3.59,.2-.89,.38-2.22-.41-3.47-.49-.78-1.25-1.37-2.33-1.8,.65-1.41,.98-3.01,.98-4.78,0-7.66-6.23-13.89-13.89-13.89h0Z"/>
        </g>
        <path class="cls-5" d="M24.32,53.18c1.18,2.85,.59,4.52-1.95,5.57s-3.49,.02-4.67-2.83-1.69-5.34,.85-6.4,4.59,.8,5.77,3.65Z"/>
        <g>
          <path class="cls-6" d="M26.91,44.8c2.99,.68,3.11,1.93,2.78,3.35s-.97,2.5-3.96,1.82-5.15-2.39-4.82-3.82c.33-1.43,3.01-2.04,6-1.36Z"/>
          <path class="cls-8" d="M5.09,44.86c-2.99,.68-3.11,1.93-2.78,3.35s.97,2.5,3.96,1.82c2.99-.68,5.15-2.39,4.82-3.82s-3.01-2.04-6-1.36Z"/>
        </g>
        <path class="cls-3" d="M7.68,53.18c-1.18,2.85-.59,4.52,1.95,5.57s3.49,.02,4.67-2.83,1.69-5.34-.85-6.4-4.59,.8-5.77,3.65Z"/>
        <path class="cls-1" d="M24.37,49.31c0,5.18-3.75,7.39-8.37,7.39s-8.37-2.21-8.37-7.39,3.75-9.38,8.37-9.38,8.37,4.2,8.37,9.38Z"/>
        <path class="cls-4" d="M24.77,43.02c0,5.07-3.93,7.24-8.77,7.24s-8.77-2.17-8.77-7.24,3.93-9.19,8.77-9.19,8.77,4.11,8.77,9.19Z"/>
        <path class="cls-1" d="M27.89,38.54c0,6.57-5.32,9.38-11.89,9.38s-11.89-2.81-11.89-9.38,5.32-11.89,11.89-11.89,11.89,5.32,11.89,11.89Z"/>
        <g>
          <ellipse class="cls-7" cx="20.48" cy="38.58" rx="1.47" ry="2.45"/>
          <ellipse class="cls-7" cx="11.52" cy="38.58" rx="1.47" ry="2.45"/>
        </g>
      </g>
    </g>
    <g>
      <rect class="cls-2" x="64" y="0" width="32" height="64"/>
      <g>
        <g>
          <path class="cls-7" d="M84.71,60.15c-1.67,0-2.61-1.14-3.32-2.52-.46,.05-.93,.07-1.39,.07s-.92-.02-1.39-.07c-.71,1.38-1.65,2.52-3.32,2.52-.6,0-1.27-.16-2.04-.48-1.56-.65-2.52-1.53-2.93-2.71-.4-1.13-.25-2.5,.44-4.17,.09-.22,.19-.44,.29-.65-.12-.39-.21-.79-.28-1.21-.09,.02-.19,.05-.28,.07-.69,.16-1.29,.23-1.83,.23-2.69,0-3.16-2.04-3.33-2.81-.18-.78-.31-1.79,.28-2.71,.52-.82,1.47-1.39,2.97-1.77-.97-1.52-1.47-3.34-1.47-5.41,0-7.11,5.78-12.89,12.89-12.89s12.89,5.78,12.89,12.89c0,2.05-.48,3.85-1.43,5.36,1.48,.38,2.42,.94,2.93,1.76,.58,.92,.46,1.94,.28,2.71-.17,.77-.64,2.81-3.33,2.81h0c-.54,0-1.13-.08-1.83-.23-.09-.02-.18-.04-.27-.07-.07,.44-.16,.86-.29,1.27,.1,.21,.2,.43,.29,.65,.69,1.67,.84,3.04,.44,4.17-.41,1.17-1.37,2.06-2.93,2.71-.77,.32-1.44,.48-2.04,.48Z"/>
          <path class="cls-7" d="M80,26.65c6.57,0,11.89,5.32,11.89,11.89,0,2.58-.83,4.57-2.23,6.05,.41,.05,.82,.11,1.25,.21,2.99,.68,3.11,1.93,2.78,3.35-.26,1.13-.71,2.03-2.36,2.03-.44,0-.97-.07-1.61-.21-.49-.11-.95-.25-1.38-.41-.02,1-.19,1.89-.48,2.67,.16,.3,.31,.62,.45,.95,1.18,2.85,.59,4.52-1.95,5.57-.65,.27-1.19,.4-1.66,.4-1.23,0-1.96-.9-2.73-2.6-.63,.1-1.29,.15-1.98,.15s-1.34-.05-1.98-.15c-.77,1.7-1.5,2.6-2.73,2.6-.47,0-1.01-.13-1.66-.4-2.54-1.05-3.13-2.72-1.95-5.57,.14-.33,.29-.65,.45-.95-.28-.76-.45-1.63-.48-2.61-.44,.16-.9,.3-1.38,.41-.63,.14-1.16,.21-1.61,.21-1.64,0-2.1-.9-2.36-2.03-.33-1.43-.21-2.67,2.78-3.35,.45-.1,.88-.17,1.3-.21-1.43-1.48-2.28-3.49-2.28-6.11,0-6.57,5.32-11.89,11.89-11.89m0-2c-7.66,0-13.89,6.23-13.89,13.89,0,1.79,.34,3.41,1,4.83-1.09,.44-1.85,1.03-2.35,1.81-.79,1.25-.61,2.58-.41,3.47,.54,2.38,1.99,3.59,4.31,3.59,.4,0,.83-.04,1.3-.11-.04,.1-.08,.19-.12,.29-2.02,4.89,.53,7.15,3.03,8.18,.9,.37,1.69,.55,2.43,.55,2,0,3.18-1.3,3.89-2.47,.27,.02,.55,.02,.82,.02s.55,0,.82-.02c.71,1.17,1.89,2.47,3.89,2.47,.74,0,1.53-.18,2.43-.55,2.5-1.04,5.06-3.3,3.03-8.18-.05-.12-.1-.23-.15-.35,0,0,0,0,0,0,.48,.08,.91,.12,1.32,.12,2.32,0,3.76-1.21,4.31-3.59,.2-.89,.38-2.22-.41-3.47-.49-.78-1.25-1.37-2.33-1.8,.65-1.41,.98-3.01,.98-4.78,0-7.66-6.23-13.89-13.89-13.89h0Z"/>
        </g>
        <path class="cls-3" d="M88.32,53.18c1.18,2.85,.59,4.52-1.95,5.57s-3.49,.02-4.67-2.83-1.69-5.34,.85-6.4,4.59,.8,5.77,3.65Z"/>
        <path class="cls-5" d="M71.68,53.18c-1.18,2.85-.59,4.52,1.95,5.57s3.49,.02,4.67-2.83,1.69-5.34-.85-6.4-4.59,.8-5.77,3.65Z"/>
        <path class="cls-1" d="M88.37,49.31c0,5.18-3.75,7.39-8.37,7.39s-8.37-2.21-8.37-7.39,3.75-9.38,8.37-9.38,8.37,4.2,8.37,9.38Z"/>
        <path class="cls-4" d="M88.77,43.02c0,5.07-3.93,7.24-8.77,7.24s-8.77-2.17-8.77-7.24,3.93-9.19,8.77-9.19,8.77,4.11,8.77,9.19Z"/>
        <g>
          <path class="cls-8" d="M90.91,44.8c2.99,.68,3.11,1.93,2.78,3.35s-.97,2.5-3.96,1.82-3.15-2.39-2.82-3.82c.33-1.43,1.01-2.04,4-1.36Z"/>
          <path class="cls-6" d="M69.09,44.86c-2.99,.68-3.11,1.93-2.78,3.35s.97,2.5,3.96,1.82c2.99-.68,3.15-2.39,2.82-3.82s-1.01-2.04-4-1.36Z"/>
        </g>
        <path class="cls-1" d="M91.89,38.54c0,6.57-5.32,9.38-11.89,9.38s-11.89-2.81-11.89-9.38,5.32-11.89,11.89-11.89,11.89,5.32,11.89,11.89Z"/>
      </g>
    </g>
    <g>
      <rect class="cls-2" x="32" y="0" width="32" height="64"/>
      <g>
        <g>
          <path class="cls-7" d="M48.17,60.14c-1.89,0-3.3-.93-4.21-2.76-1.74-.44-3.16-1.34-4.16-2.61-.03-.02-.06-.04-.09-.06-1.46-.92-2.94-2.36-1.57-5.39h0c0-1.25,.18-2.46,.53-3.62-1.92-1.78-2.92-4.24-2.92-7.15,0-7.11,5.78-12.89,12.89-12.89s12.89,5.78,12.89,12.89c0,4.44-2.29,7.72-6.48,9.31,.06,.49,.09,.98,.09,1.46,0,1.25-.19,2.4-.55,3.42,.48,1.32,.82,2.71,.35,3.95-.46,1.19-1.56,2.05-3.57,2.79-1.23,.45-2.27,.67-3.2,.67h0Z"/>
          <path class="cls-7" d="M48.65,26.65c6.57,0,11.89,5.32,11.89,11.89,0,4.66-2.69,7.42-6.59,8.63,.13,.69,.2,1.4,.2,2.13,0,1.33-.22,2.46-.62,3.41,.02,.06,.05,.12,.07,.18,1.06,2.89,.91,4.36-2.56,5.63-1.1,.4-2.04,.61-2.86,.61-1.66,0-2.77-.86-3.5-2.63-1.72-.34-3.19-1.15-4.18-2.51-.08-.05-.16-.09-.24-.15-1.36-.86-2.29-1.89-1.09-4.34,0-.07,0-.14,0-.21,0-1.41,.25-2.73,.7-3.93-1.91-1.52-3.09-3.76-3.09-6.84,0-6.57,5.32-11.89,11.89-11.89m0-2c-7.66,0-13.89,6.23-13.89,13.89,0,2.98,.96,5.52,2.8,7.45-.26,1.01-.4,2.05-.41,3.11-1.14,2.69-.47,4.85,1.99,6.41,1.04,1.27,2.45,2.19,4.15,2.71,1.35,2.38,3.36,2.91,4.89,2.91,1.05,0,2.21-.24,3.55-.73,1.55-.57,3.43-1.47,4.16-3.37,.55-1.42,.25-2.9-.23-4.31,.33-1.04,.5-2.18,.5-3.42,0-.27,0-.54-.03-.81,4.15-1.83,6.42-5.32,6.42-9.95,0-7.66-6.23-13.89-13.89-13.89h0Z"/>
        </g>
        <path class="cls-3" d="M44.54,56.23c1.06,2.89,3.01,3.58,6.48,2.31s3.63-2.74,2.56-5.63-2.54-5.02-6.01-3.74-4.1,4.17-3.04,7.07Z"/>
        <path class="cls-1" d="M54.15,49.31c0,5.18-3.36,7.39-7.5,7.39s-7.5-2.21-7.5-7.39,3.36-9.38,7.5-9.38,7.5,4.2,7.5,9.38Z"/>
        <path class="cls-4" d="M45.75,33.84v16.43c4.64,0,8.4-2.17,8.4-7.24s-3.76-9.19-8.4-9.19Z"/>
        <path class="cls-8" d="M39.75,48.46c-2.03,3.23-1.04,4.42,.5,5.39,1.54,.97,3.05,1.34,5.08-1.88,2.03-3.23,2.43-6.63,.88-7.6-1.54-.97-4.44,.86-6.47,4.08Z"/>
        <path class="cls-1" d="M60.54,38.54c0,6.57-5.32,9.38-11.89,9.38s-11.89-2.81-11.89-9.38,5.32-11.89,11.89-11.89,11.89,5.32,11.89,11.89Z"/>
        <ellipse class="cls-7" cx="54.17" cy="38.58" rx="1.47" ry="2.45"/>
      </g>
    </g>
    <g>
      <rect class="cls-2" x="96" y="0" width="32" height="64" transform="translate(224 64) rotate(-180)"/>
      <g>
        <g>
          <path class="cls-7" d="M111.83,60.14c-.93,0-1.97-.22-3.2-.67-2.01-.74-3.12-1.6-3.57-2.79-.47-1.24-.13-2.62,.35-3.95-.37-1.02-.55-2.17-.55-3.42,0-.48,.03-.97,.09-1.46-4.19-1.59-6.48-4.87-6.48-9.31,0-7.11,5.78-12.89,12.89-12.89s12.89,5.78,12.89,12.89c0,2.92-1.01,5.37-2.92,7.15,.35,1.16,.53,2.37,.53,3.61h0c1.37,3.04-.11,4.48-1.57,5.4-.03,.02-.06,.04-.09,.06-.99,1.28-2.42,2.17-4.16,2.61-.91,1.83-2.32,2.76-4.21,2.76Z"/>
          <path class="cls-7" d="M111.35,26.65c6.57,0,11.89,5.32,11.89,11.89,0,3.07-1.18,5.31-3.09,6.84,.44,1.2,.7,2.53,.7,3.93,0,.07,0,.14,0,.21,1.19,2.44,.26,3.48-1.09,4.34-.08,.05-.16,.1-.24,.15-.99,1.36-2.46,2.17-4.18,2.51-.73,1.77-1.84,2.63-3.5,2.63-.81,0-1.76-.21-2.86-.61-3.47-1.28-3.63-2.74-2.56-5.63,.02-.06,.05-.12,.07-.18-.4-.95-.62-2.08-.62-3.41,0-.74,.07-1.45,.2-2.13-3.9-1.21-6.59-3.97-6.59-8.63,0-6.57,5.32-11.89,11.89-11.89m0-2c-7.66,0-13.89,6.23-13.89,13.89,0,4.64,2.26,8.12,6.42,9.95-.02,.27-.03,.55-.03,.81,0,1.23,.17,2.38,.5,3.42-.48,1.41-.77,2.89-.23,4.31,.73,1.9,2.61,2.8,4.16,3.37,1.34,.49,2.5,.73,3.55,.73,1.53,0,3.53-.53,4.89-2.91,1.7-.51,3.11-1.43,4.15-2.71,2.46-1.57,3.12-3.72,1.99-6.41-.02-1.06-.15-2.1-.41-3.11,1.84-1.93,2.8-4.48,2.8-7.45,0-7.66-6.23-13.89-13.89-13.89h0Z"/>
        </g>
        <path class="cls-5" d="M115.46,56.23c-1.06,2.89-3.01,3.58-6.48,2.31s-3.63-2.74-2.56-5.63,2.54-5.02,6.01-3.74,4.1,4.17,3.04,7.07Z"/>
        <path class="cls-1" d="M105.85,49.31c0,5.18,3.36,7.39,7.5,7.39s7.5-2.21,7.5-7.39-3.36-9.38-7.5-9.38-7.5,4.2-7.5,9.38Z"/>
        <path class="cls-4" d="M114.25,33.84v16.43c-4.64,0-8.4-2.17-8.4-7.24,0-5.07,3.76-9.19,8.4-9.19Z"/>
        <path class="cls-6" d="M120.25,48.46c2.03,3.23,1.04,4.42-.5,5.39-1.54,.97-3.05,1.34-5.08-1.88-2.03-3.23-2.43-6.63-.88-7.6,1.54-.97,4.44,.86,6.47,4.08Z"/>
        <path class="cls-1" d="M99.46,38.54c0,6.57,5.32,9.38,11.89,9.38s11.89-2.81,11.89-9.38-5.32-11.89-11.89-11.89-11.89,5.32-11.89,11.89Z"/>
        <ellipse class="cls-7" cx="105.83" cy="38.58" rx="1.47" ry="2.45"/>
      </g>
    </g>
  </g>
</svg>