<?xml version="1.0" encoding="UTF-8"?>
<svg id="Layer_2" data-name="Layer 2" xmlns="http://www.w3.org/2000/svg" viewBox="0 0 128 64">
  <defs>
    <style>
      .cls-1 {
        fill: #fff;
      }

      .cls-2 {
        fill: #9ee651;
        opacity: 0;
      }

      .cls-3 {
        fill: #2e55fc;
      }

      .cls-4 {
        fill: #1778ff;
      }

      .cls-5 {
        fill: #ffd640;
      }

      .cls-6 {
        fill: #1dbff0;
      }

      .cls-7 {
        fill: #cd1d39;
      }

      .cls-8 {
        fill: #604369;
      }

      .cls-9 {
        fill: #fdaf18;
      }

      .cls-10 {
        fill: #f25d4a;
      }
    </style>
  </defs>
  <g id="Finals">
    <g>
      <rect class="cls-2" x="64" y="0" width="32" height="64"/>
      <g>
        <g>
          <path class="cls-8" d="M80,61.7c-3.64,0-6.43-1.24-7.99-3.53-.42,.22-.86,.34-1.31,.34-.82,0-1.53-.38-2.05-.7-.67-.42-1.48-1.05-1.72-2.12-.23-1.01,.09-2.15,1.01-3.6,.45-.72,.98-1.39,1.53-1.96-1.57-1.72-2.36-3.94-2.36-6.6,0-7.11,5.78-12.89,12.89-12.89s12.89,5.78,12.89,12.89c0,2.66-.79,4.87-2.36,6.6,.56,.57,1.08,1.23,1.53,1.96,1.64,2.61,1.42,4.37-.72,5.72-.52,.33-1.22,.7-2.05,.7h0c-.45,0-.89-.11-1.31-.34-1.56,2.28-4.35,3.53-7.99,3.53Z"/>
          <path class="cls-8" d="M80,31.65c6.57,0,11.89,5.32,11.89,11.89,0,2.93-1.06,5.1-2.82,6.62,.75,.6,1.5,1.44,2.14,2.46,1.63,2.59,.84,3.56-.4,4.34-.5,.31-.99,.55-1.51,.55s-1.04-.22-1.62-.82c-1.28,2.77-4.24,4.01-7.68,4.01s-6.4-1.23-7.68-4.01c-.58,.59-1.11,.82-1.62,.82s-1.01-.23-1.51-.55c-1.24-.78-2.04-1.75-.4-4.34,.64-1.02,1.39-1.86,2.14-2.46-1.75-1.52-2.82-3.69-2.82-6.62,0-6.57,5.32-11.89,11.89-11.89m0-2c-7.66,0-13.89,6.23-13.89,13.89,0,2.53,.7,4.77,2.04,6.56-.38,.45-.74,.94-1.06,1.46-1.93,3.07-1.58,5.45,1.03,7.1,.58,.37,1.49,.86,2.58,.86,.33,0,.66-.04,.98-.13,1.81,2.13,4.73,3.32,8.32,3.32s6.51-1.19,8.32-3.32c.32,.09,.65,.13,.98,.13,1.09,0,1.99-.49,2.58-.86,2.61-1.64,2.96-4.03,1.03-7.1-.33-.52-.68-1.01-1.06-1.46,1.34-1.8,2.04-4.03,2.04-6.56,0-7.66-6.23-13.89-13.89-13.89h0Z"/>
        </g>
        <path class="cls-5" d="M91.22,52.63c1.63,2.59,.84,3.56-.4,4.34s-2.45,1.08-4.09-1.51-1.95-5.33-.71-6.11,3.57,.69,5.2,3.29Z"/>
        <path class="cls-5" d="M68.78,52.63c-1.63,2.59-.84,3.56,.4,4.34s2.45,1.08,4.09-1.51,1.95-5.33,.71-6.11-3.57,.69-5.2,3.29Z"/>
        <path class="cls-5" d="M88.37,53.31c0,5.18-3.75,7.39-8.37,7.39s-8.37-2.21-8.37-7.39,3.75-9.38,8.37-9.38,8.37,4.2,8.37,9.38Z"/>
        <path class="cls-9" d="M87.67,48.02c0,5.07-3.44,7.24-7.67,7.24s-7.67-2.17-7.67-7.24,3.44-9.19,7.67-9.19,7.67,4.11,7.67,9.19Z"/>
        <path class="cls-6" d="M91.89,43.54c0,6.57-5.32,9.38-11.89,9.38s-11.89-2.81-11.89-9.38,5.32-11.89,11.89-11.89,11.89,5.32,11.89,11.89Z"/>
        <path class="cls-4" d="M80,31.65c-6.23,0-11.33,4.79-11.84,10.88,.51,5.86,5.62,8.39,11.84,8.39s11.33-2.53,11.84-8.39c-.51-6.09-5.62-10.88-11.84-10.88Z"/>
        <path class="cls-3" d="M80,47.92c-5.17,0-9.63-1.45-11.74-4.7,.85,5.36,5.77,9.7,11.74,9.7s10.9-4.34,11.74-9.7c-2.11,3.24-6.57,4.7-11.74,4.7Z"/>
        <path class="cls-10" d="M80,58.7c-2.93,0-5.58-.54-7.52-1.7,1.36,2.55,4.21,3.7,7.52,3.7s6.17-1.15,7.52-3.7c-1.94,1.16-4.59,1.7-7.52,1.7Z"/>
      </g>
    </g>
    <g>
      <rect class="cls-2" y="0" width="32" height="64"/>
      <g>
        <g>
          <path class="cls-8" d="M21.43,63c-1.74,0-2.75-.69-3.33-1.45-.67,.1-1.38,.16-2.1,.16s-1.43-.05-2.1-.16c-.58,.76-1.59,1.45-3.33,1.45-3.32,0-4.93-1.48-4.93-4.53,0-.05,0-.11,0-.16-.38-.14-.71-.33-.98-.5-.67-.42-1.48-1.05-1.72-2.12-.23-1.01,.09-2.15,1.01-3.6,.45-.72,.98-1.39,1.53-1.96-1.57-1.72-2.36-3.94-2.36-6.6,0-7.11,5.78-12.89,12.89-12.89s12.89,5.78,12.89,12.89c0,2.66-.79,4.87-2.36,6.6,.56,.57,1.08,1.23,1.53,1.96,1.64,2.61,1.42,4.37-.72,5.72-.28,.17-.61,.36-.98,.5,0,.05,0,.11,0,.16,0,3.05-1.61,4.53-4.93,4.53Z"/>
          <path class="cls-8" d="M16,31.65c6.57,0,11.89,5.32,11.89,11.89,0,2.93-1.06,5.1-2.82,6.62,.75,.6,1.5,1.44,2.14,2.46,1.63,2.59,.84,3.56-.4,4.34-.49,.31-.98,.54-1.49,.55,.03,.31,.04,.63,.04,.96,0,2.47-1.18,3.53-3.93,3.53-1.61,0-2.43-.69-2.84-1.56-.82,.18-1.69,.26-2.59,.26s-1.78-.09-2.59-.26c-.42,.87-1.24,1.56-2.84,1.56-2.75,0-3.93-1.06-3.93-3.53,0-.33,.01-.65,.04-.96-.51,0-1-.24-1.49-.55-1.24-.78-2.04-1.75-.4-4.34,.64-1.02,1.39-1.86,2.14-2.46-1.75-1.52-2.82-3.69-2.82-6.62,0-6.57,5.32-11.89,11.89-11.89m0-2c-7.66,0-13.89,6.23-13.89,13.89,0,2.53,.7,4.77,2.04,6.56-.38,.45-.74,.94-1.06,1.46-1.93,3.07-1.58,5.45,1.03,7.1,.15,.1,.33,.2,.53,.31,.13,2.08,1.15,5.03,5.92,5.03,1.82,0,2.99-.65,3.73-1.39,.56,.06,1.13,.1,1.71,.1s1.15-.03,1.71-.1c.74,.74,1.91,1.39,3.73,1.39,4.77,0,5.79-2.96,5.92-5.03,.2-.1,.38-.21,.53-.31,2.61-1.64,2.96-4.03,1.03-7.1-.33-.52-.68-1.01-1.06-1.46,1.34-1.8,2.04-4.03,2.04-6.56,0-7.66-6.23-13.89-13.89-13.89h0Z"/>
        </g>
        <path class="cls-5" d="M27.22,52.63c1.63,2.59,.84,3.56-.4,4.34-1.24,.78-2.45,1.08-4.09-1.51s-1.95-5.33-.71-6.11,3.57,.69,5.2,3.29Z"/>
        <path class="cls-5" d="M4.78,52.63c-1.63,2.59-.84,3.56,.4,4.34s2.45,1.08,4.09-1.51c1.63-2.59,1.95-5.33,.71-6.11-1.24-.78-3.57,.69-5.2,3.29Z"/>
        <path class="cls-5" d="M24.37,53.31c0,5.18-3.75,7.39-8.37,7.39s-8.37-2.21-8.37-7.39,3.75-9.38,8.37-9.38,8.37,4.2,8.37,9.38Z"/>
        <path class="cls-9" d="M24.77,48.02c0,5.07-3.93,7.24-8.77,7.24s-8.77-2.17-8.77-7.24,3.93-9.19,8.77-9.19,8.77,4.11,8.77,9.19Z"/>
        <path class="cls-1" d="M27.89,43.54c0,6.57-5.32,9.38-11.89,9.38s-11.89-2.81-11.89-9.38,5.32-11.89,11.89-11.89,11.89,5.32,11.89,11.89Z"/>
        <g>
          <ellipse class="cls-8" cx="20.48" cy="46.58" rx="1.47" ry="2.45"/>
          <ellipse class="cls-8" cx="11.52" cy="46.58" rx="1.47" ry="2.45"/>
        </g>
        <path class="cls-7" d="M16,57.7c-3.21,0-6.08-.65-8.06-2.05,.97,3.51,4.21,5.05,8.06,5.05s7.08-1.54,8.06-5.05c-1.98,1.4-4.85,2.05-8.06,2.05Z"/>
        <path class="cls-10" d="M25.37,58.47c0,2.47-1.18,3.53-3.93,3.53s-3.23-2-3.23-3.53c0-2.47,1.05-4.47,3.8-4.47s3.37,2,3.37,4.47Z"/>
        <path class="cls-10" d="M6.63,58.47c0,2.47,1.18,3.53,3.93,3.53s3.23-2,3.23-3.53c0-2.47-1.05-4.47-3.8-4.47s-3.37,2-3.37,4.47Z"/>
        <path class="cls-6" d="M16,31.65c-6.57,0-11.89,5.32-11.89,11.89,0,1.26,.2,2.37,.56,3.36,.43-1.97,1.26-3.82,1.95-5.14,1.22-.07,2.27-.3,3.21-.62-.28,1.47-.16,2.64-.16,2.64,3.59-.16,6.15-1.2,7.96-2.43-.37,1.59,.38,3.14,.38,3.14,2.2-.93,3.41-2.23,4.07-3.38,.96,.34,2.04,.58,3.31,.65,.69,1.32,1.51,3.17,1.95,5.14,.36-.99,.56-2.11,.56-3.36,0-6.57-5.32-11.89-11.89-11.89Z"/>
        <path class="cls-4" d="M16,31.65c-5.75,0-10.54,4.08-11.65,9.49,3.12-1.02,7.18-1.51,11.65-1.51s8.53,.48,11.65,1.51c-1.11-5.42-5.9-9.49-11.65-9.49Zm0,5.84c-1.21,0-2.38,.06-3.51,.17,.5-1.79,1.88-3.08,3.51-3.08s3.01,1.29,3.51,3.08c-1.12-.11-2.3-.17-3.51-.17Z"/>
      </g>
    </g>
    <g>
      <rect class="cls-2" x="32" y="0" width="32" height="64"/>
      <g>
        <g>
          <path class="cls-8" d="M44.8,61.97c-.51,0-1.06-.1-1.74-.33-1.79-.6-3.68-1.78-2.61-5.7-.21-.81-.31-1.69-.31-2.63,0-.48,.03-.96,.08-1.44-1.11-.68-2.02-1.51-2.73-2.49-.11,.1-.22,.2-.33,.29-.31,.28-.71,.43-1.11,.43-.48,0-.94-.21-1.26-.57-.32-.36-.48-.85-.42-1.33,.13-1.16,.62-2.29,1.46-3.36-.05-.46-.08-.88-.08-1.3,0-7.11,5.78-12.89,12.89-12.89s12.89,5.78,12.89,12.89c0,3.09-1.11,5.63-3.23,7.42,.63,.85,.88,2.19,.66,3.75,.15,.94,.07,2.02-.23,3.07-.68,2.42-2.33,4.04-4.12,4.04h0c-1.1-.02-1.77-.37-2.19-.8-1.12,.45-2.39,.68-3.78,.68-.74,0-1.46-.07-2.14-.2-.51,.31-1.08,.47-1.7,.47Z"/>
          <path class="cls-8" d="M48.65,31.65c6.57,0,11.89,5.32,11.89,11.89,0,3.53-1.55,5.96-3.99,7.47,.07,0,.15,0,.22,.02,1.02,.28,1.49,1.86,1.18,3.69,.15,.79,.11,1.77-.18,2.79-.6,2.14-1.96,3.31-3.16,3.31,0,0-.02,0-.03,0-1.04-.02-1.59-.43-1.78-1.08-1.19,.65-2.62,.96-4.16,.96-.83,0-1.62-.09-2.36-.27-.47,.4-.96,.54-1.48,.54-.46,0-.93-.12-1.42-.28-1.67-.55-2.88-1.45-1.89-4.75-.23-.78-.35-1.65-.35-2.64,0-.68,.06-1.33,.17-1.97-1.56-.83-2.81-1.99-3.6-3.52h0c-.42,.4-.82,.77-1.21,1.11-.14,.12-.29,.18-.45,.18-.38,0-.74-.34-.69-.79,.1-.91,.5-2.01,1.51-3.17-.08-.51-.13-1.04-.13-1.6,0-6.57,5.32-11.89,11.89-11.89m0-2c-7.66,0-13.89,6.23-13.89,13.89,0,.33,.01,.67,.05,1.02-.8,1.12-1.28,2.31-1.41,3.54-.09,.77,.16,1.54,.67,2.11,.51,.57,1.24,.9,2.01,.9,.45,0,.89-.11,1.28-.33,.53,.59,1.15,1.13,1.84,1.61-.02,.31-.03,.62-.03,.93,0,.92,.09,1.8,.28,2.62-.87,3.45,.22,5.63,3.32,6.67,.49,.16,1.24,.38,2.06,.38,.67,0,1.3-.14,1.88-.43,.64,.1,1.3,.16,1.97,.16,1.3,0,2.5-.18,3.6-.54,.62,.42,1.41,.65,2.32,.66h.02s.05,0,.05,0c2.24,0,4.29-1.92,5.08-4.77,.32-1.15,.41-2.3,.27-3.34,.17-1.36,.02-2.58-.41-3.54,1.95-1.94,2.97-4.53,2.97-7.63,0-7.66-6.23-13.89-13.89-13.89h0Z"/>
        </g>
        <path class="cls-7" d="M57.78,55.51c-.6,2.15-1.98,3.33-3.19,3.31-2.41-.04-2.18-2.2-1.01-4.48,1.02-1.99,2.03-3.64,3.19-3.31s1.61,2.33,1.01,4.48Z"/>
        <path class="cls-5" d="M56.15,53.31c0,5.18-3.36,7.39-7.5,7.39s-7.5-2.21-7.5-7.39,3.36-9.38,7.5-9.38,7.5,4.2,7.5,9.38Z"/>
        <path class="cls-10" d="M48.28,57.7c-2.67,0-5.09-.58-6.81-1.83,.94,3.36,3.79,4.83,7.18,4.83,3.63,0,6.66-1.7,7.35-5.62-1.72,1.8-4.53,2.62-7.72,2.62Z"/>
        <path class="cls-9" d="M47.75,38.84v16.43c4.64,0,8.4-2.17,8.4-7.24s-3.76-9.19-8.4-9.19Z"/>
        <path class="cls-5" d="M41.6,55.58c-1.2,3.62,.04,4.55,1.77,5.12s3.28,.58,4.49-3.04c1.2-3.62,.78-7.01-.95-7.59s-4.1,1.89-5.31,5.51Z"/>
        <path class="cls-1" d="M60.54,43.54c0,6.57-5.32,9.38-11.89,9.38s-11.89-2.81-11.89-9.38,5.32-11.89,11.89-11.89,11.89,5.32,11.89,11.89Z"/>
        <ellipse class="cls-8" cx="54.17" cy="46.58" rx="1.47" ry="2.45"/>
        <path class="cls-10" d="M57.78,57.51c-.6,2.15-1.98,3.33-3.19,3.31-2.41-.04-2.18-2.2-1.01-4.48,1.02-1.99,2.03-3.64,3.19-3.31s1.61,2.33,1.01,4.48Z"/>
        <path class="cls-6" d="M58.98,37.67h0c-2.05-3.6-5.9-6.02-10.34-6.02-6.57,0-11.89,5.32-11.89,11.89,0,4.29,2.28,6.97,5.7,8.32,2.48-1.4,4.15-3.72,4.15-3.72,.49,.65,1.63,1.22,1.63,1.22,1.52-2.92,1.82-6.38,1.82-6.38,5.09-1.63,8.93-5.3,8.93-5.3Z"/>
        <path class="cls-6" d="M60.21,40.82c-.53-2.26-1.7-4.27-3.31-5.82-.92,.61-1.82,1.54-2.08,2.21-1.31,3.38-.15,6.03-.15,6.03,3,0,4.52-1.24,5.53-2.42Z"/>
        <path class="cls-4" d="M48.65,31.65c-6.57,0-11.89,5.32-11.89,11.89,0,.56,.05,1.09,.13,1.6-1.01,1.16-1.41,2.26-1.51,3.17-.07,.64,.66,1.04,1.14,.61,.39-.34,.79-.71,1.21-1.1,.46-.43,.94-.84,1.42-1.24,.04-.03,.08-.07,.12-.1,.48-.38,.96-.75,1.46-1.1,.04-.03,.09-.06,.13-.09,.5-.35,1.02-.69,1.53-1,.03-.02,.06-.03,.08-.05,.54-.33,1.08-.64,1.62-.93,7.45-4.02,15.28-4.9,15.28-4.9h0c-1.92-4-5.99-6.77-10.72-6.77Zm5.66,5.63h0c-.12-1.25,.36-2.49,1.32-3.35,.96,.7,1.81,1.54,2.53,2.5-2.12,.32-3.85,.85-3.85,.85Z"/>
      </g>
    </g>
    <g>
      <rect class="cls-2" x="96" y="0" width="32" height="64" transform="translate(224 64) rotate(-180)"/>
      <g>
        <g>
          <path class="cls-8" d="M115.2,61.97c-.62,0-1.19-.16-1.7-.47-.69,.13-1.41,.2-2.14,.2-1.4,0-2.66-.23-3.78-.68-.41,.42-1.08,.78-2.15,.8h0c-1.83,0-3.49-1.62-4.17-4.04-.29-1.05-.37-2.13-.23-3.07-.22-1.56,.03-2.89,.66-3.75-2.12-1.8-3.23-4.34-3.23-7.42,0-7.11,5.78-12.89,12.89-12.89s12.89,5.78,12.89,12.89c0,.42-.03,.84-.08,1.3,.84,1.07,1.33,2.2,1.46,3.36,.05,.49-.1,.97-.42,1.33-.32,.36-.78,.57-1.26,.57-.41,0-.8-.15-1.11-.43-.11-.1-.22-.19-.33-.29-.71,.98-1.62,1.81-2.73,2.49,.06,.48,.08,.96,.08,1.44,0,.94-.1,1.82-.31,2.63,1.08,3.92-.82,5.11-2.61,5.7-.68,.23-1.23,.33-1.74,.33Z"/>
          <path class="cls-8" d="M111.35,31.65c6.57,0,11.89,5.32,11.89,11.89,0,.56-.05,1.09-.13,1.6,1.01,1.16,1.41,2.26,1.51,3.17,.05,.45-.31,.79-.69,.79-.15,0-.31-.05-.45-.18-.39-.34-.79-.71-1.21-1.1h0c-.79,1.53-2.04,2.69-3.6,3.52,.11,.64,.17,1.29,.17,1.97,0,.99-.12,1.86-.35,2.64,.99,3.3-.22,4.19-1.89,4.75-.49,.16-.97,.28-1.42,.28-.52,0-1.01-.15-1.48-.54-.74,.18-1.54,.27-2.36,.27-1.54,0-2.97-.31-4.16-.96-.19,.65-.74,1.06-1.78,1.08,0,0-.02,0-.03,0-1.2,0-2.56-1.18-3.16-3.31-.28-1.02-.33-2-.18-2.79-.3-1.83,.17-3.41,1.18-3.69,.07-.02,.15-.01,.22-.02-2.44-1.51-3.99-3.94-3.99-7.47,0-6.57,5.32-11.89,11.89-11.89m0-2c-7.66,0-13.89,6.23-13.89,13.89,0,3.09,1.02,5.69,2.97,7.63-.43,.96-.58,2.18-.41,3.54-.14,1.05-.05,2.2,.27,3.34,.8,2.86,2.84,4.77,5.08,4.77h.06c.9-.01,1.69-.25,2.32-.66,1.09,.36,2.3,.54,3.6,.54,.67,0,1.33-.05,1.97-.16,.57,.28,1.2,.43,1.88,.43,.82,0,1.56-.22,2.05-.38,3.1-1.03,4.19-3.22,3.32-6.67,.18-.82,.28-1.7,.28-2.62,0-.31-.01-.62-.03-.93,.69-.48,1.3-1.01,1.84-1.61,.39,.21,.83,.33,1.28,.33,.76,0,1.49-.33,2.01-.9,.51-.57,.76-1.34,.67-2.11-.14-1.23-.61-2.42-1.41-3.54,.03-.35,.05-.68,.05-1.02,0-7.66-6.23-13.89-13.89-13.89h0Z"/>
        </g>
        <path class="cls-7" d="M102.22,55.51c.6,2.15,1.98,3.33,3.19,3.31,2.41-.04,2.18-2.2,1.01-4.48-1.02-1.99-2.03-3.64-3.19-3.31s-1.61,2.33-1.01,4.48Z"/>
        <path class="cls-5" d="M103.85,53.31c0,5.18,3.36,7.39,7.5,7.39s7.5-2.21,7.5-7.39-3.36-9.38-7.5-9.38-7.5,4.2-7.5,9.38Z"/>
        <path class="cls-10" d="M111.72,57.7c2.67,0,5.09-.58,6.81-1.83-.94,3.36-3.79,4.83-7.18,4.83-3.63,0-6.66-1.7-7.35-5.62,1.72,1.8,4.53,2.62,7.72,2.62Z"/>
        <path class="cls-9" d="M112.25,38.84v16.43c-4.64,0-8.4-2.17-8.4-7.24s3.76-9.19,8.4-9.19Z"/>
        <path class="cls-5" d="M118.4,55.58c1.2,3.62-.04,4.55-1.77,5.12s-3.28,.58-4.49-3.04c-1.2-3.62-.78-7.01,.95-7.59s4.1,1.89,5.31,5.51Z"/>
        <path class="cls-1" d="M99.46,43.54c0,6.57,5.32,9.38,11.89,9.38s11.89-2.81,11.89-9.38-5.32-11.89-11.89-11.89-11.89,5.32-11.89,11.89Z"/>
        <ellipse class="cls-8" cx="105.83" cy="46.58" rx="1.47" ry="2.45"/>
        <path class="cls-10" d="M102.22,57.51c.6,2.15,1.98,3.33,3.19,3.31,2.41-.04,2.18-2.2,1.01-4.48-1.02-1.99-2.03-3.64-3.19-3.31s-1.61,2.33-1.01,4.48Z"/>
        <path class="cls-6" d="M101.02,37.67h0c2.05-3.6,5.9-6.02,10.34-6.02,6.57,0,11.89,5.32,11.89,11.89,0,4.29-2.28,6.97-5.7,8.32-2.48-1.4-4.15-3.72-4.15-3.72-.49,.65-1.63,1.22-1.63,1.22-1.52-2.92-1.82-6.38-1.82-6.38-5.09-1.63-8.93-5.3-8.93-5.3Z"/>
        <path class="cls-6" d="M99.79,40.82c.53-2.26,1.7-4.27,3.31-5.82,.92,.61,1.82,1.54,2.08,2.21,1.31,3.38,.15,6.03,.15,6.03-3,0-4.52-1.24-5.53-2.42Z"/>
        <path class="cls-4" d="M100.64,38.41h0s7.83,.88,15.28,4.9c.54,.29,1.08,.6,1.62,.93,.03,.02,.06,.03,.08,.05,.52,.32,1.03,.65,1.53,1,.04,.03,.09,.06,.13,.09,.5,.35,.98,.71,1.46,1.1,.04,.03,.08,.07,.12,.1,.49,.4,.96,.81,1.42,1.24,.42,.39,.82,.76,1.21,1.1,.48,.43,1.21,.02,1.14-.61-.1-.91-.5-2.01-1.51-3.17,.08-.51,.13-1.04,.13-1.6,0-6.57-5.32-11.89-11.89-11.89-4.73,0-8.8,2.77-10.72,6.77Zm1.21-1.99c.71-.95,1.57-1.8,2.53-2.5,.96,.86,1.44,2.11,1.32,3.35h0s-1.72-.53-3.85-.85Z"/>
      </g>
    </g>
  </g>
</svg>