<?xml version="1.0" encoding="UTF-8"?>
<svg id="Layer_2" data-name="Layer 2" xmlns="http://www.w3.org/2000/svg" viewBox="0 0 288 64">
  <defs>
    <style>
      .cls-1 {
        fill: #fff;
      }

      .cls-2 {
        fill: #9ee651;
        opacity: 0;
      }

      .cls-3 {
        fill: #2e55fc;
      }

      .cls-4 {
        fill: #1778ff;
      }

      .cls-5 {
        fill: #ffd640;
      }

      .cls-6 {
        fill: #1dbff0;
      }

      .cls-7 {
        fill: #604369;
      }

      .cls-8 {
        fill: #fdaf18;
      }

      .cls-9 {
        fill: #f25d4a;
      }
    </style>
  </defs>
  <g id="Finals">
    <g>
      <rect class="cls-2" y="0" width="32" height="64"/>
      <g>
        <g>
          <path class="cls-7" d="M20.43,62c-2.1,0-3.33-.72-3.87-2.31-.19,0-.38,.01-.56,.01s-.37,0-.56-.01c-.54,1.59-1.77,2.31-3.87,2.31-3.32,0-4.93-1.77-4.93-5.4,0-.98,.11-1.89,.33-2.7-.07-.24-.12-.49-.17-.75-.41,.07-.79,.1-1.14,.1-2.69,0-3.16-2.04-3.33-2.81-.18-.78-.31-1.79,.28-2.71,.42-.66,1.1-1.15,2.13-1.52-1.08-1.57-1.63-3.47-1.63-5.66,0-7.11,5.78-12.89,12.89-12.89s12.89,5.78,12.89,12.89c0,2.17-.54,4.05-1.6,5.61,1.01,.36,1.69,.85,2.1,1.5,.58,.92,.46,1.94,.28,2.71-.17,.77-.64,2.81-3.33,2.81h0c-.35,0-.72-.03-1.13-.1-.05,.28-.11,.55-.18,.81,.22,.81,.33,1.72,.33,2.7,0,3.63-1.61,5.4-4.93,5.4Z"/>
          <path class="cls-7" d="M16,28.65c6.57,0,11.89,5.32,11.89,11.89,0,2.66-.89,4.7-2.37,6.19,.13,.02,.25,.04,.39,.07,2.99,.68,3.11,1.93,2.78,3.35-.26,1.13-.71,2.03-2.36,2.03-.44,0-.97-.07-1.61-.21-.13-.03-.26-.07-.4-.1-.04,.74-.15,1.42-.35,2.03,.25,.8,.37,1.72,.37,2.7,0,3.08-1.18,4.4-3.93,4.4-2.04,0-2.83-.73-3.1-2.37-.43,.04-.88,.07-1.33,.07s-.9-.03-1.33-.07c-.27,1.64-1.06,2.37-3.1,2.37-2.75,0-3.93-1.32-3.93-4.4,0-.98,.12-1.9,.37-2.7-.19-.59-.3-1.25-.34-1.97-.13,.03-.26,.07-.4,.1-.63,.14-1.16,.21-1.61,.21-1.64,0-2.1-.9-2.36-2.03-.33-1.43-.21-2.67,2.78-3.35,.15-.03,.29-.05,.44-.08-1.51-1.49-2.42-3.55-2.42-6.24,0-6.57,5.32-11.89,11.89-11.89m0-2c-7.66,0-13.89,6.23-13.89,13.89,0,1.95,.4,3.7,1.2,5.22-.67,.38-1.18,.85-1.54,1.43-.79,1.25-.61,2.58-.41,3.47,.54,2.38,1.99,3.59,4.31,3.59,.07,0,.13,0,.2,0-.15,.73-.22,1.52-.22,2.36,0,5.29,3.23,6.4,5.93,6.4,2.13,0,3.61-.72,4.43-2.15,.82,1.43,2.31,2.15,4.43,2.15,2.71,0,5.93-1.11,5.93-6.4,0-.86-.08-1.67-.24-2.42,.07,0,.14,0,.21,0,2.32,0,3.76-1.21,4.31-3.59,.2-.89,.38-2.22-.41-3.47-.36-.57-.86-1.04-1.52-1.42,.78-1.51,1.17-3.24,1.17-5.17,0-7.66-6.23-13.89-13.89-13.89h0Z"/>
        </g>
        <g>
          <path class="cls-5" d="M25.91,46.8c2.99,.68,3.11,1.93,2.78,3.35-.33,1.43-.97,2.5-3.96,1.82s-5.15-2.39-4.82-3.82c.33-1.43,3.01-2.04,6-1.36Z"/>
          <path class="cls-5" d="M6.09,46.86c-2.99,.68-3.11,1.93-2.78,3.35s.97,2.5,3.96,1.82c2.99-.68,5.15-2.39,4.82-3.82s-3.01-2.04-6-1.36Z"/>
        </g>
        <path class="cls-9" d="M24.37,56.6c0,3.08-1.18,4.4-3.93,4.4s-3.23-1.32-3.23-4.4,.48-5.58,3.23-5.58,3.93,2.5,3.93,5.58Z"/>
        <path class="cls-9" d="M7.63,56.6c0,3.08,1.18,4.4,3.93,4.4s3.23-1.32,3.23-4.4-.48-5.58-3.23-5.58-3.93,2.5-3.93,5.58Z"/>
        <path class="cls-5" d="M24.37,51.31c0,5.18-3.75,7.39-8.37,7.39s-8.37-2.21-8.37-7.39,3.75-9.38,8.37-9.38,8.37,4.2,8.37,9.38Z"/>
        <path class="cls-8" d="M24.77,45.02c0,5.07-3.93,7.24-8.77,7.24s-8.77-2.17-8.77-7.24,3.93-9.19,8.77-9.19,8.77,4.11,8.77,9.19Z"/>
        <path class="cls-9" d="M16.02,56.7c-2.86,0-5.48-.48-7.45-1.51,1.39,2.43,1.55,3.51,7.45,3.51s6.03-1.09,7.42-3.52c-1.97,1.04-4.56,1.52-7.42,1.52Z"/>
        <path class="cls-1" d="M27.89,40.54c0,6.57-5.32,9.38-11.89,9.38s-11.89-2.81-11.89-9.38,5.32-11.89,11.89-11.89,11.89,5.32,11.89,11.89Z"/>
        <g>
          <ellipse class="cls-7" cx="20.48" cy="42.58" rx="1.47" ry="2.45"/>
          <ellipse class="cls-7" cx="11.52" cy="42.58" rx="1.47" ry="2.45"/>
        </g>
        <path class="cls-6" d="M16,28.65c-6.57,0-11.89,5.32-11.89,11.89,0,.85,.09,1.63,.26,2.36,.43-1.97,1.55-3.82,2.24-5.14,1.22-.07,2.27-.3,3.21-.62-.28,1.47-.16,2.64-.16,2.64,3.59-.16,6.15-1.2,7.96-2.43-.37,1.59,.38,3.14,.38,3.14,2.2-.93,3.41-2.23,4.07-3.38,.96,.34,2.04,.58,3.31,.65,.69,1.32,1.81,3.17,2.24,5.14,.17-.73,.26-1.51,.26-2.36,0-6.57-5.32-11.89-11.89-11.89Z"/>
        <path class="cls-4" d="M4.63,37.06c3.08-.96,7.03-1.42,11.37-1.42s8.29,.46,11.37,1.42c-1.49-4.87-6.02-8.41-11.37-8.41s-9.88,3.54-11.37,8.41Zm14.88-3.41c-1.12-.11-2.3-.17-3.51-.17s-2.38,.06-3.51,.17c.5-1.79,1.88-3.08,3.51-3.08s3.01,1.29,3.51,3.08Z"/>
      </g>
      <g>
        <g>
          <path class="cls-1" d="M16,22.92c-.65,0-1.26-.32-1.63-.85l-1.47-2.08h-2.9c-1.65,0-3-1.35-3-3V6c0-1.65,1.35-3,3-3h12c1.65,0,3,1.35,3,3v11c0,1.65-1.35,3-3,3h-2.9l-1.47,2.08c-.37,.53-.98,.85-1.63,.85Z"/>
          <path class="cls-7" d="M22,4c1.1,0,2,.9,2,2v11c0,1.1-.9,2-2,2h-3.41l-1.77,2.5c-.2,.28-.51,.42-.82,.42s-.62-.14-.82-.42l-1.77-2.5h-3.41c-1.1,0-2-.9-2-2V6c0-1.1,.9-2,2-2h12m0-2H10c-2.21,0-4,1.79-4,4v11c0,2.21,1.79,4,4,4h2.38l1.17,1.66c.56,.79,1.48,1.27,2.45,1.27s1.89-.47,2.45-1.27l1.17-1.66h2.38c2.21,0,4-1.79,4-4V6c0-2.21-1.79-4-4-4h0Z"/>
        </g>
        <rect class="cls-9" x="14" y="6" width="4" height="7" rx="1.5" ry="1.5"/>
        <rect class="cls-9" x="14" y="14.5" width="4" height="3" rx="1.5" ry="1.5"/>
      </g>
    </g>
    <g>
      <rect class="cls-2" x="32" y="0" width="32" height="64"/>
      <g>
        <g>
          <path class="cls-7" d="M48.33,62c-1.31,0-5.13,0-6.07-3.58-.6-.16-1.13-.45-1.55-.72-1.48-.93-2.96-2.39-1.53-5.47-.03-.3-.04-.6-.04-.92,0-.99,.12-1.98,.35-2.94-.52-.39-1-.81-1.41-1.27-.14,.15-.28,.3-.42,.44-.32,.34-.75,.52-1.21,.52s-.9-.19-1.22-.52c-.32-.33-.49-.78-.48-1.25,.03-1.12,.47-2.39,1.21-3.54-.14-.72-.21-1.46-.21-2.22,0-7.11,5.78-12.89,12.89-12.89s12.89,5.78,12.89,12.89c0,4.06-1.96,7.19-5.53,8.9,.1,.62,.14,1.25,.14,1.87,0,1.9-.42,3.54-1.26,4.87-.33,.53-.75,1.02-1.23,1.46-.22,3.13-1.75,4.36-5.32,4.36Z"/>
          <path class="cls-7" d="M48.65,28.65c6.57,0,11.89,5.32,11.89,11.89,0,4.28-2.27,6.95-5.66,8.3,.17,.79,.27,1.61,.27,2.46,0,1.79-.41,3.23-1.11,4.34-.37,.59-.84,1.09-1.36,1.5-.08,2.69-.87,3.85-4.34,3.85s-4.91-1.05-5.22-3.46c-.64,0-1.25-.29-1.86-.68-1.38-.87-2.31-1.92-1.04-4.44-.04-.35-.07-.72-.07-1.11,0-1.18,.18-2.31,.5-3.36-1-.63-1.86-1.43-2.5-2.39h0s0,0,0,0c0,0,0,0,0,0-.03,.03-.06,.06-.09,.09-.39,.43-.76,.83-1.12,1.2-.14,.15-.32,.21-.49,.21-.36,0-.71-.3-.7-.73,.03-.9,.4-2.14,1.28-3.36h0s0,0,0,0h0c-.18-.74-.28-1.55-.28-2.43,0-6.57,5.32-11.89,11.89-11.89m0-2c-7.66,0-13.89,6.23-13.89,13.89,0,.69,.05,1.36,.16,2.02-.71,1.21-1.12,2.53-1.16,3.71-.02,.74,.25,1.44,.76,1.97,.51,.52,1.21,.82,1.94,.82,.6,0,1.16-.19,1.62-.56,.1,.09,.2,.18,.3,.26-.16,.83-.24,1.68-.24,2.54,0,.24,0,.49,.03,.75-1.17,2.73-.5,4.92,2.01,6.5,.36,.23,.78,.47,1.27,.66,.88,2.52,3.19,3.79,6.88,3.79,3.93,0,5.9-1.52,6.28-4.9,.43-.43,.81-.89,1.12-1.39,.94-1.5,1.42-3.31,1.42-5.4,0-.43-.02-.86-.06-1.29,3.53-1.94,5.45-5.25,5.45-9.47,0-7.66-6.23-13.89-13.89-13.89h0Z"/>
        </g>
        <path class="cls-9" d="M43.04,56.6c0,3.08,1.59,4.4,5.29,4.4s4.35-1.32,4.35-4.4-.65-5.58-4.35-5.58-5.29,2.5-5.29,5.58Z"/>
        <path class="cls-9" d="M54.04,55.65c-1.81,.71-4,1.05-6.38,1.05s-4.59-.34-6.4-1.05c1.32,2.09,3.68,3.04,6.38,3.04,0,0,.01,0,.02,0,2.71,0,5.07-.95,6.39-3.05Z"/>
        <path class="cls-5" d="M54.04,55.65c.7-1.11,1.11-2.54,1.11-4.34,0-5.18-3.36-9.38-7.5-9.38s-7.5,4.2-7.5,9.38c0,1.8,.41,3.23,1.12,4.35,1.81,.71,4.02,1.05,6.4,1.05s4.57-.34,6.38-1.05Z"/>
        <path class="cls-8" d="M46.75,35.84v16.43c4.64,0,8.4-2.17,8.4-7.24s-3.76-9.19-8.4-9.19Z"/>
        <path class="cls-5" d="M40.75,51.46c-2.03,3.23-1.04,4.42,.5,5.39,1.54,.97,3.05,1.34,5.08-1.88,2.03-3.23,2.43-6.63,.88-7.6-1.54-.97-4.44,.86-6.47,4.08Z"/>
        <path class="cls-1" d="M60.54,40.54c0,6.57-5.32,9.38-11.89,9.38s-11.89-2.81-11.89-9.38,5.32-11.89,11.89-11.89,11.89,5.32,11.89,11.89Z"/>
        <ellipse class="cls-7" cx="54.17" cy="42.58" rx="1.47" ry="2.45"/>
        <path class="cls-6" d="M48.65,28.65c-6.57,0-11.89,5.32-11.89,11.89,0,.39,.02,.76,.06,1.13,.02,.18,.05,.35,.08,.53,.57,3.64,3.01,5.89,6.39,6.96,2.27-1.6,3.68-3.94,3.68-3.94,.54,.6,1.73,1.08,1.73,1.08,1.27-3.04,1.3-6.51,1.3-6.51,4.8-1.99,8.26-5.78,8.45-5.99-2.15-3.11-5.73-5.14-9.79-5.14Z"/>
        <path class="cls-6" d="M59.93,36.81c-.1-.3-.2-.6-.33-.89,0,0,0-.02-.01-.02-.77-1.8-1.97-3.37-3.47-4.59-.85,.68-1.65,1.66-1.86,2.34-1.03,3.48,.35,6.03,.35,6.03,2.99-.24,4.4-1.6,5.31-2.86Z"/>
        <path class="cls-4" d="M57.5,32.62c-1.99,.49-3.74,1.14-3.74,1.14h0c-.2-1.11,.27-2.46,1.01-3.4-1.79-1.08-3.88-1.71-6.13-1.71-6.57,0-11.89,5.32-11.89,11.89,0,.92,.08,1.65,.28,2.43-.88,1.22-1.25,2.46-1.28,3.36-.02,.64,.74,.98,1.19,.52,.36-.38,.73-.77,1.12-1.2,.03-.03,.06-.06,.09-.09,0,0,0,0,0,0,0,0,0,0,0,0,.4-.44,.82-.87,1.25-1.28,.04-.04,.07-.07,.11-.11,.44-.42,.9-.82,1.37-1.21,.04-.03,.08-.07,.12-.1,.47-.39,.96-.77,1.45-1.12,.03-.02,.05-.04,.08-.06,.51-.37,1.02-.72,1.54-1.06,6.97-4.53,14.54-6.07,14.8-6.13-.4-.67-.85-1.29-1.37-1.86Z"/>
      </g>
      <g>
        <g>
          <path class="cls-1" d="M48,22.92c-.65,0-1.26-.32-1.63-.85l-1.47-2.08h-2.9c-1.65,0-3-1.35-3-3V6c0-1.65,1.35-3,3-3h12c1.65,0,3,1.35,3,3v11c0,1.65-1.35,3-3,3h-2.9l-1.47,2.08c-.37,.53-.98,.85-1.63,.85Z"/>
          <path class="cls-7" d="M54,4c1.1,0,2,.9,2,2v11c0,1.1-.9,2-2,2h-3.41l-1.77,2.5c-.2,.28-.51,.42-.82,.42s-.62-.14-.82-.42l-1.77-2.5h-3.41c-1.1,0-2-.9-2-2V6c0-1.1,.9-2,2-2h12m0-2h-12c-2.21,0-4,1.79-4,4v11c0,2.21,1.79,4,4,4h2.38l1.17,1.66c.56,.79,1.48,1.27,2.45,1.27s1.89-.47,2.45-1.27l1.17-1.66h2.38c2.21,0,4-1.79,4-4V6c0-2.21-1.79-4-4-4h0Z"/>
        </g>
        <rect class="cls-9" x="46" y="6" width="4" height="7" rx="1.5" ry="1.5"/>
        <rect class="cls-9" x="46" y="14.5" width="4" height="3" rx="1.5" ry="1.5"/>
      </g>
    </g>
    <g>
      <rect class="cls-2" x="96" y="0" width="32" height="64" transform="translate(224 64) rotate(-180)"/>
      <g>
        <g>
          <path class="cls-7" d="M111.67,62c-3.57,0-5.1-1.23-5.32-4.36-.49-.44-.9-.92-1.23-1.46-.84-1.33-1.26-2.97-1.26-4.87,0-.62,.05-1.24,.14-1.87-3.58-1.71-5.53-4.84-5.53-8.9,0-7.11,5.78-12.89,12.89-12.89s12.89,5.78,12.89,12.89c0,.76-.07,1.5-.21,2.22,.74,1.15,1.18,2.42,1.21,3.54,.01,.47-.16,.91-.48,1.25-.32,.33-.76,.52-1.22,.52s-.89-.19-1.21-.52c-.14-.14-.28-.29-.42-.44-.42,.46-.89,.89-1.41,1.27,.23,.96,.35,1.94,.35,2.94,0,.32-.02,.62-.04,.92,1.43,3.09-.05,4.55-1.53,5.47-.42,.27-.95,.56-1.55,.72-.94,3.58-4.76,3.58-6.07,3.58Z"/>
          <path class="cls-7" d="M111.35,28.65c6.57,0,11.89,5.32,11.89,11.89,0,.88-.1,1.68-.28,2.43h0s0,0,0,0c.88,1.22,1.25,2.46,1.28,3.36,.01,.44-.34,.73-.7,.73-.17,0-.34-.07-.49-.21-.36-.38-.73-.77-1.12-1.2-.03-.03-.06-.06-.09-.09,0,0,0,0,0,0,0,0,0,0,0,0-.64,.97-1.5,1.76-2.5,2.39,.32,1.04,.5,2.17,.5,3.36,0,.39-.03,.75-.07,1.11,1.27,2.52,.34,3.58-1.04,4.44-.61,.39-1.22,.67-1.86,.68-.32,2.41-1.93,3.46-5.22,3.46-3.47,0-4.26-1.16-4.34-3.85-.52-.42-.99-.91-1.36-1.5-.7-1.11-1.11-2.54-1.11-4.34,0-.85,.1-1.68,.27-2.46-3.39-1.35-5.66-4.02-5.66-8.3,0-6.57,5.32-11.89,11.89-11.89m0-2c-7.66,0-13.89,6.23-13.89,13.89,0,4.22,1.92,7.54,5.45,9.47-.04,.43-.06,.87-.06,1.29,0,2.09,.48,3.91,1.42,5.4,.31,.5,.69,.97,1.12,1.39,.38,3.38,2.35,4.9,6.28,4.9,3.69,0,6-1.27,6.88-3.79,.49-.19,.91-.43,1.27-.66,2.51-1.58,3.18-3.76,2.01-6.5,.02-.26,.03-.5,.03-.75,0-.85-.08-1.7-.24-2.54,.1-.09,.2-.17,.3-.26,.47,.36,1.03,.56,1.62,.56,.72,0,1.43-.3,1.94-.82,.51-.53,.78-1.23,.76-1.97-.03-1.18-.45-2.5-1.16-3.71,.11-.66,.16-1.34,.16-2.02,0-7.66-6.23-13.89-13.89-13.89h0Z"/>
        </g>
        <path class="cls-9" d="M116.96,56.6c0,3.08-1.59,4.4-5.29,4.4s-4.35-1.32-4.35-4.4,.65-5.58,4.35-5.58,5.29,2.5,5.29,5.58Z"/>
        <path class="cls-9" d="M105.96,55.65c1.81,.71,4,1.05,6.38,1.05s4.59-.34,6.4-1.05c-1.32,2.09-3.68,3.04-6.38,3.04,0,0-.01,0-.02,0-2.71,0-5.07-.95-6.39-3.05Z"/>
        <path class="cls-5" d="M105.96,55.65c-.7-1.11-1.11-2.54-1.11-4.34,0-5.18,3.36-9.38,7.5-9.38s7.5,4.2,7.5,9.38c0,1.8-.41,3.23-1.12,4.35-1.81,.71-4.02,1.05-6.4,1.05s-4.57-.34-6.38-1.05Z"/>
        <path class="cls-8" d="M113.25,35.84v16.43c-4.64,0-8.4-2.17-8.4-7.24s3.76-9.19,8.4-9.19Z"/>
        <path class="cls-5" d="M119.25,51.46c2.03,3.23,1.04,4.42-.5,5.39s-3.05,1.34-5.08-1.88c-2.03-3.23-2.43-6.63-.88-7.6s4.44,.86,6.47,4.08Z"/>
        <path class="cls-1" d="M99.46,40.54c0,6.57,5.32,9.38,11.89,9.38s11.89-2.81,11.89-9.38-5.32-11.89-11.89-11.89-11.89,5.32-11.89,11.89Z"/>
        <ellipse class="cls-7" cx="105.83" cy="42.58" rx="1.47" ry="2.45"/>
        <path class="cls-6" d="M111.35,28.65c6.57,0,11.89,5.32,11.89,11.89,0,.39-.02,.76-.06,1.13-.02,.18-.05,.35-.08,.53-.57,3.64-3.01,5.89-6.39,6.96-2.27-1.6-3.68-3.94-3.68-3.94-.54,.6-1.73,1.08-1.73,1.08-1.27-3.04-1.3-6.51-1.3-6.51-4.8-1.99-8.26-5.78-8.45-5.99,2.15-3.11,5.73-5.14,9.79-5.14Z"/>
        <path class="cls-6" d="M100.07,36.81c.1-.3,.2-.6,.33-.89,0,0,0-.02,.01-.02,.77-1.8,1.97-3.37,3.47-4.59,.85,.68,1.65,1.66,1.86,2.34,1.03,3.48-.35,6.03-.35,6.03-2.99-.24-4.4-1.6-5.31-2.86Z"/>
        <path class="cls-4" d="M102.5,32.62c1.99,.49,3.74,1.14,3.74,1.14h0c.2-1.11-.27-2.46-1.01-3.4,1.79-1.08,3.88-1.71,6.13-1.71,6.57,0,11.89,5.32,11.89,11.89,0,.92-.08,1.65-.28,2.43,.88,1.22,1.25,2.46,1.28,3.36,.02,.64-.74,.98-1.19,.52-.36-.38-.73-.77-1.12-1.2-.03-.03-.06-.06-.09-.09,0,0,0,0,0,0,0,0,0,0,0,0-.4-.44-.82-.87-1.25-1.28-.04-.04-.07-.07-.11-.11-.44-.42-.9-.82-1.37-1.21-.04-.03-.08-.07-.12-.1-.47-.39-.96-.77-1.45-1.12-.03-.02-.05-.04-.08-.06-.51-.37-1.02-.72-1.54-1.06-6.97-4.53-14.54-6.07-14.8-6.13,.4-.67,.85-1.29,1.37-1.86Z"/>
      </g>
      <g>
        <g>
          <path class="cls-1" d="M112,22.92c-.65,0-1.26-.32-1.63-.85l-1.47-2.08h-2.9c-1.65,0-3-1.35-3-3V6c0-1.65,1.35-3,3-3h12c1.65,0,3,1.35,3,3v11c0,1.65-1.35,3-3,3h-2.9l-1.47,2.08c-.37,.53-.98,.85-1.63,.85Z"/>
          <path class="cls-7" d="M118,4c1.1,0,2,.9,2,2v11c0,1.1-.9,2-2,2h-3.41l-1.77,2.5c-.2,.28-.51,.42-.82,.42s-.62-.14-.82-.42l-1.77-2.5h-3.41c-1.1,0-2-.9-2-2V6c0-1.1,.9-2,2-2h12m0-2h-12c-2.21,0-4,1.79-4,4v11c0,2.21,1.79,4,4,4h2.38l1.17,1.66c.56,.79,1.48,1.27,2.45,1.27s1.89-.47,2.45-1.27l1.17-1.66h2.38c2.21,0,4-1.79,4-4V6c0-2.21-1.79-4-4-4h0Z"/>
        </g>
        <rect class="cls-9" x="110" y="6" width="4" height="7" rx="1.5" ry="1.5" transform="translate(224 19) rotate(-180)"/>
        <rect class="cls-9" x="110" y="14.5" width="4" height="3" rx="1.5" ry="1.5" transform="translate(224 32) rotate(-180)"/>
      </g>
    </g>
    <g>
      <rect class="cls-2" x="64" y="0" width="32" height="64"/>
      <g>
        <g>
          <path class="cls-7" d="M84.43,62c-2.1,0-3.33-.72-3.87-2.31-.19,0-.38,.01-.56,.01s-.37,0-.56-.01c-.54,1.59-1.77,2.31-3.87,2.31-3.32,0-4.93-1.77-4.93-5.4,0-.98,.11-1.89,.33-2.7-.08-.31-.15-.63-.2-.96-.09,.02-.18,.05-.28,.07-.69,.16-1.29,.23-1.83,.23-2.69,0-3.16-2.04-3.33-2.81-.18-.78-.31-1.79,.28-2.71,.52-.82,1.47-1.39,2.97-1.77-.97-1.52-1.47-3.34-1.47-5.41,0-7.11,5.78-12.89,12.89-12.89s12.89,5.78,12.89,12.89c0,2.05-.48,3.85-1.43,5.36,1.48,.38,2.42,.94,2.93,1.76,.58,.92,.46,1.94,.28,2.71-.17,.77-.64,2.81-3.33,2.81h0c-.54,0-1.13-.08-1.83-.23-.09-.02-.18-.04-.27-.06-.05,.35-.12,.69-.21,1.02,.22,.81,.33,1.72,.33,2.7,0,3.63-1.61,5.4-4.93,5.4Z"/>
          <path class="cls-7" d="M80,28.65c6.57,0,11.89,5.32,11.89,11.89,0,2.57-.83,4.56-2.22,6.04,.37,.04,.76,.11,1.24,.22,2.99,.68,3.11,1.93,2.78,3.35-.26,1.13-.71,2.03-2.36,2.03-.44,0-.97-.07-1.61-.21-.55-.13-1-.29-1.38-.47-.02,.89-.14,1.69-.36,2.4,.25,.8,.37,1.72,.37,2.7,0,3.08-1.18,4.4-3.93,4.4-2.04,0-2.83-.73-3.1-2.37-.43,.04-.88,.07-1.33,.07s-.9-.03-1.33-.07c-.27,1.64-1.06,2.37-3.1,2.37-2.75,0-3.93-1.32-3.93-4.4,0-.98,.12-1.9,.37-2.7-.22-.7-.34-1.48-.36-2.34-.37,.19-.83,.35-1.38,.47-.63,.14-1.16,.21-1.61,.21-1.64,0-2.1-.9-2.36-2.03-.33-1.43-.21-2.67,2.78-3.35,.5-.11,.91-.18,1.29-.22-1.42-1.48-2.27-3.49-2.27-6.1,0-6.57,5.32-11.89,11.89-11.89m0-2c-7.66,0-13.89,6.23-13.89,13.89,0,1.79,.34,3.41,1,4.83-1.09,.44-1.85,1.03-2.35,1.81-.79,1.25-.61,2.58-.41,3.47,.54,2.38,1.99,3.59,4.31,3.59,.38,0,.78-.03,1.22-.1-.16,.76-.24,1.58-.24,2.46,0,5.29,3.23,6.4,5.93,6.4,2.13,0,3.61-.72,4.43-2.15,.82,1.43,2.31,2.15,4.43,2.15,2.71,0,5.93-1.11,5.93-6.4,0-.9-.09-1.74-.26-2.52,.44,.07,.85,.1,1.23,.1,2.32,0,3.76-1.21,4.31-3.59,.2-.89,.38-2.22-.41-3.47-.49-.78-1.25-1.37-2.33-1.8,.65-1.41,.98-3.01,.98-4.78,0-7.66-6.23-13.89-13.89-13.89h0Z"/>
        </g>
        <path class="cls-9" d="M71.63,56.6c0,3.08,1.18,4.4,3.93,4.4s3.23-1.32,3.23-4.4-.48-5.58-3.23-5.58-3.93,2.5-3.93,5.58Z"/>
        <path class="cls-9" d="M88.37,56.6c0,3.08-1.18,4.4-3.93,4.4s-3.23-1.32-3.23-4.4,.48-5.58,3.23-5.58,3.93,2.5,3.93,5.58Z"/>
        <path class="cls-5" d="M88.37,51.31c0,5.18-3.75,7.39-8.37,7.39s-8.37-2.21-8.37-7.39,3.75-9.38,8.37-9.38,8.37,4.2,8.37,9.38Z"/>
        <path class="cls-9" d="M80.02,56.7c-2.86,0-5.48-.48-7.45-1.51,1.39,2.43,1.55,3.51,7.45,3.51s6.03-1.09,7.42-3.52c-1.97,1.04-4.56,1.52-7.42,1.52Z"/>
        <path class="cls-8" d="M88.77,45.02c0,5.07-3.93,7.24-8.77,7.24s-8.77-2.17-8.77-7.24,3.93-9.19,8.77-9.19,8.77,4.11,8.77,9.19Z"/>
        <g>
          <path class="cls-5" d="M90.91,46.8c2.99,.68,3.11,1.93,2.78,3.35s-.97,2.5-3.96,1.82-3.15-2.39-2.82-3.82c.33-1.43,1.01-2.04,4-1.36Z"/>
          <path class="cls-5" d="M69.09,46.86c-2.99,.68-3.11,1.93-2.78,3.35s.97,2.5,3.96,1.82c2.99-.68,3.15-2.39,2.82-3.82s-1.01-2.04-4-1.36Z"/>
        </g>
        <path class="cls-6" d="M91.89,40.54c0,6.57-5.32,9.38-11.89,9.38s-11.89-2.81-11.89-9.38,5.32-11.89,11.89-11.89,11.89,5.32,11.89,11.89Z"/>
        <path class="cls-4" d="M80,28.65c-6.23,0-11.33,4.79-11.84,10.88,.51,5.86,5.62,8.39,11.84,8.39s11.33-2.53,11.84-8.39c-.51-6.09-5.62-10.88-11.84-10.88Z"/>
        <path class="cls-3" d="M80,45.23c-5.17,0-9.63-1.55-11.74-5.01,.85,5.72,5.77,10.35,11.74,10.35s10.9-4.63,11.74-10.35c-2.11,3.46-6.57,5.01-11.74,5.01Z"/>
      </g>
      <g>
        <g>
          <path class="cls-1" d="M80,22.92c-.65,0-1.26-.32-1.63-.85l-1.47-2.08h-2.9c-1.65,0-3-1.35-3-3V6c0-1.65,1.35-3,3-3h12c1.65,0,3,1.35,3,3v11c0,1.65-1.35,3-3,3h-2.9l-1.47,2.08c-.37,.53-.98,.85-1.63,.85Z"/>
          <path class="cls-7" d="M86,4c1.1,0,2,.9,2,2v11c0,1.1-.9,2-2,2h-3.41l-1.77,2.5c-.2,.28-.51,.42-.82,.42s-.62-.14-.82-.42l-1.77-2.5h-3.41c-1.1,0-2-.9-2-2V6c0-1.1,.9-2,2-2h12m0-2h-12c-2.21,0-4,1.79-4,4v11c0,2.21,1.79,4,4,4h2.38l1.17,1.66c.56,.79,1.48,1.27,2.45,1.27s1.89-.47,2.45-1.27l1.17-1.66h2.38c2.21,0,4-1.79,4-4V6c0-2.21-1.79-4-4-4h0Z"/>
        </g>
        <rect class="cls-9" x="78" y="6" width="4" height="7" rx="1.5" ry="1.5"/>
        <rect class="cls-9" x="78" y="14.5" width="4" height="3" rx="1.5" ry="1.5"/>
      </g>
    </g>
    <g>
      <rect class="cls-2" x="128" y="0" width="32" height="64"/>
      <g>
        <g>
          <path class="cls-7" d="M148.43,62c-2.1,0-3.33-.72-3.87-2.31-.19,0-.38,.01-.56,.01s-.37,0-.56-.01c-.54,1.59-1.77,2.31-3.87,2.31-3.32,0-4.93-1.77-4.93-5.4,0-.98,.11-1.89,.33-2.7-.07-.24-.12-.49-.17-.75-.41,.07-.79,.1-1.14,.1-2.69,0-3.16-2.04-3.33-2.81-.18-.78-.31-1.79,.28-2.71,.42-.66,1.1-1.15,2.13-1.52-1.08-1.57-1.63-3.47-1.63-5.66,0-7.11,5.78-12.89,12.89-12.89s12.89,5.78,12.89,12.89c0,2.17-.54,4.05-1.6,5.61,1.01,.36,1.69,.85,2.1,1.5,.58,.92,.46,1.94,.28,2.71-.17,.77-.64,2.81-3.33,2.81h0c-.35,0-.72-.03-1.13-.1-.05,.28-.11,.55-.18,.81,.22,.81,.33,1.72,.33,2.7,0,3.63-1.61,5.4-4.93,5.4Z"/>
          <path class="cls-7" d="M144,28.65c6.57,0,11.89,5.32,11.89,11.89,0,2.66-.89,4.7-2.37,6.19,.13,.02,.25,.04,.39,.07,2.99,.68,3.11,1.93,2.78,3.35-.26,1.13-.71,2.03-2.36,2.03-.44,0-.97-.07-1.61-.21-.13-.03-.26-.07-.4-.1-.04,.74-.15,1.42-.35,2.03,.25,.8,.37,1.72,.37,2.7,0,3.08-1.18,4.4-3.93,4.4-2.04,0-2.83-.73-3.1-2.37-.43,.04-.88,.07-1.33,.07s-.9-.03-1.33-.07c-.27,1.64-1.06,2.37-3.1,2.37-2.75,0-3.93-1.32-3.93-4.4,0-.98,.12-1.9,.37-2.7-.19-.59-.3-1.25-.34-1.97-.13,.03-.26,.07-.4,.1-.63,.14-1.16,.21-1.61,.21-1.64,0-2.1-.9-2.36-2.03-.33-1.43-.21-2.67,2.78-3.35,.15-.03,.29-.05,.44-.08-1.51-1.49-2.42-3.55-2.42-6.24,0-6.57,5.32-11.89,11.89-11.89m0-2c-7.66,0-13.89,6.23-13.89,13.89,0,1.95,.4,3.7,1.2,5.22-.67,.38-1.18,.85-1.54,1.43-.79,1.25-.61,2.58-.41,3.47,.54,2.38,1.99,3.59,4.31,3.59,.07,0,.13,0,.2,0-.15,.73-.22,1.52-.22,2.36,0,5.29,3.23,6.4,5.93,6.4,2.13,0,3.61-.72,4.43-2.15,.82,1.43,2.31,2.15,4.43,2.15,2.71,0,5.93-1.11,5.93-6.4,0-.86-.08-1.67-.24-2.42,.07,0,.14,0,.21,0,2.32,0,3.76-1.21,4.31-3.59,.2-.89,.38-2.22-.41-3.47-.36-.57-.86-1.04-1.52-1.42,.78-1.51,1.17-3.24,1.17-5.17,0-7.66-6.23-13.89-13.89-13.89h0Z"/>
        </g>
        <g>
          <path class="cls-5" d="M153.91,46.8c2.99,.68,3.11,1.93,2.78,3.35-.33,1.43-.97,2.5-3.96,1.82s-5.15-2.39-4.82-3.82c.33-1.43,3.01-2.04,6-1.36Z"/>
          <path class="cls-5" d="M134.09,46.86c-2.99,.68-3.11,1.93-2.78,3.35s.97,2.5,3.96,1.82c2.99-.68,5.15-2.39,4.82-3.82s-3.01-2.04-6-1.36Z"/>
        </g>
        <path class="cls-9" d="M152.37,56.6c0,3.08-1.18,4.4-3.93,4.4s-3.23-1.32-3.23-4.4,.48-5.58,3.23-5.58,3.93,2.5,3.93,5.58Z"/>
        <path class="cls-9" d="M135.63,56.6c0,3.08,1.18,4.4,3.93,4.4s3.23-1.32,3.23-4.4-.48-5.58-3.23-5.58-3.93,2.5-3.93,5.58Z"/>
        <path class="cls-5" d="M152.37,51.31c0,5.18-3.75,7.39-8.37,7.39s-8.37-2.21-8.37-7.39,3.75-9.38,8.37-9.38,8.37,4.2,8.37,9.38Z"/>
        <path class="cls-8" d="M152.77,45.02c0,5.07-3.93,7.24-8.77,7.24s-8.77-2.17-8.77-7.24,3.93-9.19,8.77-9.19,8.77,4.11,8.77,9.19Z"/>
        <path class="cls-9" d="M144.02,56.7c-2.86,0-5.48-.48-7.45-1.51,1.39,2.43,1.55,3.51,7.45,3.51s6.03-1.09,7.42-3.52c-1.97,1.04-4.56,1.52-7.42,1.52Z"/>
        <path class="cls-1" d="M155.89,40.54c0,6.57-5.32,9.38-11.89,9.38s-11.89-2.81-11.89-9.38,5.32-11.89,11.89-11.89,11.89,5.32,11.89,11.89Z"/>
        <g>
          <ellipse class="cls-7" cx="148.48" cy="42.58" rx="1.47" ry="2.45"/>
          <ellipse class="cls-7" cx="139.52" cy="42.58" rx="1.47" ry="2.45"/>
        </g>
        <path class="cls-6" d="M144,28.65c-6.57,0-11.89,5.32-11.89,11.89,0,.85,.09,1.63,.26,2.36,.43-1.97,1.55-3.82,2.24-5.14,1.22-.07,2.27-.3,3.21-.62-.28,1.47-.16,2.64-.16,2.64,3.59-.16,6.15-1.2,7.96-2.43-.37,1.59,.38,3.14,.38,3.14,2.2-.93,3.41-2.23,4.07-3.38,.96,.34,2.04,.58,3.31,.65,.69,1.32,1.81,3.17,2.24,5.14,.17-.73,.26-1.51,.26-2.36,0-6.57-5.32-11.89-11.89-11.89Z"/>
        <path class="cls-4" d="M132.63,37.06c3.08-.96,7.03-1.42,11.37-1.42s8.29,.46,11.37,1.42c-1.49-4.87-6.02-8.41-11.37-8.41s-9.88,3.54-11.37,8.41Zm14.88-3.41c-1.12-.11-2.3-.17-3.51-.17s-2.38,.06-3.51,.17c.5-1.79,1.88-3.08,3.51-3.08s3.01,1.29,3.51,3.08Z"/>
      </g>
    </g>
    <g>
      <rect class="cls-2" x="160" y="0" width="32" height="64"/>
      <g>
        <g>
          <path class="cls-7" d="M176.33,62c-1.31,0-5.13,0-6.07-3.58-.6-.16-1.13-.45-1.55-.72-1.48-.93-2.96-2.39-1.53-5.47-.03-.3-.04-.6-.04-.92,0-.99,.12-1.98,.35-2.94-.52-.39-1-.81-1.41-1.27-.14,.15-.28,.3-.42,.44-.32,.34-.75,.52-1.21,.52s-.9-.19-1.22-.52c-.32-.33-.49-.78-.48-1.25,.03-1.12,.47-2.39,1.21-3.54-.14-.72-.21-1.46-.21-2.22,0-7.11,5.78-12.89,12.89-12.89s12.89,5.78,12.89,12.89c0,4.06-1.96,7.19-5.53,8.9,.1,.62,.14,1.25,.14,1.87,0,1.9-.42,3.54-1.26,4.87-.33,.53-.75,1.02-1.23,1.46-.22,3.13-1.75,4.36-5.32,4.36Z"/>
          <path class="cls-7" d="M176.65,28.65c6.57,0,11.89,5.32,11.89,11.89,0,4.28-2.27,6.95-5.66,8.3,.17,.79,.27,1.61,.27,2.46,0,1.79-.41,3.23-1.11,4.34-.37,.59-.84,1.09-1.36,1.5-.08,2.69-.87,3.85-4.34,3.85s-4.91-1.05-5.22-3.46c-.64,0-1.25-.29-1.86-.68-1.38-.87-2.31-1.92-1.04-4.44-.04-.35-.07-.72-.07-1.11,0-1.18,.18-2.31,.5-3.36-1-.63-1.86-1.43-2.5-2.39h0s0,0,0,0c0,0,0,0,0,0-.03,.03-.06,.06-.09,.09-.39,.43-.76,.83-1.12,1.2-.14,.15-.32,.21-.49,.21-.36,0-.71-.3-.7-.73,.03-.9,.4-2.14,1.28-3.36h0s0,0,0,0h0c-.18-.74-.28-1.55-.28-2.43,0-6.57,5.32-11.89,11.89-11.89m0-2c-7.66,0-13.89,6.23-13.89,13.89,0,.69,.05,1.36,.16,2.02-.71,1.21-1.12,2.53-1.16,3.71-.02,.74,.25,1.44,.76,1.97,.51,.52,1.21,.82,1.94,.82,.6,0,1.16-.19,1.62-.56,.1,.09,.2,.18,.3,.26-.16,.83-.24,1.68-.24,2.54,0,.24,0,.49,.03,.75-1.17,2.73-.5,4.92,2.01,6.5,.36,.23,.78,.47,1.27,.66,.88,2.52,3.19,3.79,6.88,3.79,3.93,0,5.9-1.52,6.28-4.9,.43-.43,.81-.89,1.12-1.39,.94-1.5,1.42-3.31,1.42-5.4,0-.43-.02-.86-.06-1.29,3.53-1.94,5.45-5.25,5.45-9.47,0-7.66-6.23-13.89-13.89-13.89h0Z"/>
        </g>
        <path class="cls-9" d="M171.04,56.6c0,3.08,1.59,4.4,5.29,4.4s4.35-1.32,4.35-4.4-.65-5.58-4.35-5.58-5.29,2.5-5.29,5.58Z"/>
        <path class="cls-9" d="M182.04,55.65c-1.81,.71-4,1.05-6.38,1.05s-4.59-.34-6.4-1.05c1.32,2.09,3.68,3.04,6.38,3.04,0,0,.01,0,.02,0,2.71,0,5.07-.95,6.39-3.05Z"/>
        <path class="cls-5" d="M182.04,55.65c.7-1.11,1.11-2.54,1.11-4.34,0-5.18-3.36-9.38-7.5-9.38s-7.5,4.2-7.5,9.38c0,1.8,.41,3.23,1.12,4.35,1.81,.71,4.02,1.05,6.4,1.05s4.57-.34,6.38-1.05Z"/>
        <path class="cls-8" d="M174.75,35.84v16.43c4.64,0,8.4-2.17,8.4-7.24s-3.76-9.19-8.4-9.19Z"/>
        <path class="cls-5" d="M168.75,51.46c-2.03,3.23-1.04,4.42,.5,5.39,1.54,.97,3.05,1.34,5.08-1.88,2.03-3.23,2.43-6.63,.88-7.6-1.54-.97-4.44,.86-6.47,4.08Z"/>
        <path class="cls-1" d="M188.54,40.54c0,6.57-5.32,9.38-11.89,9.38s-11.89-2.81-11.89-9.38,5.32-11.89,11.89-11.89,11.89,5.32,11.89,11.89Z"/>
        <ellipse class="cls-7" cx="182.17" cy="42.58" rx="1.47" ry="2.45"/>
        <path class="cls-6" d="M176.65,28.65c-6.57,0-11.89,5.32-11.89,11.89,0,.39,.02,.76,.06,1.13,.02,.18,.05,.35,.08,.53,.57,3.64,3.01,5.89,6.39,6.96,2.27-1.6,3.68-3.94,3.68-3.94,.54,.6,1.73,1.08,1.73,1.08,1.27-3.04,1.3-6.51,1.3-6.51,4.8-1.99,8.26-5.78,8.45-5.99-2.15-3.11-5.73-5.14-9.79-5.14Z"/>
        <path class="cls-6" d="M187.93,36.81c-.1-.3-.2-.6-.33-.89,0,0,0-.02-.01-.02-.77-1.8-1.97-3.37-3.47-4.59-.85,.68-1.65,1.66-1.86,2.34-1.03,3.48,.35,6.03,.35,6.03,2.99-.24,4.4-1.6,5.31-2.86Z"/>
        <path class="cls-4" d="M185.5,32.62c-1.99,.49-3.74,1.14-3.74,1.14h0c-.2-1.11,.27-2.46,1.01-3.4-1.79-1.08-3.88-1.71-6.13-1.71-6.57,0-11.89,5.32-11.89,11.89,0,.92,.08,1.65,.28,2.43-.88,1.22-1.25,2.46-1.28,3.36-.02,.64,.74,.98,1.19,.52,.36-.38,.73-.77,1.12-1.2,.03-.03,.06-.06,.09-.09,0,0,0,0,0,0,0,0,0,0,0,0,.4-.44,.82-.87,1.25-1.28,.04-.04,.07-.07,.11-.11,.44-.42,.9-.82,1.37-1.21,.04-.03,.08-.07,.12-.1,.47-.39,.96-.77,1.45-1.12,.03-.02,.05-.04,.08-.06,.51-.37,1.02-.72,1.54-1.06,6.97-4.53,14.54-6.07,14.8-6.13-.4-.67-.85-1.29-1.37-1.86Z"/>
      </g>
    </g>
    <g>
      <rect class="cls-2" x="224" y="0" width="32" height="64" transform="translate(480 64) rotate(-180)"/>
      <g>
        <g>
          <path class="cls-7" d="M239.67,62c-3.57,0-5.1-1.23-5.32-4.36-.49-.44-.9-.92-1.23-1.46-.84-1.33-1.26-2.97-1.26-4.87,0-.62,.05-1.24,.14-1.87-3.58-1.71-5.53-4.84-5.53-8.9,0-7.11,5.78-12.89,12.89-12.89s12.89,5.78,12.89,12.89c0,.76-.07,1.5-.21,2.22,.74,1.15,1.18,2.42,1.21,3.54,.01,.47-.16,.91-.48,1.25-.32,.33-.76,.52-1.22,.52s-.89-.19-1.21-.52c-.14-.14-.28-.29-.42-.44-.42,.46-.89,.89-1.41,1.27,.23,.96,.35,1.94,.35,2.94,0,.32-.02,.62-.04,.92,1.43,3.09-.05,4.55-1.53,5.47-.42,.27-.95,.56-1.55,.72-.94,3.58-4.76,3.58-6.07,3.58Z"/>
          <path class="cls-7" d="M239.35,28.65c6.57,0,11.89,5.32,11.89,11.89,0,.88-.1,1.68-.28,2.43h0s0,0,0,0c.88,1.22,1.25,2.46,1.28,3.36,.01,.44-.34,.73-.7,.73-.17,0-.34-.07-.49-.21-.36-.38-.73-.77-1.12-1.2-.03-.03-.06-.06-.09-.09,0,0,0,0,0,0,0,0,0,0,0,0-.64,.97-1.5,1.76-2.5,2.39,.32,1.04,.5,2.17,.5,3.36,0,.39-.03,.75-.07,1.11,1.27,2.52,.34,3.58-1.04,4.44-.61,.39-1.22,.67-1.86,.68-.32,2.41-1.93,3.46-5.22,3.46-3.47,0-4.26-1.16-4.34-3.85-.52-.42-.99-.91-1.36-1.5-.7-1.11-1.11-2.54-1.11-4.34,0-.85,.1-1.68,.27-2.46-3.39-1.35-5.66-4.02-5.66-8.3,0-6.57,5.32-11.89,11.89-11.89m0-2c-7.66,0-13.89,6.23-13.89,13.89,0,4.22,1.92,7.54,5.45,9.47-.04,.43-.06,.87-.06,1.29,0,2.09,.48,3.91,1.42,5.4,.31,.5,.69,.97,1.12,1.39,.38,3.38,2.35,4.9,6.28,4.9,3.69,0,6-1.27,6.88-3.79,.49-.19,.91-.43,1.27-.66,2.51-1.58,3.18-3.76,2.01-6.5,.02-.26,.03-.5,.03-.75,0-.85-.08-1.7-.24-2.54,.1-.09,.2-.17,.3-.26,.47,.36,1.03,.56,1.62,.56,.72,0,1.43-.3,1.94-.82,.51-.53,.78-1.23,.76-1.97-.03-1.18-.45-2.5-1.16-3.71,.11-.66,.16-1.34,.16-2.02,0-7.66-6.23-13.89-13.89-13.89h0Z"/>
        </g>
        <path class="cls-9" d="M244.96,56.6c0,3.08-1.59,4.4-5.29,4.4s-4.35-1.32-4.35-4.4,.65-5.58,4.35-5.58,5.29,2.5,5.29,5.58Z"/>
        <path class="cls-9" d="M233.96,55.65c1.81,.71,4,1.05,6.38,1.05s4.59-.34,6.4-1.05c-1.32,2.09-3.68,3.04-6.38,3.04,0,0-.01,0-.02,0-2.71,0-5.07-.95-6.39-3.05Z"/>
        <path class="cls-5" d="M233.96,55.65c-.7-1.11-1.11-2.54-1.11-4.34,0-5.18,3.36-9.38,7.5-9.38s7.5,4.2,7.5,9.38c0,1.8-.41,3.23-1.12,4.35-1.81,.71-4.02,1.05-6.4,1.05s-4.57-.34-6.38-1.05Z"/>
        <path class="cls-8" d="M241.25,35.84v16.43c-4.64,0-8.4-2.17-8.4-7.24s3.76-9.19,8.4-9.19Z"/>
        <path class="cls-5" d="M247.25,51.46c2.03,3.23,1.04,4.42-.5,5.39s-3.05,1.34-5.08-1.88c-2.03-3.23-2.43-6.63-.88-7.6s4.44,.86,6.47,4.08Z"/>
        <path class="cls-1" d="M227.46,40.54c0,6.57,5.32,9.38,11.89,9.38s11.89-2.81,11.89-9.38-5.32-11.89-11.89-11.89-11.89,5.32-11.89,11.89Z"/>
        <ellipse class="cls-7" cx="233.83" cy="42.58" rx="1.47" ry="2.45"/>
        <path class="cls-6" d="M239.35,28.65c6.57,0,11.89,5.32,11.89,11.89,0,.39-.02,.76-.06,1.13-.02,.18-.05,.35-.08,.53-.57,3.64-3.01,5.89-6.39,6.96-2.27-1.6-3.68-3.94-3.68-3.94-.54,.6-1.73,1.08-1.73,1.08-1.27-3.04-1.3-6.51-1.3-6.51-4.8-1.99-8.26-5.78-8.45-5.99,2.15-3.11,5.73-5.14,9.79-5.14Z"/>
        <path class="cls-6" d="M228.07,36.81c.1-.3,.2-.6,.33-.89,0,0,0-.02,.01-.02,.77-1.8,1.97-3.37,3.47-4.59,.85,.68,1.65,1.66,1.86,2.34,1.03,3.48-.35,6.03-.35,6.03-2.99-.24-4.4-1.6-5.31-2.86Z"/>
        <path class="cls-4" d="M230.5,32.62c1.99,.49,3.74,1.14,3.74,1.14h0c.2-1.11-.27-2.46-1.01-3.4,1.79-1.08,3.88-1.71,6.13-1.71,6.57,0,11.89,5.32,11.89,11.89,0,.92-.08,1.65-.28,2.43,.88,1.22,1.25,2.46,1.28,3.36,.02,.64-.74,.98-1.19,.52-.36-.38-.73-.77-1.12-1.2-.03-.03-.06-.06-.09-.09,0,0,0,0,0,0,0,0,0,0,0,0-.4-.44-.82-.87-1.25-1.28-.04-.04-.07-.07-.11-.11-.44-.42-.9-.82-1.37-1.21-.04-.03-.08-.07-.12-.1-.47-.39-.96-.77-1.45-1.12-.03-.02-.05-.04-.08-.06-.51-.37-1.02-.72-1.54-1.06-6.97-4.53-14.54-6.07-14.8-6.13,.4-.67,.85-1.29,1.37-1.86Z"/>
      </g>
    </g>
    <g>
      <rect class="cls-2" x="192" y="0" width="32" height="64"/>
      <g>
        <g>
          <path class="cls-7" d="M212.43,62c-2.1,0-3.33-.72-3.87-2.31-.19,0-.38,.01-.56,.01s-.37,0-.56-.01c-.54,1.59-1.77,2.31-3.87,2.31-3.32,0-4.93-1.77-4.93-5.4,0-.98,.11-1.89,.33-2.7-.08-.31-.15-.63-.2-.96-.09,.02-.18,.05-.28,.07-.69,.16-1.29,.23-1.83,.23-2.69,0-3.16-2.04-3.33-2.81-.18-.78-.31-1.79,.28-2.71,.52-.82,1.47-1.39,2.97-1.77-.97-1.52-1.47-3.34-1.47-5.41,0-7.11,5.78-12.89,12.89-12.89s12.89,5.78,12.89,12.89c0,2.05-.48,3.85-1.43,5.36,1.48,.38,2.42,.94,2.93,1.76,.58,.92,.46,1.94,.28,2.71-.17,.77-.64,2.81-3.33,2.81h0c-.54,0-1.13-.08-1.83-.23-.09-.02-.18-.04-.27-.06-.05,.35-.12,.69-.21,1.02,.22,.81,.33,1.72,.33,2.7,0,3.63-1.61,5.4-4.93,5.4Z"/>
          <path class="cls-7" d="M208,28.65c6.57,0,11.89,5.32,11.89,11.89,0,2.57-.83,4.56-2.22,6.04,.37,.04,.76,.11,1.24,.22,2.99,.68,3.11,1.93,2.78,3.35-.26,1.13-.71,2.03-2.36,2.03-.44,0-.97-.07-1.61-.21-.55-.13-1-.29-1.38-.47-.02,.89-.14,1.69-.36,2.4,.25,.8,.37,1.72,.37,2.7,0,3.08-1.18,4.4-3.93,4.4-2.04,0-2.83-.73-3.1-2.37-.43,.04-.88,.07-1.33,.07s-.9-.03-1.33-.07c-.27,1.64-1.06,2.37-3.1,2.37-2.75,0-3.93-1.32-3.93-4.4,0-.98,.12-1.9,.37-2.7-.22-.7-.34-1.48-.36-2.34-.37,.19-.83,.35-1.38,.47-.63,.14-1.16,.21-1.61,.21-1.64,0-2.1-.9-2.36-2.03-.33-1.43-.21-2.67,2.78-3.35,.5-.11,.91-.18,1.29-.22-1.42-1.48-2.27-3.49-2.27-6.1,0-6.57,5.32-11.89,11.89-11.89m0-2c-7.66,0-13.89,6.23-13.89,13.89,0,1.79,.34,3.41,1,4.83-1.09,.44-1.85,1.03-2.35,1.81-.79,1.25-.61,2.58-.41,3.47,.54,2.38,1.99,3.59,4.31,3.59,.38,0,.78-.03,1.22-.1-.16,.76-.24,1.58-.24,2.46,0,5.29,3.23,6.4,5.93,6.4,2.13,0,3.61-.72,4.43-2.15,.82,1.43,2.31,2.15,4.43,2.15,2.71,0,5.93-1.11,5.93-6.4,0-.9-.09-1.74-.26-2.52,.44,.07,.85,.1,1.23,.1,2.32,0,3.76-1.21,4.31-3.59,.2-.89,.38-2.22-.41-3.47-.49-.78-1.25-1.37-2.33-1.8,.65-1.41,.98-3.01,.98-4.78,0-7.66-6.23-13.89-13.89-13.89h0Z"/>
        </g>
        <path class="cls-9" d="M199.63,56.6c0,3.08,1.18,4.4,3.93,4.4s3.23-1.32,3.23-4.4-.48-5.58-3.23-5.58-3.93,2.5-3.93,5.58Z"/>
        <path class="cls-9" d="M216.37,56.6c0,3.08-1.18,4.4-3.93,4.4s-3.23-1.32-3.23-4.4,.48-5.58,3.23-5.58,3.93,2.5,3.93,5.58Z"/>
        <path class="cls-5" d="M216.37,51.31c0,5.18-3.75,7.39-8.37,7.39s-8.37-2.21-8.37-7.39,3.75-9.38,8.37-9.38,8.37,4.2,8.37,9.38Z"/>
        <path class="cls-9" d="M208.02,56.7c-2.86,0-5.48-.48-7.45-1.51,1.39,2.43,1.55,3.51,7.45,3.51s6.03-1.09,7.42-3.52c-1.97,1.04-4.56,1.52-7.42,1.52Z"/>
        <path class="cls-8" d="M216.77,45.02c0,5.07-3.93,7.24-8.77,7.24s-8.77-2.17-8.77-7.24,3.93-9.19,8.77-9.19,8.77,4.11,8.77,9.19Z"/>
        <g>
          <path class="cls-5" d="M218.91,46.8c2.99,.68,3.11,1.93,2.78,3.35s-.97,2.5-3.96,1.82-3.15-2.39-2.82-3.82c.33-1.43,1.01-2.04,4-1.36Z"/>
          <path class="cls-5" d="M197.09,46.86c-2.99,.68-3.11,1.93-2.78,3.35s.97,2.5,3.96,1.82c2.99-.68,3.15-2.39,2.82-3.82s-1.01-2.04-4-1.36Z"/>
        </g>
        <path class="cls-6" d="M219.89,40.54c0,6.57-5.32,9.38-11.89,9.38s-11.89-2.81-11.89-9.38,5.32-11.89,11.89-11.89,11.89,5.32,11.89,11.89Z"/>
        <path class="cls-4" d="M208,28.65c-6.23,0-11.33,4.79-11.84,10.88,.51,5.86,5.62,8.39,11.84,8.39s11.33-2.53,11.84-8.39c-.51-6.09-5.62-10.88-11.84-10.88Z"/>
        <path class="cls-3" d="M208,45.23c-5.17,0-9.63-1.55-11.74-5.01,.85,5.72,5.77,10.35,11.74,10.35s10.9-4.63,11.74-10.35c-2.11,3.46-6.57,5.01-11.74,5.01Z"/>
      </g>
    </g>
    <g>
      <rect class="cls-2" x="256" y="0" width="32" height="64" transform="translate(544 64) rotate(-180)"/>
      <g>
        <g>
          <path class="cls-1" d="M272,22.92c-.65,0-1.26-.32-1.63-.85l-1.47-2.08h-2.9c-1.65,0-3-1.35-3-3V6c0-1.65,1.35-3,3-3h12c1.65,0,3,1.35,3,3v11c0,1.65-1.35,3-3,3h-2.9l-1.47,2.08c-.37,.53-.98,.85-1.63,.85Z"/>
          <path class="cls-7" d="M278,4c1.1,0,2,.9,2,2v11c0,1.1-.9,2-2,2h-3.41l-1.77,2.5c-.2,.28-.51,.42-.82,.42s-.62-.14-.82-.42l-1.77-2.5h-3.41c-1.1,0-2-.9-2-2V6c0-1.1,.9-2,2-2h12m0-2h-12c-2.21,0-4,1.79-4,4v11c0,2.21,1.79,4,4,4h2.38l1.17,1.66c.56,.79,1.48,1.27,2.45,1.27s1.89-.47,2.45-1.27l1.17-1.66h2.38c2.21,0,4-1.79,4-4V6c0-2.21-1.79-4-4-4h0Z"/>
        </g>
        <rect class="cls-9" x="270" y="6" width="4" height="7" rx="1.5" ry="1.5" transform="translate(544 19) rotate(-180)"/>
        <rect class="cls-9" x="270" y="14.5" width="4" height="3" rx="1.5" ry="1.5" transform="translate(544 32) rotate(-180)"/>
      </g>
    </g>
  </g>
</svg>