<?xml version="1.0" encoding="UTF-8"?>
<svg id="Layer_2" data-name="Layer 2" xmlns="http://www.w3.org/2000/svg" viewBox="0 0 384 64">
  <defs>
    <style>
      .cls-1 {
        fill: #fff;
      }

      .cls-2 {
        fill: #9ee651;
        opacity: 0;
      }

      .cls-3 {
        fill: #2e55fc;
      }

      .cls-4 {
        fill: #1778ff;
      }

      .cls-5 {
        fill: #ffd640;
      }

      .cls-6 {
        fill: #1dbff0;
      }

      .cls-7 {
        fill: #cd1d39;
      }

      .cls-8 {
        fill: #604369;
      }

      .cls-9 {
        fill: #fdaf18;
      }

      .cls-10 {
        fill: #f25d4a;
      }
    </style>
  </defs>
  <g id="Finals">
    <g>
      <rect class="cls-2" x="0" y="0" width="32" height="64" transform="translate(32 64) rotate(-180)"/>
      <g>
        <path class="cls-8" d="M20.43,62c-2.06,0-3.31-.74-3.86-2.3-.18,0-.57,0-.57,0-.2,0-.39,0-.57,0-.55,1.57-1.8,2.3-3.86,2.3-3.32,0-4.93-1.77-4.93-5.4,0-.37,.02-.73,.05-1.08-.82,0-1.52-.38-2.03-.7-2.14-1.35-2.36-3.11-.72-5.72,.45-.72,.97-1.38,1.53-1.96-1.57-1.72-2.36-3.94-2.36-6.6,0-7.11,5.78-12.89,12.89-12.89s12.89,5.78,12.89,12.89c0,2.66-.79,4.87-2.36,6.6,.56,.57,1.08,1.23,1.53,1.96,.91,1.45,1.23,2.6,1,3.6-.24,1.07-1.05,1.69-1.72,2.12-.52,.32-1.21,.7-2.03,.7,.03,.35,.05,.71,.05,1.08,0,3.63-1.61,5.4-4.93,5.4Z"/>
        <path class="cls-8" d="M16,28.65c6.57,0,11.89,5.32,11.89,11.89,0,2.93-1.06,5.1-2.82,6.62,.75,.6,1.5,1.44,2.14,2.46,1.63,2.59,.84,3.56-.4,4.34-.5,.31-.99,.55-1.51,.55-.41,0-.83-.14-1.28-.5,.23,.77,.34,1.65,.34,2.59,0,3.08-1.18,4.4-3.93,4.4-2.02,0-2.81-.72-3.09-2.32-.41,.01-.84,.02-1.32,.02,0,0,0,0-.01,0,0,0,0,0,0,0,0,0,0,0-.01,0-.48,0-.92-.01-1.33-.03-.28,1.6-1.07,2.32-3.09,2.32-2.75,0-3.93-1.32-3.93-4.4,0-.93,.11-1.81,.34-2.59-.45,.36-.87,.5-1.28,.5-.52,0-1.01-.23-1.51-.55-1.24-.78-2.04-1.75-.4-4.34,.64-1.02,1.39-1.86,2.14-2.46-1.75-1.52-2.82-3.69-2.82-6.62,0-6.57,5.32-11.89,11.89-11.89m0-2c-7.66,0-13.89,6.23-13.89,13.89,0,2.53,.7,4.77,2.04,6.56-.38,.45-.74,.94-1.06,1.46-1.93,3.07-1.58,5.45,1.03,7.1,.38,.24,.9,.53,1.52,.71,0,.08,0,.16,0,.23,0,5.29,3.23,6.4,5.93,6.4,2.13,0,3.61-.72,4.43-2.15,.82,1.43,2.31,2.15,4.43,2.15,2.71,0,5.93-1.11,5.93-6.4,0-.08,0-.16,0-.23,.62-.17,1.14-.47,1.52-.71,.77-.49,1.84-1.3,2.16-2.74,.29-1.28-.07-2.67-1.13-4.36-.33-.52-.68-1.01-1.06-1.46,1.34-1.8,2.04-4.03,2.04-6.56,0-7.66-6.23-13.89-13.89-13.89h0Z"/>
      </g>
      <path class="cls-10" d="M24.37,56.6c0,3.08-1.18,4.4-3.93,4.4s-3.23-1.32-3.23-4.4,.48-5.58,3.23-5.58,3.93,2.5,3.93,5.58Z"/>
      <path class="cls-5" d="M27.22,49.63c1.63,2.59,.84,3.56-.4,4.34-1.24,.78-2.45,1.08-4.09-1.51-1.63-2.59-1.95-5.33-.71-6.11s3.57,.69,5.2,3.29Z"/>
      <path class="cls-5" d="M4.78,49.63c-1.63,2.59-.84,3.56,.4,4.34s2.45,1.08,4.09-1.51c1.63-2.59,1.95-5.33,.71-6.11s-3.57,.69-5.2,3.29Z"/>
      <path class="cls-10" d="M7.63,56.6c0,3.08,1.18,4.4,3.93,4.4s3.23-1.32,3.23-4.4-.48-5.58-3.23-5.58-3.93,2.5-3.93,5.58Z"/>
      <path class="cls-5" d="M24.37,51.31c0,5.18-3.75,7.39-8.37,7.39s-8.37-2.21-8.37-7.39,3.75-9.38,8.37-9.38,8.37,4.2,8.37,9.38Z"/>
      <path class="cls-9" d="M24.77,45.02c0,5.07-3.93,7.24-8.77,7.24s-8.77-2.17-8.77-7.24,3.93-9.19,8.77-9.19,8.77,4.11,8.77,9.19Z"/>
      <path class="cls-1" d="M27.89,40.54c0,6.57-5.32,9.38-11.89,9.38s-11.89-2.81-11.89-9.38,5.32-11.89,11.89-11.89,11.89,5.32,11.89,11.89Z"/>
      <g>
        <ellipse class="cls-8" cx="20.48" cy="43.58" rx="1.47" ry="2.45"/>
        <ellipse class="cls-8" cx="11.52" cy="43.58" rx="1.47" ry="2.45"/>
      </g>
      <path class="cls-6" d="M16,28.65c-6.57,0-11.89,5.32-11.89,11.89,0,1.26,.2,2.37,.56,3.36,.43-1.97,1.26-3.82,1.95-5.14,1.22-.07,2.27-.3,3.21-.62-.28,1.47-.16,2.64-.16,2.64,3.59-.16,6.15-1.2,7.96-2.43-.37,1.59,.38,3.14,.38,3.14,2.2-.93,3.41-2.23,4.07-3.38,.96,.34,2.04,.58,3.31,.65,.69,1.32,1.51,3.17,1.95,5.14,.36-.99,.56-2.11,.56-3.36,0-6.57-5.32-11.89-11.89-11.89Z"/>
      <path class="cls-10" d="M16.02,56.7c-2.86,0-5.48-.48-7.45-1.51,1.39,2.43,1.55,3.51,7.45,3.51s6.03-1.09,7.42-3.52c-1.97,1.04-4.56,1.52-7.42,1.52Z"/>
      <path class="cls-4" d="M16,28.65c-5.75,0-10.54,4.08-11.65,9.49,3.12-1.02,7.18-1.51,11.65-1.51s8.53,.48,11.65,1.51c-1.11-5.42-5.9-9.49-11.65-9.49Zm0,5.84c-1.21,0-2.38,.06-3.51,.17,.5-1.79,1.88-3.08,3.51-3.08s3.01,1.29,3.51,3.08c-1.12-.11-2.3-.17-3.51-.17Z"/>
    </g>
    <g>
      <rect class="cls-2" x="192" y="0" width="32" height="64" transform="translate(416 64) rotate(-180)"/>
      <g>
        <path class="cls-8" d="M212.43,62c-2.06,0-3.31-.74-3.86-2.3-.18,0-.57,0-.57,0-.2,0-.39,0-.57,0-.55,1.57-1.8,2.3-3.86,2.3-3.32,0-4.93-1.77-4.93-5.4,0-.37,.02-.73,.05-1.08-.82,0-1.52-.38-2.03-.7-2.14-1.35-2.36-3.11-.72-5.72,.45-.72,.97-1.38,1.53-1.96-1.57-1.72-2.36-3.94-2.36-6.6,0-7.11,5.78-12.89,12.89-12.89s12.89,5.78,12.89,12.89c0,2.66-.79,4.87-2.36,6.6,.56,.57,1.08,1.23,1.53,1.96,.91,1.45,1.23,2.6,1,3.6-.24,1.07-1.05,1.69-1.72,2.12-.52,.32-1.21,.7-2.03,.7,.03,.35,.05,.71,.05,1.08,0,3.63-1.61,5.4-4.93,5.4Z"/>
        <path class="cls-8" d="M208,28.65c6.57,0,11.89,5.32,11.89,11.89,0,2.93-1.06,5.1-2.82,6.62,.75,.6,1.5,1.44,2.14,2.46,1.63,2.59,.84,3.56-.4,4.34-.5,.31-.99,.55-1.51,.55-.41,0-.83-.14-1.28-.5,.23,.77,.34,1.65,.34,2.59,0,3.08-1.18,4.4-3.93,4.4-2.02,0-2.81-.72-3.09-2.32-.41,.01-.84,.02-1.32,.02,0,0,0,0-.01,0,0,0,0,0,0,0,0,0,0,0-.01,0-.48,0-.92-.01-1.33-.03-.28,1.6-1.07,2.32-3.09,2.32-2.75,0-3.93-1.32-3.93-4.4,0-.93,.11-1.81,.34-2.59-.45,.36-.87,.5-1.28,.5-.52,0-1.01-.23-1.51-.55-1.24-.78-2.04-1.75-.4-4.34,.64-1.02,1.39-1.86,2.14-2.46-1.75-1.52-2.82-3.69-2.82-6.62,0-6.57,5.32-11.89,11.89-11.89m0-2c-7.66,0-13.89,6.23-13.89,13.89,0,2.53,.7,4.77,2.04,6.56-.38,.45-.74,.94-1.06,1.46-1.93,3.07-1.58,5.45,1.03,7.1,.38,.24,.9,.53,1.52,.71,0,.08,0,.16,0,.23,0,5.29,3.23,6.4,5.93,6.4,2.13,0,3.61-.72,4.43-2.15,.82,1.43,2.31,2.15,4.43,2.15,2.71,0,5.93-1.11,5.93-6.4,0-.08,0-.16,0-.23,.62-.17,1.14-.47,1.52-.71,.77-.49,1.84-1.3,2.16-2.74,.29-1.28-.07-2.67-1.13-4.36-.33-.52-.68-1.01-1.06-1.46,1.34-1.8,2.04-4.03,2.04-6.56,0-7.66-6.23-13.89-13.89-13.89h0Z"/>
      </g>
      <path class="cls-10" d="M216.37,56.6c0,3.08-1.18,4.4-3.93,4.4s-3.23-1.32-3.23-4.4,.48-5.58,3.23-5.58,3.93,2.5,3.93,5.58Z"/>
      <path class="cls-5" d="M219.22,49.63c1.63,2.59,.84,3.56-.4,4.34-1.24,.78-2.45,1.08-4.09-1.51-1.63-2.59-1.95-5.33-.71-6.11s3.57,.69,5.2,3.29Z"/>
      <path class="cls-5" d="M196.78,49.63c-1.63,2.59-.84,3.56,.4,4.34s2.45,1.08,4.09-1.51c1.63-2.59,1.95-5.33,.71-6.11s-3.57,.69-5.2,3.29Z"/>
      <path class="cls-10" d="M199.63,56.6c0,3.08,1.18,4.4,3.93,4.4s3.23-1.32,3.23-4.4-.48-5.58-3.23-5.58-3.93,2.5-3.93,5.58Z"/>
      <path class="cls-5" d="M216.37,51.31c0,5.18-3.75,7.39-8.37,7.39s-8.37-2.21-8.37-7.39,3.75-9.38,8.37-9.38,8.37,4.2,8.37,9.38Z"/>
      <path class="cls-9" d="M216.77,45.02c0,5.07-3.93,7.24-8.77,7.24s-8.77-2.17-8.77-7.24,3.93-9.19,8.77-9.19,8.77,4.11,8.77,9.19Z"/>
      <path class="cls-6" d="M219.89,40.54c0,6.57-5.32,9.38-11.89,9.38s-11.89-2.81-11.89-9.38,5.32-11.89,11.89-11.89,11.89,5.32,11.89,11.89Z"/>
      <path class="cls-10" d="M208.02,56.7c-2.86,0-5.48-.48-7.45-1.51,1.39,2.43,1.55,3.51,7.45,3.51s6.03-1.09,7.42-3.52c-1.97,1.04-4.56,1.52-7.42,1.52Z"/>
      <path class="cls-4" d="M208,28.65c-6.23,0-11.33,4.79-11.84,10.88,.51,5.86,5.62,8.39,11.84,8.39s11.33-2.53,11.84-8.39c-.51-6.09-5.62-10.88-11.84-10.88Z"/>
      <path class="cls-3" d="M208,44.92c-5.17,0-9.63-1.45-11.74-4.7,.85,5.36,5.77,9.7,11.74,9.7s10.9-4.34,11.74-9.7c-2.11,3.24-6.57,4.7-11.74,4.7Z"/>
    </g>
    <g>
      <rect class="cls-2" x="32" y="0" width="32" height="64"/>
      <g>
        <path class="cls-8" d="M52.43,60c-2.1,0-3.43-1.11-3.95-3.3-.15,0-.3,0-.46,0-.27,0-.51,0-.74,0-.76,1.3-2.32,1.3-3.71,1.3-3.64,0-4.93-2.37-4.93-4.4,0-.32,.01-.63,.04-.94-.75-.1-1.62-.33-2.24-1.09-.65-.8-.88-1.97-.72-3.67,.13-1.38,.49-2.67,1.01-3.72-1.07-1.57-1.61-3.46-1.61-5.63,0-7.11,5.78-12.89,12.89-12.89s12.89,5.78,12.89,12.89c0,2.56-.75,4.71-2.22,6.42,.09,.27,.16,.55,.22,.86,.44,2.44-.28,4.66-1.73,5.64,.13,.66,.2,1.38,.2,2.14,0,4.55-1.43,6.4-4.93,6.4Z"/>
        <path class="cls-8" d="M48,26.65c6.57,0,11.89,5.32,11.89,11.89,0,2.68-.9,4.72-2.39,6.21,.17,.33,.31,.72,.41,1.24,.43,2.37-.42,4.51-1.91,4.91,.25,.8,.37,1.71,.37,2.69,0,4.21-1.18,5.4-3.93,5.4-2.08,0-2.86-1.33-3.12-3.32-.4,.01-.82,.02-1.29,.02,0,0,0,0-.01,0,0,0,0,0,0,0,0,0-.01,0-.02,0-.5,0-.94-.01-1.36-.03-.31,1.16-1.12,1.32-3.06,1.32-2.75,0-3.93-1.56-3.93-3.4,0-.66,.06-1.3,.17-1.89-.08,0-.17,0-.26,0-.17,0-.35-.01-.54-.03-1.46-.14-2.6-.65-2.3-3.7,.15-1.56,.6-2.94,1.2-3.9-1.13-1.42-1.8-3.25-1.8-5.55,0-6.57,5.32-11.89,11.89-11.89m0-2c-7.66,0-13.89,6.23-13.89,13.89,0,2.16,.5,4.07,1.48,5.71-.44,1.05-.74,2.27-.87,3.54-.19,1.99,.1,3.39,.94,4.4,.58,.7,1.3,1.07,1.98,1.27,0,.05,0,.09,0,.14,0,2.69,1.83,5.4,5.93,5.4,1.21,0,3.05,0,4.19-1.26,1.02,2.79,3.28,3.26,4.68,3.26,5.26,0,5.93-3.96,5.93-7.4,0-.6-.04-1.18-.12-1.73,1.41-1.33,2.09-3.69,1.63-6.22-.03-.16-.06-.31-.1-.45,1.4-1.82,2.11-4.05,2.11-6.65,0-7.66-6.23-13.89-13.89-13.89h0Z"/>
      </g>
      <g>
        <path class="cls-9" d="M52.17,47.04c-.45-2.46,.78-3,2.37-3.29s2.93-.21,3.38,2.25-.48,4.68-2.06,4.97-3.23-1.47-3.68-3.92Z"/>
        <path class="cls-10" d="M56.37,53.6c0,4.21-1.18,5.4-3.93,5.4s-3.23-2.32-3.23-5.4,.48-5.58,3.23-5.58,3.93,2.5,3.93,5.58Z"/>
        <path class="cls-10" d="M39.63,53.6c0,1.84,1.18,3.4,3.93,3.4s3.23-.32,3.23-3.4-.48-5.58-3.23-5.58-3.93,2.5-3.93,5.58Z"/>
        <path class="cls-5" d="M56.37,48.31c0,5.18-3.75,7.39-8.37,7.39s-8.37-2.21-8.37-7.39,3.75-9.38,8.37-9.38,8.37,4.2,8.37,9.38Z"/>
        <path class="cls-9" d="M56.77,43.02c0,5.07-3.93,7.24-8.77,7.24s-8.77-2.17-8.77-7.24,3.93-9.19,8.77-9.19,8.77,4.11,8.77,9.19Z"/>
        <path class="cls-5" d="M36.71,47.99c-.3,3.05,.85,3.56,2.3,3.7s2.68-.13,2.98-3.19c.3-3.05-.64-5.64-2.1-5.78s-2.88,2.22-3.18,5.27Z"/>
        <path class="cls-1" d="M59.89,38.54c0,6.57-5.32,9.38-11.89,9.38s-11.89-2.81-11.89-9.38,5.32-11.89,11.89-11.89,11.89,5.32,11.89,11.89Z"/>
        <g>
          <ellipse class="cls-8" cx="52.48" cy="41.58" rx="1.47" ry="2.45"/>
          <ellipse class="cls-8" cx="43.52" cy="41.58" rx="1.47" ry="2.45"/>
        </g>
        <path class="cls-6" d="M48,26.65c-6.57,0-11.89,5.32-11.89,11.89,0,1.26,.2,2.37,.56,3.36,.43-1.97,1.26-3.82,1.95-5.14,1.22-.07,2.27-.3,3.21-.62-.28,1.47-.16,2.64-.16,2.64,3.59-.16,6.15-1.2,7.96-2.43-.37,1.59,.38,3.14,.38,3.14,2.2-.93,3.41-2.23,4.07-3.38,.96,.34,2.04,.58,3.31,.65,.69,1.32,1.51,3.17,1.95,5.14,.36-.99,.56-2.11,.56-3.36,0-6.57-5.32-11.89-11.89-11.89Z"/>
        <path class="cls-4" d="M48,26.65c-5.75,0-10.54,4.08-11.65,9.49,3.12-1.02,7.18-1.51,11.65-1.51s8.53,.48,11.65,1.51c-1.11-5.42-5.9-9.49-11.65-9.49Zm0,5.84c-1.21,0-2.38,.06-3.51,.17,.5-1.79,1.88-3.08,3.51-3.08s3.01,1.29,3.51,3.08c-1.12-.11-2.3-.17-3.51-.17Z"/>
        <path class="cls-10" d="M48.02,53.7c-2.86,0-5.48-.48-7.45-1.51,1.39,2.43,1.55,3.51,7.45,3.51s6.03-1.09,7.42-3.52c-1.97,1.04-4.56,1.52-7.42,1.52Z"/>
      </g>
      <g>
        <path class="cls-9" d="M52.17,47.04c-.45-2.46,.78-3,2.37-3.29s2.93-.21,3.38,2.25-.48,4.68-2.06,4.97-3.23-1.47-3.68-3.92Z"/>
        <path class="cls-10" d="M56.37,53.6c0,4.21-1.18,5.4-3.93,5.4s-3.23-2.32-3.23-5.4,.48-5.58,3.23-5.58,3.93,2.5,3.93,5.58Z"/>
        <path class="cls-10" d="M39.63,53.6c0,1.84,1.18,3.4,3.93,3.4s3.23-.32,3.23-3.4-.48-5.58-3.23-5.58-3.93,2.5-3.93,5.58Z"/>
        <path class="cls-5" d="M56.37,48.31c0,5.18-3.75,7.39-8.37,7.39s-8.37-2.21-8.37-7.39,3.75-9.38,8.37-9.38,8.37,4.2,8.37,9.38Z"/>
        <path class="cls-9" d="M56.77,43.02c0,5.07-3.93,7.24-8.77,7.24s-8.77-2.17-8.77-7.24,3.93-9.19,8.77-9.19,8.77,4.11,8.77,9.19Z"/>
        <path class="cls-5" d="M36.71,47.99c-.3,3.05,.85,3.56,2.3,3.7s2.68-.13,2.98-3.19c.3-3.05-.64-5.64-2.1-5.78s-2.88,2.22-3.18,5.27Z"/>
        <path class="cls-1" d="M59.89,38.54c0,6.57-5.32,9.38-11.89,9.38s-11.89-2.81-11.89-9.38,5.32-11.89,11.89-11.89,11.89,5.32,11.89,11.89Z"/>
        <g>
          <ellipse class="cls-8" cx="52.48" cy="41.58" rx="1.47" ry="2.45"/>
          <ellipse class="cls-8" cx="43.52" cy="41.58" rx="1.47" ry="2.45"/>
        </g>
        <path class="cls-6" d="M48,26.65c-6.57,0-11.89,5.32-11.89,11.89,0,1.26,.2,2.37,.56,3.36,.43-1.97,1.26-3.82,1.95-5.14,1.22-.07,2.27-.3,3.21-.62-.28,1.47-.16,2.64-.16,2.64,3.59-.16,6.15-1.2,7.96-2.43-.37,1.59,.38,3.14,.38,3.14,2.2-.93,3.41-2.23,4.07-3.38,.96,.34,2.04,.58,3.31,.65,.69,1.32,1.51,3.17,1.95,5.14,.36-.99,.56-2.11,.56-3.36,0-6.57-5.32-11.89-11.89-11.89Z"/>
        <path class="cls-4" d="M48,26.65c-5.75,0-10.54,4.08-11.65,9.49,3.12-1.02,7.18-1.51,11.65-1.51s8.53,.48,11.65,1.51c-1.11-5.42-5.9-9.49-11.65-9.49Zm0,5.84c-1.21,0-2.38,.06-3.51,.17,.5-1.79,1.88-3.08,3.51-3.08s3.01,1.29,3.51,3.08c-1.12-.11-2.3-.17-3.51-.17Z"/>
        <path class="cls-10" d="M48.02,53.7c-2.86,0-5.48-.48-7.45-1.51,1.39,2.43,1.55,3.51,7.45,3.51s6.03-1.09,7.42-3.52c-1.97,1.04-4.56,1.52-7.42,1.52Z"/>
      </g>
    </g>
    <g>
      <rect class="cls-2" x="64" y="0" width="32" height="64" transform="translate(160 64) rotate(-180)"/>
      <g>
        <path class="cls-8" d="M75.57,60c-3.5,0-4.93-1.85-4.93-6.4,0-.76,.07-1.48,.2-2.14-1.44-.98-2.17-3.2-1.73-5.64,.06-.31,.13-.59,.22-.86-1.47-1.71-2.22-3.86-2.22-6.42,0-7.11,5.78-12.89,12.89-12.89s12.89,5.78,12.89,12.89c0,2.16-.54,4.05-1.61,5.63,.52,1.05,.87,2.34,1.01,3.72,.17,1.71-.06,2.87-.72,3.67-.62,.76-1.5,1-2.24,1.09,.02,.31,.04,.62,.04,.94,0,2.03-1.29,4.4-4.93,4.4-1.39,0-2.95,0-3.71-1.3-.22,0-.76,0-.76,0-.15,0-.3,0-.44,0-.52,2.19-1.85,3.3-3.95,3.3Z"/>
        <path class="cls-8" d="M80,26.65c6.57,0,11.89,5.32,11.89,11.89,0,2.3-.66,4.13-1.8,5.55,.6,.96,1.04,2.33,1.2,3.9,.3,3.05-.85,3.56-2.3,3.7-.18,.02-.36,.03-.54,.03-.09,0-.17,0-.26,0,.11,.59,.17,1.23,.17,1.89,0,1.84-1.18,3.4-3.93,3.4-1.93,0-2.74-.16-3.06-1.32-.42,.02-.86,.03-1.36,.03,0,0-.01,0-.02,0,0,0,0,0,0,0,0,0,0,0-.01,0-.47,0-.89,0-1.29-.02-.26,1.99-1.04,3.32-3.12,3.32-2.75,0-3.93-1.2-3.93-5.4,0-.97,.12-1.89,.37-2.69-1.49-.4-2.34-2.54-1.91-4.91,.09-.52,.24-.92,.41-1.24-1.49-1.49-2.39-3.54-2.39-6.21,0-6.57,5.32-11.89,11.89-11.89m0-2c-7.66,0-13.89,6.23-13.89,13.89,0,2.6,.71,4.83,2.11,6.65-.04,.15-.07,.3-.1,.45-.46,2.54,.21,4.89,1.63,6.22-.08,.55-.12,1.13-.12,1.73,0,3.45,.67,7.4,5.93,7.4,1.4,0,3.67-.47,4.68-3.26,1.13,1.26,2.97,1.26,4.19,1.26,4.1,0,5.93-2.71,5.93-5.4,0-.05,0-.09,0-.14,.68-.2,1.4-.56,1.98-1.27,.83-1.02,1.13-2.42,.94-4.4-.12-1.28-.42-2.5-.87-3.54,.98-1.64,1.48-3.55,1.48-5.71,0-7.66-6.23-13.89-13.89-13.89h0Z"/>
      </g>
      <g>
        <path class="cls-9" d="M75.83,47.04c.45-2.46-.78-3-2.37-3.29s-2.93-.21-3.38,2.25,.48,4.68,2.06,4.97,3.23-1.47,3.68-3.92Z"/>
        <path class="cls-10" d="M71.63,53.6c0,4.21,1.18,5.4,3.93,5.4s3.23-2.32,3.23-5.4-.48-5.58-3.23-5.58-3.93,2.5-3.93,5.58Z"/>
        <path class="cls-10" d="M88.37,53.6c0,1.84-1.18,3.4-3.93,3.4s-3.23-.32-3.23-3.4,.48-5.58,3.23-5.58,3.93,2.5,3.93,5.58Z"/>
        <path class="cls-5" d="M71.63,48.31c0,5.18,3.75,7.39,8.37,7.39s8.37-2.21,8.37-7.39-3.75-9.38-8.37-9.38-8.37,4.2-8.37,9.38Z"/>
        <path class="cls-9" d="M71.23,43.02c0,5.07,3.93,7.24,8.77,7.24s8.77-2.17,8.77-7.24-3.93-9.19-8.77-9.19-8.77,4.11-8.77,9.19Z"/>
        <path class="cls-5" d="M91.29,47.99c.3,3.05-.85,3.56-2.3,3.7s-2.68-.13-2.98-3.19c-.3-3.05,.64-5.64,2.1-5.78s2.88,2.22,3.18,5.27Z"/>
        <path class="cls-1" d="M68.11,38.54c0,6.57,5.32,9.38,11.89,9.38s11.89-2.81,11.89-9.38-5.32-11.89-11.89-11.89-11.89,5.32-11.89,11.89Z"/>
        <g>
          <ellipse class="cls-8" cx="75.52" cy="41.58" rx="1.47" ry="2.45"/>
          <ellipse class="cls-8" cx="84.48" cy="41.58" rx="1.47" ry="2.45"/>
        </g>
        <path class="cls-6" d="M80,26.65c6.57,0,11.89,5.32,11.89,11.89,0,1.26-.2,2.37-.56,3.36-.43-1.97-1.26-3.82-1.95-5.14-1.22-.07-2.27-.3-3.21-.62,.28,1.47,.16,2.64,.16,2.64-3.59-.16-6.15-1.2-7.96-2.43,.37,1.59-.38,3.14-.38,3.14-2.2-.93-3.41-2.23-4.07-3.38-.96,.34-2.04,.58-3.31,.65-.69,1.32-1.51,3.17-1.95,5.14-.36-.99-.56-2.11-.56-3.36,0-6.57,5.32-11.89,11.89-11.89Z"/>
        <path class="cls-4" d="M68.35,36.14c3.12-1.02,7.18-1.51,11.65-1.51s8.53,.48,11.65,1.51c-1.11-5.42-5.9-9.49-11.65-9.49s-10.54,4.08-11.65,9.49Zm8.14-3.49c.5-1.79,1.88-3.08,3.51-3.08s3.01,1.29,3.51,3.08c-1.12-.11-2.3-.17-3.51-.17s-2.38,.06-3.51,.17Z"/>
        <path class="cls-10" d="M79.98,53.7c2.86,0,5.48-.48,7.45-1.51-1.39,2.43-1.55,3.51-7.45,3.51-5.9,0-6.03-1.09-7.42-3.52,1.97,1.04,4.56,1.52,7.42,1.52Z"/>
      </g>
      <g>
        <path class="cls-9" d="M75.83,47.04c.45-2.46-.78-3-2.37-3.29s-2.93-.21-3.38,2.25,.48,4.68,2.06,4.97,3.23-1.47,3.68-3.92Z"/>
        <path class="cls-10" d="M71.63,53.6c0,4.21,1.18,5.4,3.93,5.4s3.23-2.32,3.23-5.4-.48-5.58-3.23-5.58-3.93,2.5-3.93,5.58Z"/>
        <path class="cls-10" d="M88.37,53.6c0,1.84-1.18,3.4-3.93,3.4s-3.23-.32-3.23-3.4,.48-5.58,3.23-5.58,3.93,2.5,3.93,5.58Z"/>
        <path class="cls-5" d="M71.63,48.31c0,5.18,3.75,7.39,8.37,7.39s8.37-2.21,8.37-7.39-3.75-9.38-8.37-9.38-8.37,4.2-8.37,9.38Z"/>
        <path class="cls-9" d="M71.23,43.02c0,5.07,3.93,7.24,8.77,7.24s8.77-2.17,8.77-7.24-3.93-9.19-8.77-9.19-8.77,4.11-8.77,9.19Z"/>
        <path class="cls-5" d="M91.29,47.99c.3,3.05-.85,3.56-2.3,3.7s-2.68-.13-2.98-3.19c-.3-3.05,.64-5.64,2.1-5.78s2.88,2.22,3.18,5.27Z"/>
        <path class="cls-1" d="M68.11,38.54c0,6.57,5.32,9.38,11.89,9.38s11.89-2.81,11.89-9.38-5.32-11.89-11.89-11.89-11.89,5.32-11.89,11.89Z"/>
        <g>
          <ellipse class="cls-8" cx="75.52" cy="41.58" rx="1.47" ry="2.45"/>
          <ellipse class="cls-8" cx="84.48" cy="41.58" rx="1.47" ry="2.45"/>
        </g>
        <path class="cls-6" d="M80,26.65c-6.57,0-11.89,5.32-11.89,11.89,0,1.26,.2,2.37,.56,3.36,.43-1.97,1.26-3.82,1.95-5.14,1.22-.07,2.27-.3,3.21-.62-.28,1.47-.16,2.64-.16,2.64,3.59-.16,6.15-1.2,7.96-2.43-.37,1.59,.38,3.14,.38,3.14,2.2-.93,3.41-2.23,4.07-3.38,.96,.34,2.04,.58,3.31,.65,.69,1.32,1.51,3.17,1.95,5.14,.36-.99,.56-2.11,.56-3.36,0-6.57-5.32-11.89-11.89-11.89Z"/>
        <path class="cls-4" d="M68.35,36.14c3.12-1.02,7.18-1.51,11.65-1.51s8.53,.48,11.65,1.51c-1.11-5.42-5.9-9.49-11.65-9.49s-10.54,4.08-11.65,9.49Zm8.14-3.49c.5-1.79,1.88-3.08,3.51-3.08s3.01,1.29,3.51,3.08c-1.12-.11-2.3-.17-3.51-.17s-2.38,.06-3.51,.17Z"/>
        <path class="cls-10" d="M79.98,53.7c2.86,0,5.48-.48,7.45-1.51-1.39,2.43-1.55,3.51-7.45,3.51-5.9,0-6.03-1.09-7.42-3.52,1.97,1.04,4.56,1.52,7.42,1.52Z"/>
      </g>
    </g>
    <g>
      <rect class="cls-2" x="96" y="0" width="32" height="64"/>
      <g>
        <path class="cls-8" d="M112.33,62c-4.06,0-6.12-1.62-6.28-4.96-.25-.28-.46-.56-.64-.84-.84-1.34-1.27-2.98-1.27-4.88,0-.79,.07-1.58,.22-2.36-1.17-.69-2.13-1.56-2.86-2.57-.11,.1-.22,.2-.33,.29-.31,.28-.71,.43-1.11,.43-.48,0-.94-.21-1.26-.57-.32-.36-.48-.85-.42-1.33,.13-1.16,.62-2.29,1.46-3.36-.05-.46-.08-.88-.08-1.3,0-7.11,5.78-12.89,12.89-12.89s12.89,5.78,12.89,12.89c0,3.73-1.59,6.62-4.61,8.41,.15,.77,.22,1.56,.22,2.36,0,1.9-.42,3.54-1.26,4.87-.58,.92-1.36,1.68-2.32,2.26-.4,2.52-1.96,3.56-5.23,3.56Z"/>
        <path class="cls-8" d="M112.65,28.65c6.57,0,11.89,5.32,11.89,11.89,0,3.88-1.87,6.44-4.75,7.9,.23,.91,.36,1.87,.36,2.87,0,1.79-.41,3.23-1.11,4.34-.6,.96-1.43,1.67-2.41,2.17-.2,2.21-1.13,3.18-4.3,3.18-3.69,0-5.28-1.31-5.29-4.37-.29-.29-.56-.61-.79-.97-.7-1.12-1.12-2.55-1.12-4.35,0-1,.13-1.97,.36-2.87-1.65-.83-2.97-2.02-3.79-3.61,0,0,0,0,0,0-.42,.39-.82,.76-1.21,1.1-.14,.12-.29,.18-.45,.18-.38,0-.74-.34-.69-.79,.1-.91,.5-2.01,1.51-3.17-.08-.51-.13-1.04-.13-1.6,0-6.57,5.32-11.89,11.89-11.89m0-2c-7.66,0-13.89,6.23-13.89,13.89,0,.33,.01,.67,.05,1.02-.8,1.12-1.28,2.31-1.41,3.54-.09,.77,.16,1.54,.67,2.11,.51,.57,1.24,.9,2.01,.9,.45,0,.89-.11,1.28-.33,.56,.62,1.2,1.18,1.93,1.67-.09,.62-.13,1.24-.13,1.86,0,2.1,.48,3.92,1.42,5.42,.15,.24,.32,.48,.51,.71,.24,2.7,1.79,5.56,7.25,5.56,2.29,0,5.31-.43,6.13-3.94,.93-.63,1.69-1.41,2.27-2.35,.94-1.5,1.42-3.31,1.42-5.4,0-.63-.04-1.25-.13-1.87,2.93-1.99,4.52-5.1,4.52-8.9,0-7.66-6.23-13.89-13.89-13.89h0Z"/>
      </g>
      <path class="cls-10" d="M107.04,56.6c0,3.08,1.59,4.4,5.29,4.4s4.35-1.32,4.35-4.4-.65-5.58-4.35-5.58-5.29,2.5-5.29,5.58Z"/>
      <path class="cls-5" d="M119.04,55.65c.7-1.11,1.11-2.54,1.11-4.34,0-5.18-3.36-9.38-7.5-9.38s-7.5,4.2-7.5,9.38c0,1.8,.41,3.23,1.12,4.35,1.81,.71,4.02,1.05,6.4,1.05s4.57-.34,6.38-1.05Z"/>
      <path class="cls-10" d="M119.04,55.65c-1.81,.71-4,1.05-6.38,1.05s-4.59-.34-6.4-1.05c1.32,2.09,3.68,3.04,6.38,3.04,0,0,.01,0,.02,0,2.71,0,5.07-.95,6.39-3.05Z"/>
      <path class="cls-9" d="M111.75,35.84v16.43c4.64,0,8.4-2.17,8.4-7.24s-3.76-9.19-8.4-9.19Z"/>
      <path class="cls-5" d="M107.05,54.27c.85,3.72,2.39,3.86,4.17,3.46,1.78-.4,3.11-1.21,2.26-4.92-.85-3.72-2.97-6.4-4.75-6s-2.53,3.74-1.68,7.46Z"/>
      <path class="cls-1" d="M124.54,40.54c0,6.57-5.32,9.38-11.89,9.38s-11.89-2.81-11.89-9.38,5.32-11.89,11.89-11.89,11.89,5.32,11.89,11.89Z"/>
      <ellipse class="cls-8" cx="118.17" cy="43.58" rx="1.47" ry="2.45"/>
      <path class="cls-1" d="M112.65,58.7s0,0,0,0c0,0-.01,0-.02,0,0,0,0,0,.01,0Z"/>
      <path class="cls-6" d="M122.98,34.67h0c-2.05-3.6-5.9-6.02-10.34-6.02-6.57,0-11.89,5.32-11.89,11.89,0,4.29,2.28,6.97,5.7,8.32,2.48-1.4,4.15-3.72,4.15-3.72,.49,.65,1.63,1.22,1.63,1.22,1.52-2.92,1.82-6.38,1.82-6.38,5.09-1.63,8.93-5.3,8.93-5.3Z"/>
      <path class="cls-6" d="M124.21,37.82c-.53-2.26-1.7-4.27-3.31-5.82-.92,.61-1.82,1.54-2.08,2.21-1.31,3.38-.15,6.03-.15,6.03,3,0,4.52-1.24,5.53-2.42Z"/>
      <path class="cls-4" d="M112.65,28.65c-6.57,0-11.89,5.32-11.89,11.89,0,.56,.05,1.09,.13,1.6-1.01,1.16-1.41,2.26-1.51,3.17-.07,.64,.66,1.04,1.14,.61,.39-.34,.79-.71,1.21-1.1,.46-.43,.94-.84,1.42-1.24,.04-.03,.08-.07,.12-.1,.48-.38,.96-.75,1.46-1.1,.04-.03,.09-.06,.13-.09,.5-.35,1.02-.69,1.53-1,.03-.02,.06-.03,.08-.05,.54-.33,1.08-.64,1.62-.93,7.45-4.02,15.28-4.9,15.28-4.9h0c-1.92-4-5.99-6.77-10.72-6.77Zm5.66,5.63h0c-.12-1.25,.36-2.49,1.32-3.35,.96,.7,1.81,1.54,2.53,2.5-2.12,.32-3.85,.85-3.85,.85Z"/>
    </g>
    <g>
      <rect class="cls-2" x="128" y="0" width="32" height="64"/>
      <g>
        <path class="cls-8" d="M145.97,60c-1.28,0-2.36-.59-3.29-1.8-.45,.21-.89,.31-1.34,.31-1.06,0-2.09-.55-3.35-1.78-1.27-1.23-1.97-2.41-2.12-3.56-.1,0-.21,.01-.31,.01-1.33,0-2.26-.82-2.92-1.54-.64-.69-1.37-1.65-1.32-2.92,.05-1.21,.78-2.43,2.29-3.83,.22-.2,.44-.39,.68-.59-.28-.29-.54-.6-.77-.93-.11,.1-.22,.2-.33,.3-.31,.28-.71,.43-1.11,.43-.48,0-.94-.21-1.26-.57-.32-.36-.48-.85-.42-1.33,.13-1.16,.62-2.29,1.46-3.36-.05-.46-.08-.88-.08-1.3,0-7.11,5.78-12.89,12.89-12.89s12.89,5.78,12.89,12.89c0,2.81-.92,5.18-2.69,6.94,2.17,1.12,2.8,2.71,2.06,5.03-.44,1.38-1.26,2.97-3.67,2.97h0c-.3,0-.61-.02-.94-.07-.13,.28-.27,.54-.41,.78-.06,.1-.12,.19-.19,.29,.96,2.13,.3,3.68-2.15,5.25-1.35,.87-2.52,1.29-3.58,1.29Z"/>
        <path class="cls-8" d="M144.65,25.65c6.57,0,11.89,5.32,11.89,11.89,0,3.35-1.39,5.71-3.61,7.23,3.57,1.16,3.58,2.71,3.03,4.43-.41,1.27-1.01,2.27-2.71,2.27-.44,0-.96-.07-1.57-.22-.17,.5-.38,.97-.64,1.39-.16,.25-.33,.49-.52,.7,1.02,1.82,.88,2.99-1.51,4.52-1.17,.75-2.17,1.13-3.04,1.13-1.11,0-2.01-.62-2.81-1.86-.06-.1-.12-.2-.18-.3-.56,.43-1.08,.67-1.64,.67-.77,0-1.59-.46-2.66-1.49-1.62-1.57-2.16-2.92-1.68-4.25-.54,.29-1.02,.41-1.45,.41-.88,0-1.55-.53-2.19-1.22-1.24-1.34-1.88-2.75,.91-5.34,.51-.47,1.04-.88,1.57-1.24-.88-.7-1.61-1.54-2.13-2.56,0,0,0,0,0,0-.42,.39-.82,.76-1.21,1.1-.14,.12-.29,.18-.45,.18-.38,0-.74-.34-.69-.79,.1-.91,.5-2.01,1.51-3.17-.08-.51-.13-1.04-.13-1.6,0-6.57,5.32-11.89,11.89-11.89m0-2c-7.66,0-13.89,6.23-13.89,13.89,0,.33,.01,.67,.05,1.02-.8,1.12-1.28,2.31-1.41,3.54-.09,.77,.16,1.54,.67,2.11,.5,.55,1.2,.88,1.94,.9-2.22,2.52-2.25,4.89-.1,7.22,.67,.72,1.7,1.66,3.17,1.83,.35,1.1,1.09,2.2,2.22,3.3,.99,.96,2.34,2.06,4.05,2.06,.35,0,.69-.05,1.03-.14,1.02,1.08,2.23,1.63,3.6,1.63,1.25,0,2.6-.47,4.12-1.44,2.67-1.71,3.56-3.63,2.73-5.98,.02-.04,.04-.07,.06-.11,.12,0,.24,0,.36,0,3.45,0,4.33-2.76,4.62-3.67,.76-2.39,.28-4.22-1.48-5.55,1.42-1.82,2.16-4.09,2.16-6.72,0-7.66-6.23-13.89-13.89-13.89h0Z"/>
      </g>
      <path class="cls-9" d="M150.86,51.03c3.63,1.16,4.54-.1,5.1-1.83s.54-3.29-3.09-4.45c-3.63-1.16-7.02-.7-7.58,1.04s1.94,4.08,5.57,5.24Z"/>
      <path class="cls-7" d="M138.06,50.15c-1.84,1.89-1.65,3.65,.62,5.86,2.27,2.21,3.46,1.79,5.3-.1s2.94-3.82,.66-6.03c-2.27-2.21-4.74-1.63-6.59,.27Z"/>
      <path class="cls-10" d="M143.16,57.14c1.42,2.23,3.18,2.44,5.85,.74,2.67-1.71,2.53-2.96,1.11-5.19-1.42-2.23-3.05-3.73-5.72-2.02s-2.67,4.25-1.24,6.47Z"/>
      <path class="cls-5" d="M151.04,52.65c.7-1.11,1.11-2.54,1.11-4.34,0-5.18-3.36-9.38-7.5-9.38s-7.5,4.2-7.5,9.38c0,1.8,.41,3.23,1.12,4.35,1.81,.71,4.02,1.05,6.4,1.05s4.57-.34,6.38-1.05Z"/>
      <path class="cls-10" d="M151.04,52.65c-1.81,.71-4,1.05-6.38,1.05s-4.59-.34-6.4-1.05c1.32,2.09,3.68,3.04,6.38,3.04,0,0,.01,0,.02,0,2.71,0,5.07-.95,6.39-3.05Z"/>
      <path class="cls-9" d="M151.67,42.02c0,5.07-3.44,7.24-7.67,7.24s-7.67-2.17-7.67-7.24,3.44-9.19,7.67-9.19,7.67,4.11,7.67,9.19Z"/>
      <path class="cls-5" d="M134.28,45.62c-2.8,2.59-2.15,4-.91,5.34s2.6,2.09,5.39-.5c2.8-2.59,4.06-5.77,2.82-7.11-1.24-1.34-4.51-.32-7.3,2.27Z"/>
      <path class="cls-1" d="M156.54,37.54c0,6.57-5.32,9.38-11.89,9.38s-11.89-2.81-11.89-9.38,5.32-11.89,11.89-11.89,11.89,5.32,11.89,11.89Z"/>
      <ellipse class="cls-8" cx="150.17" cy="40.58" rx="1.47" ry="2.45"/>
      <path class="cls-6" d="M154.98,31.67h0c-2.05-3.6-5.9-6.02-10.34-6.02-6.57,0-11.89,5.32-11.89,11.89,0,4.29,2.28,6.97,5.7,8.32,2.48-1.4,4.15-3.72,4.15-3.72,.49,.65,1.63,1.22,1.63,1.22,1.52-2.92,1.82-6.38,1.82-6.38,5.09-1.63,8.93-5.3,8.93-5.3Z"/>
      <path class="cls-6" d="M156.21,34.82c-.53-2.26-1.7-4.27-3.31-5.82-.92,.61-1.82,1.54-2.08,2.21-1.31,3.38-.15,6.03-.15,6.03,3,0,4.52-1.24,5.53-2.42Z"/>
      <path class="cls-4" d="M144.65,25.65c-6.57,0-11.89,5.32-11.89,11.89,0,.56,.05,1.09,.13,1.6-1.01,1.16-1.41,2.26-1.51,3.17-.07,.64,.66,1.04,1.14,.61,.39-.34,.79-.71,1.21-1.1,.46-.43,.94-.84,1.42-1.24,.04-.03,.08-.07,.12-.1,.48-.38,.96-.75,1.46-1.1,.04-.03,.09-.06,.13-.09,.5-.35,1.02-.69,1.53-1,.03-.02,.06-.03,.08-.05,.54-.33,1.08-.64,1.62-.93,7.45-4.02,15.28-4.9,15.28-4.9h0c-1.92-4-5.99-6.77-10.72-6.77Zm5.66,5.63h0c-.12-1.25,.36-2.49,1.32-3.35,.96,.7,1.81,1.54,2.53,2.5-2.12,.32-3.85,.85-3.85,.85Z"/>
    </g>
    <g>
      <rect class="cls-2" x="352" y="0" width="32" height="64" transform="translate(736 64) rotate(-180)"/>
      <g>
        <path class="cls-8" d="M366.03,60c-1.05,0-2.22-.42-3.58-1.29-2.45-1.57-3.1-3.12-2.15-5.25-.07-.09-.13-.19-.19-.29-.15-.23-.28-.49-.41-.78-.33,.05-.65,.07-.94,.07-2.41,0-3.22-1.59-3.67-2.97-.74-2.32-.11-3.91,2.06-5.03-1.77-1.76-2.69-4.13-2.69-6.94,0-7.11,5.78-12.89,12.89-12.89s12.89,5.78,12.89,12.89c0,.42-.03,.84-.08,1.3,.84,1.07,1.33,2.2,1.46,3.36,.05,.49-.1,.97-.42,1.33-.32,.36-.78,.57-1.26,.57-.41,0-.8-.15-1.11-.43-.11-.1-.22-.2-.33-.3-.23,.32-.49,.63-.77,.93,.24,.19,.46,.39,.68,.59,1.51,1.4,2.24,2.62,2.29,3.83,.05,1.27-.68,2.23-1.32,2.92-.66,.72-1.6,1.54-2.92,1.54-.1,0-.21,0-.31-.01-.15,1.15-.86,2.33-2.12,3.56-1.26,1.23-2.3,1.78-3.35,1.78-.45,0-.89-.1-1.34-.31-.92,1.21-2,1.8-3.29,1.8Z"/>
        <path class="cls-8" d="M367.35,25.65c6.57,0,11.89,5.32,11.89,11.89,0,.56-.05,1.09-.13,1.6,1.01,1.16,1.41,2.26,1.51,3.17,.05,.45-.31,.79-.69,.79-.15,0-.31-.05-.45-.18-.39-.34-.79-.71-1.21-1.1,0,0,0,0,0,0-.52,1.02-1.25,1.86-2.13,2.56,.53,.36,1.06,.77,1.57,1.24,2.8,2.59,2.15,4,.91,5.34-.64,.69-1.31,1.22-2.19,1.22-.43,0-.9-.12-1.45-.41,.48,1.33-.07,2.67-1.68,4.25-1.06,1.04-1.89,1.49-2.66,1.49-.56,0-1.08-.24-1.64-.67-.06,.1-.11,.2-.18,.3-.8,1.25-1.7,1.86-2.81,1.86-.87,0-1.87-.38-3.04-1.13-2.39-1.53-2.53-2.69-1.51-4.52-.19-.22-.36-.45-.52-.7-.26-.41-.46-.88-.64-1.39-.61,.15-1.12,.22-1.57,.22-1.71,0-2.31-1.01-2.71-2.27-.55-1.72-.54-3.27,3.03-4.43-2.23-1.52-3.61-3.89-3.61-7.23,0-6.57,5.32-11.89,11.89-11.89m0-2c-7.66,0-13.89,6.23-13.89,13.89,0,2.63,.74,4.9,2.16,6.72-1.76,1.33-2.24,3.16-1.48,5.55,.29,.91,1.17,3.67,4.62,3.67,.12,0,.24,0,.36,0,.02,.04,.04,.07,.06,.11-.83,2.35,.06,4.27,2.73,5.98,1.52,.97,2.87,1.44,4.12,1.44,1.37,0,2.58-.55,3.6-1.63,.34,.09,.68,.14,1.03,.14,1.71,0,3.07-1.1,4.05-2.06,1.13-1.1,1.87-2.2,2.22-3.3,1.47-.17,2.51-1.11,3.17-1.83,2.15-2.33,2.13-4.7-.1-7.22,.74-.02,1.44-.34,1.94-.9,.51-.57,.76-1.34,.67-2.11-.14-1.23-.61-2.42-1.41-3.54,.03-.35,.05-.68,.05-1.02,0-7.66-6.23-13.89-13.89-13.89h0Z"/>
      </g>
      <path class="cls-9" d="M361.14,51.03c-3.63,1.16-4.54-.1-5.1-1.83s-.54-3.29,3.09-4.45c3.63-1.16,7.02-.7,7.58,1.04s-1.94,4.08-5.57,5.24Z"/>
      <path class="cls-7" d="M373.94,50.15c1.84,1.89,1.65,3.65-.62,5.86-2.27,2.21-3.46,1.79-5.3-.1-1.84-1.89-2.94-3.82-.66-6.03s4.74-1.63,6.59,.27Z"/>
      <path class="cls-10" d="M368.84,57.14c-1.42,2.23-3.18,2.44-5.85,.74-2.67-1.71-2.53-2.96-1.11-5.19s3.05-3.73,5.72-2.02,2.67,4.25,1.24,6.47Z"/>
      <path class="cls-5" d="M360.96,52.65c-.7-1.11-1.11-2.54-1.11-4.34,0-5.18,3.36-9.38,7.5-9.38s7.5,4.2,7.5,9.38c0,1.8-.41,3.23-1.12,4.35-1.81,.71-4.02,1.05-6.4,1.05s-4.57-.34-6.38-1.05Z"/>
      <path class="cls-10" d="M360.96,52.65c1.81,.71,4,1.05,6.38,1.05s4.59-.34,6.4-1.05c-1.32,2.09-3.68,3.04-6.38,3.04,0,0-.01,0-.02,0-2.71,0-5.07-.95-6.39-3.05Z"/>
      <path class="cls-9" d="M360.33,42.02c0,5.07,3.44,7.24,7.67,7.24,4.24,0,7.67-2.17,7.67-7.24s-3.44-9.19-7.67-9.19-7.67,4.11-7.67,9.19Z"/>
      <path class="cls-5" d="M377.72,45.62c2.8,2.59,2.15,4,.91,5.34s-2.6,2.09-5.39-.5c-2.8-2.59-4.06-5.77-2.82-7.11,1.24-1.34,4.51-.32,7.3,2.27Z"/>
      <path class="cls-1" d="M355.46,37.54c0,6.57,5.32,9.38,11.89,9.38s11.89-2.81,11.89-9.38c0-6.57-5.32-11.89-11.89-11.89-6.57,0-11.89,5.32-11.89,11.89Z"/>
      <ellipse class="cls-8" cx="361.83" cy="40.58" rx="1.47" ry="2.45"/>
      <path class="cls-6" d="M357.02,31.67h0c2.05-3.6,5.9-6.02,10.34-6.02,6.57,0,11.89,5.32,11.89,11.89,0,4.29-2.28,6.97-5.7,8.32-2.48-1.4-4.15-3.72-4.15-3.72-.49,.65-1.63,1.22-1.63,1.22-1.52-2.92-1.82-6.38-1.82-6.38-5.09-1.63-8.93-5.3-8.93-5.3Z"/>
      <path class="cls-6" d="M355.79,34.82c.53-2.26,1.7-4.27,3.31-5.82,.92,.61,1.82,1.54,2.08,2.21,1.31,3.38,.15,6.03,.15,6.03-3,0-4.52-1.24-5.53-2.42Z"/>
      <path class="cls-4" d="M356.64,32.41h0s7.83,.88,15.28,4.9c.54,.29,1.08,.6,1.62,.93,.03,.02,.06,.03,.08,.05,.52,.32,1.03,.65,1.53,1,.04,.03,.09,.06,.13,.09,.5,.35,.98,.71,1.46,1.1,.04,.03,.08,.07,.12,.1,.49,.4,.96,.81,1.42,1.24,.42,.39,.82,.76,1.21,1.1,.48,.43,1.21,.02,1.14-.61-.1-.91-.5-2.01-1.51-3.17,.08-.51,.13-1.04,.13-1.6,0-6.57-5.32-11.89-11.89-11.89-4.73,0-8.8,2.77-10.72,6.77Zm1.21-1.99c.71-.95,1.57-1.8,2.53-2.5,.96,.86,1.44,2.11,1.32,3.35h0s-1.72-.53-3.85-.85Z"/>
    </g>
    <g>
      <rect class="cls-2" x="160" y="0" width="32" height="64"/>
      <g>
        <path class="cls-8" d="M177.97,60c-1.28,0-2.36-.59-3.29-1.8-.45,.21-.89,.31-1.34,.31-1.06,0-2.09-.55-3.35-1.78-.72-.7-2.64-2.57-2.06-4.91-1.55-.09-2.42-1.18-3.01-2.12-1.35-2.19-1.02-3.97,1.11-5.65-.19-.21-.36-.43-.53-.66-.11,.1-.22,.2-.33,.29-.31,.28-.71,.43-1.11,.43-.48,0-.94-.21-1.26-.57-.32-.36-.48-.85-.42-1.33,.13-1.16,.62-2.29,1.46-3.36-.05-.46-.08-.88-.08-1.3,0-7.11,5.78-12.89,12.89-12.89s12.89,5.78,12.89,12.89c0,3.27-1.23,5.91-3.56,7.71,1.22,.99,1.88,1.94,2.06,2.95,.22,1.25-.37,2.3-.92,3.07-.64,.91-1.57,1.95-3.14,1.95,0,0-.08,0-.12,0-.05,.08-.11,.16-.16,.24,.96,2.13,.3,3.68-2.15,5.25-1.35,.87-2.52,1.29-3.58,1.29Z"/>
        <path class="cls-8" d="M176.65,25.65c6.57,0,11.89,5.32,11.89,11.89,0,3.7-1.69,6.21-4.34,7.69,.16,.1,.32,.19,.48,.3,3.12,2.19,2.67,3.68,1.62,5.17-.6,.86-1.27,1.53-2.32,1.53-.21,0-.43-.03-.68-.08-.09,.17-.17,.35-.26,.51-.16,.25-.33,.49-.52,.7,1.02,1.82,.88,2.99-1.51,4.52-1.17,.75-2.17,1.13-3.04,1.13-1.11,0-2.01-.62-2.81-1.86-.06-.1-.12-.2-.18-.3-.56,.43-1.08,.67-1.64,.67-.77,0-1.59-.46-2.66-1.49-1.99-1.94-2.38-3.53-1.21-5.17-.02-.09-.05-.18-.07-.27-.48,.17-.9,.25-1.27,.25-1.14,0-1.8-.73-2.38-1.66-.95-1.53-1.31-3.03,1.82-5-.76-.66-1.4-1.44-1.87-2.35,0,0,0,0,0,0-.42,.39-.82,.76-1.21,1.1-.14,.12-.29,.18-.45,.18-.38,0-.74-.34-.69-.79,.1-.91,.5-2.01,1.51-3.17-.08-.51-.13-1.04-.13-1.6,0-6.57,5.32-11.89,11.89-11.89m0-2c-7.66,0-13.89,6.23-13.89,13.89,0,.33,.01,.67,.05,1.02-.8,1.12-1.28,2.31-1.41,3.54-.09,.77,.16,1.54,.67,2.11,.44,.49,1.03,.8,1.67,.88-.95,1.55-.83,3.26,.34,5.14,.35,.57,1.18,1.9,2.76,2.4-.01,1.39,.61,3.02,2.47,4.82,.99,.96,2.34,2.06,4.05,2.06,.35,0,.69-.05,1.03-.14,1.02,1.08,2.23,1.63,3.6,1.63,1.25,0,2.6-.47,4.12-1.44,2.47-1.58,3.41-3.34,2.89-5.45,1.65-.4,2.58-1.71,2.96-2.26,1.66-2.37,1.52-4.54-.46-6.57,2.01-1.94,3.06-4.57,3.06-7.74,0-7.66-6.23-13.89-13.89-13.89h0Z"/>
      </g>
      <path class="cls-9" d="M167.68,44.1c-3.24,2.01-2.88,3.52-1.92,5.07,.96,1.55,2.15,2.55,5.39,.54,3.24-2.01,5.09-4.89,4.13-6.43-.96-1.55-4.36-1.18-7.6,.83Z"/>
      <path class="cls-7" d="M175.16,57.14c1.42,2.23,3.18,2.44,5.85,.74,2.67-1.71,2.53-2.96,1.11-5.19-1.42-2.23-3.05-3.73-5.72-2.02s-2.67,4.25-1.24,6.47Z"/>
      <path class="cls-10" d="M170.06,50.15c-1.84,1.89-1.65,3.65,.62,5.86,2.27,2.21,3.46,1.79,5.3-.1s2.94-3.82,.66-6.03c-2.27-2.21-4.74-1.63-6.59,.27Z"/>
      <path class="cls-5" d="M183.04,52.65c.7-1.11,1.11-2.54,1.11-4.34,0-5.18-3.36-9.38-7.5-9.38s-7.5,4.2-7.5,9.38c0,1.8,.41,3.23,1.12,4.35,1.81,.71,4.02,1.05,6.4,1.05s4.57-.34,6.38-1.05Z"/>
      <path class="cls-10" d="M183.04,52.65c-1.81,.71-4,1.05-6.38,1.05s-4.59-.34-6.4-1.05c1.32,2.09,3.68,3.04,6.38,3.04,0,0,.01,0,.02,0,2.71,0,5.07-.95,6.39-3.05Z"/>
      <path class="cls-9" d="M184.67,42.02c0,5.07-3.44,7.24-7.67,7.24s-7.67-2.17-7.67-7.24,3.44-9.19,7.67-9.19,7.67,4.11,7.67,9.19Z"/>
      <path class="cls-5" d="M180.89,50.93c3.12,2.19,4.37,1.26,5.41-.23,1.05-1.49,1.49-2.98-1.62-5.17-3.12-2.19-6.5-2.76-7.54-1.27s.63,4.47,3.75,6.66Z"/>
      <path class="cls-1" d="M188.54,37.54c0,6.57-5.32,9.38-11.89,9.38s-11.89-2.81-11.89-9.38,5.32-11.89,11.89-11.89,11.89,5.32,11.89,11.89Z"/>
      <ellipse class="cls-8" cx="182.17" cy="40.58" rx="1.47" ry="2.45"/>
      <path class="cls-6" d="M186.98,31.67h0c-2.05-3.6-5.9-6.02-10.34-6.02-6.57,0-11.89,5.32-11.89,11.89,0,4.29,2.28,6.97,5.7,8.32,2.48-1.4,4.15-3.72,4.15-3.72,.49,.65,1.63,1.22,1.63,1.22,1.52-2.92,1.82-6.38,1.82-6.38,5.09-1.63,8.93-5.3,8.93-5.3Z"/>
      <path class="cls-6" d="M188.21,34.82c-.53-2.26-1.7-4.27-3.31-5.82-.92,.61-1.82,1.54-2.08,2.21-1.31,3.38-.15,6.03-.15,6.03,3,0,4.52-1.24,5.53-2.42Z"/>
      <path class="cls-4" d="M176.65,25.65c-6.57,0-11.89,5.32-11.89,11.89,0,.56,.05,1.09,.13,1.6-1.01,1.16-1.41,2.26-1.51,3.17-.07,.64,.66,1.04,1.14,.61,.39-.34,.79-.71,1.21-1.1,.46-.43,.94-.84,1.42-1.24,.04-.03,.08-.07,.12-.1,.48-.38,.96-.75,1.46-1.1,.04-.03,.09-.06,.13-.09,.5-.35,1.02-.69,1.53-1,.03-.02,.06-.03,.08-.05,.54-.33,1.08-.64,1.62-.93,7.45-4.02,15.28-4.9,15.28-4.9h0c-1.92-4-5.99-6.77-10.72-6.77Zm5.66,5.63h0c-.12-1.25,.36-2.49,1.32-3.35,.96,.7,1.81,1.54,2.53,2.5-2.12,.32-3.85,.85-3.85,.85Z"/>
    </g>
    <g>
      <rect class="cls-2" x="320" y="0" width="32" height="64" transform="translate(672 64) rotate(-180)"/>
      <g>
        <path class="cls-8" d="M334.03,60c-1.05,0-2.22-.42-3.58-1.29-2.45-1.57-3.1-3.12-2.15-5.25-.06-.08-.11-.16-.16-.24-.04,0-.08,0-.12,0-1.57,0-2.5-1.04-3.14-1.95-.54-.77-1.14-1.82-.92-3.07,.18-1.01,.84-1.96,2.06-2.95-2.34-1.81-3.56-4.45-3.56-7.71,0-7.11,5.78-12.89,12.89-12.89s12.89,5.78,12.89,12.89c0,.42-.03,.84-.08,1.3,.84,1.07,1.33,2.2,1.46,3.36,.05,.49-.1,.97-.42,1.33-.32,.36-.78,.57-1.26,.57-.41,0-.8-.15-1.11-.43-.11-.1-.22-.19-.33-.29-.17,.23-.34,.45-.53,.66,2.13,1.69,2.47,3.47,1.11,5.65-.59,.95-1.46,2.03-3.01,2.12,.57,2.35-1.35,4.22-2.06,4.91-1.26,1.23-2.3,1.78-3.35,1.78-.45,0-.89-.1-1.34-.31-.92,1.21-2,1.8-3.29,1.8Z"/>
        <path class="cls-8" d="M335.35,25.65c6.57,0,11.89,5.32,11.89,11.89,0,.56-.05,1.09-.13,1.6,1.01,1.16,1.41,2.26,1.51,3.17,.05,.45-.31,.79-.69,.79-.15,0-.31-.05-.45-.18-.39-.34-.79-.71-1.21-1.1,0,0,0,0,0,0-.47,.91-1.1,1.69-1.87,2.35,3.12,1.97,2.76,3.47,1.82,5-.58,.93-1.24,1.66-2.38,1.66-.37,0-.79-.08-1.27-.25-.02,.09-.04,.18-.07,.27,1.17,1.64,.78,3.23-1.21,5.17-1.06,1.04-1.89,1.49-2.66,1.49-.56,0-1.08-.24-1.64-.67-.06,.1-.11,.2-.18,.3-.8,1.25-1.7,1.86-2.81,1.86-.87,0-1.87-.38-3.04-1.13-2.39-1.53-2.53-2.69-1.51-4.52-.19-.22-.36-.45-.52-.7-.1-.16-.18-.34-.26-.51-.24,.06-.47,.08-.68,.08-1.05,0-1.72-.67-2.32-1.53-1.05-1.49-1.49-2.98,1.62-5.17,.16-.11,.32-.2,.48-.3-2.65-1.48-4.34-3.99-4.34-7.69,0-6.57,5.32-11.89,11.89-11.89m0-2c-7.66,0-13.89,6.23-13.89,13.89,0,3.16,1.05,5.79,3.06,7.74-1.98,2.03-2.12,4.2-.46,6.57,.39,.55,1.31,1.86,2.96,2.26-.52,2.11,.42,3.87,2.89,5.45,1.52,.97,2.87,1.44,4.12,1.44,1.37,0,2.58-.55,3.6-1.63,.34,.09,.68,.14,1.03,.14,1.71,0,3.07-1.1,4.05-2.06,1.85-1.8,2.48-3.43,2.47-4.82,1.58-.51,2.4-1.83,2.76-2.4,1.17-1.89,1.28-3.59,.34-5.14,.64-.08,1.24-.39,1.67-.88,.51-.57,.76-1.34,.67-2.11-.14-1.23-.61-2.42-1.41-3.54,.03-.35,.05-.68,.05-1.02,0-7.66-6.23-13.89-13.89-13.89h0Z"/>
      </g>
      <path class="cls-9" d="M344.32,44.1c3.24,2.01,2.88,3.52,1.92,5.07s-2.15,2.55-5.39,.54c-3.24-2.01-5.09-4.89-4.13-6.43,.96-1.55,4.36-1.18,7.6,.83Z"/>
      <path class="cls-7" d="M336.84,57.14c-1.42,2.23-3.18,2.44-5.85,.74s-2.53-2.96-1.11-5.19c1.42-2.23,3.05-3.73,5.72-2.02s2.67,4.25,1.24,6.47Z"/>
      <path class="cls-10" d="M341.94,50.15c1.84,1.89,1.65,3.65-.62,5.86-2.27,2.21-3.46,1.79-5.3-.1-1.84-1.89-2.94-3.82-.66-6.03,2.27-2.21,4.74-1.63,6.59,.27Z"/>
      <path class="cls-5" d="M328.96,52.65c-.7-1.11-1.11-2.54-1.11-4.34,0-5.18,3.36-9.38,7.5-9.38s7.5,4.2,7.5,9.38c0,1.8-.41,3.23-1.12,4.35-1.81,.71-4.02,1.05-6.4,1.05s-4.57-.34-6.38-1.05Z"/>
      <path class="cls-10" d="M328.96,52.65c1.81,.71,4,1.05,6.38,1.05s4.59-.34,6.4-1.05c-1.32,2.09-3.68,3.04-6.38,3.04,0,0-.01,0-.02,0-2.71,0-5.07-.95-6.39-3.05Z"/>
      <path class="cls-9" d="M327.33,42.02c0,5.07,3.44,7.24,7.67,7.24s7.67-2.17,7.67-7.24-3.44-9.19-7.67-9.19-7.67,4.11-7.67,9.19Z"/>
      <path class="cls-5" d="M331.11,50.93c-3.12,2.19-4.37,1.26-5.41-.23-1.05-1.49-1.49-2.98,1.62-5.17,3.12-2.19,6.5-2.76,7.54-1.27s-.63,4.47-3.75,6.66Z"/>
      <path class="cls-1" d="M323.46,37.54c0,6.57,5.32,9.38,11.89,9.38s11.89-2.81,11.89-9.38c0-6.57-5.32-11.89-11.89-11.89s-11.89,5.32-11.89,11.89Z"/>
      <ellipse class="cls-8" cx="329.83" cy="40.58" rx="1.47" ry="2.45"/>
      <path class="cls-6" d="M325.02,31.67h0c2.05-3.6,5.9-6.02,10.34-6.02,6.57,0,11.89,5.32,11.89,11.89,0,4.29-2.28,6.97-5.7,8.32-2.48-1.4-4.15-3.72-4.15-3.72-.49,.65-1.63,1.22-1.63,1.22-1.52-2.92-1.82-6.38-1.82-6.38-5.09-1.63-8.93-5.3-8.93-5.3Z"/>
      <path class="cls-6" d="M323.79,34.82c.53-2.26,1.7-4.27,3.31-5.82,.92,.61,1.82,1.54,2.08,2.21,1.31,3.38,.15,6.03,.15,6.03-3,0-4.52-1.24-5.53-2.42Z"/>
      <path class="cls-4" d="M324.64,32.41h0s7.83,.88,15.28,4.9c.54,.29,1.08,.6,1.62,.93,.03,.02,.06,.03,.08,.05,.52,.32,1.03,.65,1.53,1,.04,.03,.09,.06,.13,.09,.5,.35,.98,.71,1.46,1.1,.04,.03,.08,.07,.12,.1,.49,.4,.96,.81,1.42,1.24,.42,.39,.82,.76,1.21,1.1,.48,.43,1.21,.02,1.14-.61-.1-.91-.5-2.01-1.51-3.17,.08-.51,.13-1.04,.13-1.6,0-6.57-5.32-11.89-11.89-11.89-4.73,0-8.8,2.77-10.72,6.77Zm1.21-1.99c.71-.95,1.57-1.8,2.53-2.5,.96,.86,1.44,2.11,1.32,3.35h0s-1.72-.53-3.85-.85Z"/>
    </g>
    <g>
      <rect class="cls-2" x="288" y="0" width="32" height="64" transform="translate(608 64) rotate(-180)"/>
      <g>
        <path class="cls-8" d="M303.67,62c-3.27,0-4.83-1.04-5.23-3.56-.96-.58-1.74-1.34-2.32-2.26-.84-1.33-1.26-2.97-1.26-4.87,0-.79,.07-1.58,.22-2.36-3.02-1.79-4.61-4.68-4.61-8.41,0-7.11,5.78-12.89,12.89-12.89s12.89,5.78,12.89,12.89c0,.42-.03,.84-.08,1.3,.84,1.07,1.33,2.2,1.46,3.36,.05,.49-.1,.97-.42,1.33-.32,.36-.78,.57-1.26,.57-.41,0-.8-.15-1.11-.43-.11-.1-.22-.19-.33-.29-.73,1.02-1.69,1.88-2.87,2.57,.15,.77,.22,1.56,.22,2.36,0,1.9-.43,3.55-1.27,4.88-.18,.29-.39,.56-.64,.84-.16,3.34-2.22,4.96-6.28,4.96Z"/>
        <path class="cls-8" d="M303.35,28.65c6.57,0,11.89,5.32,11.89,11.89,0,.56-.05,1.09-.13,1.6,1.01,1.16,1.41,2.26,1.51,3.17,.05,.45-.31,.79-.69,.79-.15,0-.31-.05-.45-.18-.39-.34-.79-.71-1.21-1.1,0,0,0,0,0,0-.82,1.6-2.14,2.78-3.79,3.61,.23,.91,.36,1.87,.36,2.87,0,1.8-.41,3.23-1.12,4.35-.23,.36-.5,.68-.79,.97-.01,3.06-1.6,4.37-5.29,4.37-3.17,0-4.1-.97-4.3-3.18-.97-.5-1.8-1.21-2.41-2.17-.7-1.11-1.11-2.54-1.11-4.34,0-1,.13-1.97,.36-2.87-2.88-1.45-4.75-4.01-4.75-7.9,0-6.57,5.32-11.89,11.89-11.89m0-2c-7.66,0-13.89,6.23-13.89,13.89,0,3.8,1.59,6.91,4.52,8.9-.09,.62-.13,1.24-.13,1.87,0,2.09,.48,3.91,1.42,5.4,.59,.93,1.35,1.72,2.27,2.35,.81,3.51,3.83,3.94,6.13,3.94,5.46,0,7.01-2.86,7.25-5.56,.19-.23,.36-.47,.51-.71,.94-1.5,1.42-3.32,1.42-5.42,0-.63-.04-1.25-.13-1.86,.73-.49,1.37-1.05,1.93-1.67,.39,.22,.83,.33,1.28,.33,.76,0,1.49-.33,2.01-.9,.51-.57,.76-1.34,.67-2.11-.14-1.23-.61-2.42-1.41-3.54,.03-.35,.05-.68,.05-1.02,0-7.66-6.23-13.89-13.89-13.89h0Z"/>
      </g>
      <path class="cls-10" d="M308.96,56.6c0,3.08-1.59,4.4-5.29,4.4-3.7,0-4.35-1.32-4.35-4.4,0-3.08,.65-5.58,4.35-5.58s5.29,2.5,5.29,5.58Z"/>
      <path class="cls-5" d="M296.96,55.65c-.7-1.11-1.11-2.54-1.11-4.34,0-5.18,3.36-9.38,7.5-9.38s7.5,4.2,7.5,9.38c0,1.8-.41,3.23-1.12,4.35-1.81,.71-4.02,1.05-6.4,1.05s-4.57-.34-6.38-1.05Z"/>
      <path class="cls-10" d="M296.96,55.65c1.81,.71,4,1.05,6.38,1.05s4.59-.34,6.4-1.05c-1.32,2.09-3.68,3.04-6.38,3.04,0,0-.01,0-.02,0-2.71,0-5.07-.95-6.39-3.05Z"/>
      <path class="cls-9" d="M304.25,35.84v16.43c-4.64,0-8.4-2.17-8.4-7.24,0-5.07,3.76-9.19,8.4-9.19Z"/>
      <path class="cls-5" d="M308.95,54.27c-.85,3.72-2.39,3.86-4.17,3.46-1.78-.4-3.11-1.21-2.26-4.92,.85-3.72,2.97-6.4,4.75-6s2.53,3.74,1.68,7.46Z"/>
      <path class="cls-1" d="M291.46,40.54c0,6.57,5.32,9.38,11.89,9.38s11.89-2.81,11.89-9.38c0-6.57-5.32-11.89-11.89-11.89s-11.89,5.32-11.89,11.89Z"/>
      <ellipse class="cls-8" cx="297.83" cy="43.58" rx="1.47" ry="2.45"/>
      <path class="cls-1" d="M303.35,58.7s0,0,0,0c0,0,.01,0,.02,0,0,0,0,0-.01,0Z"/>
      <path class="cls-6" d="M293.02,34.67h0c2.05-3.6,5.9-6.02,10.34-6.02,6.57,0,11.89,5.32,11.89,11.89,0,4.29-2.28,6.97-5.7,8.32-2.48-1.4-4.15-3.72-4.15-3.72-.49,.65-1.63,1.22-1.63,1.22-1.52-2.92-1.82-6.38-1.82-6.38-5.09-1.63-8.93-5.3-8.93-5.3Z"/>
      <path class="cls-6" d="M291.79,37.82c.53-2.26,1.7-4.27,3.31-5.82,.92,.61,1.82,1.54,2.08,2.21,1.31,3.38,.15,6.03,.15,6.03-3,0-4.52-1.24-5.53-2.42Z"/>
      <path class="cls-4" d="M292.64,35.41h0s7.83,.88,15.28,4.9c.54,.29,1.08,.6,1.62,.93,.03,.02,.06,.03,.08,.05,.52,.32,1.03,.65,1.53,1,.04,.03,.09,.06,.13,.09,.5,.35,.98,.71,1.46,1.1,.04,.03,.08,.07,.12,.1,.49,.4,.96,.81,1.42,1.24,.42,.39,.82,.76,1.21,1.1,.48,.43,1.21,.02,1.14-.61-.1-.91-.5-2.01-1.51-3.17,.08-.51,.13-1.04,.13-1.6,0-6.57-5.32-11.89-11.89-11.89-4.73,0-8.8,2.77-10.72,6.77Zm1.21-1.99c.71-.95,1.57-1.8,2.53-2.5,.96,.86,1.44,2.11,1.32,3.35h0s-1.72-.53-3.85-.85Z"/>
    </g>
    <g>
      <rect class="cls-2" x="224" y="0" width="32" height="64"/>
      <g>
        <path class="cls-8" d="M244.43,60c-2.1,0-3.43-1.11-3.95-3.31-.16,0-.33,0-.48,0-.23,0-.47,0-.72-.02-.76,1.32-2.32,1.32-3.72,1.32-3.6,0-4.9-2.31-4.93-4.33-1.11-.82-1.41-2.35-1.54-3.51-.2-1.82,0-3.55,.55-4.83-1.69-1.75-2.54-4.03-2.54-6.79,0-7.11,5.78-12.89,12.89-12.89s12.89,5.78,12.89,12.89c0,2.38-.65,4.42-1.93,6.07,.21,.53,.31,1.16,.31,1.91-.01,2.13-.84,3.96-2.12,4.88,.14,.68,.21,1.41,.21,2.2,0,4.55-1.43,6.4-4.93,6.4Z"/>
        <path class="cls-8" d="M240,26.65c6.57,0,11.89,5.32,11.89,11.89,0,2.52-.79,4.49-2.13,5.96,.33,.42,.52,1.06,.52,2.02-.01,2.14-.99,3.91-2.28,4.37,0,0,0,0,0,0,.25,.8,.37,1.72,.37,2.7,0,4.21-1.18,5.4-3.93,5.4-2.1,0-2.87-1.36-3.13-3.37-.43,.04-.86,.07-1.31,.07s-.92-.03-1.37-.07c-.3,1.2-1.11,1.37-3.07,1.37-2.75,0-3.93-1.56-3.93-3.4,0-.17,0-.34,.01-.5-.77-.29-1.34-1.1-1.56-3.04-.22-2.04,.11-3.88,.8-4.92-1.73-1.52-2.78-3.68-2.78-6.59,0-6.57,5.32-11.89,11.89-11.89m0-2c-7.66,0-13.89,6.23-13.89,13.89,0,2.75,.82,5.14,2.39,7.01-.44,1.34-.59,2.98-.4,4.72,.08,.74,.29,2.65,1.56,3.88,.24,2.49,2.09,4.85,5.91,4.85,1.22,0,3.05,0,4.19-1.26,1.02,2.79,3.28,3.26,4.68,3.26,5.26,0,5.93-3.96,5.93-7.4,0-.63-.04-1.23-.13-1.8,1.25-1.18,2.02-3.1,2.04-5.26,0-.65-.06-1.22-.2-1.74,1.21-1.74,1.82-3.84,1.82-6.25,0-7.66-6.23-13.89-13.89-13.89h0Z"/>
      </g>
      <path class="cls-10" d="M248.37,53.6c0,4.21-1.18,5.4-3.93,5.4s-3.23-2.32-3.23-5.4,.48-5.58,3.23-5.58,3.93,2.5,3.93,5.58Z"/>
      <path class="cls-9" d="M244.44,46.48c.02-2.5,1.33-2.81,2.94-2.8s2.92,.34,2.9,2.84c-.02,2.5-1.34,4.51-2.95,4.5s-2.91-2.04-2.89-4.54Z"/>
      <path class="cls-10" d="M231.63,53.6c0,1.84,1.18,3.4,3.93,3.4s3.23-.32,3.23-3.4-.48-5.58-3.23-5.58-3.93,2.5-3.93,5.58Z"/>
      <path class="cls-5" d="M248.37,48.31c0,5.18-3.75,7.39-8.37,7.39s-8.37-2.21-8.37-7.39,3.75-9.38,8.37-9.38,8.37,4.2,8.37,9.38Z"/>
      <path class="cls-10" d="M240.02,53.7c-2.86,0-5.48-.48-7.45-1.51,1.39,2.43,1.55,3.51,7.45,3.51s6.03-1.09,7.42-3.52c-1.97,1.04-4.56,1.52-7.42,1.52Z"/>
      <path class="cls-9" d="M247.67,43.02c0,5.07-3.44,7.24-7.67,7.24s-7.67-2.17-7.67-7.24,3.44-9.19,7.67-9.19,7.67,4.11,7.67,9.19Z"/>
      <path class="cls-5" d="M230.09,50.05c.33,3.05,1.56,3.31,3.01,3.15s2.59-.68,2.26-3.73c-.33-3.05-1.79-5.39-3.24-5.23s-2.37,2.76-2.03,5.81Z"/>
      <path class="cls-6" d="M251.89,38.54c0,6.57-5.32,9.38-11.89,9.38s-11.89-2.81-11.89-9.38,5.32-11.89,11.89-11.89,11.89,5.32,11.89,11.89Z"/>
      <path class="cls-4" d="M240,26.65c-6.23,0-11.33,4.79-11.84,10.88,.51,5.86,5.62,8.39,11.84,8.39s11.33-2.53,11.84-8.39c-.51-6.09-5.62-10.88-11.84-10.88Z"/>
      <path class="cls-3" d="M240,42.92c-5.17,0-9.63-1.45-11.74-4.7,.85,5.36,5.77,9.7,11.74,9.7s10.9-4.34,11.74-9.7c-2.11,3.24-6.57,4.7-11.74,4.7Z"/>
    </g>
    <g>
      <rect class="cls-2" x="256" y="0" width="32" height="64"/>
      <g>
        <path class="cls-8" d="M267.57,60c-3.5,0-4.93-1.85-4.93-6.4,0-.79,.07-1.52,.21-2.2-1.28-.91-2.11-2.75-2.12-4.87,0-.75,.1-1.38,.31-1.91-1.28-1.65-1.93-3.69-1.93-6.07,0-7.11,5.78-12.89,12.89-12.89s12.89,5.78,12.89,12.89c0,2.76-.85,5.04-2.54,6.79,.55,1.27,.75,3,.55,4.83-.13,1.16-.43,2.69-1.54,3.51-.03,2.01-1.34,4.33-4.93,4.33-1.4,0-2.96,0-3.72-1.32-.25,.01-.48,.02-.72,.02-.16,0-.32,0-.48,0-.52,2.19-1.85,3.31-3.95,3.31Z"/>
        <path class="cls-8" d="M272,26.65c6.57,0,11.89,5.32,11.89,11.89,0,2.91-1.05,5.07-2.78,6.59,.68,1.04,1.02,2.88,.8,4.92-.21,1.94-.79,2.75-1.56,3.04,0,.17,.01,.33,.01,.5,0,1.84-1.18,3.4-3.93,3.4-1.96,0-2.76-.17-3.07-1.37-.45,.05-.9,.07-1.37,.07s-.88-.03-1.31-.07c-.25,2.01-1.03,3.37-3.13,3.37-2.75,0-3.93-1.2-3.93-5.4,0-.98,.12-1.9,.37-2.7,0,0,0,0,0,0-1.29-.46-2.27-2.24-2.28-4.37,0-.96,.19-1.6,.52-2.02-1.34-1.47-2.13-3.43-2.13-5.96,0-6.57,5.32-11.89,11.89-11.89m0-2c-7.66,0-13.89,6.23-13.89,13.89,0,2.41,.61,4.51,1.82,6.25-.14,.52-.2,1.1-.2,1.74,.01,2.17,.79,4.09,2.04,5.26-.08,.57-.13,1.17-.13,1.8,0,3.45,.67,7.4,5.93,7.4,1.4,0,3.66-.47,4.68-3.26,1.13,1.26,2.97,1.26,4.19,1.26,3.82,0,5.67-2.35,5.91-4.85,1.27-1.23,1.48-3.15,1.56-3.88,.19-1.74,.05-3.38-.4-4.72,1.57-1.87,2.39-4.26,2.39-7.01,0-7.66-6.23-13.89-13.89-13.89h0Z"/>
      </g>
      <path class="cls-9" d="M267.56,46.48c-.02-2.5-1.33-2.81-2.94-2.8s-2.92,.34-2.9,2.84c.02,2.5,1.34,4.51,2.95,4.5,1.61-.01,2.91-2.04,2.89-4.54Z"/>
      <path class="cls-10" d="M280.37,53.6c0,1.84-1.18,3.4-3.93,3.4s-3.23-.32-3.23-3.4c0-3.08,.48-5.58,3.23-5.58s3.93,2.5,3.93,5.58Z"/>
      <path class="cls-10" d="M263.63,53.6c0,4.21,1.18,5.4,3.93,5.4s3.23-2.32,3.23-5.4c0-3.08-.48-5.58-3.23-5.58s-3.93,2.5-3.93,5.58Z"/>
      <path class="cls-5" d="M280.37,48.31c0,5.18-3.75,7.39-8.37,7.39s-8.37-2.21-8.37-7.39,3.75-9.38,8.37-9.38,8.37,4.2,8.37,9.38Z"/>
      <path class="cls-10" d="M272.02,53.7c-2.86,0-5.48-.48-7.45-1.51,1.39,2.43,1.55,3.51,7.45,3.51s6.03-1.09,7.42-3.52c-1.97,1.04-4.56,1.52-7.42,1.52Z"/>
      <path class="cls-9" d="M264.33,43.02c0,5.07,3.44,7.24,7.67,7.24,4.24,0,7.67-2.17,7.67-7.24,0-5.07-3.44-9.19-7.67-9.19-4.24,0-7.67,4.11-7.67,9.19Z"/>
      <path class="cls-5" d="M281.91,50.05c-.33,3.05-1.56,3.31-3.01,3.15s-2.59-.68-2.26-3.73c.33-3.05,1.79-5.39,3.24-5.23s2.37,2.76,2.03,5.81Z"/>
      <path class="cls-6" d="M260.11,38.54c0,6.57,5.32,9.38,11.89,9.38s11.89-2.81,11.89-9.38c0-6.57-5.32-11.89-11.89-11.89s-11.89,5.32-11.89,11.89Z"/>
      <path class="cls-4" d="M272,26.65c-6.23,0-11.33,4.79-11.84,10.88,.51,5.86,5.62,8.39,11.84,8.39s11.33-2.53,11.84-8.39c-.51-6.09-5.62-10.88-11.84-10.88Z"/>
      <path class="cls-3" d="M272,42.92c-5.17,0-9.63-1.45-11.74-4.7,.85,5.36,5.77,9.7,11.74,9.7s10.9-4.34,11.74-9.7c-2.11,3.24-6.57,4.7-11.74,4.7Z"/>
    </g>
  </g>
</svg>