<?xml version="1.0" encoding="UTF-8"?>
<svg id="Layer_2" data-name="Layer 2" xmlns="http://www.w3.org/2000/svg" viewBox="0 0 384 64">
  <defs>
    <style>
      .cls-1 {
        fill: #fff;
      }

      .cls-2 {
        fill: #9ee651;
        opacity: 0;
      }

      .cls-3 {
        fill: #8dd63e;
      }

      .cls-4 {
        fill: #cbe0de;
      }

      .cls-5 {
        fill: #ffd640;
      }

      .cls-6 {
        fill: #1dbff0;
      }

      .cls-7 {
        fill: #604369;
      }

      .cls-8 {
        fill: #f25d4a;
      }
    </style>
  </defs>
  <g id="Finals">
    <g>
      <rect class="cls-2" y="0" width="32" height="64"/>
      <g>
        <path class="cls-7" d="M20.43,62c-2.1,0-3.33-.72-3.87-2.31-.19,0-.38,.01-.56,.01s-.37,0-.56-.01c-.54,1.59-1.77,2.31-3.87,2.31-3.32,0-4.93-1.77-4.93-5.4,0-.37,.02-.73,.05-1.08-.82,0-1.52-.38-2.03-.7-2.14-1.35-2.36-3.11-.72-5.72,.45-.72,.97-1.38,1.53-1.96-1.57-1.72-2.36-3.94-2.36-6.6,0-7.11,5.78-12.89,12.89-12.89s12.89,5.78,12.89,12.89c0,2.66-.79,4.87-2.36,6.6,.56,.57,1.08,1.23,1.53,1.96,1.64,2.61,1.42,4.37-.72,5.72-.52,.32-1.21,.7-2.03,.7,.03,.35,.05,.71,.05,1.08,0,3.63-1.61,5.4-4.93,5.4Z"/>
        <path class="cls-7" d="M16,28.65c6.57,0,11.89,5.32,11.89,11.89,0,2.93-1.06,5.1-2.82,6.62,.75,.6,1.5,1.44,2.14,2.46,1.63,2.59,.84,3.56-.4,4.34-.5,.31-.99,.55-1.51,.55-.41,0-.83-.14-1.28-.5,.23,.77,.34,1.65,.34,2.59,0,3.08-1.18,4.4-3.93,4.4-2.04,0-2.83-.73-3.1-2.37-.43,.04-.88,.07-1.33,.07s-.9-.03-1.33-.07c-.27,1.64-1.06,2.37-3.1,2.37-2.75,0-3.93-1.32-3.93-4.4,0-.93,.11-1.81,.34-2.59-.45,.36-.87,.5-1.28,.5-.52,0-1.01-.23-1.51-.55-1.24-.78-2.04-1.75-.4-4.34,.64-1.02,1.39-1.86,2.14-2.46-1.75-1.52-2.82-3.69-2.82-6.62,0-6.57,5.32-11.89,11.89-11.89m0-2c-7.66,0-13.89,6.23-13.89,13.89,0,2.53,.7,4.77,2.04,6.56-.38,.45-.74,.94-1.06,1.46-1.93,3.07-1.58,5.45,1.03,7.1,.38,.24,.9,.53,1.52,.71,0,.08,0,.16,0,.23,0,5.29,3.23,6.4,5.93,6.4,2.13,0,3.61-.72,4.43-2.15,.82,1.43,2.31,2.15,4.43,2.15,2.71,0,5.93-1.11,5.93-6.4,0-.08,0-.16,0-.23,.62-.17,1.14-.47,1.52-.71,2.61-1.64,2.96-4.03,1.03-7.1-.33-.52-.68-1.01-1.06-1.46,1.34-1.8,2.04-4.03,2.04-6.56,0-7.66-6.23-13.89-13.89-13.89h0Z"/>
      </g>
      <g>
        <path class="cls-5" d="M24.37,56.6c0,3.08-1.18,4.4-3.93,4.4s-3.23-1.32-3.23-4.4,.48-5.58,3.23-5.58,3.93,2.5,3.93,5.58Z"/>
        <path class="cls-6" d="M27.22,49.63c1.63,2.59,.84,3.56-.4,4.34-1.24,.78-2.45,1.08-4.09-1.51s-1.95-5.33-.71-6.11c1.24-.78,3.57,.69,5.2,3.29Z"/>
        <path class="cls-8" d="M4.78,49.63c-1.63,2.59-.84,3.56,.4,4.34s2.45,1.08,4.09-1.51c1.63-2.59,1.95-5.33,.71-6.11s-3.57,.69-5.2,3.29Z"/>
        <path class="cls-3" d="M7.63,56.6c0,3.08,1.18,4.4,3.93,4.4s3.23-1.32,3.23-4.4-.48-5.58-3.23-5.58-3.93,2.5-3.93,5.58Z"/>
        <path class="cls-1" d="M24.37,51.31c0,5.18-3.75,7.39-8.37,7.39s-8.37-2.21-8.37-7.39,3.75-9.38,8.37-9.38,8.37,4.2,8.37,9.38Z"/>
        <path class="cls-4" d="M24.77,45.02c0,5.07-3.93,7.24-8.77,7.24s-8.77-2.17-8.77-7.24,3.93-9.19,8.77-9.19,8.77,4.11,8.77,9.19Z"/>
        <path class="cls-1" d="M27.89,40.54c0,6.57-5.32,9.38-11.89,9.38s-11.89-2.81-11.89-9.38,5.32-11.89,11.89-11.89,11.89,5.32,11.89,11.89Z"/>
        <g>
          <ellipse class="cls-7" cx="20.48" cy="43.58" rx="1.47" ry="2.45"/>
          <ellipse class="cls-7" cx="11.52" cy="43.58" rx="1.47" ry="2.45"/>
        </g>
      </g>
    </g>
    <g>
      <rect class="cls-2" x="96" y="0" width="32" height="64"/>
      <g>
        <path class="cls-7" d="M112.33,62c-4.05,0-6.1-1.62-6.28-4.94-1.27-1.45-1.91-3.38-1.91-5.75,0-.79,.07-1.58,.22-2.36-3.02-1.79-4.61-4.68-4.61-8.41,0-7.11,5.78-12.89,12.89-12.89s12.89,5.78,12.89,12.89c0,3.73-1.59,6.62-4.61,8.41,.15,.77,.22,1.56,.22,2.36,0,4.05-1.85,6.11-3.59,7.15-.41,2.51-1.96,3.54-5.23,3.54Z"/>
        <path class="cls-7" d="M112.65,28.65c6.57,0,11.89,5.32,11.89,11.89,0,3.88-1.87,6.44-4.75,7.9,.23,.91,.36,1.87,.36,2.87,0,3.35-1.41,5.45-3.52,6.52-.21,2.2-1.14,3.17-4.3,3.17-3.68,0-5.27-1.3-5.29-4.34-1.18-1.2-1.9-2.95-1.9-5.35,0-1,.13-1.97,.36-2.87-2.88-1.45-4.75-4.01-4.75-7.9,0-6.57,5.32-11.89,11.89-11.89m0-2c-7.66,0-13.89,6.23-13.89,13.89,0,3.8,1.59,6.91,4.52,8.9-.09,.62-.13,1.24-.13,1.87,0,2.44,.67,4.55,1.94,6.14,.25,2.69,1.8,5.55,7.25,5.55,2.29,0,5.31-.43,6.12-3.93,2.39-1.62,3.69-4.34,3.69-7.77,0-.63-.04-1.25-.13-1.87,2.93-1.99,4.52-5.1,4.52-8.9,0-7.66-6.23-13.89-13.89-13.89h0Z"/>
      </g>
      <g>
        <path class="cls-3" d="M107.04,56.6c0,3.08,1.59,4.4,5.29,4.4s4.35-1.32,4.35-4.4-.65-5.58-4.35-5.58-5.29,2.5-5.29,5.58Z"/>
        <path class="cls-1" d="M120.15,51.31c0,5.18-3.36,7.39-7.5,7.39s-7.5-2.21-7.5-7.39,3.36-9.38,7.5-9.38,7.5,4.2,7.5,9.38Z"/>
        <path class="cls-4" d="M111.75,35.84v16.43c4.64,0,8.4-2.17,8.4-7.24s-3.76-9.19-8.4-9.19Z"/>
        <path class="cls-8" d="M107.05,54.27c.85,3.72,2.39,3.86,4.17,3.46,1.78-.4,3.11-1.21,2.26-4.92-.85-3.72-2.97-6.4-4.75-6s-2.53,3.74-1.68,7.46Z"/>
        <path class="cls-1" d="M124.54,40.54c0,6.57-5.32,9.38-11.89,9.38s-11.89-2.81-11.89-9.38,5.32-11.89,11.89-11.89,11.89,5.32,11.89,11.89Z"/>
        <ellipse class="cls-7" cx="118.17" cy="43.58" rx="1.47" ry="2.45"/>
      </g>
    </g>
    <g>
      <rect class="cls-2" x="128" y="0" width="32" height="64"/>
      <g>
        <path class="cls-7" d="M145.97,60c-1.28,0-2.36-.59-3.29-1.8-.45,.21-.89,.31-1.34,.31-1.06,0-2.09-.55-3.35-1.78-1.27-1.23-1.97-2.41-2.12-3.56-.1,0-.21,.01-.31,.01-1.33,0-2.26-.82-2.92-1.54-.64-.69-1.37-1.65-1.32-2.92,.05-1.21,.78-2.43,2.29-3.83,.2-.19,.41-.37,.63-.55-1.62-1.74-2.48-4.03-2.48-6.71,0-7.11,5.78-12.89,12.89-12.89s12.89,5.78,12.89,12.89c0,2.78-.9,5.13-2.63,6.88,2.69,1.43,2.51,3.38,2,4.99-.26,.81-.95,2.97-3.67,2.97h0c-.28,0-.58-.02-.89-.07-.18,.4-.39,.77-.63,1.11,.92,2.1,.26,3.63-2.18,5.19-1.35,.87-2.52,1.29-3.58,1.29Z"/>
        <path class="cls-7" d="M144.65,25.74c6.57,0,11.89,5.32,11.89,11.89,0,3.3-1.35,5.65-3.52,7.17,3.47,1.16,3.48,2.69,2.93,4.4-.41,1.27-1.01,2.27-2.71,2.27-.43,0-.93-.06-1.52-.21-.27,.84-.67,1.55-1.17,2.14,.98,1.79,.82,2.95-1.54,4.46-1.17,.75-2.17,1.13-3.04,1.13-1.11,0-2.01-.62-2.81-1.86-.06-.1-.12-.2-.18-.3-.56,.43-1.08,.67-1.64,.67-.77,0-1.59-.46-2.66-1.49-1.62-1.57-2.16-2.92-1.68-4.25-.54,.29-1.02,.41-1.45,.41-.88,0-1.55-.53-2.19-1.22-1.24-1.34-1.88-2.75,.91-5.34,.49-.46,1-.84,1.51-1.2-1.88-1.52-3.03-3.75-3.03-6.79,0-6.57,5.32-11.89,11.89-11.89m0-2c-7.66,0-13.89,6.23-13.89,13.89,0,2.56,.71,4.8,2.08,6.6-1.66,1.56-2.46,2.98-2.52,4.45-.07,1.65,.87,2.87,1.59,3.64,.67,.72,1.7,1.66,3.17,1.83,.35,1.1,1.09,2.2,2.22,3.3,.99,.96,2.34,2.06,4.05,2.06,.35,0,.69-.05,1.03-.14,1.02,1.08,2.23,1.63,3.6,1.63,1.25,0,2.6-.47,4.12-1.44,1.73-1.11,3.78-2.88,2.75-5.92,.03-.06,.07-.11,.1-.17,.1,0,.21,0,.31,0,3.45,0,4.33-2.76,4.62-3.66,.76-2.37,.29-4.19-1.43-5.52,1.39-1.81,2.11-4.07,2.11-6.66,0-7.66-6.23-13.89-13.89-13.89h0Z"/>
      </g>
      <g>
        <path class="cls-6" d="M150.86,51.03c3.63,1.16,4.54-.1,5.1-1.83s.54-3.29-3.09-4.45c-3.63-1.16-7.02-.7-7.58,1.04s1.94,4.08,5.57,5.24Z"/>
        <path class="cls-5" d="M138.06,50.15c-1.84,1.89-1.65,3.65,.62,5.86,2.27,2.21,3.46,1.79,5.3-.1s2.94-3.82,.66-6.03c-2.27-2.21-4.74-1.63-6.59,.27Z"/>
        <path class="cls-3" d="M143.16,57.14c1.42,2.23,3.18,2.44,5.85,.74,2.67-1.71,2.53-2.96,1.11-5.19-1.42-2.23-3.05-3.73-5.72-2.02s-2.67,4.25-1.24,6.47Z"/>
        <path class="cls-1" d="M152.15,48.4c0,5.18-3.36,7.39-7.5,7.39s-7.5-2.21-7.5-7.39,3.36-9.38,7.5-9.38,7.5,4.2,7.5,9.38Z"/>
        <path class="cls-4" d="M151.67,42.02c0,5.07-3.44,7.24-7.67,7.24s-7.67-2.17-7.67-7.24,3.44-9.19,7.67-9.19,7.67,4.11,7.67,9.19Z"/>
        <path class="cls-8" d="M134.28,45.62c-2.8,2.59-2.15,4-.91,5.34s2.6,2.09,5.39-.5c2.8-2.59,4.06-5.77,2.82-7.11-1.24-1.34-4.51-.32-7.3,2.27Z"/>
        <path class="cls-1" d="M156.54,37.63c0,6.57-5.32,9.38-11.89,9.38s-11.89-2.81-11.89-9.38,5.32-11.89,11.89-11.89,11.89,5.32,11.89,11.89Z"/>
        <ellipse class="cls-7" cx="151.17" cy="39.67" rx="1.47" ry="2.45"/>
      </g>
    </g>
    <g>
      <rect class="cls-2" x="160" y="0" width="32" height="64"/>
      <g>
        <path class="cls-7" d="M177.97,60c-1.28,0-2.36-.59-3.29-1.8-.45,.21-.89,.31-1.34,.31-1.06,0-2.09-.55-3.35-1.78-.71-.69-2.64-2.57-2.06-4.91-1.55-.09-2.42-1.18-3.01-2.12-.93-1.5-1.59-3.46,1.07-5.61-1.48-1.7-2.23-3.87-2.23-6.45,0-7.11,5.78-12.89,12.89-12.89s12.89,5.78,12.89,12.89c0,3.24-1.21,5.86-3.51,7.67,1.19,.97,1.83,1.91,2,2.9,.22,1.25-.37,2.3-.92,3.07-.64,.91-1.57,1.95-3.14,1.95,0,0-.04,0-.06,0-.06,.1-.13,.2-.2,.3,.92,2.1,.26,3.63-2.18,5.19-1.35,.87-2.52,1.29-3.58,1.29Z"/>
        <path class="cls-7" d="M176.65,25.74c6.57,0,11.89,5.32,11.89,11.89,0,3.66-1.66,6.15-4.26,7.64,.13,.09,.27,.16,.4,.25,3.12,2.19,2.67,3.68,1.62,5.17-.6,.86-1.27,1.52-2.32,1.52-.19,0-.4-.02-.61-.07-.23,.47-.5,.89-.81,1.26,.98,1.79,.82,2.95-1.54,4.46-1.17,.75-2.17,1.13-3.04,1.13-1.11,0-2.01-.62-2.81-1.86-.06-.1-.12-.2-.18-.3-.56,.43-1.08,.67-1.64,.67-.77,0-1.59-.46-2.66-1.49-1.98-1.92-2.37-3.51-1.23-5.13-.03-.1-.05-.2-.07-.3-.47,.16-.88,.24-1.24,.24-1.14,0-1.8-.73-2.38-1.66-.94-1.52-1.3-3.01,1.75-4.96-1.72-1.52-2.76-3.68-2.76-6.58,0-6.57,5.32-11.89,11.89-11.89m0-2c-7.66,0-13.89,6.23-13.89,13.89,0,2.42,.64,4.57,1.87,6.33-1.83,1.85-2.01,3.91-.56,6.26,.35,.57,1.18,1.9,2.76,2.41-.01,1.39,.61,3.02,2.47,4.82,.99,.96,2.34,2.06,4.05,2.06,.35,0,.69-.05,1.03-.14,1.02,1.08,2.23,1.63,3.6,1.63,1.25,0,2.6-.47,4.12-1.44,1.64-1.05,3.56-2.7,2.89-5.45,1.66-.4,2.58-1.71,2.96-2.26,.6-.86,1.37-2.19,1.08-3.82-.17-.95-.65-1.84-1.49-2.71,1.98-1.94,3.01-4.55,3.01-7.69,0-7.66-6.23-13.89-13.89-13.89h0Z"/>
      </g>
      <g>
        <path class="cls-6" d="M167.68,44.1c-3.24,2.01-2.88,3.52-1.92,5.07,.96,1.55,2.15,2.55,5.39,.54,3.24-2.01,5.09-4.89,4.13-6.43-.96-1.55-4.36-1.18-7.6,.83Z"/>
        <path class="cls-5" d="M175.16,57.14c1.42,2.23,3.18,2.44,5.85,.74,2.67-1.71,2.53-2.96,1.11-5.19-1.42-2.23-3.05-3.73-5.72-2.02s-2.67,4.25-1.24,6.47Z"/>
        <path class="cls-3" d="M170.06,50.15c-1.84,1.89-1.65,3.65,.62,5.86,2.27,2.21,3.46,1.79,5.3-.1s2.94-3.82,.66-6.03c-2.27-2.21-4.74-1.63-6.59,.27Z"/>
        <path class="cls-1" d="M184.15,48.4c0,5.18-3.36,7.39-7.5,7.39s-7.5-2.21-7.5-7.39,3.36-9.38,7.5-9.38,7.5,4.2,7.5,9.38Z"/>
        <path class="cls-4" d="M184.67,42.02c0,5.07-3.44,7.24-7.67,7.24s-7.67-2.17-7.67-7.24,3.44-9.19,7.67-9.19,7.67,4.11,7.67,9.19Z"/>
        <path class="cls-8" d="M180.89,50.93c3.12,2.19,4.37,1.26,5.41-.23,1.05-1.49,1.49-2.98-1.62-5.17-3.12-2.19-6.5-2.76-7.54-1.27s.63,4.47,3.75,6.66Z"/>
        <path class="cls-1" d="M188.54,37.63c0,6.57-5.32,9.38-11.89,9.38s-11.89-2.81-11.89-9.38,5.32-11.89,11.89-11.89,11.89,5.32,11.89,11.89Z"/>
        <ellipse class="cls-7" cx="183.17" cy="39.67" rx="1.47" ry="2.45"/>
      </g>
    </g>
    <g>
      <rect class="cls-2" x="288" y="0" width="32" height="64" transform="translate(608 64) rotate(-180)"/>
      <g>
        <path class="cls-7" d="M303.67,62c-3.27,0-4.82-1.03-5.23-3.54-1.74-1.04-3.59-3.1-3.59-7.15,0-.79,.07-1.58,.22-2.36-3.02-1.79-4.61-4.68-4.61-8.41,0-7.11,5.78-12.89,12.89-12.89s12.89,5.78,12.89,12.89c0,3.73-1.59,6.62-4.61,8.41,.15,.77,.22,1.56,.22,2.36,0,2.37-.64,4.3-1.91,5.75-.17,3.32-2.23,4.94-6.28,4.94Z"/>
        <path class="cls-7" d="M303.35,28.65c6.57,0,11.89,5.32,11.89,11.89,0,3.88-1.87,6.44-4.75,7.9,.23,.91,.36,1.87,.36,2.87,0,2.39-.72,4.15-1.9,5.35-.02,3.04-1.61,4.34-5.29,4.34-3.16,0-4.09-.97-4.3-3.17-2.11-1.07-3.52-3.18-3.52-6.52,0-1,.13-1.97,.36-2.87-2.88-1.45-4.75-4.01-4.75-7.9,0-6.57,5.32-11.89,11.89-11.89m0-2c-7.66,0-13.89,6.23-13.89,13.89,0,3.8,1.59,6.91,4.52,8.9-.09,.62-.13,1.24-.13,1.87,0,3.43,1.3,6.15,3.69,7.77,.82,3.49,3.83,3.93,6.12,3.93,5.45,0,7-2.86,7.25-5.55,1.27-1.59,1.94-3.7,1.94-6.14,0-.63-.04-1.25-.13-1.87,2.93-1.99,4.52-5.1,4.52-8.9,0-7.66-6.23-13.89-13.89-13.89h0Z"/>
      </g>
      <g>
        <path class="cls-5" d="M308.96,56.6c0,3.08-1.59,4.4-5.29,4.4s-4.35-1.32-4.35-4.4,.65-5.58,4.35-5.58,5.29,2.5,5.29,5.58Z"/>
        <path class="cls-1" d="M295.85,51.31c0,5.18,3.36,7.39,7.5,7.39s7.5-2.21,7.5-7.39-3.36-9.38-7.5-9.38-7.5,4.2-7.5,9.38Z"/>
        <path class="cls-4" d="M304.25,35.84v16.43c-4.64,0-8.4-2.17-8.4-7.24s3.76-9.19,8.4-9.19Z"/>
        <path class="cls-6" d="M308.95,54.27c-.85,3.72-2.39,3.86-4.17,3.46s-3.11-1.21-2.26-4.92,2.97-6.4,4.75-6c1.78,.4,2.53,3.74,1.68,7.46Z"/>
        <path class="cls-1" d="M291.46,40.54c0,6.57,5.32,9.38,11.89,9.38s11.89-2.81,11.89-9.38c0-6.57-5.32-11.89-11.89-11.89s-11.89,5.32-11.89,11.89Z"/>
        <ellipse class="cls-7" cx="297.83" cy="43.58" rx="1.47" ry="2.45"/>
      </g>
    </g>
    <g>
      <rect class="cls-2" x="352" y="0" width="32" height="64" transform="translate(736 64) rotate(-180)"/>
      <g>
        <path class="cls-7" d="M366.03,60c-1.05,0-2.22-.42-3.58-1.29-2.43-1.56-3.1-3.09-2.18-5.19-.24-.35-.45-.72-.63-1.11-.31,.04-.61,.07-.89,.07-2.72,0-3.41-2.16-3.67-2.97-.52-1.61-.69-3.56,2-4.99-1.73-1.75-2.63-4.1-2.63-6.88,0-7.11,5.78-12.89,12.89-12.89s12.89,5.78,12.89,12.89c0,2.68-.85,4.97-2.48,6.71,.22,.18,.43,.36,.63,.55,1.51,1.4,2.24,2.62,2.29,3.83,.05,1.27-.68,2.23-1.32,2.92-.66,.72-1.6,1.54-2.92,1.54h0c-.1,0-.21,0-.31-.01-.15,1.15-.85,2.33-2.12,3.56-1.26,1.23-2.3,1.78-3.35,1.78-.45,0-.89-.1-1.34-.31-.92,1.21-2,1.8-3.29,1.8Z"/>
        <path class="cls-7" d="M367.35,25.74c6.57,0,11.89,5.32,11.89,11.89,0,3.04-1.15,5.27-3.03,6.79,.51,.35,1.02,.74,1.51,1.2,2.8,2.59,2.15,4,.91,5.34-.64,.69-1.31,1.22-2.19,1.22-.43,0-.9-.12-1.45-.41,.48,1.33-.07,2.67-1.68,4.25-1.06,1.04-1.89,1.49-2.66,1.49-.55,0-1.08-.24-1.64-.67-.06,.1-.11,.2-.18,.3-.8,1.25-1.7,1.86-2.81,1.86-.87,0-1.87-.38-3.04-1.13-2.37-1.51-2.53-2.67-1.54-4.46-.5-.59-.89-1.31-1.17-2.14-.59,.14-1.09,.21-1.52,.21-1.71,0-2.31-1.01-2.71-2.27-.55-1.71-.53-3.24,2.93-4.4-2.17-1.52-3.52-3.87-3.52-7.17,0-6.57,5.32-11.89,11.89-11.89m0-2c-7.66,0-13.89,6.23-13.89,13.89,0,2.6,.72,4.86,2.11,6.66-1.72,1.32-2.19,3.15-1.43,5.52,.29,.91,1.17,3.66,4.62,3.66,.1,0,.2,0,.31,0,.03,.06,.06,.11,.1,.17-1.03,3.04,1.02,4.81,2.75,5.92,1.52,.97,2.87,1.44,4.12,1.44,1.37,0,2.58-.55,3.6-1.63,.34,.09,.68,.14,1.03,.14,1.71,0,3.07-1.1,4.05-2.06,1.13-1.1,1.87-2.2,2.22-3.3,1.47-.17,2.51-1.11,3.17-1.83,.71-.77,1.65-1.98,1.59-3.64-.06-1.47-.86-2.89-2.52-4.45,1.37-1.8,2.08-4.05,2.08-6.6,0-7.66-6.23-13.89-13.89-13.89h0Z"/>
      </g>
      <g>
        <path class="cls-3" d="M373.94,50.15c1.84,1.89,1.65,3.65-.62,5.86-2.27,2.21-3.46,1.79-5.3-.1-1.84-1.89-2.94-3.82-.66-6.03,2.27-2.21,4.74-1.63,6.59,.27Z"/>
        <path class="cls-5" d="M368.84,57.14c-1.42,2.23-3.18,2.44-5.85,.74s-2.53-2.96-1.11-5.19c1.42-2.23,3.05-3.73,5.72-2.02s2.67,4.25,1.24,6.47Z"/>
        <path class="cls-8" d="M361.14,51.03c-3.63,1.16-4.54-.1-5.1-1.83s-.54-3.29,3.09-4.45c3.63-1.16,7.02-.7,7.58,1.04,.56,1.73-1.94,4.08-5.57,5.24Z"/>
        <path class="cls-1" d="M359.85,48.4c0,5.18,3.36,7.39,7.5,7.39s7.5-2.21,7.5-7.39c0-5.18-3.36-9.38-7.5-9.38-4.14,0-7.5,4.2-7.5,9.38Z"/>
        <path class="cls-4" d="M375.67,42.02c0,5.07-3.44,7.24-7.67,7.24s-7.67-2.17-7.67-7.24,3.44-9.19,7.67-9.19,7.67,4.11,7.67,9.19Z"/>
        <path class="cls-6" d="M377.72,45.62c2.8,2.59,2.15,4,.91,5.34s-2.6,2.09-5.39-.5c-2.8-2.59-4.06-5.77-2.82-7.11s4.51-.32,7.3,2.27Z"/>
        <path class="cls-1" d="M355.46,37.63c0,6.57,5.32,9.38,11.89,9.38s11.89-2.81,11.89-9.38c0-6.57-5.32-11.89-11.89-11.89s-11.89,5.32-11.89,11.89Z"/>
        <ellipse class="cls-7" cx="360.83" cy="39.67" rx="1.47" ry="2.45"/>
      </g>
    </g>
    <g>
      <rect class="cls-2" x="320" y="0" width="32" height="64" transform="translate(672 64) rotate(-180)"/>
      <g>
        <path class="cls-7" d="M334.03,60c-1.05,0-2.22-.42-3.58-1.29-2.43-1.56-3.1-3.09-2.18-5.19-.07-.1-.13-.2-.2-.3-.02,0-.04,0-.06,0-1.57,0-2.5-1.04-3.14-1.95-.54-.77-1.14-1.82-.92-3.07,.18-1,.82-1.93,2-2.9-2.3-1.81-3.51-4.43-3.51-7.67,0-7.11,5.78-12.89,12.89-12.89s12.89,5.78,12.89,12.89c0,2.58-.75,4.75-2.23,6.45,2.66,2.15,2,4.11,1.07,5.62-.59,.95-1.46,2.03-3.01,2.12,.58,2.35-1.35,4.22-2.06,4.91-1.26,1.23-2.3,1.78-3.35,1.78-.45,0-.89-.1-1.34-.31-.92,1.21-2,1.8-3.29,1.8Z"/>
        <path class="cls-7" d="M335.35,25.74c6.57,0,11.89,5.32,11.89,11.89,0,2.9-1.04,5.06-2.77,6.57,3.06,1.95,2.7,3.44,1.76,4.96-.58,.93-1.24,1.66-2.38,1.66-.36,0-.78-.07-1.25-.24-.02,.1-.03,.21-.06,.3,1.14,1.63,.75,3.21-1.23,5.13-1.06,1.04-1.89,1.49-2.66,1.49-.55,0-1.08-.24-1.64-.67-.06,.1-.11,.2-.18,.3-.8,1.25-1.7,1.86-2.81,1.86-.87,0-1.87-.38-3.04-1.13-2.37-1.51-2.53-2.67-1.54-4.46-.31-.37-.58-.79-.81-1.26-.22,.05-.42,.07-.61,.07-1.05,0-1.72-.67-2.32-1.52-1.05-1.49-1.49-2.98,1.62-5.17,.13-.09,.27-.17,.4-.25-2.6-1.49-4.26-3.98-4.26-7.64,0-6.57,5.32-11.89,11.89-11.89m0-2c-7.66,0-13.89,6.23-13.89,13.89,0,3.13,1.03,5.74,3.01,7.69-.84,.87-1.32,1.76-1.49,2.71-.29,1.63,.48,2.96,1.08,3.82,.38,.55,1.31,1.86,2.96,2.26-.68,2.75,1.25,4.4,2.89,5.45,1.52,.97,2.87,1.44,4.12,1.44,1.37,0,2.58-.55,3.6-1.63,.34,.09,.68,.14,1.03,.14,1.71,0,3.07-1.1,4.05-2.06,1.85-1.8,2.48-3.44,2.47-4.82,1.58-.5,2.4-1.83,2.76-2.41,1.46-2.35,1.28-4.42-.56-6.27,1.23-1.75,1.87-3.9,1.87-6.32,0-7.66-6.23-13.89-13.89-13.89h0Z"/>
      </g>
      <g>
        <path class="cls-3" d="M336.84,57.14c-1.42,2.23-3.18,2.44-5.85,.74s-2.53-2.96-1.11-5.19c1.42-2.23,3.05-3.73,5.72-2.02s2.67,4.25,1.24,6.47Z"/>
        <path class="cls-5" d="M341.94,50.15c1.84,1.89,1.65,3.65-.62,5.86-2.27,2.21-3.46,1.79-5.3-.1-1.84-1.89-2.94-3.82-.66-6.03s4.74-1.63,6.59,.27Z"/>
        <path class="cls-8" d="M344.32,44.1c3.24,2.01,2.88,3.52,1.92,5.07s-2.15,2.55-5.39,.54c-3.24-2.01-5.09-4.89-4.13-6.43s4.36-1.18,7.6,.83Z"/>
        <path class="cls-1" d="M327.85,48.4c0,5.18,3.36,7.39,7.5,7.39s7.5-2.21,7.5-7.39c0-5.18-3.36-9.38-7.5-9.38-4.14,0-7.5,4.2-7.5,9.38Z"/>
        <path class="cls-4" d="M342.67,42.02c0,5.07-3.44,7.24-7.67,7.24s-7.67-2.17-7.67-7.24,3.44-9.19,7.67-9.19,7.67,4.11,7.67,9.19Z"/>
        <path class="cls-6" d="M331.11,50.93c-3.12,2.19-4.37,1.26-5.41-.23-1.05-1.49-1.49-2.98,1.62-5.17,3.12-2.19,6.5-2.76,7.54-1.27s-.63,4.47-3.75,6.66Z"/>
        <path class="cls-1" d="M323.46,37.63c0,6.57,5.32,9.38,11.89,9.38s11.89-2.81,11.89-9.38c0-6.57-5.32-11.89-11.89-11.89s-11.89,5.32-11.89,11.89Z"/>
        <ellipse class="cls-7" cx="328.83" cy="39.67" rx="1.47" ry="2.45"/>
      </g>
    </g>
    <g>
      <rect class="cls-2" x="32" y="0" width="32" height="64"/>
      <g>
        <path class="cls-7" d="M52.43,60c-2.1,0-3.43-1.11-3.95-3.31-.16,0-.33,0-.48,0-.23,0-.47,0-.72-.02-.76,1.32-2.32,1.32-3.72,1.32-3.64,0-4.93-2.37-4.93-4.4,0-.32,.01-.63,.04-.94-.75-.1-1.62-.33-2.24-1.09-.65-.8-.88-1.97-.72-3.67,.13-1.38,.49-2.68,1.01-3.72-1.07-1.57-1.61-3.46-1.61-5.63,0-7.11,5.78-12.89,12.89-12.89s12.89,5.78,12.89,12.89c0,2.56-.75,4.71-2.22,6.42,.09,.27,.16,.55,.22,.86,.44,2.44-.28,4.66-1.73,5.64,.13,.66,.2,1.38,.2,2.14,0,4.55-1.43,6.4-4.93,6.4Z"/>
        <path class="cls-7" d="M48,26.65c6.57,0,11.89,5.32,11.89,11.89,0,2.68-.9,4.72-2.39,6.21,.17,.33,.31,.72,.41,1.24,.43,2.37-.42,4.51-1.91,4.91,.25,.8,.37,1.71,.37,2.69,0,4.21-1.18,5.4-3.93,5.4-2.1,0-2.87-1.36-3.13-3.37-.43,.04-.86,.07-1.31,.07s-.92-.03-1.37-.07c-.3,1.2-1.11,1.37-3.07,1.37-2.75,0-3.93-1.56-3.93-3.4,0-.66,.06-1.3,.17-1.89-.08,0-.17,0-.26,0-.17,0-.35-.01-.54-.03-1.46-.14-2.6-.65-2.3-3.7,.15-1.56,.6-2.94,1.2-3.9-1.13-1.42-1.8-3.25-1.8-5.55,0-6.57,5.32-11.89,11.89-11.89m0-2c-7.66,0-13.89,6.23-13.89,13.89,0,2.16,.5,4.07,1.48,5.71-.44,1.05-.74,2.27-.87,3.54-.3,3.1,.68,5,2.92,5.66,0,.05,0,.1,0,.14,0,2.69,1.83,5.4,5.93,5.4,1.22,0,3.06,0,4.19-1.26,1.02,2.79,3.28,3.26,4.68,3.26,5.26,0,5.93-3.96,5.93-7.4,0-.6-.04-1.18-.12-1.73,1.41-1.33,2.09-3.69,1.63-6.22-.03-.16-.06-.31-.1-.45,1.4-1.82,2.11-4.05,2.11-6.65,0-7.66-6.23-13.89-13.89-13.89h0Z"/>
      </g>
      <g>
        <path class="cls-6" d="M52.17,47.04c-.45-2.46,.78-3,2.37-3.29s2.93-.21,3.38,2.25-.48,4.68-2.06,4.97-3.23-1.47-3.68-3.92Z"/>
        <path class="cls-5" d="M56.37,53.6c0,4.21-1.18,5.4-3.93,5.4s-3.23-2.32-3.23-5.4,.48-5.58,3.23-5.58,3.93,2.5,3.93,5.58Z"/>
        <path class="cls-3" d="M39.63,53.6c0,1.84,1.18,3.4,3.93,3.4s3.23-.32,3.23-3.4-.48-5.58-3.23-5.58-3.93,2.5-3.93,5.58Z"/>
        <path class="cls-1" d="M56.37,48.31c0,5.18-3.75,7.39-8.37,7.39s-8.37-2.21-8.37-7.39,3.75-9.38,8.37-9.38,8.37,4.2,8.37,9.38Z"/>
        <path class="cls-4" d="M56.77,43.02c0,5.07-3.93,7.24-8.77,7.24s-8.77-2.17-8.77-7.24,3.93-9.19,8.77-9.19,8.77,4.11,8.77,9.19Z"/>
        <path class="cls-8" d="M36.71,47.99c-.3,3.05,.85,3.56,2.3,3.7s2.68-.13,2.98-3.19c.3-3.05-.64-5.64-2.1-5.78s-2.88,2.22-3.18,5.27Z"/>
        <path class="cls-1" d="M59.89,38.54c0,6.57-5.32,9.38-11.89,9.38s-11.89-2.81-11.89-9.38,5.32-11.89,11.89-11.89,11.89,5.32,11.89,11.89Z"/>
        <g>
          <ellipse class="cls-7" cx="52.48" cy="41.58" rx="1.47" ry="2.45"/>
          <ellipse class="cls-7" cx="43.52" cy="41.58" rx="1.47" ry="2.45"/>
        </g>
      </g>
    </g>
    <g>
      <rect class="cls-2" x="64" y="0" width="32" height="64"/>
      <g>
        <path class="cls-7" d="M75.57,60c-3.5,0-4.93-1.85-4.93-6.4,0-.76,.07-1.48,.2-2.14-1.44-.98-2.17-3.2-1.73-5.64,.06-.31,.13-.59,.22-.86-1.47-1.71-2.22-3.86-2.22-6.42,0-7.11,5.78-12.89,12.89-12.89s12.89,5.78,12.89,12.89c0,2.16-.54,4.05-1.61,5.63,.52,1.05,.87,2.34,1.01,3.72,.17,1.71-.06,2.87-.72,3.67-.62,.76-1.5,1-2.24,1.09,.02,.31,.04,.62,.04,.94,0,2.03-1.29,4.4-4.93,4.4-1.4,0-2.96,0-3.72-1.32-.25,.01-.48,.02-.72,.02-.16,0-.32,0-.48,0-.52,2.19-1.85,3.31-3.95,3.31Z"/>
        <path class="cls-7" d="M80,26.65c6.57,0,11.89,5.32,11.89,11.89,0,2.3-.66,4.13-1.8,5.55,.6,.96,1.04,2.33,1.2,3.9,.3,3.05-.85,3.56-2.3,3.7-.18,.02-.36,.03-.54,.03-.09,0-.17,0-.26,0,.11,.59,.17,1.23,.17,1.89,0,1.84-1.18,3.4-3.93,3.4-1.96,0-2.76-.17-3.07-1.37-.45,.05-.9,.07-1.37,.07s-.88-.03-1.31-.07c-.25,2.01-1.03,3.37-3.13,3.37-2.75,0-3.93-1.2-3.93-5.4,0-.97,.12-1.89,.37-2.69-1.49-.4-2.34-2.54-1.91-4.91,.09-.52,.24-.92,.41-1.24-1.49-1.49-2.39-3.54-2.39-6.21,0-6.57,5.32-11.89,11.89-11.89m0-2c-7.66,0-13.89,6.23-13.89,13.89,0,2.6,.71,4.83,2.11,6.65-.04,.15-.07,.3-.1,.45-.46,2.54,.21,4.89,1.63,6.22-.08,.55-.12,1.13-.12,1.73,0,3.45,.67,7.4,5.93,7.4,1.4,0,3.66-.47,4.68-3.26,1.13,1.26,2.97,1.26,4.19,1.26,4.1,0,5.93-2.71,5.93-5.4,0-.05,0-.1,0-.14,2.24-.66,3.22-2.56,2.92-5.66-.12-1.28-.42-2.5-.87-3.54,.98-1.64,1.48-3.55,1.48-5.71,0-7.66-6.23-13.89-13.89-13.89h0Z"/>
      </g>
      <g>
        <path class="cls-8" d="M75.83,47.04c.45-2.46-.78-3-2.37-3.29s-2.93-.21-3.38,2.25c-.45,2.46,.48,4.68,2.06,4.97s3.23-1.47,3.68-3.92Z"/>
        <path class="cls-3" d="M71.63,53.6c0,4.21,1.18,5.4,3.93,5.4s3.23-2.32,3.23-5.4c0-3.08-.48-5.58-3.23-5.58s-3.93,2.5-3.93,5.58Z"/>
        <path class="cls-5" d="M88.37,53.6c0,1.84-1.18,3.4-3.93,3.4s-3.23-.32-3.23-3.4c0-3.08,.48-5.58,3.23-5.58s3.93,2.5,3.93,5.58Z"/>
        <path class="cls-1" d="M71.63,48.31c0,5.18,3.75,7.39,8.37,7.39,4.62,0,8.37-2.21,8.37-7.39,0-5.18-3.75-9.38-8.37-9.38s-8.37,4.2-8.37,9.38Z"/>
        <path class="cls-4" d="M71.23,43.02c0,5.07,3.93,7.24,8.77,7.24s8.77-2.17,8.77-7.24-3.93-9.19-8.77-9.19-8.77,4.11-8.77,9.19Z"/>
        <path class="cls-6" d="M91.29,47.99c.3,3.05-.85,3.56-2.3,3.7s-2.68-.13-2.98-3.19c-.3-3.05,.64-5.64,2.1-5.78s2.88,2.22,3.18,5.27Z"/>
        <path class="cls-1" d="M68.11,38.54c0,6.57,5.32,9.38,11.89,9.38s11.89-2.81,11.89-9.38c0-6.57-5.32-11.89-11.89-11.89s-11.89,5.32-11.89,11.89Z"/>
        <g>
          <ellipse class="cls-7" cx="75.52" cy="41.58" rx="1.47" ry="2.45"/>
          <ellipse class="cls-7" cx="84.48" cy="41.58" rx="1.47" ry="2.45"/>
        </g>
      </g>
    </g>
    <g>
      <rect class="cls-2" x="192" y="0" width="32" height="64"/>
      <g>
        <path class="cls-7" d="M212.43,62c-2.1,0-3.33-.72-3.87-2.31-.19,0-.38,.01-.56,.01s-.37,0-.56-.01c-.54,1.59-1.77,2.31-3.87,2.31-3.32,0-4.93-1.77-4.93-5.4,0-.37,.02-.73,.05-1.08-.82,0-1.52-.38-2.03-.7-2.14-1.35-2.36-3.11-.72-5.72,.45-.72,.97-1.38,1.53-1.96-1.57-1.72-2.36-3.94-2.36-6.6,0-7.11,5.78-12.89,12.89-12.89s12.89,5.78,12.89,12.89c0,2.66-.79,4.87-2.36,6.6,.56,.57,1.08,1.23,1.53,1.96,1.64,2.61,1.42,4.37-.72,5.72-.52,.32-1.21,.7-2.03,.7,.03,.35,.05,.71,.05,1.08,0,3.63-1.61,5.4-4.93,5.4Z"/>
        <path class="cls-7" d="M208,28.65c6.57,0,11.89,5.32,11.89,11.89,0,2.93-1.06,5.1-2.82,6.62,.75,.6,1.5,1.44,2.14,2.46,1.63,2.59,.84,3.56-.4,4.34-.5,.31-.99,.55-1.51,.55-.41,0-.83-.14-1.28-.5,.23,.77,.34,1.65,.34,2.59,0,3.08-1.18,4.4-3.93,4.4-2.04,0-2.83-.73-3.1-2.37-.43,.04-.88,.07-1.33,.07s-.9-.03-1.33-.07c-.27,1.64-1.06,2.37-3.1,2.37-2.75,0-3.93-1.32-3.93-4.4,0-.93,.11-1.81,.34-2.59-.45,.36-.87,.5-1.28,.5-.52,0-1.01-.23-1.51-.55-1.24-.78-2.04-1.75-.4-4.34,.64-1.02,1.39-1.86,2.14-2.46-1.75-1.52-2.82-3.69-2.82-6.62,0-6.57,5.32-11.89,11.89-11.89m0-2c-7.66,0-13.89,6.23-13.89,13.89,0,2.53,.7,4.77,2.04,6.56-.38,.45-.74,.94-1.06,1.46-1.93,3.07-1.58,5.45,1.03,7.1,.38,.24,.9,.53,1.52,.71,0,.08,0,.16,0,.23,0,5.29,3.23,6.4,5.93,6.4,2.13,0,3.61-.72,4.43-2.15,.82,1.43,2.31,2.15,4.43,2.15,2.71,0,5.93-1.11,5.93-6.4,0-.08,0-.16,0-.23,.62-.17,1.14-.47,1.52-.71,2.61-1.64,2.96-4.03,1.03-7.1-.33-.52-.68-1.01-1.06-1.46,1.34-1.8,2.04-4.03,2.04-6.56,0-7.66-6.23-13.89-13.89-13.89h0Z"/>
      </g>
      <g>
        <path class="cls-3" d="M216.37,56.6c0,3.08-1.18,4.4-3.93,4.4s-3.23-1.32-3.23-4.4,.48-5.58,3.23-5.58,3.93,2.5,3.93,5.58Z"/>
        <path class="cls-8" d="M219.22,49.63c1.63,2.59,.84,3.56-.4,4.34s-2.45,1.08-4.09-1.51-1.95-5.33-.71-6.11c1.24-.78,3.57,.69,5.2,3.29Z"/>
        <path class="cls-5" d="M199.63,56.6c0,3.08,1.18,4.4,3.93,4.4s3.23-1.32,3.23-4.4-.48-5.58-3.23-5.58-3.93,2.5-3.93,5.58Z"/>
        <path class="cls-6" d="M196.78,49.63c-1.63,2.59-.84,3.56,.4,4.34,1.24,.78,2.45,1.08,4.09-1.51s1.95-5.33,.71-6.11c-1.24-.78-3.57,.69-5.2,3.29Z"/>
        <path class="cls-1" d="M216.37,51.31c0,5.18-3.75,7.39-8.37,7.39s-8.37-2.21-8.37-7.39,3.75-9.38,8.37-9.38,8.37,4.2,8.37,9.38Z"/>
        <path class="cls-4" d="M215.67,45.02c0,5.07-3.44,7.24-7.67,7.24s-7.67-2.17-7.67-7.24,3.44-9.19,7.67-9.19,7.67,4.11,7.67,9.19Z"/>
        <path class="cls-1" d="M219.89,40.54c0,6.57-5.32,9.38-11.89,9.38s-11.89-2.81-11.89-9.38,5.32-11.89,11.89-11.89,11.89,5.32,11.89,11.89Z"/>
      </g>
    </g>
    <g>
      <rect class="cls-2" x="224" y="0" width="32" height="64"/>
      <g>
        <path class="cls-7" d="M244.43,60c-2.1,0-3.43-1.11-3.95-3.31-.16,0-.33,0-.48,0-.23,0-.47,0-.72-.02-.76,1.32-2.32,1.32-3.72,1.32-3.6,0-4.9-2.31-4.93-4.33-1.11-.82-1.41-2.35-1.54-3.51-.2-1.82,0-3.55,.55-4.83-1.69-1.75-2.54-4.03-2.54-6.79,0-7.11,5.78-12.89,12.89-12.89s12.89,5.78,12.89,12.89c0,2.38-.65,4.42-1.93,6.07,.21,.53,.31,1.16,.31,1.91-.01,2.13-.84,3.96-2.12,4.88,.14,.68,.21,1.41,.21,2.2,0,4.55-1.43,6.4-4.93,6.4Z"/>
        <path class="cls-7" d="M240,26.65c6.57,0,11.89,5.32,11.89,11.89,0,2.52-.79,4.49-2.13,5.96,.33,.42,.52,1.06,.52,2.02-.01,2.14-.99,3.91-2.28,4.37,0,0,0,0,0,0,.25,.8,.37,1.72,.37,2.7,0,4.21-1.18,5.4-3.93,5.4-2.1,0-2.87-1.36-3.13-3.37-.43,.04-.86,.07-1.31,.07s-.92-.03-1.37-.07c-.3,1.2-1.11,1.37-3.07,1.37-2.75,0-3.93-1.56-3.93-3.4,0-.17,0-.34,.01-.5-.77-.29-1.34-1.1-1.56-3.04-.22-2.04,.11-3.88,.8-4.92-1.73-1.52-2.78-3.68-2.78-6.59,0-6.57,5.32-11.89,11.89-11.89m0-2c-7.66,0-13.89,6.23-13.89,13.89,0,2.75,.82,5.14,2.39,7.01-.44,1.34-.59,2.98-.4,4.72,.08,.74,.29,2.65,1.56,3.88,.24,2.49,2.09,4.85,5.91,4.85,1.22,0,3.05,0,4.19-1.26,1.02,2.79,3.28,3.26,4.68,3.26,5.26,0,5.93-3.96,5.93-7.4,0-.63-.04-1.23-.13-1.8,1.25-1.18,2.02-3.1,2.04-5.26,0-.65-.06-1.22-.2-1.74,1.21-1.74,1.82-3.84,1.82-6.25,0-7.66-6.23-13.89-13.89-13.89h0Z"/>
      </g>
      <g>
        <path class="cls-3" d="M248.37,53.6c0,4.21-1.18,5.4-3.93,5.4s-3.23-2.32-3.23-5.4,.48-5.58,3.23-5.58,3.93,2.5,3.93,5.58Z"/>
        <path class="cls-8" d="M244.44,46.48c.02-2.5,1.33-2.81,2.94-2.8s2.92,.34,2.9,2.84c-.02,2.5-1.34,4.51-2.95,4.5s-2.91-2.04-2.89-4.54Z"/>
        <path class="cls-5" d="M231.63,53.6c0,1.84,1.18,3.4,3.93,3.4s3.23-.32,3.23-3.4-.48-5.58-3.23-5.58-3.93,2.5-3.93,5.58Z"/>
        <path class="cls-1" d="M248.37,48.31c0,5.18-3.75,7.39-8.37,7.39s-8.37-2.21-8.37-7.39,3.75-9.38,8.37-9.38,8.37,4.2,8.37,9.38Z"/>
        <path class="cls-4" d="M247.67,43.02c0,5.07-3.44,7.24-7.67,7.24s-7.67-2.17-7.67-7.24,3.44-9.19,7.67-9.19,7.67,4.11,7.67,9.19Z"/>
        <path class="cls-6" d="M230.09,50.05c.33,3.05,1.56,3.31,3.01,3.15s2.59-.68,2.26-3.73c-.33-3.05-1.79-5.39-3.24-5.23s-2.37,2.76-2.03,5.81Z"/>
        <path class="cls-1" d="M251.89,38.54c0,6.57-5.32,9.38-11.89,9.38s-11.89-2.81-11.89-9.38,5.32-11.89,11.89-11.89,11.89,5.32,11.89,11.89Z"/>
      </g>
    </g>
    <g>
      <rect class="cls-2" x="256" y="0" width="32" height="64"/>
      <g>
        <path class="cls-7" d="M267.57,60c-3.5,0-4.93-1.85-4.93-6.4,0-.79,.07-1.52,.21-2.2-1.28-.91-2.11-2.75-2.12-4.87,0-.75,.1-1.38,.31-1.91-1.28-1.65-1.93-3.69-1.93-6.07,0-7.11,5.78-12.89,12.89-12.89s12.89,5.78,12.89,12.89c0,2.76-.85,5.04-2.54,6.79,.55,1.27,.75,3,.55,4.83-.13,1.16-.43,2.69-1.54,3.51-.03,2.01-1.34,4.33-4.93,4.33-1.4,0-2.96,0-3.72-1.32-.25,.01-.48,.02-.72,.02-.16,0-.32,0-.48,0-.52,2.19-1.85,3.31-3.95,3.31Z"/>
        <path class="cls-7" d="M272,26.65c6.57,0,11.89,5.32,11.89,11.89,0,2.91-1.05,5.07-2.78,6.59,.68,1.04,1.02,2.88,.8,4.92-.21,1.94-.79,2.75-1.56,3.04,0,.17,.01,.33,.01,.5,0,1.84-1.18,3.4-3.93,3.4-1.96,0-2.76-.17-3.07-1.37-.45,.05-.9,.07-1.37,.07s-.88-.03-1.31-.07c-.25,2.01-1.03,3.37-3.13,3.37-2.75,0-3.93-1.2-3.93-5.4,0-.98,.12-1.9,.37-2.7,0,0,0,0,0,0-1.29-.46-2.27-2.24-2.28-4.37,0-.96,.19-1.6,.52-2.02-1.34-1.47-2.13-3.43-2.13-5.96,0-6.57,5.32-11.89,11.89-11.89m0-2c-7.66,0-13.89,6.23-13.89,13.89,0,2.41,.61,4.51,1.82,6.25-.14,.52-.2,1.1-.2,1.74,.01,2.17,.79,4.09,2.04,5.26-.08,.57-.13,1.17-.13,1.8,0,3.45,.67,7.4,5.93,7.4,1.4,0,3.66-.47,4.68-3.26,1.13,1.26,2.97,1.26,4.19,1.26,3.82,0,5.67-2.35,5.91-4.85,1.27-1.23,1.48-3.15,1.56-3.88,.19-1.74,.05-3.38-.4-4.72,1.57-1.87,2.39-4.26,2.39-7.01,0-7.66-6.23-13.89-13.89-13.89h0Z"/>
      </g>
      <g>
        <path class="cls-6" d="M267.56,46.48c-.02-2.5-1.33-2.81-2.94-2.8s-2.92,.34-2.9,2.84c.02,2.5,1.34,4.51,2.95,4.5s2.91-2.04,2.89-4.54Z"/>
        <path class="cls-3" d="M280.37,53.6c0,1.84-1.18,3.4-3.93,3.4s-3.23-.32-3.23-3.4c0-3.08,.48-5.58,3.23-5.58s3.93,2.5,3.93,5.58Z"/>
        <path class="cls-5" d="M263.63,53.6c0,4.21,1.18,5.4,3.93,5.4s3.23-2.32,3.23-5.4c0-3.08-.48-5.58-3.23-5.58s-3.93,2.5-3.93,5.58Z"/>
        <path class="cls-1" d="M263.63,48.31c0,5.18,3.75,7.39,8.37,7.39s8.37-2.21,8.37-7.39c0-5.18-3.75-9.38-8.37-9.38-4.62,0-8.37,4.2-8.37,9.38Z"/>
        <path class="cls-4" d="M264.33,43.02c0,5.07,3.44,7.24,7.67,7.24s7.67-2.17,7.67-7.24c0-5.07-3.44-9.19-7.67-9.19s-7.67,4.11-7.67,9.19Z"/>
        <path class="cls-8" d="M281.91,50.05c-.33,3.05-1.56,3.31-3.01,3.15s-2.59-.68-2.26-3.73c.33-3.05,1.79-5.39,3.24-5.23s2.37,2.76,2.03,5.81Z"/>
        <path class="cls-1" d="M260.11,38.54c0,6.57,5.32,9.38,11.89,9.38,6.57,0,11.89-2.81,11.89-9.38,0-6.57-5.32-11.89-11.89-11.89s-11.89,5.32-11.89,11.89Z"/>
      </g>
    </g>
  </g>
</svg>